<?xml version="1.0" encoding="UTF-8" standalone="no"?>
<!-- Generator: Adobe Illustrator 27.2.0, SVG Export Plug-In . SVG Version: 6.00 Build 0)  -->

<svg
   version="1.1"
   id="Layer_0_xA0_Image_00000065054451986717003880000017550101445758869390_"
   x="0px"
   y="0px"
   viewBox="0 0 201.36038 117.98702"
   xml:space="preserve"
   width="201.36038"
   height="117.98702"
   xmlns="http://www.w3.org/2000/svg"
   xmlns:svg="http://www.w3.org/2000/svg"><defs
   id="defs1" />
<g
   id="g1"
   transform="translate(-123.10021,-222.91831)">
	<path
   d="m 226.07095,321.23029 c -3.11,-0.49 -5.88,-1.03 -8.68,-1.29 -0.59,-0.06 -1.59,0.75 -1.85,1.38 -1.46,3.55 -4.43,5.11 -7.82,4.99 -5.7,-0.2 -11.39,-1.07 -17.08,-1.66 -14.22,-1.46 -28.44,-2.92 -42.65,-4.36 -6.44,-0.66 -12.93,-1.02 -19.3,-2.11 -1.8,-0.31 -3.84,-2.42 -4.7,-4.22 -0.93,-1.96 -1.03,-4.56 -0.76,-6.79 1.13,-9.32 2.53,-18.61 3.82,-27.91 0.08,-0.58 0.17,-1.16 0.18,-1.74 0.29,-10.06 0.63,-20.11 0.8,-30.17 0.05,-2.62 0.84,-4.56 2.88,-6.26 2.03,-1.69 3.78,-3.72 5.6,-5.65 1.64,-1.73 3.35,-2.78 6,-2.81 11.39,-0.15 22.8,-0.24 34.15,-1.07 13.94,-1.02 27.27,2.11 40.71,4.8 2.93,0.59 5.88,1.09 8.83,1.53 8.14,1.22 16.26,2.51 24.42,3.53 4.19,0.53 8.45,0.78 12.68,0.75 5.77,-0.04 11.05,-4.2 13.01,-9.67 0.89,-2.49 1.87,-4.96 3.05,-7.32 0.36,-0.72 1.49,-1.35 2.35,-1.48 7.96,-1.15 15.86,-1.29 23.65,1.37 3.37,1.15 6.93,1.72 10.39,2.61 4.18,1.07 7.92,5.8 8.39,10.09 1.1,10.17 -0.86,20.06 -2.53,29.98 -1.2,7.13 -2.48,14.25 -3.61,21.4 -0.2,1.27 -0.18,2.73 0.25,3.92 2.08,5.75 2.68,11.67 2.31,17.7 -0.38,6.22 -0.94,12.42 -1.45,18.63 -0.06,0.74 -0.32,1.47 -0.37,2.21 -0.3,4.53 -3.83,6.68 -7.03,8.6 -1.68,1.01 -4.38,0.69 -6.57,0.45 -10.16,-1.13 -20.26,-2.89 -30.44,-3.56 -9.01,-0.59 -16.44,-4.01 -23.34,-9.46 -1.48,-1.17 -3.85,-1.47 -5.86,-1.66 -5.62,-0.53 -11.27,-0.88 -16.91,-1.14 -2.51,-0.11 -2.88,-1.49 -2.52,-3.61 z m -23.88,-43.46 c 1.51,0.57 2.69,1.41 3.84,1.37 3.29,-0.12 6.58,-0.6 9.86,-0.96 0.47,-0.05 1.26,-0.18 1.32,-0.41 0.35,-1.58 1.21,-3.54 0.61,-4.7 -0.59,-1.14 -2.99,-2.37 -4.13,-2.02 -4.05,1.23 -8.27,2.48 -11.5,6.72 z"
   id="path1"
   style="fill:#2480a7;fill-opacity:1" />
</g>
</svg>
