<?xml version="1.0" encoding="UTF-8" standalone="no"?>
<!-- Generator: Adobe Illustrator 27.2.0, SVG Export Plug-In . SVG Version: 6.00 Build 0)  -->

<svg
   version="1.1"
   id="Layer_0_xA0_Image_00000174592381637008368220000015505435969653433238_"
   x="0px"
   y="0px"
   viewBox="0 0 262.34384 283.79721"
   xml:space="preserve"
   sodipodi:docname="b_lowercase.svg"
   width="262.34384"
   height="283.79721"
   inkscape:version="1.4 (e7c3feb1, 2024-10-09)"
   xmlns:inkscape="http://www.inkscape.org/namespaces/inkscape"
   xmlns:sodipodi="http://sodipodi.sourceforge.net/DTD/sodipodi-0.dtd"
   xmlns="http://www.w3.org/2000/svg"
   xmlns:svg="http://www.w3.org/2000/svg"><defs
   id="defs1" /><sodipodi:namedview
   id="namedview1"
   pagecolor="#ffffff"
   bordercolor="#000000"
   borderopacity="0.25"
   inkscape:showpageshadow="2"
   inkscape:pageopacity="0.0"
   inkscape:pagecheckerboard="0"
   inkscape:deskcolor="#d1d1d1"
   inkscape:zoom="0.45761612"
   inkscape:cx="151.87402"
   inkscape:cy="139.85521"
   inkscape:window-width="1120"
   inkscape:window-height="1011"
   inkscape:window-x="7"
   inkscape:window-y="33"
   inkscape:window-maximized="0"
   inkscape:current-layer="Layer_0_xA0_Image_00000174592381637008368220000015505435969653433238_" />
<g
   id="g1"
   transform="translate(-303.0348,-182.93011)"
   style="fill:#2480a7;fill-opacity:1">
	<path
   d="m 555.55,441.53 c -5.7,5.26 -10.71,10.89 -18.4,13.65 -6.32,2.27 -12.15,6.02 -18.02,9.42 -4.48,2.59 -9.11,2.54 -13.74,1.31 -6.7,-1.79 -13.19,-4.41 -19.94,-5.95 -10.75,-2.45 -21.62,-4.4 -32.47,-6.37 -7.5,-1.36 -14.1,-4.09 -19.17,-10.12 -1.25,-1.49 -3.47,-2.68 -5.41,-3 -9.72,-1.6 -19.7,-2.08 -29.19,-4.51 -7.9,-2.03 -14.95,-6.08 -21.59,-11.77 -10.41,-8.9 -22.65,-15.29 -37.15,-16.11 -8.34,-0.47 -15.77,-4.46 -21.22,-10.69 -2.13,-2.44 -2.41,-6.9 -2.66,-10.5 -0.62,-9.1 -1.33,-18.26 -0.87,-27.34 0.31,-6.24 2.99,-12.33 3.75,-18.59 0.74,-6.08 1.42,-12.5 0.31,-18.42 -2.88,-15.34 -8.7,-29.74 -15.92,-43.61 -1.11,-2.13 -0.96,-5.37 -0.37,-7.86 2.55,-10.74 5.37,-21.43 8.32,-32.07 2.21,-7.94 1.66,-16.01 2.2,-24.06 0.56,-8.42 2.59,-17.16 6.08,-24.8 1.6,-3.49 8.03,-5.56 12.66,-6.68 7.66,-1.86 14.8,1.55 21.78,4.45 1.77,0.74 3.46,1.71 5.26,2.35 9.88,3.55 12.64,12.48 16.04,20.97 1.41,3.52 2.6,7.21 4.58,10.4 4.37,7.05 4.44,11.09 -0.95,18.67 -3.46,4.86 -5.73,9.83 -2.07,15.47 1.16,1.79 2.9,3.35 4.69,4.57 6.58,4.49 13.26,8.85 19.96,13.15 5.48,3.52 11.43,4.55 17.85,3.15 14.88,-3.24 29.49,-1.17 43.8,3.08 3.65,1.09 6.85,4 9.98,6.44 6.4,4.98 12.88,9.91 18.78,15.45 2.92,2.75 4.63,6.79 6.84,10.27 7.14,11.26 16.08,20.74 27.04,28.4 12.46,8.71 23.69,19.06 31.2,32.2 6.19,10.82 9.09,23.35 7.35,36 -1.25,9.15 -4.14,18.09 -6.49,27.07 -0.54,2.13 -1.88,4.02 -2.84,5.98 z M 396.41,357.37 c 4.82,4.37 9.32,8.51 13.9,12.55 0.86,0.76 2,1.28 3.1,1.67 7.19,2.57 14.47,4.92 21.61,7.63 9.08,3.44 18.05,7.19 27.1,10.72 2.2,0.86 4.47,1.66 6.79,1.99 1.21,0.18 3.13,-0.32 3.76,-1.2 1.88,-2.61 4.01,-5.38 4.74,-8.41 3.02,-12.58 4.09,-25.39 2.94,-38.32 -0.08,-0.89 -0.62,-2 -1.31,-2.53 -3.51,-2.7 -7.24,-5.1 -10.69,-7.87 -2.31,-1.86 -3.96,-1.79 -6.61,-0.22 -6.59,3.87 -13.51,7.2 -20.36,10.61 -4.87,2.42 -9.52,-0.45 -14.27,-0.91 -6.46,-0.62 -12.94,-1.1 -19.4,-1.78 -3.5,-0.37 -6.04,0.31 -7.16,4.15 -1.21,4.07 -2.78,8.03 -4.14,11.92 z"
   id="path1"
   style="fill:#2480a7;fill-opacity:1" />
</g>
</svg>
