<?xml version="1.0" encoding="utf-8"?>
<!-- Generator: Adobe Illustrator 27.2.0, SVG Export Plug-In . SVG Version: 6.00 Build 0)  -->
<svg version="1.1" id="Calque_1" xmlns="http://www.w3.org/2000/svg" xmlns:xlink="http://www.w3.org/1999/xlink" x="0px" y="0px"
	 viewBox="0 0 595.28 841.89" style="enable-background:new 0 0 595.28 841.89;" xml:space="preserve">
<path d="M314.38,389.94c2.67,8.52,10.15,10.56,17.97,12.18c7.58,1.57,15.6,2.14,22.63,5.07c24.65,10.28,41.87,42.21,37.18,68.43
	c-3.06,17.06-12.86,29.65-28.35,37.39c-3.58,1.79-7.98,2.14-12.07,2.65c-14.91,1.87-29.72,3.09-44.43-2.17
	c-6.86-2.45-14.34-3.17-21.52-4.76c-6.32-1.39-12.8-2.34-18.88-4.44c-21.94-7.56-41.51-19.05-55.8-37.75
	c-11.52-15.08-18.28-32.27-20.78-51.28c-3.52-26.71,6.31-48.88,20.44-70.7c17.84-27.54,43.45-44.99,72.64-56.52
	c25.51-10.08,52.56-15.06,80.03-4.16c25.33,10.05,36.83,40.3,21.63,62.77c-9.29,13.74-21.35,25.65-38,31.34
	C336.25,381.69,325.58,385.83,314.38,389.94z"/>
</svg>
