<?xml version="1.0" encoding="UTF-8" standalone="no"?>
<!-- Generator: Adobe Illustrator 27.2.0, SVG Export Plug-In . SVG Version: 6.00 Build 0)  -->

<svg
   version="1.1"
   id="Calque_1"
   x="0px"
   y="0px"
   viewBox="0 0 203.32006 239.52876"
   xml:space="preserve"
   sodipodi:docname="c_lowercase.svg"
   width="203.32007"
   height="239.52876"
   inkscape:version="1.4 (e7c3feb1, 2024-10-09)"
   xmlns:inkscape="http://www.inkscape.org/namespaces/inkscape"
   xmlns:sodipodi="http://sodipodi.sourceforge.net/DTD/sodipodi-0.dtd"
   xmlns="http://www.w3.org/2000/svg"
   xmlns:svg="http://www.w3.org/2000/svg"><defs
   id="defs1" /><sodipodi:namedview
   id="namedview1"
   pagecolor="#ffffff"
   bordercolor="#000000"
   borderopacity="0.25"
   inkscape:showpageshadow="2"
   inkscape:pageopacity="0.0"
   inkscape:pagecheckerboard="0"
   inkscape:deskcolor="#d1d1d1"
   inkscape:zoom="0.10998836"
   inkscape:cx="-290.93989"
   inkscape:cy="490.96106"
   inkscape:window-width="1120"
   inkscape:window-height="1011"
   inkscape:window-x="7"
   inkscape:window-y="33"
   inkscape:window-maximized="0"
   inkscape:current-layer="Calque_1" />
<path
   d="m 124.76836,112.20793 c 2.67,8.52 10.15,10.56 17.97,12.18 7.58,1.57 15.6,2.14 22.63,5.07 24.65,10.28 41.87,42.21 37.18,68.43 -3.06,17.06 -12.86,29.65 -28.35,37.39 -3.58,1.79 -7.98,2.14 -12.07,2.65 -14.91,1.87 -29.72,3.09 -44.43,-2.17 -6.86,-2.45 -14.34,-3.17 -21.520004,-4.76 -6.32,-1.39 -12.8,-2.34 -18.88,-4.44 -21.94,-7.56 -41.51,-19.05 -55.8,-37.75 -11.5200004,-15.08 -18.2800004,-32.27 -20.78000043,-51.28 -3.51999997,-26.71 6.31000003,-48.880004 20.44000043,-70.700004 17.84,-27.54 43.45,-44.99 72.64,-56.52 25.510004,-10.07999975 52.560004,-15.0599998 80.030004,-4.1599998 25.33,10.0499998 36.83,40.2999998 21.63,62.7699998 -9.29,13.74 -21.35,25.65 -38,31.340004 -10.82,3.7 -21.49,7.84 -32.69,11.95 z"
   id="path1"
   style="fill:#2480a7;fill-opacity:1" />
</svg>
