<?xml version="1.0" encoding="utf-8"?>
<!-- Generator: Adobe Illustrator 27.2.0, SVG Export Plug-In . SVG Version: 6.00 Build 0)  -->
<svg version="1.1" id="Layer_0_xA0_Image_00000083796968549368331860000002551240393648292773_"
	 xmlns="http://www.w3.org/2000/svg" xmlns:xlink="http://www.w3.org/1999/xlink" x="0px" y="0px" viewBox="0 0 1100 610"
	 style="enable-background:new 0 0 1100 610;" xml:space="preserve">
<g>
	<path d="M394.37,289.77c9.79-13.25,22.72-22.42,29.41-37.38c7.97-17.82,18.08-34.66,26.63-52.24c5.73-11.79,10.2-24.19,15.51-36.2
		c5.37-12.15,11.08-24.14,16.64-36.2c0.79-1.71,1.58-3.42,2.5-5.4c8.78,0.83,16.52,4.56,24.18,8.58
		c6.93,3.64,13.88,7.24,20.96,10.57c6.81,3.2,10,10.46,7.23,17.53c-1.23,3.13-2.6,6.21-3.95,9.29
		c-5.02,11.43-9.96,22.89-15.11,34.26c-8.04,17.78-16.44,35.4-24.27,53.27c-10.41,23.76-20.31,47.74-30.62,71.55
		c-11.4,26.31-22.74,52.65-34.63,78.73c-6.7,14.71-14.42,28.95-21.78,43.36c-0.53,1.03-1.77,1.82-2.85,2.42
		c-4.75,2.64-9.53,5.24-14.39,7.66c-1.01,0.5-2.5,0.44-3.65,0.16c-28.15-6.93-56.33-13.77-84.42-20.95
		c-15.8-4.04-31.45-8.66-47.15-13.06c-0.72-0.2-1.59-0.55-2-1.11c-1.82-2.51-0.3-11.64,2.2-13.58c1.26-0.99,2.45-2.38,3.89-2.77
		c9.05-2.45,10.84-9.94,12.3-17.52c2.45-12.74,4.25-25.62,7.15-38.24c1.16-5.06,4.17-9.84,6.96-14.37
		c6.05-9.83,12.53-19.39,18.75-29.11c1.09-1.7,2.42-3.65,2.47-5.52c0.2-7.53,0.34-15.1-0.27-22.59c-0.42-5.13,0.68-8.73,4.79-12.12
		c3.73-3.08,6.49-7.33,9.73-11.01c0.71-0.8,1.53-1.8,2.48-2.05c4.46-1.18,8.95-2.45,13.51-3.05c2.32-0.3,5.27,0.06,7.17,1.3
		c8.16,5.35,16.06,11.1,24.02,16.76C376.44,276.9,385.09,283.13,394.37,289.77z M323.75,335.63c0.15,10.66,0.44,20.37,0.31,30.07
		c-0.03,1.81-1.46,3.83-2.74,5.34c-3.72,4.41-7.8,8.51-11.47,12.95c-0.95,1.14-1.7,3.37-1.24,4.61c3.57,9.6,6.75,19.46,11.52,28.47
		c2.91,5.5,6.04,12.23,14.32,12.56c5.58,0.22,11.12,1.26,16.7,1.52c1.9,0.09,4.24-0.59,5.75-1.75
		c16.54-12.67,32.65-25.74,36.01-48.28c0.21-1.4,1.04-2.7,1.38-4.09c1.66-6.75,3.08-13.69-0.15-20.21
		c-2.83-5.72-6.42-11.08-9.92-16.43c-6.87-10.5-18.08-11.54-29.06-12.9c-4.34-0.54-8.71-0.84-13.08-1.18
		c-1.48-0.11-3.33-0.56-4.42,0.11C332.61,329.5,327.78,332.92,323.75,335.63z"/>
</g>
</svg>
