<?xml version="1.0" encoding="UTF-8" standalone="no"?>
<!-- Generator: Adobe Illustrator 27.2.0, SVG Export Plug-In . SVG Version: 6.00 Build 0)  -->

<svg
   version="1.1"
   id="Layer_0_xA0_Image_00000083796968549368331860000002551240393648292773_"
   x="0px"
   y="0px"
   viewBox="0 0 286.61728 337.59372"
   xml:space="preserve"
   sodipodi:docname="d_lowercase.svg"
   width="286.61728"
   height="337.59372"
   inkscape:version="1.4 (e7c3feb1, 2024-10-09)"
   xmlns:inkscape="http://www.inkscape.org/namespaces/inkscape"
   xmlns:sodipodi="http://sodipodi.sourceforge.net/DTD/sodipodi-0.dtd"
   xmlns="http://www.w3.org/2000/svg"
   xmlns:svg="http://www.w3.org/2000/svg"><defs
   id="defs1" /><sodipodi:namedview
   id="namedview1"
   pagecolor="#ffffff"
   bordercolor="#000000"
   borderopacity="0.25"
   inkscape:showpageshadow="2"
   inkscape:pageopacity="0.0"
   inkscape:pagecheckerboard="0"
   inkscape:deskcolor="#d1d1d1"
   inkscape:zoom="0.14133684"
   inkscape:cx="169.80711"
   inkscape:cy="-162.73181"
   inkscape:window-width="1120"
   inkscape:window-height="1011"
   inkscape:window-x="7"
   inkscape:window-y="33"
   inkscape:window-maximized="0"
   inkscape:current-layer="Layer_0_xA0_Image_00000083796968549368331860000002551240393648292773_" />
<g
   id="g1"
   transform="translate(-251.80985,-122.35)"
   style="fill:#2480a7;fill-opacity:1">
	<path
   d="m 394.37,289.77 c 9.79,-13.25 22.72,-22.42 29.41,-37.38 7.97,-17.82 18.08,-34.66 26.63,-52.24 5.73,-11.79 10.2,-24.19 15.51,-36.2 5.37,-12.15 11.08,-24.14 16.64,-36.2 0.79,-1.71 1.58,-3.42 2.5,-5.4 8.78,0.83 16.52,4.56 24.18,8.58 6.93,3.64 13.88,7.24 20.96,10.57 6.81,3.2 10,10.46 7.23,17.53 -1.23,3.13 -2.6,6.21 -3.95,9.29 -5.02,11.43 -9.96,22.89 -15.11,34.26 -8.04,17.78 -16.44,35.4 -24.27,53.27 -10.41,23.76 -20.31,47.74 -30.62,71.55 -11.4,26.31 -22.74,52.65 -34.63,78.73 -6.7,14.71 -14.42,28.95 -21.78,43.36 -0.53,1.03 -1.77,1.82 -2.85,2.42 -4.75,2.64 -9.53,5.24 -14.39,7.66 -1.01,0.5 -2.5,0.44 -3.65,0.16 -28.15,-6.93 -56.33,-13.77 -84.42,-20.95 -15.8,-4.04 -31.45,-8.66 -47.15,-13.06 -0.72,-0.2 -1.59,-0.55 -2,-1.11 -1.82,-2.51 -0.3,-11.64 2.2,-13.58 1.26,-0.99 2.45,-2.38 3.89,-2.77 9.05,-2.45 10.84,-9.94 12.3,-17.52 2.45,-12.74 4.25,-25.62 7.15,-38.24 1.16,-5.06 4.17,-9.84 6.96,-14.37 6.05,-9.83 12.53,-19.39 18.75,-29.11 1.09,-1.7 2.42,-3.65 2.47,-5.52 0.2,-7.53 0.34,-15.1 -0.27,-22.59 -0.42,-5.13 0.68,-8.73 4.79,-12.12 3.73,-3.08 6.49,-7.33 9.73,-11.01 0.71,-0.8 1.53,-1.8 2.48,-2.05 4.46,-1.18 8.95,-2.45 13.51,-3.05 2.32,-0.3 5.27,0.06 7.17,1.3 8.16,5.35 16.06,11.1 24.02,16.76 8.68,6.16 17.33,12.39 26.61,19.03 z m -70.62,45.86 c 0.15,10.66 0.44,20.37 0.31,30.07 -0.03,1.81 -1.46,3.83 -2.74,5.34 -3.72,4.41 -7.8,8.51 -11.47,12.95 -0.95,1.14 -1.7,3.37 -1.24,4.61 3.57,9.6 6.75,19.46 11.52,28.47 2.91,5.5 6.04,12.23 14.32,12.56 5.58,0.22 11.12,1.26 16.7,1.52 1.9,0.09 4.24,-0.59 5.75,-1.75 16.54,-12.67 32.65,-25.74 36.01,-48.28 0.21,-1.4 1.04,-2.7 1.38,-4.09 1.66,-6.75 3.08,-13.69 -0.15,-20.21 -2.83,-5.72 -6.42,-11.08 -9.92,-16.43 -6.87,-10.5 -18.08,-11.54 -29.06,-12.9 -4.34,-0.54 -8.71,-0.84 -13.08,-1.18 -1.48,-0.11 -3.33,-0.56 -4.42,0.11 -5.05,3.08 -9.88,6.5 -13.91,9.21 z"
   id="path1"
   style="fill:#2480a7;fill-opacity:1" />
</g>
</svg>
