<?xml version="1.0" encoding="UTF-8" standalone="no"?>
<!-- Generator: Adobe Illustrator 27.2.0, SVG Export Plug-In . SVG Version: 6.00 Build 0)  -->

<svg
   version="1.1"
   id="Layer_0_xA0_Image_00000078748494692590444290000013745952612971550650_"
   x="0px"
   y="0px"
   viewBox="0 0 49.018898 254.77348"
   xml:space="preserve"
   sodipodi:docname="f_lowercase.svg"
   width="49.018898"
   height="254.77348"
   inkscape:version="1.4 (e7c3feb1, 2024-10-09)"
   xmlns:inkscape="http://www.inkscape.org/namespaces/inkscape"
   xmlns:sodipodi="http://sodipodi.sourceforge.net/DTD/sodipodi-0.dtd"
   xmlns="http://www.w3.org/2000/svg"
   xmlns:svg="http://www.w3.org/2000/svg"><defs
   id="defs1" /><sodipodi:namedview
   id="namedview1"
   pagecolor="#ffffff"
   bordercolor="#000000"
   borderopacity="0.25"
   inkscape:showpageshadow="2"
   inkscape:pageopacity="0.0"
   inkscape:pagecheckerboard="0"
   inkscape:deskcolor="#d1d1d1"
   inkscape:zoom="0.066157761"
   inkscape:cx="30.230769"
   inkscape:cy="120.92308"
   inkscape:window-width="1120"
   inkscape:window-height="1011"
   inkscape:window-x="7"
   inkscape:window-y="33"
   inkscape:window-maximized="0"
   inkscape:current-layer="Layer_0_xA0_Image_00000078748494692590444290000013745952612971550650_" />
<g
   id="g1"
   style="fill:#2480a7;fill-opacity:1"
   transform="translate(-298.57891,-77.689718)">
	<path
   d="m 327.34,103.69 c 0.89,-4.74 1.64,-9.52 2.73,-14.22 1.11,-4.79 4.88,-7.33 9.06,-9.04 3.32,-1.36 4.43,0.81 5.2,3.8 3.72,14.44 3.07,29.14 2.82,43.81 -0.19,11.16 -0.42,22.33 -1.16,33.46 -0.19,2.81 -1.7,6.42 -3.84,8.01 -2.94,2.18 -6,-0.3 -8.39,-2.67 -0.42,-0.41 -1.01,-0.64 -2.44,-1.51 0,8.83 0,17 0,25.65 1.36,-0.8 2.31,-1.62 3.41,-1.97 2.63,-0.83 6.67,-2.86 7.73,-1.86 2.54,2.4 4.98,6.22 5.12,9.56 0.2,4.89 -1.32,9.96 -2.8,14.75 -0.6,1.96 -2.81,4.38 -4.65,4.74 -1.97,0.38 -4.37,-1.41 -7.28,-2.51 -0.4,2.5 -1.34,5.8 -1.37,9.11 -0.16,19.88 0.03,39.76 -0.18,59.63 -0.11,10.55 -0.3,21.14 -1.41,31.61 -0.55,5.16 -2.88,10.28 -5.22,15.01 -0.9,1.81 -3.99,3.09 -6.24,3.41 -0.84,0.12 -2.93,-3.17 -3.12,-5.04 -1.64,-15.95 -3.23,-31.92 -4.33,-47.91 -1.95,-28.2 -3.34,-56.45 -5.39,-84.64 -1.44,-19.81 -3.77,-39.56 -5.35,-59.36 -0.96,-12.03 -1.56,-24.1 -1.66,-36.16 -0.04,-4.75 1.02,-9.8 2.83,-14.2 2.92,-7.06 6.39,-8.36 13.96,-6.96 7.8,1.44 9.34,3.34 9.74,11.24 0.25,4.84 0.83,9.67 1.25,14.51 0.32,-0.1 0.65,-0.18 0.98,-0.25 z"
   id="path1"
   style="fill:#2480a7;fill-opacity:1" />
</g>
</svg>
