<?xml version="1.0" encoding="utf-8"?>
<!-- Generator: Adobe Illustrator 27.2.0, SVG Export Plug-In . SVG Version: 6.00 Build 0)  -->
<svg version="1.1" id="Layer_0_xA0_Image_00000078748494692590444290000013745952612971550650_"
	 xmlns="http://www.w3.org/2000/svg" xmlns:xlink="http://www.w3.org/1999/xlink" x="0px" y="0px" viewBox="0 0 661 393"
	 style="enable-background:new 0 0 661 393;" xml:space="preserve">
<g>
	<path d="M327.34,103.69c0.89-4.74,1.64-9.52,2.73-14.22c1.11-4.79,4.88-7.33,9.06-9.04c3.32-1.36,4.43,0.81,5.2,3.8
		c3.72,14.44,3.07,29.14,2.82,43.81c-0.19,11.16-0.42,22.33-1.16,33.46c-0.19,2.81-1.7,6.42-3.84,8.01c-2.94,2.18-6-0.3-8.39-2.67
		c-0.42-0.41-1.01-0.64-2.44-1.51c0,8.83,0,17,0,25.65c1.36-0.8,2.31-1.62,3.41-1.97c2.63-0.83,6.67-2.86,7.73-1.86
		c2.54,2.4,4.98,6.22,5.12,9.56c0.2,4.89-1.32,9.96-2.8,14.75c-0.6,1.96-2.81,4.38-4.65,4.74c-1.97,0.38-4.37-1.41-7.28-2.51
		c-0.4,2.5-1.34,5.8-1.37,9.11c-0.16,19.88,0.03,39.76-0.18,59.63c-0.11,10.55-0.3,21.14-1.41,31.61
		c-0.55,5.16-2.88,10.28-5.22,15.01c-0.9,1.81-3.99,3.09-6.24,3.41c-0.84,0.12-2.93-3.17-3.12-5.04
		c-1.64-15.95-3.23-31.92-4.33-47.91c-1.95-28.2-3.34-56.45-5.39-84.64c-1.44-19.81-3.77-39.56-5.35-59.36
		c-0.96-12.03-1.56-24.1-1.66-36.16c-0.04-4.75,1.02-9.8,2.83-14.2c2.92-7.06,6.39-8.36,13.96-6.96c7.8,1.44,9.34,3.34,9.74,11.24
		c0.25,4.84,0.83,9.67,1.25,14.51C326.68,103.84,327.01,103.76,327.34,103.69z"/>
</g>
</svg>
