<?xml version="1.0" encoding="UTF-8" standalone="no"?>
<!-- Generator: Adobe Illustrator 27.2.0, SVG Export Plug-In . SVG Version: 6.00 Build 0)  -->

<svg
   version="1.1"
   id="Layer_0_xA0_Image_00000134935755081738845630000000916609675126547369_"
   x="0px"
   y="0px"
   viewBox="0 0 70.261627 172.50194"
   xml:space="preserve"
   sodipodi:docname="g_lowercase.svg"
   width="70.261627"
   height="172.50194"
   inkscape:version="1.4 (e7c3feb1, 2024-10-09)"
   xmlns:inkscape="http://www.inkscape.org/namespaces/inkscape"
   xmlns:sodipodi="http://sodipodi.sourceforge.net/DTD/sodipodi-0.dtd"
   xmlns="http://www.w3.org/2000/svg"
   xmlns:svg="http://www.w3.org/2000/svg"><defs
   id="defs1" /><sodipodi:namedview
   id="namedview1"
   pagecolor="#ffffff"
   bordercolor="#000000"
   borderopacity="0.25"
   inkscape:showpageshadow="2"
   inkscape:pageopacity="0.0"
   inkscape:pagecheckerboard="0"
   inkscape:deskcolor="#d1d1d1"
   inkscape:zoom="0.33329791"
   inkscape:cx="-21.002232"
   inkscape:cy="-171.01817"
   inkscape:window-width="1120"
   inkscape:window-height="1011"
   inkscape:window-x="7"
   inkscape:window-y="33"
   inkscape:window-maximized="0"
   inkscape:current-layer="Layer_0_xA0_Image_00000134935755081738845630000000916609675126547369_" />
<g
   id="g1"
   style="fill:#2480a7;fill-opacity:1"
   transform="translate(-95.738376,-17.218229)">
	<path
   d="m 141.23,19.58 c 11.35,5.27 16.71,13.03 18.02,23.66 1,8.13 -2.16,15.39 -5.29,22.53 -1.55,3.54 -2.74,6.63 -1.31,10.62 0.94,2.62 2.12,4.59 3.97,6.72 4.97,5.73 8.91,11.99 8.87,20.26 -0.09,16.44 0.5,32.87 0.51,49.31 0,4.09 -0.83,8.27 -1.86,12.25 -1.65,6.35 -3.73,12.59 -5.79,18.82 -0.31,0.93 -1.33,1.88 -2.25,2.29 -2.64,1.17 -5.42,2.02 -8.12,3.08 -2.36,0.93 -4.73,0.84 -6.64,-0.7 -5.85,-4.73 -12.6,-8.47 -16.81,-15.03 -0.84,-1.31 -1.62,-2.72 -2.14,-4.18 -0.56,-1.56 0.14,-2.44 1.89,-2.13 0.98,0.17 1.97,0.35 2.91,0.65 6.25,1.99 12.48,4.03 18.72,6.02 0.52,0.17 1.32,0.4 1.63,0.16 2.28,-1.82 5.48,-3.1 5.4,-6.66 -0.13,-5.8 -0.46,-11.6 -0.91,-17.38 -0.07,-0.91 -1.11,-2.27 -1.96,-2.52 -5.83,-1.71 -11.75,-3.04 -17.9,-2.35 -2.06,0.23 -4.08,0.78 -6.12,1.15 -3.19,0.58 -5.96,-0.38 -7.34,-3.3 -1.13,-2.41 -1.7,-5.17 -2.02,-7.84 -0.35,-2.87 -0.23,-5.81 -0.1,-8.72 0.48,-10.7 -2.82,-20.87 -4.14,-31.32 -1.29,-10.19 -4.25,-19.79 -8.55,-29.05 -0.59,-1.28 -1.02,-2.64 -1.41,-3.99 -2.23,-7.64 -4.45,-15.29 -6.63,-22.95 -0.17,-0.61 -0.13,-1.31 -0.07,-1.96 0.17,-1.82 0.56,-3.63 0.57,-5.45 0.01,-4.59 1.38,-8.17 5.42,-10.99 3.14,-2.2 5.94,-3.66 9.98,-3.31 6.51,0.55 13.09,0.15 19.62,0.58 3.82,0.25 7.62,1.32 9.85,1.73 z m 4.25,97.71 c 4.8,2.01 4.8,2.01 7.83,-1.37 0.06,-0.06 0.12,-0.12 0.17,-0.18 1.4,-1.55 1.62,-4.39 -0.04,-5.47 -3.31,-2.16 -6.83,-4.02 -10.38,-5.77 -1.37,-0.68 -4.55,2.12 -4.03,3.52 1.42,3.81 1.67,8.58 6.45,9.27 z"
   id="path1"
   style="fill:#2480a7;fill-opacity:1" />
</g>
</svg>
