<?xml version="1.0" encoding="utf-8"?>
<!-- Generator: Adobe Illustrator 27.2.0, SVG Export Plug-In . SVG Version: 6.00 Build 0)  -->
<svg version="1.1" id="Layer_0_xA0_Image_00000111896342395886805530000000514524184106786493_"
	 xmlns="http://www.w3.org/2000/svg" xmlns:xlink="http://www.w3.org/1999/xlink" x="0px" y="0px" viewBox="0 0 857 499"
	 style="enable-background:new 0 0 857 499;" xml:space="preserve">
<g>
	<path d="M420.15,368.89c-9.32-0.85-18.63-1.87-27.97-2.51c-12.41-0.84-24.84-1.32-37.25-2.06c-6.77-0.4-13.55-0.81-20.28-1.56
		c-5.76-0.64-10.75-3.3-15.23-6.95c-1.54-1.25-1.78-2.62-0.91-4.25c0.68-1.28,1.36-2.62,2.3-3.7c5.32-6.08,10.46-12.35,16.15-18.06
		c6.92-6.95,11.9-15.28,17.63-23.08c3.63-4.94,6.9-10.16,10.3-15.27c5.18-7.79,7.95-16.48,10.22-25.49
		c1.35-5.37,2.07-10.71,2.73-16.17c1.3-10.72,3.36-21.35,4.87-32.04c0.61-4.3,0.61-8.69,0.83-13.04c0.1-1.94-0.06-3.89,0.06-5.82
		c0.47-7.33,4.41-12.52,10.82-15.42c4.2-1.9,8.88-3.26,13.45-3.73c14.45-1.47,28.73,0.02,42.68,4.08c6.5,1.89,12.9,4.12,19.32,6.29
		c4.34,1.47,6.34,4.86,6.69,9.19c0.14,1.72-0.17,3.61-0.76,5.24c-1.47,4.09-2.95,8.21-4.9,12.08c-6.39,12.7-12.98,25.3-19.51,37.94
		c-2.82,5.46-5.89,10.79-8.48,16.36c-3.12,6.72-6.09,13.54-8.67,20.49c-2.17,5.86-0.4,11.41,2.54,16.7c2.12,3.8,4.07,7.69,5.98,11.6
		c1.56,3.21,1.47,6.7,0.66,10c-1.04,4.23-2.15,8.54-4.02,12.43c-3.44,7.13-7.36,14.03-11.29,20.9c-1.09,1.91-2.77,3.54-4.42,5.03
		c-0.85,0.77-2.24,0.93-3.39,1.37C420.24,369.26,420.2,369.07,420.15,368.89z"/>
	<path d="M502.55,117.19c-0.96,3.54-1.96,7.07-2.86,10.63c-1.47,5.79-2.79,11.62-4.32,17.4c-1.2,4.51-2.47,9.02-4.02,13.42
		c-0.49,1.39-1.75,2.96-3.06,3.53c-4.62,2.02-9.37,3.38-14.54,1.66c-10.26-3.42-20.54-6.76-30.87-9.96
		c-4.31-1.33-8.71-2.5-13.15-3.22c-8.84-1.43-15.84-5.19-19.79-13.66c-1.15-2.46-2.97-4.61-4.16-7.06
		c-2.09-4.29-2.31-8.7-0.14-13.09c4.47-9.07,9.9-17.41,17.78-23.95c3.85-3.19,8.58-3.99,13.19-4.15c12.9-0.45,25.82-0.94,38.71,0.73
		c8.92,1.15,16.29,5,22.19,11.69C501.53,105.69,502.35,111.21,502.55,117.19z"/>
</g>
</svg>
