<?xml version="1.0" encoding="UTF-8" standalone="no"?>
<!-- Generator: Adobe Illustrator 27.2.0, SVG Export Plug-In . SVG Version: 6.00 Build 0)  -->

<svg
   version="1.1"
   id="Layer_0_xA0_Image_00000111896342395886805530000000514524184106786493_"
   x="0px"
   y="0px"
   viewBox="0 0 184.54053 281.1326"
   xml:space="preserve"
   sodipodi:docname="i_lowercase.svg"
   width="184.54053"
   height="281.1326"
   inkscape:version="1.4 (e7c3feb1, 2024-10-09)"
   xmlns:inkscape="http://www.inkscape.org/namespaces/inkscape"
   xmlns:sodipodi="http://sodipodi.sourceforge.net/DTD/sodipodi-0.dtd"
   xmlns="http://www.w3.org/2000/svg"
   xmlns:svg="http://www.w3.org/2000/svg"><defs
   id="defs2" /><sodipodi:namedview
   id="namedview2"
   pagecolor="#ffffff"
   bordercolor="#000000"
   borderopacity="0.25"
   inkscape:showpageshadow="2"
   inkscape:pageopacity="0.0"
   inkscape:pagecheckerboard="0"
   inkscape:deskcolor="#d1d1d1"
   inkscape:zoom="0.052104208"
   inkscape:cx="95.961538"
   inkscape:cy="153.53846"
   inkscape:window-width="1120"
   inkscape:window-height="1011"
   inkscape:window-x="7"
   inkscape:window-y="33"
   inkscape:window-maximized="0"
   inkscape:current-layer="Layer_0_xA0_Image_00000111896342395886805530000000514524184106786493_" />
<g
   id="g2"
   style="fill:#2480a7;fill-opacity:1"
   transform="translate(-318.00948,-88.307401)">
	<path
   d="m 420.15,368.89 c -9.32,-0.85 -18.63,-1.87 -27.97,-2.51 -12.41,-0.84 -24.84,-1.32 -37.25,-2.06 -6.77,-0.4 -13.55,-0.81 -20.28,-1.56 -5.76,-0.64 -10.75,-3.3 -15.23,-6.95 -1.54,-1.25 -1.78,-2.62 -0.91,-4.25 0.68,-1.28 1.36,-2.62 2.3,-3.7 5.32,-6.08 10.46,-12.35 16.15,-18.06 6.92,-6.95 11.9,-15.28 17.63,-23.08 3.63,-4.94 6.9,-10.16 10.3,-15.27 5.18,-7.79 7.95,-16.48 10.22,-25.49 1.35,-5.37 2.07,-10.71 2.73,-16.17 1.3,-10.72 3.36,-21.35 4.87,-32.04 0.61,-4.3 0.61,-8.69 0.83,-13.04 0.1,-1.94 -0.06,-3.89 0.06,-5.82 0.47,-7.33 4.41,-12.52 10.82,-15.42 4.2,-1.9 8.88,-3.26 13.45,-3.73 14.45,-1.47 28.73,0.02 42.68,4.08 6.5,1.89 12.9,4.12 19.32,6.29 4.34,1.47 6.34,4.86 6.69,9.19 0.14,1.72 -0.17,3.61 -0.76,5.24 -1.47,4.09 -2.95,8.21 -4.9,12.08 -6.39,12.7 -12.98,25.3 -19.51,37.94 -2.82,5.46 -5.89,10.79 -8.48,16.36 -3.12,6.72 -6.09,13.54 -8.67,20.49 -2.17,5.86 -0.4,11.41 2.54,16.7 2.12,3.8 4.07,7.69 5.98,11.6 1.56,3.21 1.47,6.7 0.66,10 -1.04,4.23 -2.15,8.54 -4.02,12.43 -3.44,7.13 -7.36,14.03 -11.29,20.9 -1.09,1.91 -2.77,3.54 -4.42,5.03 -0.85,0.77 -2.24,0.93 -3.39,1.37 -0.06,-0.18 -0.1,-0.37 -0.15,-0.55 z"
   id="path1"
   style="fill:#2480a7;fill-opacity:1" />
	<path
   d="m 502.55,117.19 c -0.96,3.54 -1.96,7.07 -2.86,10.63 -1.47,5.79 -2.79,11.62 -4.32,17.4 -1.2,4.51 -2.47,9.02 -4.02,13.42 -0.49,1.39 -1.75,2.96 -3.06,3.53 -4.62,2.02 -9.37,3.38 -14.54,1.66 -10.26,-3.42 -20.54,-6.76 -30.87,-9.96 -4.31,-1.33 -8.71,-2.5 -13.15,-3.22 -8.84,-1.43 -15.84,-5.19 -19.79,-13.66 -1.15,-2.46 -2.97,-4.61 -4.16,-7.06 -2.09,-4.29 -2.31,-8.7 -0.14,-13.09 4.47,-9.07 9.9,-17.41 17.78,-23.95 3.85,-3.19 8.58,-3.99 13.19,-4.15 12.9,-0.45 25.82,-0.94 38.71,0.73 8.92,1.15 16.29,5 22.19,11.69 4.02,4.53 4.84,10.05 5.04,16.03 z"
   id="path2"
   style="fill:#2480a7;fill-opacity:1" />
</g>
</svg>
