<?xml version="1.0" encoding="UTF-8" standalone="no"?>
<!-- Generator: Adobe Illustrator 27.2.0, SVG Export Plug-In . SVG Version: 6.00 Build 0)  -->

<svg
   version="1.1"
   id="Layer_0_xA0_Image_00000054973729455499355670000016402474213628593293_"
   x="0px"
   y="0px"
   viewBox="0 0 106.00692 380.53708"
   xml:space="preserve"
   sodipodi:docname="k_lowercase.svg"
   width="106.00692"
   height="380.53708"
   inkscape:version="1.4 (e7c3feb1, 2024-10-09)"
   xmlns:inkscape="http://www.inkscape.org/namespaces/inkscape"
   xmlns:sodipodi="http://sodipodi.sourceforge.net/DTD/sodipodi-0.dtd"
   xmlns="http://www.w3.org/2000/svg"
   xmlns:svg="http://www.w3.org/2000/svg"><defs
   id="defs1" /><sodipodi:namedview
   id="namedview1"
   pagecolor="#ffffff"
   bordercolor="#000000"
   borderopacity="0.25"
   inkscape:showpageshadow="2"
   inkscape:pageopacity="0.0"
   inkscape:pagecheckerboard="0"
   inkscape:deskcolor="#d1d1d1"
   inkscape:zoom="0.045614035"
   inkscape:cx="87.692308"
   inkscape:cy="197.30769"
   inkscape:window-width="1120"
   inkscape:window-height="1011"
   inkscape:window-x="7"
   inkscape:window-y="33"
   inkscape:window-maximized="0"
   inkscape:current-layer="Layer_0_xA0_Image_00000054973729455499355670000016402474213628593293_" />
<g
   id="g1"
   style="fill:#2480a7;fill-opacity:1"
   transform="translate(-227.52182,-78.892919)">
	<path
   d="m 298.58,459.43 c -0.81,-3.81 -1.6,-7.12 -2.22,-10.46 -13.77,-73.81 -27.55,-147.62 -41.28,-221.44 -8.84,-47.55 -17.6,-95.11 -26.42,-142.67 -0.24,-1.3 -0.68,-2.57 -1.02,-3.86 -0.4,-1.54 0.22,-2.26 1.79,-2.08 2.56,0.3 5.16,0.47 7.65,1.08 0.94,0.23 2.17,1.4 2.35,2.32 3.81,19.35 7.49,38.73 11.19,58.11 4.85,25.43 9.69,50.86 14.59,76.58 2.93,-0.56 5.45,-2.33 7.04,-4.73 4.5,-6.78 9.52,-13.42 12.71,-20.82 4.88,-11.33 7.41,-23.34 6.6,-35.98 -0.74,-11.49 -1.89,-22.83 -4.45,-34.1 -1.65,-7.26 -2.01,-14.82 -2.78,-22.26 -0.41,-3.97 0.91,-4.82 4.4,-3.1 2.76,1.36 5.51,2.73 8.22,4.18 0.6,0.32 1.18,0.94 1.47,1.57 4.19,8.96 8.14,18.04 12.51,26.91 4.86,9.85 7.84,20.17 8.26,31.1 0.41,10.88 0.92,21.81 0.28,32.66 -0.69,11.63 -3.44,22.99 -7.55,33.97 -1.69,4.5 -5.67,6.76 -8.98,9.74 -6.6,5.92 -13.07,12.01 -19.5,18.11 -0.68,0.65 -1.04,1.88 -1.13,2.87 -0.29,3.48 -0.37,6.98 -0.56,10.47 -0.44,8.02 1.02,15.73 3.79,23.23 0.66,1.79 1.45,3.57 1.87,5.42 1.29,5.62 5.33,9.28 9.12,13.13 9.68,9.85 19.5,19.56 28.91,29.66 1.83,1.97 2.35,5.36 2.99,8.2 1.14,5.02 1.97,10.11 2.82,15.19 0.84,5.07 1.71,10.15 2.24,15.26 0.32,3.07 -1.37,5.44 -4.05,6.92 -2.5,1.38 -4.59,0.4 -6.56,-1.36 -6.68,-5.99 -13.61,-11.73 -20.02,-18 -2.25,-2.2 -3.53,-5.55 -4.81,-8.57 -1.55,-3.67 -2.61,-7.54 -3.92,-11.31 -0.19,-0.54 -0.43,-1.22 -0.86,-1.48 -1.07,-0.66 -2.35,-1.64 -3.38,-1.47 -0.71,0.12 -1.6,1.91 -1.63,2.97 -0.06,2.61 0.06,5.28 0.57,7.83 6.24,31.01 12.6,61.99 18.83,93.01 0.52,2.58 0.35,5.32 0.28,7.98 -0.02,0.66 -0.72,1.62 -1.35,1.91 -2.47,1.17 -5.03,2.11 -8.01,3.31 z"
   id="path1"
   style="fill:#2480a7;fill-opacity:1" />
</g>
</svg>
