<?xml version="1.0" encoding="utf-8"?>
<!-- Generator: Adobe Illustrator 27.2.0, SVG Export Plug-In . SVG Version: 6.00 Build 0)  -->
<svg version="1.1" id="Calque_1" xmlns="http://www.w3.org/2000/svg" xmlns:xlink="http://www.w3.org/1999/xlink" x="0px" y="0px"
	 viewBox="0 0 595.28 841.89" style="enable-background:new 0 0 595.28 841.89;" xml:space="preserve">
<style type="text/css">
	.st0{fill:#020203;}
</style>
<g>
	<path class="st0" d="M464.22,377.73c-0.25,7.88-2.12,15.29-4.55,22.72c-2.5,7.58-3.99,15.46-6.22,23.15
		c-2.15,7.33-4.4,14.63-7.1,21.73c-2.2,5.84-1.72,11.57-0.56,17.36c2,9.93,7.5,17.06,16.58,21.86c6.95,3.69,13.44,8.24,20.06,12.51
		c1.84,1.19,3.69,7.63,2.73,9.48c-0.33,0.63-1.52,1.16-2.3,1.16c-7.05-0.05-13.57-1.62-19.2-6.27c-3.16-2.6-6.8-4.6-10.06-7.1
		c-7.43-5.74-13.37-12.63-16-21.91c-1.49-5.28-3.97-10.61-3.99-15.92c-0.03-5.33,2.43-10.66,3.87-15.99
		c0.96-3.56,1.97-7.13,3.16-10.59c2.12-6.22,4.45-12.36,6.65-18.55c0.4-1.11,0.56-2.32,0.81-3.51c2.12-9.85,4.65-19.68,2.63-29.84
		c-0.78-3.89-2.3-7.66-3.59-11.45c-0.61-1.74-1.62-3.34-2.2-5.08c-1.47-4.32-5.18-6.54-8.19-9.55c-2.53-2.5-5.03-2.83-8.04-2.73
		c-6.09,0.23-9.05,4.62-11.83,9.1c-2.98,4.75-4.09,10.13-5.56,15.54c-2.83,10.54-6.27,20.95-12.08,30.4
		c-2.55,4.17-4.04,9-6.65,13.11c-3.01,4.78-6.95,8.95-10.06,13.67c-3.59,5.43-7.96,10.03-13.29,13.62
		c-3.92,2.65-7.93,5.31-12.23,7.23c-9.83,4.35-20.37,4.07-30.42,1.87c-9.85-2.15-18.8-7.02-25.12-15.49
		c-1.04-1.39-2.15-2.96-2.5-4.6c-1.47-7.18-5.28-14.07-3.08-21.71c2.1-7.2,4.17-14.25,9.17-20.39c5.48-6.72,12.1-11.65,18.95-16.68
		c3.46-2.55,5.94-6.87,8.01-10.81c2.88-5.46,4.17-11.62,2.35-17.66c-2.3-7.68-5.53-14.91-11.47-20.82
		c-6.06-6.04-11.22-13.01-17.26-19.1c-4.73-4.75-9.3-9.98-16.68-11.07c-2.43-0.35-4.27-1.74-7.23-0.48
		c-5.31,2.27-4.3,7.1-5.33,10.94c-1.72,6.47-2.78,13.14-4.07,19.71c-0.25,1.29-0.3,2.63-0.45,3.92c-0.99,8.01-1.57,16.07-3.06,23.98
		c-1.39,7.53-3.23,15.03-5.76,22.26c-2.22,6.39-5.66,12.38-8.59,18.52c-0.99,2.05-2,4.09-3.11,6.06
		c-4.09,7.3-8.82,14.15-15.79,19.05c-2,1.39-4.25,2.73-6.54,3.28c-6.9,1.62-13.92,3.46-21,1.9c-8.46-1.87-18.62-8.46-21.28-18.42
		c-1.92-7.15-1.09-13.97-0.35-21.12c0.71-6.8-0.43-13.8-0.83-20.69c-0.15-2.65-0.56-5.28-0.83-7.93
		c-0.99-9.65-4.45-18.67-8.74-27.14c-3.34-6.6-9.17-11.6-15.01-16.22c-4.5-3.56-8.21-3.13-11.65,1.59
		c-2.75,3.84-4.85,8.16-7.08,12.36c-2.5,4.75-4.83,9.58-7.2,14.38c-1.95,3.97-3.71,8.04-5.84,11.93
		c-3.64,6.67-7.5,13.22-11.19,19.86c-1.47,2.65-2.43,5.61-4.09,8.11c-4.7,7.02-9.43,14.05-14.58,20.75
		c-4.6,5.96-9.75,11.47-14.78,17.11c-2.32,2.6-4.98,4.88-7.28,7.48c-2.43,2.73-3.34,0.63-3.79-1.26c-0.73-3.08-1.06-6.24-1.52-9.37
		c-0.43-3.11,0.68-5.1,3.34-7.23c3.59-2.86,6.72-6.57,9.17-10.49c4.5-7.2,8.57-14.68,12.38-22.29c1.72-3.41,2.25-7.4,3.54-11.04
		c1.84-5.21,3.87-10.36,5.89-15.49c1.49-3.79,3.23-7.48,4.67-11.3c2.8-7.38,5.23-14.88,8.24-22.16c3.26-7.91,6.57-15.84,10.59-23.4
		c4.78-8.95,12.1-15.99,21.6-19.38c8.46-3.03,17.13,0.03,22.99,8.29c4.62,6.49,4.9,14.05,5.58,21.43
		c0.63,6.75,4.02,11.27,9.45,14.58c5.36,3.26,10.51,6.85,13.77,12.26c4.75,7.86,6.47,16.65,4.98,25.72
		c-1.11,6.85-3.41,13.52-4.5,20.37c-0.83,5.33-0.99,10.87-0.73,16.27c0.2,4.78,3.69,7.3,8.49,7.56c8.74,0.43,15.29-3.56,20.77-9.93
		c5.18-6.01,9.22-12.68,11.22-20.39c1.87-7.15,3.71-14.35,5.08-21.6c1.34-7.02,1.92-14.18,3.06-21.23
		c1.54-9.68,2.8-19.46,5.05-28.98c2.05-8.62,7.23-15.92,15.94-18.34c6.47-1.79,13.77-2.02,20.47-1.11
		c5.46,0.73,10.46,4.4,15.82,6.39c6.77,2.53,11.55,7.83,17.13,11.95c4.27,3.13,7.96,7.13,11.45,11.17
		c3.34,3.84,6.14,8.16,8.97,12.41c1.54,2.3,3.16,4.73,3.92,7.33c1.52,5.23,2.63,10.59,3.64,15.94c0.71,3.74,1.74,7.66,1.26,11.32
		c-0.93,6.77-2.05,13.72-4.62,19.99c-2.53,6.09-8.41,9.98-13.64,13.95c-7.13,5.41-14.63,10.31-21.73,15.74
		c-5.48,4.22-8.44,15.31-5.71,21.78c1.16,2.75,3.36,5.71,5.89,7.08c4.6,2.48,9.73,4.09,14.78,5.53c4.04,1.16,8.36,2.22,12.51,2.1
		c9.3-0.28,17.69-3.49,24.23-10.44c4.12-4.37,9-8.46,11.7-13.64c4.22-8.11,11.14-14.81,12.31-24.71c0.78-6.75,2.96-13.47,5.38-19.86
		c3.03-7.98,6.24-16.05,10.69-23.27c3.64-5.91,9.78-9.43,16.9-11.27c5.1-1.31,9.88-0.45,14.71,0.13c9.05,1.11,16.4,5.71,21.93,12.79
		c1.34,1.72,0.96,4.85,1.26,7.35C462.65,364.47,463.44,371.09,464.22,377.73z"/>
</g>
</svg>
