<?xml version="1.0" encoding="UTF-8" standalone="no"?>
<!-- Generator: Adobe Illustrator 27.2.0, SVG Export Plug-In . SVG Version: 6.00 Build 0)  -->

<svg
   version="1.1"
   id="Layer_0_xA0_Image_00000001639677670174589490000016208909532021568650_"
   x="0px"
   y="0px"
   viewBox="0 0 77.845612 212.94066"
   xml:space="preserve"
   sodipodi:docname="p_lowercase.svg"
   width="77.845612"
   height="212.94066"
   inkscape:version="1.4 (e7c3feb1, 2024-10-09)"
   xmlns:inkscape="http://www.inkscape.org/namespaces/inkscape"
   xmlns:sodipodi="http://sodipodi.sourceforge.net/DTD/sodipodi-0.dtd"
   xmlns="http://www.w3.org/2000/svg"
   xmlns:svg="http://www.w3.org/2000/svg"><defs
   id="defs1" /><sodipodi:namedview
   id="namedview1"
   pagecolor="#ffffff"
   bordercolor="#000000"
   borderopacity="0.25"
   inkscape:showpageshadow="2"
   inkscape:pageopacity="0.0"
   inkscape:pagecheckerboard="0"
   inkscape:deskcolor="#d1d1d1"
   inkscape:zoom="0.066157761"
   inkscape:cx="60.461538"
   inkscape:cy="105.80769"
   inkscape:window-width="1120"
   inkscape:window-height="1011"
   inkscape:window-x="7"
   inkscape:window-y="33"
   inkscape:window-maximized="0"
   inkscape:current-layer="g1" />
<g
   id="g1"
   transform="translate(-273.2157,-97.311832)">
	<path
   d="m 315.76,203.67 c -0.26,3.02 -0.51,6.26 -0.82,9.49 -0.25,2.54 -0.48,5.09 -0.89,7.6 -0.42,2.59 -1.09,5.13 -1.56,7.72 -0.24,1.31 -0.22,2.66 -0.4,3.98 -0.5,3.72 -1.01,7.45 -1.59,11.16 -0.43,2.75 -0.88,5.49 -1.49,8.2 -0.99,4.39 -1.39,8.83 -1.62,13.32 -0.21,4.21 -0.78,8.41 -1.37,12.59 -0.6,4.3 -1.57,8.51 -3.24,12.56 -0.64,1.55 -0.66,3.34 -1.12,4.98 -0.63,2.25 -0.1,4.46 0.03,6.68 0.19,3.23 -1.75,5.1 -4.18,6.54 -0.98,0.58 -2.28,0.74 -3.45,0.82 -5.02,0.36 -10.05,0.64 -15.08,0.89 -1.57,0.08 -3.16,0.07 -4.73,-0.04 -1.18,-0.08 -1.24,-1.14 -0.73,-1.73 1.6,-1.82 1.25,-4.16 1.89,-6.23 0.69,-2.22 0.96,-4.56 1.41,-6.85 0.06,-0.29 0.08,-0.59 0.1,-0.88 0.32,-5.17 0.51,-10.35 1,-15.5 0.25,-2.65 1.01,-5.26 1.55,-7.88 0.04,-0.19 0.09,-0.38 0.12,-0.58 0.58,-3.83 1.07,-7.68 1.75,-11.49 0.58,-3.26 1.49,-6.46 2.04,-9.73 0.47,-2.8 0.52,-5.67 0.97,-8.48 0.42,-2.63 1.1,-5.22 1.7,-7.82 0.3,-1.27 0.79,-2.51 1.01,-3.79 0.65,-3.76 1.25,-7.54 1.8,-11.32 0.53,-3.63 0.94,-7.29 1.49,-10.92 0.5,-3.27 1.13,-6.53 1.67,-9.79 0.15,-0.88 0.18,-1.77 0.29,-2.66 0.55,-4.43 1.15,-8.85 1.64,-13.29 0.52,-4.68 0.91,-9.38 1.45,-14.07 0.19,-1.64 0.68,-3.24 0.92,-4.87 0.19,-1.32 0.17,-2.66 0.32,-3.98 0.49,-4.19 1.05,-8.37 1.53,-12.56 0.5,-4.33 1.7,-8.54 1.82,-12.95 0.06,-2.41 1.3,-4.76 1.8,-7.19 0.47,-2.31 0.74,-4.66 0.96,-7.01 0.28,-2.93 0.42,-5.88 0.61,-8.82 0.05,-0.84 0,-1.69 0.1,-2.52 0.16,-1.3 0.31,-2.54 2.06,-2.87 0.87,-0.16 1.58,-1.09 2.44,-1.47 2.38,-1.04 4.8,-1.97 7.21,-2.94 1.06,-0.42 2.1,-1 3.21,-1.18 2.23,-0.37 4.49,-0.58 6.75,-0.73 4.57,-0.31 9.14,-0.63 13.71,-0.74 2.37,-0.06 4.77,0.22 7.13,0.53 2.68,0.36 3.91,1.69 4.49,4.33 0.84,3.86 0.74,7.72 0.07,11.59 -0.2,1.16 -0.03,2.39 -0.2,3.55 -0.36,2.42 -0.9,4.81 -1.24,7.23 -0.23,1.66 -0.39,3.36 -0.32,5.03 0.17,4.14 -0.68,8.09 -1.73,12.05 -0.32,1.21 -0.21,2.56 -0.21,3.84 0,3.12 -0.19,6.2 -1.39,9.13 -0.05,0.13 -0.07,0.29 -0.07,0.44 0.01,3.61 -0.85,7.09 -1.58,10.6 -0.94,4.51 -1.5,9.1 -2.4,13.61 -0.76,3.8 -1.88,7.55 -3.93,10.87 -0.94,1.52 -2.37,2.76 -3.68,4.01 -1.19,1.15 -2.5,2.18 -3.82,3.19 -0.34,0.26 -0.89,0.41 -1.32,0.36 -2.19,-0.23 -4.38,-0.54 -6.57,-0.82 -1.5,-0.19 -2.99,-0.41 -4.49,-0.55 -1.14,-0.11 -1.78,0.47 -1.8,1.62 -0.04,1.86 -0.02,3.69 -0.02,5.74 z"
   id="path1"
   style="fill:#2480a7;fill-opacity:1" />
</g>
</svg>
