<?xml version="1.0" encoding="UTF-8" standalone="no"?>
<!-- Generator: Adobe Illustrator 27.2.0, SVG Export Plug-In . SVG Version: 6.00 Build 0)  -->

<svg
   version="1.1"
   id="Layer_0_xA0_Image_00000166662057524948878370000016673341914705135744_"
   x="0px"
   y="0px"
   viewBox="0 0 219.42168 449.71582"
   xml:space="preserve"
   sodipodi:docname="q_lowercase.svg"
   width="219.42168"
   height="449.71582"
   inkscape:version="1.4 (e7c3feb1, 2024-10-09)"
   xmlns:inkscape="http://www.inkscape.org/namespaces/inkscape"
   xmlns:sodipodi="http://sodipodi.sourceforge.net/DTD/sodipodi-0.dtd"
   xmlns="http://www.w3.org/2000/svg"
   xmlns:svg="http://www.w3.org/2000/svg"><defs
   id="defs1" /><sodipodi:namedview
   id="namedview1"
   pagecolor="#ffffff"
   bordercolor="#000000"
   borderopacity="0.25"
   inkscape:showpageshadow="2"
   inkscape:pageopacity="0.0"
   inkscape:pagecheckerboard="0"
   inkscape:deskcolor="#d1d1d1"
   inkscape:zoom="0.047272727"
   inkscape:cx="126.92308"
   inkscape:cy="211.53846"
   inkscape:window-width="1120"
   inkscape:window-height="1011"
   inkscape:window-x="7"
   inkscape:window-y="33"
   inkscape:window-maximized="0"
   inkscape:current-layer="Layer_0_xA0_Image_00000166662057524948878370000016673341914705135744_" />
<g
   id="g1"
   style="fill:#2480a7;fill-opacity:1"
   transform="translate(-75.392062,-54.638865)">
	<path
   d="m 138.29,192.3 c -3.91,2.55 -7.39,4.79 -10.84,7.09 -0.52,0.34 -1.01,0.91 -1.23,1.48 -1.65,4.34 -3.31,8.69 -4.81,13.09 -0.69,2.03 -2.1,2.53 -3.97,2.75 -3.04,0.35 -6.07,0.77 -9.09,1.27 -3.36,0.56 -5.82,0.57 -6.92,-3.8 -3.64,-14.43 -7.45,-28.82 -11.05,-43.26 -4.88,-19.52 -9.54,-39.09 -14.53,-58.59 -0.76,-2.96 -0.57,-5.45 0.54,-8.12 3.4,-8.22 7.07,-16.36 9.91,-24.77 1.13,-3.34 3.14,-4.61 5.83,-5.85 7.94,-3.63 16.01,-7.02 23.72,-11.11 5.35,-2.83 10.97,-3.44 16.72,-4 13.65,-1.33 27.29,-2.9 40.97,-3.81 3.45,-0.23 7.53,0.83 10.46,2.66 8.79,5.48 18.6,7.92 28.29,10.81 16.42,4.9 31.9,11.97 46.85,20.21 6.6,3.64 12.97,7.7 19.39,11.67 0.83,0.52 1.49,1.55 1.9,2.48 3.94,9.06 7.52,18.28 11.82,27.16 2.18,4.51 2.61,9 2.56,13.73 -0.17,15.05 -0.36,30.1 -0.59,45.15 -0.14,9.4 -0.14,18.8 -0.64,28.18 -0.51,9.61 -1.42,19.2 -2.38,28.78 -0.99,9.91 -2.06,19.81 -3.51,29.66 -0.56,3.79 -2.53,7.34 -3.42,11.11 -1.63,6.95 -2.89,13.98 -4.39,20.96 -2.6,12.09 -5.18,24.19 -7.93,36.25 -3.89,17.08 -7.76,34.17 -11.97,51.17 -2.89,11.67 -6.61,23.14 -9.46,34.82 -3.06,12.57 -5.81,25.24 -8.18,37.96 -1.52,8.14 -2.17,16.45 -3.09,24.7 -0.17,1.53 -0.51,2.56 -1.96,3.4 -4.09,2.37 -8.03,4.99 -12.07,7.46 -3.32,2.03 -3.74,2.01 -5.84,-1.53 -3.61,-6.08 -5.67,-12.24 -4.55,-19.79 1.76,-11.89 2.93,-23.95 2.21,-36.05 -0.08,-1.41 -0.14,-2.83 -0.4,-4.21 -1.49,-7.99 2.29,-14.71 5.38,-21.49 5.13,-11.25 10.87,-22.24 15.76,-33.59 1.57,-3.64 1.43,-8.06 1.81,-12.15 0.21,-2.3 -0.1,-4.65 -0.17,-6.98 -0.25,-7.64 -0.46,-15.28 -0.77,-22.92 -0.11,-2.68 0.99,-4.31 3.16,-5.97 5.4,-4.13 10.38,-8.81 15.73,-13.01 2.25,-1.77 2.48,-3.6 2.44,-6.3 -0.24,-17.81 -0.54,-35.64 -0.11,-53.44 0.33,-13.7 1.74,-27.36 2.56,-41.05 0.18,-2.97 -0.2,-5.98 -0.16,-8.97 0.06,-3.48 0.27,-6.96 0.47,-10.44 0.26,-4.4 0.62,-8.79 0.82,-13.18 0.03,-0.58 -0.47,-1.46 -0.98,-1.74 -6.06,-3.25 -12.16,-6.42 -18.27,-9.59 -0.34,-0.17 -0.81,-0.2 -1.19,-0.14 -4.5,0.75 -8.99,1.58 -13.5,2.28 -1.7,0.26 -1.89,1 -1.58,2.57 0.95,4.84 0.15,9.51 -2.44,13.66 -4.91,7.87 -10.89,14.88 -19.62,18.56 -5.7,2.4 -11.92,3.54 -17.74,5.7 -3.26,1.21 -5.12,0.23 -7.2,-2.11 -2.39,-2.69 -5.26,-4.96 -7.8,-7.54 -3.12,-3.17 -6.01,-6.57 -9.21,-9.65 -1,-0.96 -2.66,-1.48 -4.09,-1.7 -1.61,-0.24 -3.43,-0.29 -4.95,0.22 -4.65,1.57 -7.57,-0.87 -10.41,-3.9 -1.97,-2.09 -4.08,-4.06 -6.29,-6.24 z"
   id="path1"
   style="fill:#2480a7;fill-opacity:1" />
</g>
</svg>
