<?xml version="1.0" encoding="UTF-8" standalone="no"?>
<!-- Generator: Adobe Illustrator 27.2.0, SVG Export Plug-In . SVG Version: 6.00 Build 0)  -->

<svg
   version="1.1"
   id="Layer_0_xA0_Image_00000066489356848803388630000003843817150256346533_"
   x="0px"
   y="0px"
   viewBox="0 0 339.98212 448.19064"
   xml:space="preserve"
   sodipodi:docname="s_lowercase.svg"
   width="339.98212"
   height="448.19064"
   inkscape:version="1.4 (e7c3feb1, 2024-10-09)"
   xmlns:inkscape="http://www.inkscape.org/namespaces/inkscape"
   xmlns:sodipodi="http://sodipodi.sourceforge.net/DTD/sodipodi-0.dtd"
   xmlns="http://www.w3.org/2000/svg"
   xmlns:svg="http://www.w3.org/2000/svg"><defs
   id="defs1" /><sodipodi:namedview
   id="namedview1"
   pagecolor="#ffffff"
   bordercolor="#000000"
   borderopacity="0.25"
   inkscape:showpageshadow="2"
   inkscape:pageopacity="0.0"
   inkscape:pagecheckerboard="0"
   inkscape:deskcolor="#d1d1d1"
   inkscape:zoom="0.04952381"
   inkscape:cx="141.34615"
   inkscape:cy="222.11538"
   inkscape:window-width="1120"
   inkscape:window-height="1011"
   inkscape:window-x="7"
   inkscape:window-y="33"
   inkscape:window-maximized="0"
   inkscape:current-layer="g1" />
<g
   id="g1"
   transform="translate(-188.83117,-32.700368)">
	<path
   d="m 202.25,141 c 0.69,10.59 1.79,21.09 5.69,31.15 3.35,8.63 9.26,15.34 15.69,21.63 2.02,1.97 4.87,3.12 7.4,4.54 1.96,1.1 4.22,1.75 5.97,3.09 5.6,4.3 12.17,5.28 18.86,6.25 13.19,1.9 26.12,4.55 38.41,10.24 10.31,4.77 21.41,7.84 31.78,12.49 10.76,4.82 21.07,10.65 31.59,16.01 2.74,1.39 5.45,2.86 8.3,4 6.12,2.44 10.64,7.09 15.6,11.08 14.8,11.89 25.99,27.32 39.46,40.52 2.79,2.74 5.61,5.45 8.48,8.1 8.07,7.43 14.29,16.1 17.98,26.51 3.44,9.71 7.17,19.31 9.3,29.46 1.66,7.89 7.08,14.04 10.66,21.04 1.7,3.32 3.67,6.52 5.66,9.68 3.9,6.2 4.5,13.3 5.69,20.25 0.47,2.75 0.71,5.54 1.1,8.3 0.92,6.53 -0.25,12.54 -4.14,17.98 -3.38,4.73 -6.29,9.87 -10.09,14.23 -3.46,3.97 -8.04,6.95 -11.76,10.72 -5.09,5.16 -11.77,6.56 -18.26,8.55 -7.84,2.4 -15.82,3.84 -24.03,4.05 -7.85,0.2 -15.42,-1.02 -22.68,-3.98 -5.74,-2.34 -11.98,-3.65 -16.85,-7.88 -2.06,-1.79 -4.17,-3.54 -6.14,-5.43 -1.55,-1.49 -2.81,-3.3 -4.4,-4.74 -5.81,-5.21 -11.56,-10.52 -17.63,-15.42 -4.8,-3.87 -10.88,-4.92 -16.77,-5.95 -14.51,-2.54 -29.1,-4.22 -43.89,-4.14 -10.22,0.06 -20.44,-0.92 -30.66,-0.87 -8.46,0.04 -16.93,0.78 -25.38,1.48 -2.61,0.21 -5.16,1.24 -7.7,2 -2.35,0.71 -3.77,0.16 -3.95,-2.2 -0.18,-2.35 0.06,-4.78 0.52,-7.09 0.13,-0.65 1.66,-1.26 2.64,-1.46 1.41,-0.29 2.95,0.05 4.33,-0.31 6.43,-1.65 12.86,-3.32 19.21,-5.24 7.93,-2.39 16.01,-2.74 24.21,-2.63 10.99,0.16 21.98,-0.07 32.97,0.04 7.9,0.08 15.81,0.23 23.69,0.71 6.08,0.36 11.24,3.54 16.23,6.66 6.76,4.22 13.06,9.19 19.97,13.13 5.72,3.26 10.48,7.09 14.04,12.7 4.91,7.74 12.82,11.8 20.61,16.06 7.48,4.09 15.22,2.96 22.88,1.68 7.27,-1.21 14.48,-3.02 21.56,-5.09 5.38,-1.57 10.78,-3.43 14.52,-8.22 2.09,-2.67 4.9,-4.8 6.84,-7.56 2.62,-3.71 4.75,-7.78 7,-11.74 0.39,-0.68 0.35,-1.61 0.47,-2.42 0.48,-3.15 1.27,-6.3 1.33,-9.46 0.05,-3.02 -0.5,-6.09 -1.08,-9.08 -0.62,-3.18 -1.63,-6.15 -3.79,-8.83 -4.55,-5.67 -6.43,-12.68 -8.99,-19.34 -2.42,-6.28 -5.1,-12.46 -7.5,-18.74 -1.21,-3.17 -1.82,-6.58 -3.11,-9.72 -2.56,-6.2 -5.38,-12.3 -8.18,-18.41 -0.51,-1.11 -1.31,-2.13 -2.14,-3.04 -3.95,-4.36 -8.06,-8.58 -11.93,-13.01 -5.74,-6.57 -11.27,-13.31 -16.98,-19.9 -6.04,-6.97 -11.81,-14.23 -19.25,-19.83 -5.04,-3.8 -10.22,-7.41 -15.36,-11.08 -6.43,-4.58 -12.72,-9.4 -19.37,-13.64 -11.96,-7.62 -24.67,-13.84 -38.08,-18.47 -13.68,-4.72 -27.45,-9.14 -41.2,-13.64 -7.43,-2.43 -14.9,-4.74 -22.35,-7.13 -4.26,-1.37 -8.61,-2.53 -12.72,-4.25 -3.9,-1.63 -7.5,-3.96 -11.31,-5.82 -10.04,-4.91 -18.01,-12.35 -24.52,-21.17 -7.32,-9.91 -11.03,-21.42 -11.83,-33.7 -0.25,-3.84 0.78,-7.75 1.01,-11.64 0.73,-11.95 2.89,-23.67 7.21,-34.79 4.02,-10.37 8.56,-20.6 13.78,-30.42 4.1,-7.72 8.74,-15.25 14.63,-21.91 6.86,-7.75 14.32,-14.64 23.96,-18.72 2.42,-1.03 5.13,-1.37 7.68,-2.11 9.09,-2.61 18.28,-2.93 27.65,-1.77 6.75,0.84 13.61,0.83 20.37,1.65 11.68,1.43 23.11,4.2 34.11,8.33 4.47,1.68 8.41,4.7 12.72,6.84 9.5,4.73 16.81,12.42 25.38,18.39 10.22,7.14 20.43,14.4 31.26,20.52 7.89,4.46 16.69,7.4 25.24,10.61 10.27,3.85 20.68,7.34 31.09,10.83 12.41,4.17 24.76,3.6 36.86,-1.25 2.17,-0.87 4.03,-2.58 5.93,-4.04 1.71,-1.32 3.36,-2.74 4.87,-4.28 2.36,-2.41 4.7,-4.86 6.79,-7.5 1.19,-1.49 2.13,-1.83 3.73,-0.76 1.66,1.11 3.48,1.98 5.16,3.06 0.34,0.22 0.61,1.04 0.48,1.43 -0.62,1.79 -1.08,3.76 -2.19,5.22 -2.75,3.64 -5.74,7.1 -8.79,10.5 -4.09,4.56 -9.27,7.38 -15.04,9.39 -8.04,2.79 -16.38,4.38 -24.73,4.06 -17.87,-0.69 -35.14,-4.3 -50.69,-13.79 -8.16,-4.98 -16.15,-10.24 -24.33,-15.2 -13.79,-8.36 -27.91,-16.22 -41.43,-25 -9.08,-5.89 -18.8,-10.32 -28.52,-14.81 -7.3,-3.37 -14.97,-5.96 -22.48,-8.87 -11.31,-4.38 -23.18,-5.15 -35.1,-4.88 -6.06,0.14 -11.97,1.57 -17.6,4.16 -10.52,4.83 -20.35,10.73 -28.05,19.43 -3.53,3.99 -6.28,8.78 -8.76,13.54 -3.03,5.81 -5.41,11.96 -8.08,17.96 -0.24,0.53 -0.44,1.11 -0.8,1.55 -4.64,5.63 -5.03,12.79 -7,19.38 -0.36,1.19 -0.34,2.49 -0.72,3.66 -1.85,5.71 -2.64,11.52 -2.22,17.53 z"
   id="path1"
   style="fill:#2480a7;fill-opacity:1" />
</g>
</svg>
