<?xml version="1.0" encoding="UTF-8" standalone="no"?>
<!-- Generator: Adobe Illustrator 27.2.0, SVG Export Plug-In . SVG Version: 6.00 Build 0)  -->

<svg
   version="1.1"
   id="Layer_0_xA0_Image_00000149354548633941653730000006504185212642189469_"
   x="0px"
   y="0px"
   viewBox="0 0 220.42757 261.62149"
   xml:space="preserve"
   sodipodi:docname="t_lowercase.svg"
   width="220.42757"
   height="261.62149"
   inkscape:version="1.4 (e7c3feb1, 2024-10-09)"
   xmlns:inkscape="http://www.inkscape.org/namespaces/inkscape"
   xmlns:sodipodi="http://sodipodi.sourceforge.net/DTD/sodipodi-0.dtd"
   xmlns="http://www.w3.org/2000/svg"
   xmlns:svg="http://www.w3.org/2000/svg"><defs
   id="defs1" /><sodipodi:namedview
   id="namedview1"
   pagecolor="#ffffff"
   bordercolor="#000000"
   borderopacity="0.25"
   inkscape:showpageshadow="2"
   inkscape:pageopacity="0.0"
   inkscape:pagecheckerboard="0"
   inkscape:deskcolor="#d1d1d1"
   inkscape:zoom="0.039334342"
   inkscape:cx="152.53846"
   inkscape:cy="101.69231"
   inkscape:window-width="1120"
   inkscape:window-height="1011"
   inkscape:window-x="7"
   inkscape:window-y="33"
   inkscape:window-maximized="0"
   inkscape:current-layer="Layer_0_xA0_Image_00000149354548633941653730000006504185212642189469_" />
<g
   id="g1"
   style="fill:#2480a7;fill-opacity:1"
   transform="translate(-199.71801,-241.02156)">
	<path
   d="m 312.21,292.51 c 4.71,-2.33 8.15,-0.79 11.64,2.45 3.61,3.35 3.9,2.99 8.72,3.58 2.39,0.29 4.77,0.74 7.13,1.23 2.2,0.46 3.96,-0.14 5.81,-1.43 3.19,-2.23 6.58,-4.18 9.94,-6.16 0.58,-0.34 1.46,-0.39 2.15,-0.27 10.72,1.9 21.46,3.73 32.15,5.83 5.53,1.09 10.91,3.4 16.47,3.83 5.64,0.43 8.73,4.44 12.9,6.93 0.65,0.39 1.08,1.74 1.02,2.61 -0.58,8.69 -0.49,17.54 -5.68,25.22 -1.01,1.5 -1.72,3.24 -2.34,4.96 -0.83,2.3 -2.41,3.23 -4.75,3.25 -10.4,0.09 -20.8,0.19 -31.2,0.31 -11.39,0.13 -22.77,0.34 -34.16,0.43 -4.43,0.03 -9.1,1.31 -13.13,-1.51 -2.56,-1.79 -5.01,-3.83 -7.16,-6.09 -3.67,-3.87 -3.56,-3.98 -8.86,-2.25 0.26,3.65 0.43,7.37 0.81,11.06 0.59,5.7 1.52,11.34 0.7,17.13 -0.88,6.28 0.48,12.23 3.76,17.71 1.51,2.52 2.26,5.15 1.08,8.05 -0.25,0.6 -0.28,1.3 -0.35,1.96 -0.33,3.06 -0.4,5.81 1.66,8.69 3.7,5.18 6.73,10.84 9.93,16.12 3.28,-0.14 6.27,-0.17 9.25,-0.41 4.09,-0.34 7.43,1.78 10.74,3.52 3.59,1.88 7.05,2.78 10.96,1.64 0.4,-0.12 0.82,-0.16 1.23,-0.21 3.2,-0.39 6.07,-0.47 9.17,1.54 4.99,3.24 10.55,5.59 15.95,8.35 1.38,-1.3 2.83,-2.64 4.26,-4.02 1.11,-1.07 1.97,-1.33 3.36,-0.08 4.98,4.52 9.83,9.28 15.32,13.11 3.34,2.33 5,4.68 5,8.62 0,2.89 0.61,5.78 0.68,8.67 0.26,10.72 0.66,21.44 0.45,32.15 -0.06,2.92 -2.05,5.82 -3.22,8.7 -1.02,2.53 -2.84,3.54 -5.62,3.13 -1.27,-0.19 -2.72,-0.04 -3.94,0.38 -8.8,3.09 -16.9,0.65 -24.73,-3.19 -9.14,-4.48 -18.46,-8.42 -28.38,-10.85 -5.97,-1.47 -11.99,-2.85 -17.82,-4.77 -4.44,-1.46 -7.28,-5.33 -10.48,-8.54 -2.16,-2.17 -4.3,-4.37 -6.48,-6.53 -2.12,-2.11 -4.53,-3.99 -6.37,-6.32 -4.5,-5.68 -10.27,-9.35 -16.97,-11.79 -1.31,-0.48 -2.8,-0.91 -3.77,-1.83 -3.98,-3.75 -7.97,-7.5 -11.6,-11.58 -3.27,-3.68 -7.28,-4.73 -11.91,-4.99 -7.37,-0.42 -13.39,-3.56 -18.01,-9.47 -2.29,-2.93 -5.01,-5.52 -7.54,-8.25 -4.85,-5.23 -9.94,-10.28 -14.49,-15.76 -2.68,-3.22 -4.52,-7.14 -6.74,-10.74 -0.26,-0.43 -0.46,-0.92 -0.81,-1.25 -5.31,-5.15 -7.59,-11.96 -10.39,-18.53 -1.42,-3.32 -3.54,-6.33 -5.28,-9.52 -0.32,-0.6 -0.53,-1.39 -0.44,-2.05 0.41,-3.12 0.99,-6.23 1.42,-9.35 1.4,-10.12 3.13,-20.22 3.96,-30.39 0.33,-4.06 -1.18,-8.34 -2.19,-12.43 -1.55,-6.3 -3.85,-12.44 -4.96,-18.8 -0.73,-4.15 -0.12,-8.59 0.25,-12.87 0.44,-5.03 1.23,-10.04 1.97,-15.05 0.4,-2.7 0.97,-5.37 1.6,-8.03 0.24,-1 0.73,-1.5 2.21,-1.6 3.79,-0.26 7.52,-1.35 11.31,-1.8 6.27,-0.74 12.57,-1.58 18.87,-1.68 2.7,-0.04 5.59,1.36 8.08,2.69 2.15,1.15 3.9,3.08 5.73,4.76 1.27,1.16 2.37,1.25 3.72,0.13 5.09,-4.23 10.63,-7.73 17.07,-9.53 1.05,-0.29 2.42,-0.49 3.33,-0.06 8.99,4.24 18.7,5.06 28.35,6.19 1.86,0.22 4.71,-0.16 5.37,0.87 1.84,2.85 3.05,6.2 3.95,9.51 0.6,2.18 0.3,4.63 0.29,6.95 -0.04,8.47 -0.13,16.94 -0.18,25.41 -0.01,0.61 0.12,1.25 0.23,2.31 z"
   id="path1"
   style="fill:#2480a7;fill-opacity:1" />
</g>
</svg>
