<?xml version="1.0" encoding="UTF-8" standalone="no"?>
<!-- Generator: Adobe Illustrator 27.2.0, SVG Export Plug-In . SVG Version: 6.00 Build 0)  -->

<svg
   version="1.1"
   id="Layer_0_xA0_Image_00000070808631884046268740000011523262746650858658_"
   x="0px"
   y="0px"
   viewBox="0 0 148.89421 282.5"
   xml:space="preserve"
   sodipodi:docname="v_lowercase.svg"
   width="148.89421"
   height="282.5"
   inkscape:version="1.4 (e7c3feb1, 2024-10-09)"
   xmlns:inkscape="http://www.inkscape.org/namespaces/inkscape"
   xmlns:sodipodi="http://sodipodi.sourceforge.net/DTD/sodipodi-0.dtd"
   xmlns="http://www.w3.org/2000/svg"
   xmlns:svg="http://www.w3.org/2000/svg"><defs
   id="defs1" /><sodipodi:namedview
   id="namedview1"
   pagecolor="#ffffff"
   bordercolor="#000000"
   borderopacity="0.25"
   inkscape:showpageshadow="2"
   inkscape:pageopacity="0.0"
   inkscape:pagecheckerboard="0"
   inkscape:deskcolor="#d1d1d1"
   inkscape:zoom="0.040688576"
   inkscape:cx="73.730769"
   inkscape:cy="147.46154"
   inkscape:window-width="1120"
   inkscape:window-height="1011"
   inkscape:window-x="7"
   inkscape:window-y="33"
   inkscape:window-maximized="0"
   inkscape:current-layer="Layer_0_xA0_Image_00000070808631884046268740000011523262746650858658_" />
<g
   id="g1"
   style="fill:#2480a7;fill-opacity:1"
   transform="translate(-331.99254,-168.06)">
	<path
   d="m 413.13,431.6 c 0.23,-2.97 0.45,-6.36 0.77,-9.75 1.28,-13.54 5.86,-26.06 11.97,-38.07 3.26,-6.41 7.73,-11.96 12.75,-17.12 4.52,-4.65 8.56,-9.78 13.25,-14.25 5.71,-5.45 12.02,-10.26 17.78,-15.66 4,-3.75 6.32,-8.44 5.9,-14.25 -0.44,-5.95 -0.38,-11.93 -0.87,-17.88 -0.32,-3.98 -1.23,-7.89 -3.81,-11.18 -0.4,-0.51 -0.72,-1.16 -0.86,-1.79 -1.39,-6.24 -4.14,-11.94 -7.23,-17.44 -3.45,-6.13 -4.13,-12.69 -4.19,-19.51 -0.08,-8.73 -0.44,-17.46 -0.6,-26.19 -0.07,-3.99 0.05,-7.98 0.05,-11.97 0,-1.4 -0.18,-2.81 -0.08,-4.21 0.06,-0.81 0.51,-1.58 0.78,-2.38 0.88,0.46 2.31,0.73 2.53,1.4 0.61,1.87 0.91,3.89 1,5.87 0.47,11.22 0.84,22.44 1.23,33.66 0.11,3.24 0.16,6.49 0.27,9.73 0.2,5.87 3.08,10.8 5.57,15.87 0.18,0.37 0.48,0.69 0.63,1.07 5.64,13.61 12.6,26.88 10.55,42.42 -0.42,3.19 -0.08,6.53 -0.83,9.61 -1.4,5.7 -5.2,10.03 -9.63,13.65 -8.64,7.07 -17.03,14.38 -24.1,23.09 -2.72,3.35 -5.77,6.44 -8.7,9.62 -4.7,5.1 -7.74,11.25 -10.29,17.54 -2.8,6.9 -5.25,14.03 -6.98,21.27 -1.32,5.53 -1.16,11.4 -1.9,17.09 -0.66,5.08 -1.63,10.13 -2.53,15.18 -0.16,0.88 -0.53,1.78 -1.02,2.52 -0.31,0.47 -1.02,0.69 -1.55,1.02 -0.28,-0.46 -0.6,-0.9 -0.82,-1.38 -2.47,-5.35 -2.35,-11.18 -3.09,-16.84 -0.55,-4.21 -1.6,-8 -5.97,-9.93 -0.93,-0.41 -1.55,-1.5 -2.41,-2.13 -1.57,-1.15 -3.09,-2.57 -4.87,-3.2 -6.11,-2.18 -8.97,-5.39 -9.28,-11.79 -0.22,-4.47 0.23,-8.97 0.1,-13.44 -0.19,-6.64 -0.65,-13.08 -4.08,-19.26 -3.78,-6.8 -6.38,-14.24 -9.57,-21.37 -1.62,-3.63 -3.35,-7.22 -5.15,-10.77 -4.23,-8.33 -5.81,-17.49 -8.35,-26.34 -3.16,-11.02 -6.09,-22.11 -9.52,-33.05 -2.41,-7.7 -4.82,-15.36 -6.04,-23.36 -0.39,-2.54 -1.1,-5.05 -1.91,-7.49 -3,-9.06 -6.04,-18.11 -9.19,-27.12 -0.97,-2.78 -1.14,-5.37 -0.34,-8.27 0.88,-3.18 1.03,-6.56 1.64,-9.82 1.22,-6.53 2.53,-13.05 3.84,-19.57 0.46,-2.28 0.82,-4.61 1.55,-6.81 1.09,-3.29 2.46,-6.49 3.76,-9.7 0.11,-0.28 0.64,-0.39 1.47,-0.86 -0.06,1.67 0.06,2.96 -0.18,4.18 -1.13,5.53 -2.5,11.02 -3.54,16.57 -1.8,9.63 -3.7,19.26 -4.95,28.98 -0.36,2.8 1.04,6 2.21,8.78 5.37,12.69 9.13,25.81 11.61,39.37 0.9,4.94 3.05,9.65 4.62,14.46 1.6,4.9 3.4,9.74 4.77,14.7 2.63,9.54 5.11,19.13 7.45,28.74 1.73,7.08 4.07,13.84 7.94,20.08 1.29,2.08 1.73,4.67 2.74,6.95 3.41,7.75 6.96,15.44 10.32,23.21 2.6,6.02 2.8,12.42 2.65,18.86 -0.11,4.65 -0.26,9.31 -0.1,13.95 0.11,3.32 2.44,5.49 5.33,6.25 5.76,1.52 9.23,6.14 13.4,9.61 2.26,1.96 2.83,5.97 4.1,8.85 z"
   id="path1"
   style="fill:#2480a7;fill-opacity:1" />
</g>
</svg>
