<?xml version="1.0" encoding="utf-8"?>
<!-- Generator: Adobe Illustrator 27.2.0, SVG Export Plug-In . SVG Version: 6.00 Build 0)  -->
<svg version="1.1" id="Layer_0_xA0_Image_00000015316855909666319620000008218554378073423028_"
	 xmlns="http://www.w3.org/2000/svg" xmlns:xlink="http://www.w3.org/1999/xlink" x="0px" y="0px" viewBox="0 0 1100 639"
	 style="enable-background:new 0 0 1100 639;" xml:space="preserve">
<g>
	<path d="M505.74,310.17c-3.34-3.36-6.5-6.77-9.92-9.9c-5.82-5.33-11.86-10.43-17.7-15.73c-5.36-4.86-10.46-10-15.91-14.75
		c-4.94-4.3-10.24-8.19-15.3-12.35c-1.92-1.58-3.65-3.4-5.41-5.16c-3.83-3.82-7.62-7.67-11.44-11.51c-0.35-0.35-0.73-0.7-1.15-0.95
		c-12.51-7.29-24.95-14.7-37.59-21.76c-3.66-2.04-7.92-2.98-11.86-4.52c-7.97-3.12-15.92-6.27-23.85-9.46
		c-7.79-3.13-14.27-8.43-21.22-12.96c-1.5-0.98-3.3-1.5-4.95-2.25c-0.75-0.34-1.85-0.55-2.12-1.13c-0.44-0.92-0.52-2.14-0.32-3.15
		c0.06-0.3,1.56-0.47,2.39-0.44c5.98,0.22,10.1,4.26,14.76,7.22c8.15,5.18,16.81,9.25,25.92,12.57
		c13.64,4.99,27.48,9.59,39.76,17.76c6.85,4.56,14.26,8.26,21.14,12.79c3.42,2.25,6.44,5.27,9.21,8.33
		c8.15,8.97,17.84,16.14,27.1,23.83c4.91,4.08,9.4,8.68,14.11,13.02c2.63,2.42,5.33,4.77,7.94,7.2
		c7.05,6.57,14.13,13.12,21.06,19.82c1.62,1.56,3.17,1.86,5.31,1.86c3.02,0,6.45-0.11,8.98,1.21c5.09,2.65,10.24,2.11,15.55,2.11
		c8.2,0,14.56-4.05,20.89-8.45c7.1-4.94,14.34-9.69,21.38-14.72c3.51-2.51,6.52-5.73,10.09-8.14c5.07-3.44,10.26-6.82,15.73-9.55
		c8.87-4.42,17.93-2.37,26.68,0.68c9.73,3.39,19.3,7.23,28.93,10.9c3.97,1.51,7.95,2.99,11.85,4.65c9.2,3.94,18.83,5.83,28.76,6.88
		c8.93,0.94,17.76,2.73,26.65,4.05c2.62,0.39,5.31,0.37,7.95,0.7c0.76,0.09,1.46,0.73,2.18,1.12c-0.45,0.72-0.8,1.98-1.36,2.09
		c-3.15,0.59-6.43,1.57-9.51,1.2c-13.63-1.63-27.24-3.54-40.8-5.68c-3.73-0.59-7.28-2.3-10.89-3.57c-7.68-2.71-15.4-5.33-23.01-8.25
		c-7.22-2.78-14.35-5.8-21.45-8.88c-11.7-5.07-22.8-4.59-33.14,3.34c-6,4.61-11.74,9.58-17.89,13.97
		c-8.94,6.38-18.15,12.38-27.24,18.55c-5.39,3.66-11.65,3.58-17.77,4.13c-5.32,0.48-10.41,0.06-15.22-2.65
		c-1.56-0.88-3.6-0.88-5.42-1.28c-0.13,0.26-0.25,0.51-0.38,0.77c2.74,2.47,5.3,5.18,8.26,7.35c3.92,2.87,6.94,6.34,9.38,10.52
		c2.6,4.45,6.63,7.21,11.35,9.34c4.82,2.17,9.78,2.96,14.94,3.54c17.13,1.93,34.27,3.75,51.52,3.08c6.23-0.24,12.29-0.24,18.25,1.71
		c1.02,0.33,2.12,0.43,3.19,0.58c5.92,0.86,11.88,1.49,17.75,2.6c9.56,1.81,19.03,4.16,28.61,5.86c9.58,1.7,19.25,2.87,28.87,4.28
		c1.15,0.17,2.37,0.16,3.44,0.55c6.88,2.51,13.87,2,20.68,0.2c9.63-2.54,18.62-0.02,27.68,2.54c1.67,0.47,3.24,1.49,2.66,3.57
		c-0.61,2.2-2.48,2.17-4.31,1.77c-3.34-0.72-6.76-1.2-9.97-2.29c-4.65-1.58-9.22-1.05-13.8-0.11c-8.24,1.69-16.27,2.06-24.68,0.04
		c-9.01-2.17-18.43-2.62-27.61-4.17c-7.54-1.28-14.98-3.2-22.5-4.61c-8.08-1.51-16.21-2.75-24.32-4.13
		c-3.93-0.67-7.83-1.47-11.77-2.09c-2.2-0.35-4.49-0.87-6.66-0.63c-11.6,1.27-23.14,0-34.68-0.66c-9.95-0.57-19.96-1.42-29.75-3.21
		c-10.41-1.89-19.47-6.61-24.97-16.49c-1.25-2.25-3.34-4.09-5.26-5.89c-4.01-3.75-8.25-7.25-12.2-11.05
		c-1.41-1.36-2.59-1.69-4.13-0.67c-3.93,2.62-7.92,5.16-11.72,7.96c-9.38,6.89-18.63,13.95-28,20.86
		c-6.62,4.89-13.28,9.73-20.03,14.43c-10.03,6.98-19.87,14.29-30.71,20c-9.78,5.15-19.74,9.98-29.6,14.97
		c-1.34,0.68-2.57,1.55-3.94,2.17c-4.68,2.1-9.39,4.17-14.13,6.14c-0.62,0.26-1.5-0.11-2.26-0.18c0.27-0.78,0.31-1.85,0.85-2.27
		c1.51-1.16,3.18-2.13,4.87-3.03c11.76-6.22,23.59-12.3,35.29-18.62c7.46-4.03,14.97-8.04,22.05-12.68
		c7.29-4.78,14.03-10.39,21.11-15.5c7.76-5.59,15.73-10.9,23.45-16.55c7.1-5.21,13.93-10.79,21-16.05
		C498.59,314.51,502.06,312.54,505.74,310.17z"/>
</g>
</svg>
