<?xml version="1.0" encoding="UTF-8" standalone="no"?>
<!-- Generator: Adobe Illustrator 27.2.0, SVG Export Plug-In . SVG Version: 6.00 Build 0)  -->

<svg
   version="1.1"
   id="Layer_0_xA0_Image_00000005258780487207639550000008473301633422354319_"
   x="0px"
   y="0px"
   viewBox="0 0 378.64865 307.31885"
   xml:space="preserve"
   sodipodi:docname="z_lowercase.svg"
   width="378.64865"
   height="307.31885"
   inkscape:version="1.4 (e7c3feb1, 2024-10-09)"
   xmlns:inkscape="http://www.inkscape.org/namespaces/inkscape"
   xmlns:sodipodi="http://sodipodi.sourceforge.net/DTD/sodipodi-0.dtd"
   xmlns="http://www.w3.org/2000/svg"
   xmlns:svg="http://www.w3.org/2000/svg"><defs
   id="defs1" /><sodipodi:namedview
   id="namedview1"
   pagecolor="#ffffff"
   bordercolor="#000000"
   borderopacity="0.25"
   inkscape:showpageshadow="2"
   inkscape:pageopacity="0.0"
   inkscape:pagecheckerboard="0"
   inkscape:deskcolor="#d1d1d1"
   inkscape:zoom="0.041269841"
   inkscape:cx="218.07692"
   inkscape:cy="193.84615"
   inkscape:window-width="1120"
   inkscape:window-height="1011"
   inkscape:window-x="7"
   inkscape:window-y="33"
   inkscape:window-maximized="0"
   inkscape:current-layer="Layer_0_xA0_Image_00000005258780487207639550000008473301633422354319_" />
<g
   id="g1"
   style="fill:#2480a7;fill-opacity:1"
   transform="translate(-434.53094,-125.0621)">
	<path
   d="m 601.18,340.87 c 3.45,0.24 6.6,0.36 9.72,0.7 5.96,0.65 11.99,1.17 16.83,5.35 8.52,7.36 14.63,16.5 19.5,26.53 1.27,2.62 2.46,5.27 3.81,7.85 3.83,7.28 7.56,14.62 11.64,21.76 3.03,5.31 12.25,9.98 19.33,6.03 5.36,-2.99 10.48,-6.2 14.37,-10.98 2.4,-2.95 4.83,-6.01 6.46,-9.4 2.08,-4.34 5.62,-7.12 8.92,-10.23 1.21,-1.14 2.64,-2.04 3.78,-3.24 6.44,-6.76 15.26,-9.31 23.34,-13.08 12.84,-5.98 26.46,-9.26 40.52,-10.96 6.97,-0.85 13.91,-2.06 20.81,-3.43 3.95,-0.78 6.57,1.18 9.09,3.49 0.96,0.88 0.8,2.2 -0.75,2.7 -2.21,0.71 -4.45,1.35 -6.68,2.02 -6.13,1.83 -12.17,4.14 -18.43,5.37 -12.52,2.46 -23.92,8.04 -35.8,12.25 -2.81,1 -5.35,3.02 -7.72,4.93 -5.36,4.32 -10.89,8.54 -15.67,13.46 -2.98,3.06 -4.72,7.33 -7.03,11.04 -0.52,0.84 -1.05,1.7 -1.68,2.45 -3.09,3.65 -6.12,7.37 -9.37,10.88 -4.1,4.44 -7.9,9.42 -12.77,12.81 -3.27,2.27 -8.14,2.51 -12.38,3.06 -5.94,0.77 -11.48,-1.57 -17,-3.31 -1.78,-0.56 -3.45,-2.09 -4.71,-3.56 -6.22,-7.29 -12.03,-14.87 -15.98,-23.7 -2.95,-6.6 -6.24,-13.07 -8.88,-19.79 -1.99,-5.08 -3.09,-10.5 -4.78,-15.71 -1.16,-3.58 -2.68,-6.94 -6.7,-8.45 -2.32,-0.87 -4.39,-2.38 -6.66,-3.38 -0.99,-0.44 -2.23,-0.47 -3.35,-0.43 -1.66,0.05 -3.33,0.61 -4.95,0.46 -4.43,-0.4 -8.36,0.81 -12.46,2.39 -3.04,1.17 -6.7,0.74 -10.09,1 -0.83,0.06 -1.68,0.11 -2.5,0 -4.81,-0.64 -7.5,2.04 -10.28,5.57 -3.42,4.35 -7.4,8.34 -11.6,11.95 -2.26,1.94 -5.33,2.55 -8.61,0.98 -3.87,-1.86 -8.05,-3.07 -12.06,-4.66 -0.93,-0.37 -1.68,-1.17 -2.51,-1.77 0.63,-0.71 1.19,-1.51 1.91,-2.12 7.07,-6 14.16,-11.97 21.27,-17.93 4.02,-3.37 8.25,-6.49 12.07,-10.07 6.97,-6.52 13.73,-13.26 20.52,-19.97 5.98,-5.9 12.05,-11.71 17.76,-17.86 6.62,-7.12 13.15,-14.36 19.25,-21.93 6.41,-7.96 12.21,-16.41 18.39,-24.55 4.12,-5.42 8.66,-10.53 12.63,-16.05 3.53,-4.92 6.53,-10.22 9.76,-15.36 0.25,-0.4 0.43,-0.86 0.7,-1.42 -6.98,-1.06 -13.76,-2.11 -20.55,-3.11 -4.93,-0.72 -9.9,-1.22 -14.8,-2.09 -7.31,-1.3 -14.01,0.96 -20.72,3.22 -10.09,3.39 -20.02,7.28 -30.21,10.31 -15.49,4.6 -31.39,5.42 -47.47,4.21 -8.7,-0.65 -17.44,-0.8 -26.16,-1.16 -4.24,-0.17 -8.48,-0.31 -12.73,-0.46 -0.58,-0.02 -1.29,-0.23 -1.73,0.02 -3.11,1.74 -3.15,-0.78 -3.7,-2.58 -0.86,-2.86 -1.75,-5.71 -2.49,-8.6 -0.27,-1.03 -0.14,-2.16 -0.19,-3.15 8.76,0.82 17.07,1.69 25.4,2.37 10.85,0.88 21.7,2.06 32.56,2.27 10.69,0.21 21.21,-1.59 30.97,-6.16 -4.51,-5 -9.4,-9.8 -13.55,-15.18 -4.09,-5.3 -9.44,-7.58 -15.61,-9.3 -29.41,-8.22 -58.76,-16.67 -88.12,-25.09 -8.72,-2.5 -17.38,-5.18 -26.09,-7.68 -1.88,-0.54 -2.65,-1.53 -2.39,-3.4 0.28,-1.98 1.84,-1.62 3.1,-1.57 1.15,0.05 2.32,0.26 3.43,0.57 9.76,2.72 19.47,5.62 29.26,8.19 8.6,2.26 17.31,4.1 25.94,6.28 5.24,1.32 10.39,2.96 15.6,4.39 10.34,2.85 20.7,5.6 31.02,8.49 6.24,1.75 12.52,3.46 18.59,5.7 2.25,0.83 4.17,2.94 5.86,4.81 5.14,5.67 10.1,11.5 15.13,17.26 0.25,0.29 0.56,0.54 1.14,0.6 -0.71,-1.27 -1.36,-2.57 -2.14,-3.79 -2.53,-3.96 -4.08,-8.2 -3.65,-12.96 0.77,-8.53 1.55,-17.06 2.42,-25.58 0.34,-3.31 0.96,-6.58 1.43,-9.87 0.82,-5.65 -0.83,-10.88 -2.81,-16.04 -1.6,-4.19 -3.25,-8.36 -4.86,-12.54 -0.18,-0.46 -0.27,-0.96 -0.39,-1.44 -0.52,-2.01 -0.18,-4.02 1.94,-4.42 1.01,-0.19 2.85,1.17 3.45,2.3 1.48,2.77 2.62,5.75 3.61,8.74 1.2,3.62 2.2,7.32 3.1,11.03 1.86,7.65 1.23,15.35 0.37,23.07 -0.88,7.93 -1.7,15.88 -2.26,23.84 -0.33,4.76 1.5,9.16 3.45,13.41 1.11,2.42 2.55,4.67 3.79,7.03 0.54,1.02 1.08,1.54 2.33,0.95 6.61,-3.14 13.29,-6.14 19.86,-9.37 1.6,-0.79 3,-2.13 4.22,-3.47 1.27,-1.4 2.62,-1.65 4.42,-1.58 5.32,0.21 10.66,0.43 15.98,0.2 5.7,-0.25 11.05,1.06 16.42,2.63 7.51,2.19 15.08,4.17 22.55,6.49 6.27,1.94 12.48,0.66 18.55,-0.39 17.45,-3.02 34.82,-6.51 52.23,-9.81 1.14,-0.22 2.3,-0.47 3.46,-0.47 8.45,-0.02 16.3,-2.98 24.4,-4.79 8.03,-1.79 16.13,-3.3 24.18,-5 2.35,-0.5 4.65,-1.24 6.97,-1.87 1.59,-0.43 2.51,0.16 2.97,1.75 1.17,4.06 2.49,8.08 3.52,12.17 0.17,0.66 -0.81,2.33 -1.29,2.34 -9.64,0.3 -17.96,5.38 -27.1,7.35 -16.41,3.53 -32.88,6.83 -49.38,9.92 -8.49,1.59 -17.08,3.14 -25.68,3.51 -6.33,0.27 -9.47,3.96 -12.89,8.05 -7.26,8.66 -14.44,17.39 -21.89,25.88 -6.85,7.8 -14.12,15.24 -21.02,22.99 -6.68,7.51 -13.08,15.27 -19.69,22.84 -6.5,7.44 -13.02,14.86 -19.7,22.14 -3.93,4.29 -8.18,8.28 -12.28,12.42 -0.34,0.32 -0.55,0.76 -1.06,1.49 z"
   id="path1"
   style="fill:#2480a7;fill-opacity:1" />
</g>
</svg>
