<?xml version="1.0" encoding="UTF-8" standalone="no"?>
<!-- Generator: Adobe Illustrator 27.2.0, SVG Export Plug-In . SVG Version: 6.00 Build 0)  -->

<svg
   version="1.1"
   id="Calque_1"
   x="0px"
   y="0px"
   viewBox="0 0 401.46794 190.8907"
   xml:space="preserve"
   sodipodi:docname="a_uppercase.svg"
   width="401.46796"
   height="190.8907"
   inkscape:version="1.4 (e7c3feb1, 2024-10-09)"
   xmlns:inkscape="http://www.inkscape.org/namespaces/inkscape"
   xmlns:sodipodi="http://sodipodi.sourceforge.net/DTD/sodipodi-0.dtd"
   xmlns="http://www.w3.org/2000/svg"
   xmlns:svg="http://www.w3.org/2000/svg"><defs
   id="defs1" /><sodipodi:namedview
   id="namedview1"
   pagecolor="#ffffff"
   bordercolor="#000000"
   borderopacity="0.25"
   inkscape:showpageshadow="2"
   inkscape:pageopacity="0.0"
   inkscape:pagecheckerboard="0"
   inkscape:deskcolor="#d1d1d1"
   inkscape:zoom="0.030882894"
   inkscape:cx="226.6627"
   inkscape:cy="80.950963"
   inkscape:window-width="1120"
   inkscape:window-height="558"
   inkscape:window-x="0"
   inkscape:window-y="25"
   inkscape:window-maximized="0"
   inkscape:current-layer="Calque_1" />
<style
   type="text/css"
   id="style1">
	.st0{fill:#020203;}
</style>
<g
   id="g1"
   style="fill:#2480a7;fill-opacity:1"
   transform="translate(-80.052179,-313.86661)">
	<path
   class="st0"
   d="m 480.22,376.28 c 0,7.87 1.12,15.94 -0.26,23.55 -2.05,11.39 -2.28,23.23 -6.98,34.13 -0.63,1.47 -0.72,3.23 -0.84,4.87 -0.49,6.28 -3.6,11.47 -6.95,16.55 -6.6,10.09 -16.37,16.98 -25.43,24.53 -5.65,4.73 -11.62,9.17 -17.64,13.4 -2.36,1.67 -5.25,2.65 -8.01,3.63 -10.18,3.57 -20.15,7.55 -31.28,7.81 -7.93,0.17 -14.64,-2.65 -21.5,-5.65 -2.16,-0.95 -4.09,-2.54 -6.31,-3.32 -10.58,-3.75 -16.11,-12.37 -20.41,-21.74 -3.89,-8.48 -9.05,-16.03 -14.24,-23.67 -3.86,-5.65 -9.05,-9.37 -15.22,-11.88 -0.84,-0.35 -2.22,-0.61 -2.8,-0.17 -3.98,3.03 -8.48,5.71 -11.56,9.51 -4.3,5.3 -7.38,11.62 -11.3,17.27 -1.3,1.84 -3.43,3.26 -5.42,4.47 -14.82,8.94 -31.05,8.24 -47.42,7.03 -10.72,-0.78 -21.5,-0.86 -32.29,-1.41 -2.28,-0.12 -4.53,-1.01 -6.8,-1.18 -6.31,-0.52 -11.96,1.27 -17.47,4.47 -4.35,2.51 -9.14,4.67 -14.01,5.85 -11.39,2.8 -22.28,7.87 -34.53,7.09 -8.88,-0.58 -16.26,-4.04 -21.91,-10.41 -6.2,-6.98 -11.65,-14.64 -17.12,-22.2 -1.33,-1.82 -2.08,-4.47 -2.1,-6.75 -0.12,-9.48 -1.07,-19.2 0.66,-28.37 1.33,-7.06 6.02,-13.55 9.57,-20.12 1.87,-3.49 4.24,-6.77 6.83,-9.77 4.73,-5.51 9.6,-10.93 14.79,-16 5.22,-5.1 10.61,-10.18 16.46,-14.47 4.24,-3.11 9.17,-5.59 14.18,-7.24 6.17,-2.02 12.83,-2.45 19.05,-4.32 10,-3.03 20.15,-2.31 30.3,-2.28 10.67,0 20.01,3.83 27.3,11.73 5.22,5.68 10.06,11.7 14.79,17.81 6.17,7.93 19.26,10.32 28.08,5.07 3.98,-2.36 8.62,-3.72 12.28,-6.46 6.11,-4.58 11.39,-10.29 17.56,-14.85 4.93,-3.63 10.38,-6.77 16,-9.2 5.3,-2.28 11.39,-2.71 16.69,-5.02 7.21,-3.14 12.11,-9.43 16.66,-15.57 4.27,-5.77 9.25,-10.78 15.02,-14.73 3.26,-2.22 7.81,-3.34 11.82,-3.49 17.53,-0.61 35.08,-1.18 52.58,-0.78 10.61,0.26 21.33,1.56 31.71,3.81 10.35,2.25 19.11,8.62 23.93,18.02 4.15,8.07 5.22,17.47 4.73,26.78 -0.23,4.55 -0.03,9.11 -0.03,13.66 -0.44,0.01 -0.81,0.01 -1.16,0.01 z m -186.54,34.56 c 7.9,-1.27 15.6,-2.22 23.15,-3.75 6.63,-1.35 8.99,-5.45 6.66,-10.61 -0.78,-1.7 -1.73,-3.32 -2.59,-4.96 -3.11,-5.91 -8.59,-8.48 -13.81,-5.28 -6.37,3.92 -12.4,8.62 -17.99,13.61 -1.93,1.73 -3.11,5.51 -2.71,8.07 0.17,1.33 4.64,1.97 7.29,2.92 z"
   id="path1"
   style="fill:#2480a7;fill-opacity:1" />
</g>
</svg>
