<?xml version="1.0" encoding="UTF-8" standalone="no"?>
<!-- Generator: Adobe Illustrator 27.2.0, SVG Export Plug-In . SVG Version: 6.00 Build 0)  -->

<svg
   version="1.1"
   id="Layer_0_xA0_Image_00000124883251923959847460000001722515038974370233_"
   x="0px"
   y="0px"
   viewBox="0 0 310.9458 471.71368"
   xml:space="preserve"
   sodipodi:docname="b_uppercase.svg"
   width="310.9458"
   height="471.71368"
   inkscape:version="1.4 (e7c3feb1, 2024-10-09)"
   xmlns:inkscape="http://www.inkscape.org/namespaces/inkscape"
   xmlns:sodipodi="http://sodipodi.sourceforge.net/DTD/sodipodi-0.dtd"
   xmlns="http://www.w3.org/2000/svg"
   xmlns:svg="http://www.w3.org/2000/svg"><defs
   id="defs1" /><sodipodi:namedview
   id="namedview1"
   pagecolor="#ffffff"
   bordercolor="#000000"
   borderopacity="0.25"
   inkscape:showpageshadow="2"
   inkscape:pageopacity="0.0"
   inkscape:pagecheckerboard="0"
   inkscape:deskcolor="#d1d1d1"
   inkscape:zoom="0.041666667"
   inkscape:cx="144"
   inkscape:cy="276"
   inkscape:window-width="1120"
   inkscape:window-height="540"
   inkscape:window-x="0"
   inkscape:window-y="25"
   inkscape:window-maximized="0"
   inkscape:current-layer="Layer_0_xA0_Image_00000124883251923959847460000001722515038974370233_" />
<g
   id="g1"
   style="fill:#2480a7;fill-opacity:1"
   transform="translate(-283.97883,-17.943246)">
	<path
   d="m 548.11,18.88 c -2.57,4.39 -4.29,8.58 -7.09,11.84 -5.24,6.1 -11.09,11.68 -16.73,17.43 -2.27,2.31 -4.64,4.52 -7.03,6.7 -4.53,4.15 -9.33,8.03 -13.62,12.41 -5.99,6.1 -11.5,12.67 -17.46,18.81 -3.26,3.36 -2.99,11.11 -0.87,14.81 2.23,3.89 4.5,7.75 6.94,11.51 1.9,2.92 4,5.72 6.17,8.45 2.02,2.55 2.99,5.39 2.78,8.57 -0.4,5.96 0.27,11.16 5.01,15.85 5.94,5.87 8,13.68 8.24,22.07 0.11,3.94 1.68,7.81 1.99,11.76 0.5,6.37 0.66,12.78 0.64,19.17 -0.01,1.9 -1.08,3.81 -1.71,5.7 -3.36,10.17 -8.3,19.87 -9.72,30.62 -0.84,6.33 -1.2,12.74 -1.43,19.12 -0.33,9.14 -0.27,18.3 -0.5,27.45 -0.14,5.56 -0.82,11.12 -0.75,16.67 0.18,14.59 2.89,28.76 7.84,42.48 2.98,8.27 6.2,16.46 9.24,24.71 0.71,1.92 1.55,2.68 3.84,2.24 15.33,-2.97 30.71,-5.65 46.03,-8.68 3.16,-0.63 6.1,-2.4 9.17,-3.54 0.56,-0.21 1.4,-0.12 1.93,0.15 2.93,1.53 5.82,3.14 8.69,4.77 0.37,0.21 0.92,0.86 0.84,1.01 -0.24,0.45 -0.7,0.92 -1.17,1.09 -7.45,2.58 -14.92,5.1 -22.37,7.68 -2.67,0.92 -5.28,1.99 -7.93,2.98 -1.3,0.49 -1.96,1.27 -1.89,2.81 0.13,2.63 0.04,5.27 0.04,8.06 -0.09,-0.06 0.05,0.11 0.18,0.11 8.07,0 16.14,0 24.2,-0.03 3.66,-0.01 7.32,-0.17 10.98,-0.05 0.81,0.03 1.92,0.77 2.26,1.49 0.27,0.56 -0.24,1.77 -0.77,2.37 -2.61,2.9 -5.3,5.74 -8.05,8.51 -2.5,2.52 -3.53,5.58 -3.57,9.03 -0.03,3.16 -0.13,6.34 0.05,9.49 0.15,2.59 -0.75,4.65 -2.73,6.09 -2.13,1.56 -4.34,3.31 -6.79,4.07 -4.49,1.4 -9.18,2.13 -13.79,3.14 -0.24,0.05 -0.51,0 -0.74,0.07 -8.17,2.58 -16.76,2.38 -25.1,3.83 -15.3,2.66 -30.69,4.93 -45.89,8.09 -8.59,1.79 -16.91,4.91 -25.28,7.64 -13.99,4.55 -27.78,9.7 -42.45,11.89 -8.06,1.2 -16.06,2.78 -24.05,4.41 -7.65,1.56 -15.28,3.23 -22.84,5.17 -14.25,3.67 -28.49,7.41 -42.65,11.42 -9.67,2.74 -19.21,5.94 -28.77,9.03 -2.34,0.76 -3.48,0.13 -4.37,-2.13 -1.51,-3.86 -3.39,-7.57 -4.97,-11.4 -2.66,-6.45 -5.22,-12.94 -7.81,-19.42 -0.39,-0.98 -0.65,-1.9 0.86,-2.33 0.39,-0.11 0.64,-0.99 0.8,-1.56 1.59,-5.84 2.93,-11.76 4.77,-17.53 3.55,-11.14 5.64,-22.54 7.21,-34.1 1.47,-10.84 4.8,-21.16 9.51,-31.1 2.48,-5.23 4.06,-10.9 5.83,-16.44 3.67,-11.48 2.95,-23.28 2.6,-35.11 -0.3,-10.18 -1.54,-20.46 0.85,-30.56 0.82,-3.46 2.12,-6.83 3.46,-10.13 4.37,-10.77 8.86,-21.49 13.29,-32.24 3.45,-8.37 9.04,-14.84 16.32,-20.29 9.77,-7.31 20.22,-13.37 30.92,-19.14 5.33,-2.87 10.26,-6.48 15.4,-9.72 5.27,-3.32 10.94,-6.12 15.76,-9.99 5.21,-4.18 9.79,-9.18 14.37,-14.09 2.86,-3.07 5.61,-6.33 6.74,-10.62 1.48,-5.61 3.17,-11.16 4.74,-16.75 3.06,-10.88 1.1,-22.02 1.78,-33.02 0.11,-1.74 0.67,-3.53 1.34,-5.16 4,-9.76 8.43,-19.36 12.07,-29.25 4.19,-11.38 10.87,-19.85 23.07,-23 9.82,-2.53 18.63,-7.29 26.72,-13.14 8.81,-6.37 17.07,-13.5 25.63,-20.22 0.98,-0.77 2.33,-1.27 3.58,-1.46 4.1,-0.63 8.22,-1.15 12.35,-1.5 1.18,-0.08 2.42,0.57 3.86,0.93 z M 324.1,451.5 c 1.32,-0.28 2.32,-0.36 3.23,-0.7 9.2,-3.41 18.42,-6.75 27.55,-10.33 13.7,-5.39 27.39,-10.83 40.98,-16.49 11.89,-4.95 23.69,-10.14 35.44,-15.4 4.76,-2.13 9.14,-5.19 14,-7.02 6.39,-2.41 12.13,-5.64 16.39,-10.93 2.25,-2.79 4.34,-6.08 5.26,-9.47 1.87,-6.85 2.11,-13.98 1.03,-21.04 -0.98,-6.4 -3.61,-12.29 -8.2,-16.77 -4.31,-4.2 -9.3,-7.77 -14.24,-11.26 -4.59,-3.24 -9.49,-6.05 -14.31,-8.95 -1.85,-1.11 -3.89,-1.89 -5.76,-2.96 -6.66,-3.82 -10.41,-9.25 -10.89,-17.25 -0.46,-7.66 0.34,-15.08 1.61,-22.56 0.74,-4.35 2.6,-8.05 6.01,-10.6 5.66,-4.23 11.46,-8.31 17.5,-11.96 10.31,-6.22 20.91,-11.97 31.3,-18.07 6.34,-3.73 9.67,-9.85 10.46,-16.8 1.01,-8.79 2.59,-17.56 1.58,-26.56 -1.33,-11.77 -1.97,-23.62 -3,-35.43 -0.58,-6.6 -3.88,-11.12 -10.43,-13.04 -1.48,-0.44 -2.86,-1.22 -4.76,-2.05 -0.94,2.13 -2.22,4.13 -2.71,6.31 -0.89,3.96 -1.24,8.04 -1.94,12.05 -0.87,5.03 -1.08,10.31 -5.11,14.25 -0.62,0.6 -0.89,1.59 -1.23,2.43 -2.54,6.17 -6.24,11.47 -11.15,16.06 -4.98,4.65 -9.61,9.67 -14.41,14.51 -1.52,1.53 -2.89,3.28 -4.63,4.5 -8.57,6.02 -17.22,11.94 -25.89,17.81 -1.92,1.3 -3.96,2.53 -6.11,3.34 -9.78,3.71 -18.77,8.9 -27.49,14.56 -3.12,2.03 -6.06,4.74 -6.63,8.66 -0.92,6.32 -1.63,12.69 -1.95,19.06 -0.6,11.99 -1.97,23.85 -4.85,35.51 -3.05,12.37 -5.05,24.85 -5.97,37.6 -0.77,10.75 -2.58,21.45 -4.51,32.07 -1.4,7.75 -3.59,15.37 -5.74,22.95 -0.98,3.47 -2.39,6.92 -4.19,10.04 -2.89,5.03 -6.3,9.76 -9.41,14.68 -0.54,0.85 -1.08,2.08 -0.88,2.97 1.21,5.34 2.62,10.63 4.05,16.28 z"
   id="path1"
   style="fill:#2480a7;fill-opacity:1" />
</g>
</svg>
