<?xml version="1.0" encoding="utf-8"?>
<!-- Generator: Adobe Illustrator 27.2.0, SVG Export Plug-In . SVG Version: 6.00 Build 0)  -->
<svg version="1.1" id="Layer_0_xA0_Image_00000124883251923959847460000001722515038974370233_"
	 xmlns="http://www.w3.org/2000/svg" xmlns:xlink="http://www.w3.org/1999/xlink" x="0px" y="0px" viewBox="0 0 861 624"
	 style="enable-background:new 0 0 861 624;" xml:space="preserve">
<g>
	<path d="M548.11,18.88c-2.57,4.39-4.29,8.58-7.09,11.84c-5.24,6.1-11.09,11.68-16.73,17.43c-2.27,2.31-4.64,4.52-7.03,6.7
		c-4.53,4.15-9.33,8.03-13.62,12.41c-5.99,6.1-11.5,12.67-17.46,18.81c-3.26,3.36-2.99,11.11-0.87,14.81
		c2.23,3.89,4.5,7.75,6.94,11.51c1.9,2.92,4,5.72,6.17,8.45c2.02,2.55,2.99,5.39,2.78,8.57c-0.4,5.96,0.27,11.16,5.01,15.85
		c5.94,5.87,8,13.68,8.24,22.07c0.11,3.94,1.68,7.81,1.99,11.76c0.5,6.37,0.66,12.78,0.64,19.17c-0.01,1.9-1.08,3.81-1.71,5.7
		c-3.36,10.17-8.3,19.87-9.72,30.62c-0.84,6.33-1.2,12.74-1.43,19.12c-0.33,9.14-0.27,18.3-0.5,27.45
		c-0.14,5.56-0.82,11.12-0.75,16.67c0.18,14.59,2.89,28.76,7.84,42.48c2.98,8.27,6.2,16.46,9.24,24.71
		c0.71,1.92,1.55,2.68,3.84,2.24c15.33-2.97,30.71-5.65,46.03-8.68c3.16-0.63,6.1-2.4,9.17-3.54c0.56-0.21,1.4-0.12,1.93,0.15
		c2.93,1.53,5.82,3.14,8.69,4.77c0.37,0.21,0.92,0.86,0.84,1.01c-0.24,0.45-0.7,0.92-1.17,1.09c-7.45,2.58-14.92,5.1-22.37,7.68
		c-2.67,0.92-5.28,1.99-7.93,2.98c-1.3,0.49-1.96,1.27-1.89,2.81c0.13,2.63,0.04,5.27,0.04,8.06c-0.09-0.06,0.05,0.11,0.18,0.11
		c8.07,0,16.14,0,24.2-0.03c3.66-0.01,7.32-0.17,10.98-0.05c0.81,0.03,1.92,0.77,2.26,1.49c0.27,0.56-0.24,1.77-0.77,2.37
		c-2.61,2.9-5.3,5.74-8.05,8.51c-2.5,2.52-3.53,5.58-3.57,9.03c-0.03,3.16-0.13,6.34,0.05,9.49c0.15,2.59-0.75,4.65-2.73,6.09
		c-2.13,1.56-4.34,3.31-6.79,4.07c-4.49,1.4-9.18,2.13-13.79,3.14c-0.24,0.05-0.51,0-0.74,0.07c-8.17,2.58-16.76,2.38-25.1,3.83
		c-15.3,2.66-30.69,4.93-45.89,8.09c-8.59,1.79-16.91,4.91-25.28,7.64c-13.99,4.55-27.78,9.7-42.45,11.89
		c-8.06,1.2-16.06,2.78-24.05,4.41c-7.65,1.56-15.28,3.23-22.84,5.17c-14.25,3.67-28.49,7.41-42.65,11.42
		c-9.67,2.74-19.21,5.94-28.77,9.03c-2.34,0.76-3.48,0.13-4.37-2.13c-1.51-3.86-3.39-7.57-4.97-11.4
		c-2.66-6.45-5.22-12.94-7.81-19.42c-0.39-0.98-0.65-1.9,0.86-2.33c0.39-0.11,0.64-0.99,0.8-1.56c1.59-5.84,2.93-11.76,4.77-17.53
		c3.55-11.14,5.64-22.54,7.21-34.1c1.47-10.84,4.8-21.16,9.51-31.1c2.48-5.23,4.06-10.9,5.83-16.44c3.67-11.48,2.95-23.28,2.6-35.11
		c-0.3-10.18-1.54-20.46,0.85-30.56c0.82-3.46,2.12-6.83,3.46-10.13c4.37-10.77,8.86-21.49,13.29-32.24
		c3.45-8.37,9.04-14.84,16.32-20.29c9.77-7.31,20.22-13.37,30.92-19.14c5.33-2.87,10.26-6.48,15.4-9.72
		c5.27-3.32,10.94-6.12,15.76-9.99c5.21-4.18,9.79-9.18,14.37-14.09c2.86-3.07,5.61-6.33,6.74-10.62
		c1.48-5.61,3.17-11.16,4.74-16.75c3.06-10.88,1.1-22.02,1.78-33.02c0.11-1.74,0.67-3.53,1.34-5.16c4-9.76,8.43-19.36,12.07-29.25
		c4.19-11.38,10.87-19.85,23.07-23c9.82-2.53,18.63-7.29,26.72-13.14c8.81-6.37,17.07-13.5,25.63-20.22
		c0.98-0.77,2.33-1.27,3.58-1.46c4.1-0.63,8.22-1.15,12.35-1.5C545.43,17.87,546.67,18.52,548.11,18.88z M324.1,451.5
		c1.32-0.28,2.32-0.36,3.23-0.7c9.2-3.41,18.42-6.75,27.55-10.33c13.7-5.39,27.39-10.83,40.98-16.49
		c11.89-4.95,23.69-10.14,35.44-15.4c4.76-2.13,9.14-5.19,14-7.02c6.39-2.41,12.13-5.64,16.39-10.93c2.25-2.79,4.34-6.08,5.26-9.47
		c1.87-6.85,2.11-13.98,1.03-21.04c-0.98-6.4-3.61-12.29-8.2-16.77c-4.31-4.2-9.3-7.77-14.24-11.26c-4.59-3.24-9.49-6.05-14.31-8.95
		c-1.85-1.11-3.89-1.89-5.76-2.96c-6.66-3.82-10.41-9.25-10.89-17.25c-0.46-7.66,0.34-15.08,1.61-22.56
		c0.74-4.35,2.6-8.05,6.01-10.6c5.66-4.23,11.46-8.31,17.5-11.96c10.31-6.22,20.91-11.97,31.3-18.07c6.34-3.73,9.67-9.85,10.46-16.8
		c1.01-8.79,2.59-17.56,1.58-26.56c-1.33-11.77-1.97-23.62-3-35.43c-0.58-6.6-3.88-11.12-10.43-13.04
		c-1.48-0.44-2.86-1.22-4.76-2.05c-0.94,2.13-2.22,4.13-2.71,6.31c-0.89,3.96-1.24,8.04-1.94,12.05
		c-0.87,5.03-1.08,10.31-5.11,14.25c-0.62,0.6-0.89,1.59-1.23,2.43c-2.54,6.17-6.24,11.47-11.15,16.06
		c-4.98,4.65-9.61,9.67-14.41,14.51c-1.52,1.53-2.89,3.28-4.63,4.5c-8.57,6.02-17.22,11.94-25.89,17.81
		c-1.92,1.3-3.96,2.53-6.11,3.34c-9.78,3.71-18.77,8.9-27.49,14.56c-3.12,2.03-6.06,4.74-6.63,8.66
		c-0.92,6.32-1.63,12.69-1.95,19.06c-0.6,11.99-1.97,23.85-4.85,35.51c-3.05,12.37-5.05,24.85-5.97,37.6
		c-0.77,10.75-2.58,21.45-4.51,32.07c-1.4,7.75-3.59,15.37-5.74,22.95c-0.98,3.47-2.39,6.92-4.19,10.04
		c-2.89,5.03-6.3,9.76-9.41,14.68c-0.54,0.85-1.08,2.08-0.88,2.97C321.26,440.56,322.67,445.85,324.1,451.5z"/>
</g>
</svg>
