<?xml version="1.0" encoding="UTF-8" standalone="no"?>
<!-- Generator: Adobe Illustrator 27.2.0, SVG Export Plug-In . SVG Version: 6.00 Build 0)  -->

<svg
   version="1.1"
   id="Calque_1"
   x="0px"
   y="0px"
   viewBox="0 0 392.86201 364.2774"
   xml:space="preserve"
   sodipodi:docname="c_uppercase.svg"
   width="392.86203"
   height="364.2774"
   inkscape:version="1.4 (e7c3feb1, 2024-10-09)"
   xmlns:inkscape="http://www.inkscape.org/namespaces/inkscape"
   xmlns:sodipodi="http://sodipodi.sourceforge.net/DTD/sodipodi-0.dtd"
   xmlns="http://www.w3.org/2000/svg"
   xmlns:svg="http://www.w3.org/2000/svg"><defs
   id="defs1" /><sodipodi:namedview
   id="namedview1"
   pagecolor="#ffffff"
   bordercolor="#000000"
   borderopacity="0.25"
   inkscape:showpageshadow="2"
   inkscape:pageopacity="0.0"
   inkscape:pagecheckerboard="0"
   inkscape:deskcolor="#d1d1d1"
   inkscape:zoom="0.030882894"
   inkscape:cx="194.28231"
   inkscape:cy="226.6627"
   inkscape:window-width="1120"
   inkscape:window-height="679"
   inkscape:window-x="0"
   inkscape:window-y="25"
   inkscape:window-maximized="0"
   inkscape:current-layer="Calque_1" />
<path
   d="m 174.33165,306.36261 c 10.26,-1.41 20.57,-2.51 30.75,-4.35 5.36,-0.97 9.36,0.12 13.14,3.93 5.96,6.01 6.45,6.24 1.19,12.97 -7.1,9.08 -15.15,17.43 -22.14,26.59 -3.17,4.15 -5.84,8.34 -11.29,9.4 -6.54,1.28 -13.13,2.35 -19.68,3.59 -10.39,1.97 -20.7,0.93 -31.1,-0.15 -5.84,-0.6 -11.85,0.48 -17.79,0.79 -5.97,0.31 -11.98,0.3 -17.899998,0.99 -7.25,0.84 -14.44,2.28 -21.66,3.44 -1.77,0.28 -3.56,0.81 -5.32,0.7 -16.39,-1.02 -32.8,-1.87 -49.14,-3.41 -5.37,-0.5 -11.17,-1.86 -15.7099997,-4.59 -7.95999996,-4.77 -9.94,-16.13 -4.97,-23.9 17.8599997,-27.9 35.2599997,-56.11 57.0399997,-81.28 9.14,-10.56 20.46,-18.4 31.68,-26.41 17.089998,-12.2 34.239998,-24.31 51.219998,-36.67 6.75,-4.91 13.08,-10.4 19.63,-15.59 10.34,-8.19 17.69,-18.84 24.65,-29.83 0.82,-1.29 1.68,-2.6 2.74,-3.67 11.2,-11.26 22.06,-22.88 33.79,-33.57 9.75,-8.879995 20.67,-16.459995 30.78,-24.959995 6.79,-5.71 13.47,-11.64 19.49,-18.14 17.2,-18.61 34.12,-37.47 53.5,-53.9000004 3.28,-2.78 6.71,-5.51 10.45,-7.55999997 1.82,-0.99 4.74,-0.98 6.8,-0.31 3.89,1.25999997 7.75,2.94999997 11.22,5.09999997 10.74,6.6700004 21.23,13.7400004 31.94,20.4500004 5.88,3.69 6.84,6.88 2.64,12.37 -3.88,5.08 -7.67,10.34 -12.25,14.75 -5.15,4.96 -7.71,10.86 -9.71,17.49 -3.87,12.82 -10.46,24.42 -16.86,36.129995 -5.91,10.81 -11,22.08 -16.07,33.32 -3.12,6.92 -5.93,14.05 -8.11,21.31 -3.5,11.63 -9.56,21.92 -16.06,31.91 -6.49,9.98 -13.8,19.44 -20.77,29.11 -2,2.77 -3.98,5.56 -6.13,8.21 -2.04,2.5 -4.67,3 -7.44,1.22 -3.56,-2.28 -7.09,-10.72 -6.01,-14.73 0.44,-1.66 1.4,-3.34 2.55,-4.62 7.84,-8.69 15.99,-17.11 23.59,-26 2.31,-2.71 3.6,-6.49 4.71,-9.99 2.73,-8.57 4.9,-17.33 7.7,-25.88 1.11,-3.38 3.56,-6.3 4.92,-9.63 5.91,-14.52 11.64,-29.11 17.44,-43.669995 0.41,-1.03 0.73,-2.11 1.26,-3.08 2.2,-4.01 2.63,-7.96 0.66,-12.29 -1.25,-2.74 -1.92,-5.8 -2.51,-8.78 -0.47,-2.43 -1.46,-3.4 -3.96,-2.82 -3.52,0.82 -7.06,1.6 -10.63,2.19 -5.94,0.97 -9.72,4.53 -13.2,9.26 -4.19,5.7 -9.26,10.74 -13.91,16.1 -6.94,7.979995 -14.06,15.819995 -20.74,24.019995 -8.08,9.93 -15.42,20.48 -23.75,30.19 -7.76,9.05 -15.95,17.86 -24.87,25.72 -3.49,3.08 -9.44,3.49 -14.36,4.78 -7.12,1.86 -14.28,3.6 -21.5,5.02 -4.21,0.83 -6.31,3.63 -8.21,6.94 -8.64,15.06 -17.32,30.09 -25.88,45.19 -0.86,1.52 -1.42,3.41 -1.5,5.15 -0.42,8.44 -1.07,16.91 -0.78,25.35 0.24,7.32 1.66,14.6 2.47,21.9 0.28,2.48 0.56,5.01 0.36,7.48 -0.31,3.65 1.3,5.05 4.72,5.18 6.27,0.24 12.53,0.58 18.79,0.89 0.02,0.24 0.05,0.44 0.09,0.65 z"
   id="path1"
   style="fill:#2480a7;fill-opacity:1" />
</svg>
