<?xml version="1.0" encoding="UTF-8" standalone="no"?>
<!-- Generator: Adobe Illustrator 27.2.0, SVG Export Plug-In . SVG Version: 6.00 Build 0)  -->

<svg
   version="1.1"
   id="Calque_1"
   x="0px"
   y="0px"
   viewBox="0 0 516.44877 192.54994"
   xml:space="preserve"
   sodipodi:docname="d_uppercase.svg"
   width="516.44879"
   height="192.54994"
   inkscape:version="1.4 (e7c3feb1, 2024-10-09)"
   xmlns:inkscape="http://www.inkscape.org/namespaces/inkscape"
   xmlns:sodipodi="http://sodipodi.sourceforge.net/DTD/sodipodi-0.dtd"
   xmlns="http://www.w3.org/2000/svg"
   xmlns:svg="http://www.w3.org/2000/svg"><defs
   id="defs1" /><sodipodi:namedview
   id="namedview1"
   pagecolor="#ffffff"
   bordercolor="#000000"
   borderopacity="0.25"
   inkscape:showpageshadow="2"
   inkscape:pageopacity="0.0"
   inkscape:pagecheckerboard="0"
   inkscape:deskcolor="#d1d1d1"
   inkscape:zoom="0.030882894"
   inkscape:cx="259.04308"
   inkscape:cy="80.950963"
   inkscape:window-width="1120"
   inkscape:window-height="530"
   inkscape:window-x="0"
   inkscape:window-y="25"
   inkscape:window-maximized="0"
   inkscape:current-layer="Calque_1" />
<path
   d="m 516.44878,76.936848 c -0.5,19.38 -3.33,34.990002 -9.46,49.880002 -4.74,11.51 -9.63,22.98 -15.06,34.17 -4.62,9.53 -11.2,17.79 -19.6,24.38 -6.2,4.86 -13.6,6.66 -21.29,6.98 -5.5,0.23 -11.14,0.46 -16.5,-0.49 -5.94,-1.06 -11.75,-3.15 -17.41,-5.34 -16.23,-6.29 -32.73,-11.33 -50.16,-13 -7.53,-0.72 -14.98,-2.31 -22.5,-3.18 -15.69,-1.81 -31.16,-0.42 -46.71,2.37 -10.35,1.86 -19.72,5.96 -29.44,9.39 -2.51,0.88 -5.61,1.27 -8.16,0.67 -21.4,-5.02 -42.79,-10.11 -64.06,-15.64 -9.48,-2.46 -18.64,-6.17 -28.05,-8.94 -5.96,-1.75 -12.06,-3.33 -18.21,-4.11 -19.2,-2.43 -38.07,1.1 -56.999997,3.67 -13.15,1.79 -26.38,3.02 -39.56,4.62 -13.12,1.59 -26.21,0.76 -39.32,0.04 -10.1900005,-0.56 -16.7500005,-9.1 -12.7900005,-18.8 2.56,-6.29 6.04,-12.62 10.5700005,-17.6 14.96,-16.41 30.39,-32.410002 46.03,-48.170002 7.43,-7.49 15.76,-14.1 23.68,-21.1 9.87,-8.72 19.369997,-17.92 29.729997,-26.02 10.63,-8.32 21.8,-16.05 33.33,-23.0599998 4.38,-2.66 10.42,-3.63 15.68,-3.56 9.29,0.11 19.36,1.07 25.89,8.1499998 5.37,5.81 9.89,6.43 16.88,4.41 11.19,-3.23 22.61,-5.88 34.08,-7.8499998 16.35,-2.8 32.82,-5.01 49.3,-7 9.35,-1.13000004 18.84,-2.09000004 28.21,-1.73000004 7.15,0.28 14.21,2.81000004 21.33,4.27000004 10.13,2.08 20.22,4.42 30.42,6.0399998 12.2,1.95 24.41,0.79 36.57,-1.1099998 13.99,-2.18 28.12,-3.43 42.16,-1.19 5.74,0.92 11.53,3.2799998 16.6,6.1999998 10.94,6.3 21.82,12.85 31.97,20.32 8.46,6.23 17.47,12.78 20.13,23.9 1.68,7.05 2.15,14.39 2.72,18.43 z m -317.49,-24.48 c -0.5,0.86 -1.6,1.87 -1.48,2.71 0.76,5.34 1.84,10.64 2.73,15.97 3.5,20.93 7.01,41.850002 10.43,62.790002 1.22,7.48 1.11,7.5 8.48,6.87 0.13,-0.01 0.27,-0.01 0.4,-0.01 20.76,-0.3 41.52,-0.68 62.27,-0.87 5.97,-0.05 12,1.04 17.92,0.59 12.41,-0.96 24.84,-2.18 37.14,-4.08 12.58,-1.94 25.18,-4.32 36.74,-10.07 9.64,-4.79 19.25,-9.65 28.7,-14.79 6.16,-3.34 12.31,-6.67 16.97,-12.330002 7.2,-8.73 7.22,-12.66 -1.14,-20.12 -1.47,-1.31 -3.09,-2.61 -4.87,-3.43 -14.23,-6.5 -28.42,-13.14 -43.87,-16.3 -10.25,-2.1 -20.49,-4.86 -30.86,-5.6 -12.94,-0.92 -26.01,0.01 -39.02,0.03 -8.49,0.01 -16.99,-0.06 -25.48,-0.29 -8.23,-0.23 -16.44,-0.94 -24.66,-1.02 -16.47,-0.16 -32.96,-0.05 -50.4,-0.05 z"
   id="path1"
   style="fill:#2480a7;fill-opacity:1" />
</svg>
