<?xml version="1.0" encoding="utf-8"?>
<!-- Generator: Adobe Illustrator 27.2.0, SVG Export Plug-In . SVG Version: 6.00 Build 0)  -->
<svg version="1.1" id="Calque_1" xmlns="http://www.w3.org/2000/svg" xmlns:xlink="http://www.w3.org/1999/xlink" x="0px" y="0px"
	 viewBox="0 0 595.28 841.89" style="enable-background:new 0 0 595.28 841.89;" xml:space="preserve">
<style type="text/css">
	.st0{fill:#020203;}
</style>
<g>
	<path class="st0" d="M119.82,506.36c3.48-6.26,6.69-12.71,10.51-18.74c4.75-7.47,5.4-15.41,2.97-23.46
		c-0.9-2.97,0.66-4.67,1.48-6.43c3.48-7.25,7.81-14.09,11.24-21.37c0.97-2.09,0.83-5.72-0.41-7.55c-1.07-1.58-4.45-2.09-6.81-2.07
		c-1.36,0-2.82,1.87-4.02,3.12c-3.87,4.02-7.72,8.08-11.37,12.29c-1.12,1.29-1.85,3.07-2.24,4.75c-0.58,2.65-1.92,4.06-4.58,3.36
		c-6.86-1.85-13.17,1.22-19.69,2.12c-3.16,0.44-6.08,2.6-9.13,3.94c-0.85,0.37-1.75,0.88-2.63,0.88c-2.46-0.07-3.97,1.12-5.77,2.75
		c-2.95,2.73-6.47,4.87-9.91,6.99c-3.99,2.48-8.08,4.84-12.32,6.94c-1.68,0.83-3.8,0.73-5.72,1.05c-0.12-0.37-0.24-0.75-0.37-1.12
		c8.25-4.84,16.53-9.66,24.63-14.41c-4.5-3.16-8.25-6.52-12.61-8.66c-4.19-2.04-8.35,0.41-12.32,2.24
		c-5.11,2.39-10.17,5.26-16.21,3.6c-0.58-0.17-1.1-0.54-1.58-1.68c2.17-0.15,4.5,0.12,6.5-0.56c4.79-1.66,9.49-3.65,14.09-5.77
		c4.89-2.26,10.73-1.73,14.75,1.66c1.58,1.31,3.21,2.6,4.97,3.65c4.26,2.53,8.59,0.85,12.83-0.22c0.88-0.22,1.39-1.83,2.09-2.77
		c0.75-1.02,1.56-2.92,2.34-2.92c6.06,0,9.18-4.41,11.93-8.47c2.68-3.97,6.77-5.38,10.27-7.84c3.68-2.58,6.5-5.91,6.35-10.44
		c-0.17-5.74-1.24-11.44-1.92-17.16c-0.88-7.5,0.83-14.41,5.48-20.32c4.21-5.38,9.3-10.1,13.17-15.7c2.63-3.82,4.26-8.49,5.52-13.02
		c0.88-3.09,0.92-6.69-3.63-8.06c-0.95-0.29-1.73-2.68-1.68-4.09c0.02-0.83,1.63-1.85,2.73-2.41c4.06-2.09,8.79-3.04,11.76-6.99
		c0.41-0.54,1.17-0.95,1.29-1.53c0.83-4.38,2.21-8.81,2.07-13.17c-0.12-3.24-1.39-6.91-5.09-8.64c-0.85-0.39-2.21-1.56-2.09-1.85
		c0.44-1.05,1.22-2.31,2.19-2.73c5.87-2.36,10.83-5.87,14-11.39c1.87-3.29,3.38-6.84,4.62-10.42c1.97-5.79,3.26-11.83,5.45-17.52
		c1.31-3.43,3.7-6.47,5.65-9.66c2.19-3.6,4.33-7.25,6.67-10.76c2.77-4.21,5.74-8.3,8.62-12.44c1.36-1.97,2.46-4.19,4.11-5.89
		c4.45-4.6,9.66-4.09,15.31-2.31c5.21,1.63,10.03,4.04,13.36,8.13c3.12,3.82,7.55,3.31,11.24,4.65c6.01,2.14,12.44,3.09,17.18,7.91
		c4.7,4.77,9.15,9.81,14.19,14.21c3.6,3.16,7.4,6.52,12.92,6.18c2.65-0.17,5.33,0.34,8.01,0.49c2.12,0.12,2.77,1.78,2.09,3.09
		c-2.21,4.36,0.78,6.79,3.02,9.57c0.54,0.68,1.05,1.41,1.39,2.21c1.39,3.31,2.95,6.57,3.99,10c0.8,2.63,1.63,5.55,1.27,8.18
		c-0.83,5.74,1.92,9.27,6.13,12.29c4.11,2.92,8.37,5.67,12.29,8.79c2.07,1.63,3.55,3.99,5.35,5.96c2.46,2.7,5.72,3.48,9.2,3.82
		c1.78,0.17,3.53,0.88,5.18,1.66c-6.74,2.75-14.7-0.12-18.94-5.43c-2.75-3.46-6.26-6.62-10.08-8.84c-1.95-1.14-5.62-0.58-7.96,0.44
		c-7.5,3.29-13.68,2-19.2-3.87c-6.3-6.69-12.53-13.46-19.06-19.93c-5.06-5.01-10.42-9.78-15.87-14.36c-3.24-2.73-8.42-1.95-11.66,1
		c-4.24,3.87-5.72,9.37-8.57,14.07c-3.65,6.04-7.28,12.19-11.73,17.65c-4.06,4.97-5.33,9.35-2.63,15.26
		c0.66,1.44,1.14,3.16,1.07,4.72c-0.22,5.5,3.94,8.28,6.94,11.76c1.75,2.04,3.7,3.92,5.7,5.72c1.07,0.97,2.31,1.87,3.63,2.41
		c8.1,3.29,16.26,6.5,24.41,9.64c2.75,1.05,5.55,1.95,8.37,2.8c3.75,1.17,4.28,2.36,2.51,5.91c-0.61,1.24-0.73,2.75-1.48,3.87
		c-3.24,4.75-10.25,6.35-15.8,4.19c-4.02-1.58-8.23-2.73-12.41-3.75c-4.5-1.1-8.01,1.7-11.27,4.02
		c-5.94,4.24-12.22,8.35-16.94,13.75c-3.65,4.19-6.72,5.91-12.07,4.77c-1.1-0.24-3.07,2.43-4.26,4.04
		c-1.05,1.39-1.97,3.12-2.19,4.79c-0.24,1.83-0.27,4.28,0.73,5.55c4.82,5.99,10.95,9.81,18.72,11.51c7.08,1.56,14.14,2.12,21.3,2.04
		c2.53-0.02,5.09-0.75,7.55-1.48c7.01-2.07,12.1-6.99,17.04-12.02c4.28-4.41,8.45-8.91,12.73-13.29c5.4-5.53,19.4-8.2,26.46-4.79
		c1.75,0.85,3.36,2.63,4.26,4.38c1.27,2.48,3.04,3.04,5.55,1.51c5.35-3.26,8.35-8.52,12.07-13.24c0.8-1.02,2.26-1.53,3.43-2.29
		c0.27,0.32,0.56,0.63,0.83,0.95c-1.9,3.33-3.87,6.64-5.6,10.08c-0.27,0.54,0.34,2.21,0.71,2.26c7.03,1,13.75,4.43,21.15,2.6
		c2.63-0.66,5.31-1.07,8.01-1.41c4.67-0.58,7.69,2.21,9.27,5.94c1.19,2.82,2.87,3.7,5.48,4.14c2.77,0.46,5.5,1.27,8.28,1.75
		c8.23,1.44,15.6-1.87,23.34-3.82c6.91-1.73,11.97-6.13,17.91-9.2c3.8-1.97,6.74-5.6,10.47-7.74c5.57-3.19,11.8-2.53,17.91-1.56
		c0.61,0.1,1.19,1,1.61,1.63c2.17,3.33,5.38,3.53,8.98,3.53c9.52,0,18.35-3.21,27.11-6.06c7.25-2.36,14.14-6.08,20.83-9.86
		c5.35-3.04,10.1-7.11,15.16-10.64c6.04-4.23,12.36-7.79,19.4-10.34c8.13-2.95,16.19-1.85,24.34-1.17c0.29,0.02,0.54,0.34,1.46,1
		c-1.27,0.51-2.04,1.07-2.85,1.1c-3.04,0.1-6.06,0.15-9.1,0c-8.23-0.39-15.24,2.82-21.98,7.01c-4.38,2.73-8.88,5.26-13.22,8.06
		c-4.41,2.87-8.64,6.06-13.02,8.96c-1.95,1.29-4.11,2.31-6.26,3.31c-4.82,2.21-9.69,4.33-14.55,6.5c0.24,0.51,0.34,0.85,0.41,0.85
		c8.4,0.05,15.99,3.33,23.34,6.67c7.96,3.6,16.04,2.63,24.19,2.6c1,0,2.02,0,3.02,0c0.17,0.39,0.32,0.78,0.49,1.17
		c-1.41,0.78-2.73,2.02-4.23,2.26c-8.42,1.44-16.62,1.05-24.49-2.97c-3.55-1.8-7.62-2.58-11.39-3.94c-5.5-2-11.24-2.39-17.01-2.68
		c-1.14-0.05-2.26-0.85-3.43-1.1c-1.1-0.22-2.31-0.37-3.41-0.17c-3.33,0.56-6.64,1.29-9.98,2c-1.78,0.39-3.53,1.19-5.31,1.19
		c-4.5,0.05-8.3-1.73-11.46-4.97c-0.71-0.73-1.8-1.44-2.75-1.48c-6.79-0.34-12.58,1.46-18.06,6.13c-6.16,5.23-12.61,10.47-21,12.49
		c-4.99,1.19-9.52,4.14-14.46,5.7c-3.02,0.95-6.43,0.68-9.64,1.12c-1.07,0.15-2.07,0.71-3.12,1.1c0.68,0.78,1.24,1.8,2.09,2.31
		c2.19,1.34,4.38,2.8,6.77,3.6c6.57,2.24,13.58,3.43,19.76,6.43c7.03,3.41,14.12,7.37,18.06,14.9c0.37,0.71,1.87,1.24,2.77,1.17
		c5.5-0.44,10.95-1.36,16.45-1.63c6.72-0.32,13.63-1.12,20.15,0.05c7.76,1.39,15.02,4.92,19.52,12.17c0.24,0.39,0.54,0.78,0.63,1.19
		c1.34,6.94,6.72,9.37,12.49,11.76c3.58,1.48,6.72,4.04,10.08,6.04c3.24,1.92,6.55,3.77,10.56,6.08c-1.36,0.39-2.75,1.27-3.8,0.97
		c-2.82-0.8-5.65-1.85-8.2-3.26c-5.4-2.97-10.54-6.38-15.94-9.35c-4.5-2.46-7.59-5.6-9.66-10.59c-1.48-3.58-4.97-7.35-8.49-8.91
		c-9.42-4.09-19.33-5.5-29.62-2.26c-4.02,1.27-8.49,0.95-12.88,1.36c-0.19,2.73,1.05,4.26,3.7,4.84c3.09,0.68,6.16,1.56,9.25,2.24
		c6.91,1.53,10.66,6.21,12.58,12.66c1.07,3.58,2.19,7.18,2.95,10.83c0.37,1.8,1.12,4.28-2.31,4.99c-1.75-5.79-3.41-11.51-5.18-17.18
		c-1.24-3.99-4.55-6.33-7.96-7.86c-3.58-1.61-7.72-2.02-11.61-2.99c-2.21-0.56-3.19-0.02-3.63,2.53c-0.54,3.16-2.24,6.13-2.92,9.3
		c-0.29,1.41,0.22,3.77,1.24,4.58c2.51,1.92,5.4,3.72,4.89,7.13c-0.44,2.92-1.7,6.01-3.5,8.35c-1.85,2.39-2.7,6.23-7.5,6.45
		c2.41-3.97,4.48-7.57,6.74-11.07c2.04-3.16,0.92-5.99-3.53-9.15c-2.19-1.56-3.97-3.02-2.04-6.52c1.85-3.36,2.53-7.42,3.46-11.24
		c1.53-6.35-1.27-11.61-5.65-15.55c-4.19-3.77-9.15-6.72-14.02-9.64c-1.36-0.83-3.72-0.78-5.35-0.24
		c-6.64,2.19-13.44,3.07-20.37,2.58c-2.99-0.22-5.96-0.71-9.03-1.07c-1.85,10.83-5.18,21.25-9.54,31.37
		c-0.39-0.07-0.78-0.12-1.14-0.19c0-2.09-0.39-4.28,0.07-6.28c1.44-6.08,3.19-12.1,4.87-18.13c0.41-1.51,1.1-2.95,1.68-4.41
		c1.31-3.38-0.32-6.13-5.23-9.1c-3.26-1.97-6.5-3.97-9.61-6.18c-5.28-3.72-11.34-2.97-15.41,1.83c-0.83,0.97-2.53,1.58-3.87,1.66
		c-4.43,0.19-8.91,0.39-13.29-0.05c-5.11-0.54-9.71-2.48-13.44-6.43c-4.06-4.33-8.96-4.7-13.51-0.71c-1.8,1.58-2.9,4.62-3.19,7.16
		c-1.22,10.27-7.06,18.18-14.46,24.1c-9.25,7.4-20.1,12.02-32.74,9.49c-8.01-1.61-16.14-2.53-24.17-4.06
		c-3.65-0.71-7.16-2.14-10.76-3.26c-4.06,3.68-3.89,3.53-0.8,7.86c2.97,4.16,1.51,8.81,0.17,13.05c-1,3.19-5.35,4.5-9.86,3.8
		c-4.28-0.66-4.82-0.37-4.45,3.97c0.19,2.26,0.97,4.67,2.12,6.64c2.95,5.04,6.43,9.76,9.35,14.82c0.9,1.56,0.66,3.8,0.92,5.7
		C168.37,506.36,144.11,506.36,119.82,506.36z"/>
</g>
</svg>
