<?xml version="1.0" encoding="utf-8"?>
<!-- Generator: Adobe Illustrator 27.2.0, SVG Export Plug-In . SVG Version: 6.00 Build 0)  -->
<svg version="1.1" id="Layer_0_xA0_Image_00000106129397731116449180000011850407606676039337_"
	 xmlns="http://www.w3.org/2000/svg" xmlns:xlink="http://www.w3.org/1999/xlink" x="0px" y="0px" viewBox="0 0 520 327"
	 style="enable-background:new 0 0 520 327;" xml:space="preserve">
<g>
	<path d="M292.68,59.83c1.47,1.02,2.67,1.84,3.86,2.67c0.64,0.44,1.29,1.32,1.9,1.29c3.88-0.18,7.75-0.54,11.62-0.86
		c0.58-0.05,1.16-0.35,1.71-0.28c0.51,0.06,1.24,0.35,1.38,0.73c0.14,0.37-0.19,1.22-0.55,1.44c-1.21,0.71-1.57,1.54-1.11,2.89
		c0.16,0.46-0.03,1.36-0.37,1.6c-3.36,2.35-3.36,6.35-4.81,9.62c-2.2,4.98-4.29,10-6.65,15.52c0.59,0.71,1.62,2.13,2.85,3.35
		c3.52,3.5,4.74,7.83,5.14,12.62c0.16,1.96,1.11,3.86,1.64,5.8c0.21,0.77,0.6,1.69,0.37,2.35c-0.86,2.38,0.48,3.34,2.34,3.22
		c3.52-0.22,5.06,1.19,6.21,4.55c1.37,4.02,3.77,7.69,5.79,11.48c0.27,0.51,0.95,0.82,1.45,1.2c0.79,0.59,1.64,1.1,2.39,1.74
		c1.74,1.5,3.36,3.15,5.17,4.56c2.39,1.86,3.51,4.36,3.25,7.19c-0.41,4.46,0.53,7.87,5.15,9.56c0.7,0.26,1.4,1.28,1.58,2.07
		c0.72,3.1,2.45,5.55,5,7.22c3.94,2.59,6.19,6.4,8.37,10.35c1.32,2.4,2.85,4.68,4.09,7.11c0.43,0.83,0.29,1.96,0.41,2.95
		c-1.04-0.12-2.32,0.08-3.08-0.44c-1.33-0.92-2.47-2.2-3.49-3.49c-3.21-4.06-5.64-4.88-10.66-3.44c-1.12,0.32-2.24,0.66-3.39,0.83
		c-1.97,0.31-3.64-0.17-5.3-1.49c-1.55-1.23-3.58-1.85-5.39-2.75c-0.49-0.25-1.37-0.55-1.37-0.84c-0.04-2.81-2.33-2.77-4.11-3.4
		c-1.09-0.39-2.17-0.83-3.26-1.24c-2.91-1.12-4.73-0.61-6.8,1.95c-0.73,0.9-1.28,2.09-2.21,2.67c-0.94,0.59-2.38,1.02-3.34,0.71
		c-0.69-0.23-0.96-1.78-1.41-2.74c-0.35-0.74-0.62-1.53-1.06-2.23c-0.52-0.83-1.05-1.73-1.79-2.33c-1.21-0.99-2.49-2.09-3.93-2.55
		c-2.01-0.64-3.34,0.22-3.89,2.54c-0.85,3.59-3.96,4.34-6.74,1.92c-0.66-0.57-1.65-0.75-2.35-1.29c-1.31-1.02-2.51-2.18-3.77-3.26
		c-0.69-0.59-1.43-1.14-2.15-1.71c-0.43,0.71-1.25,1.45-1.21,2.13c0.16,2.36,0.57,4.72,0.97,7.06c0.52,3.07,1.39,6.12,1.6,9.21
		c0.12,1.73,0.64,2.08,2.13,2.21c4.41,0.38,7.99,2.12,9.87,6.45c0.2,0.47,0.67,0.92,1.13,1.15c1.72,0.85,3.5,1.61,5.52,2.52
		c0.65-0.71,1.54-2.38,3.43-0.92c0.79,0.61,1.6,1.19,2.4,1.78c-0.74,0.64-1.48,1.28-2.54,2.19c1.35,4.09-1.08,7.58-3.36,11.21
		c-0.71,1.13-0.97,2.74-0.89,4.1c0.19,3.17-0.91,4.04-3.98,3.29c-4.35-1.06-6.68-4.8-10.03-7.16c-1.62-1.14-3.06-2.59-4.37-4.08
		c-1.84-2.11-4.08-4.15-2.84-7c-6.44-1.69-12.6-3.14-18.65-4.98c-2.09-0.64-4.55-1.81-5.67-3.51c-1.71-2.61-3.78-2.64-5.91-1.82
		c-3.14,1.21-6.06,2.97-8.84,4.37c1,2.53,1.9,4.64,2.64,6.8c0.21,0.61,0.18,1.62-0.19,2.01c-0.34,0.35-1.33,0.25-1.97,0.1
		c-2.62-0.63-5.1-1.09-7.3,1.22c-0.56,0.59-1.93,0.96-2.68,0.71c-3.21-1.08-6.4-2.26-9.44-3.73c-2.46-1.2-3.1-1.05-3.89,1.56
		c-1.35,4.43-2.71,8.87-4.33,13.2c-0.52,1.4-1.77,2.59-2.86,3.7c-1.51,1.54-2.16,3.15-1.83,5.38c0.38,2.54,0.44,5.14,0.42,7.71
		c-0.01,2.36-0.82,2.72-3.16,2.48c-1.18-0.12-2.63,0.16-3.61,0.8c-3.3,2.14-6.58,2.05-9.69-0.3c-0.79-0.59-2.04-0.68-3.1-0.78
		c-1.14-0.11-2.31,0.09-3.47,0.06c-1.14-0.03-2.51-1.16-3.25,0.58c-0.73,1.73-1.73,3.55-0.22,5.37c1.01,1.21,2.28,2.23,3.14,3.53
		c0.77,1.16,1.13,2.59,1.67,3.91c-1.07,0.43-2.17,0.79-3.2,1.29c-0.9,0.44-2.07,0.82-2.53,1.59c-1.11,1.85-2.64,2.57-4.6,2.23
		c-1.94-0.33-2.98,0.44-3.56,2.16c-1.58,4.71-3.33,9.37-4.69,14.14c-0.95,3.33-1.6,3.76-4.37,1.73c-1.14-0.84-2.45-1.55-3.31-2.62
		c-1.29-1.62-2.47-1.22-3.82-0.31c-2.77,1.86-5.75,3.03-9.15,2.6c-0.67-0.08-1.64-0.39-1.84-0.87c-0.21-0.49,0.14-1.54,0.6-1.94
		c1.89-1.63,3.96-3.06,5.86-4.68c0.61-0.52,1.09-1.38,1.3-2.17c0.31-1.19,0.5-2.46,0.42-3.68c-0.04-0.73-0.54-1.58-1.09-2.09
		c-2.29-2.11-4.89-3.94-6.93-6.26c-0.7-0.79-0.11-2.71-0.11-4.32c-0.45-0.24-1.24-0.52-1.87-1.02c-1.74-1.38-1.78-2.92-0.07-4.31
		c2.09-1.7,4.07-3.41,4.65-6.26c0.09-0.44,1.04-1.12,1.41-1.02c1.92,0.54,2.58-0.75,3.19-2.03c1.16-2.42,3.7-4.13,3.66-7.2
		c0-0.38,0.7-1,1.16-1.11c1.69-0.37,3.43-0.47,5.12-0.83c3.53-0.76,6.57,0.05,9.15,2.97c3.16-2.79,6.2-5.34,9.05-8.09
		c0.7-0.67,1.01-1.98,1.02-3c0-0.39-1.47-1.25-2.05-1.1c-1.27,0.34-3.17-0.42-3.66,1.76c-0.31,1.37-0.76,2.73-1.38,3.99
		c-0.9,1.83-2.25,1.87-3.41,0.25c-3.95-5.48-2.11-12.76,3.86-15.98c1.52-0.82,2.82-2.19,3.95-3.54c1.05-1.27,1.84-1.87,3.51-0.93
		c2.98,1.69,6.05,1.62,8.94-0.37c4.03-2.78,8.05-5.57,12.03-8.43c0.71-0.51,1.21-1.35,1.74-2.09c1.8-2.52,4.01-4.39,7.16-5.02
		c0.66-0.13,1.37-0.77,1.74-1.38c0.73-1.2,1.12-2.61,1.89-3.79c0.52-0.8,1.4-1.38,2.18-1.98c1.79-1.38,4.06-2.4,5.29-4.16
		c0.77-1.09,0.28-3.34-0.16-4.93c-0.64-2.32,0.5-3.62,1.99-4.94c1.43-1.27,2.97-1.01,4.39-0.15c2.23,1.35,4.33,1.35,6.56-0.03
		c0.97-0.6,2.13-0.95,3.25-1.24c4.35-1.12,6.14-3.79,5.51-8.59c-1.54,0.57-3,1.31-4.55,1.63c-1.6,0.32-3.49,0.56-4.17-1.6
		c-0.64-2.03,0.84-3.05,2.28-3.94c0.55-0.34,1.21-0.59,1.85-0.71c2.3-0.45,3.2-1.82,2.98-4.11c-0.14-1.52,0.21-2.72,1.51-3.94
		c1-0.94,1.19-2.78,1.6-4.26c0.07-0.24-0.48-0.77-0.85-1c-0.41-0.25-0.94-0.32-1.42-0.44c-1.4-0.36-3.06-0.72-2.8-2.56
		c0.29-1.97,2.15-1.29,3.28-1.15c4.01,0.51,6.35-1.48,8.26-4.68c0.61-1.02,2.07-2.17,3.1-2.14c1.61,0.05,3.18,1.05,3.07,3.22
		c-0.02,0.34,0.14,0.7,0.22,1.05c0.23-0.03,0.46-0.06,0.68-0.09c-0.39-2.14-0.78-4.28-1.2-6.58c-1.49-0.3-4.16,1.11-4.49-1.98
		c-0.19-1.81,0.28-3.68,0.32-5.71c-1.1,3.73-3.71,4.83-7.11,4.09c-0.94-0.21-1.73-1.27-2.51-2.02c-0.38-0.37-0.54-1.24-0.9-1.31
		c-1.56-0.31-2.8-1.17-2.04-2.65c0.8-1.57,2.16-3.12,3.68-3.98c1.02-0.58,2.78-0.17,4.12,0.16c2.71,0.67,4.73-0.63,5.05-3.49
		c0.13-1.16,0.34-2.3,0.47-3.46c0.29-2.62,0.71-5.16-2.36-6.8c-0.69-0.37-1.01-2.47-0.66-3.48c0.35-1.03,1.62-2.09,2.71-2.44
		c1.45-0.48,3.12-0.38,4.7-0.36c2.17,0.03,3.52,1.7,3.78,4.47c0.26,2.78,2.63,3.62,5.33,3.28c3.65-0.45,7.04-1.37,10.33-2.85
		c1.65-0.74,3.18-1.73,5.27-2.88c-1.99-0.77-3.25-1.09-4.32-1.74c-0.48-0.29-0.79-1.24-0.74-1.86c0.02-0.31,1.04-0.81,1.57-0.77
		c2.81,0.19,5.42,0.08,7.65-2.11c0.62-0.61,2.05-0.57,3.11-0.55c2.42,0.03,3.91-1.01,4.13-3.38c0.29-3.15,0.65-6.33-2.27-8.73
		c-0.61-0.5-0.9-1.6-0.99-2.46C293.11,66.66,292.96,63.72,292.68,59.83z M253.28,167.75c-0.4-2.13,0.05-4.29-2.71-4.43
		c-2.49-0.13-2.9,0.55-3.3,3.68c-0.2,1.59-0.81,3.52-1.93,4.51c-2.14,1.89-1.63,4.03-0.53,5.57c0.94,1.31,3.03,2.31,4.69,2.45
		c2.23,0.18,0.83-2.19,1.44-3.28c0.24-0.43,0.36-0.93,0.49-1.41C252.08,172.37,252.72,169.88,253.28,167.75z M324.31,157.63
		c2.99,1.06,5.79,0.59,7.29-1.14C327.87,154.04,325.79,154.33,324.31,157.63z M336.08,167.62c-1.18,1.57-2.08,2.55-2.66,3.7
		c-0.13,0.25,0.86,1.06,1.33,1.62c1.14-0.97,2.27-1.94,3.41-2.91C337.65,169.44,337.15,168.86,336.08,167.62z"/>
</g>
</svg>
