<?xml version="1.0" encoding="UTF-8" standalone="no"?>
<!-- Generator: Adobe Illustrator 27.2.0, SVG Export Plug-In . SVG Version: 6.00 Build 0)  -->

<svg
   version="1.1"
   id="Layer_0_xA0_Image_00000098202652595721627870000004677512493039406736_"
   x="0px"
   y="0px"
   viewBox="0 0 342.29794 303.65155"
   xml:space="preserve"
   sodipodi:docname="g_uppercase.svg"
   width="342.29794"
   height="303.65155"
   inkscape:version="1.4 (e7c3feb1, 2024-10-09)"
   xmlns:inkscape="http://www.inkscape.org/namespaces/inkscape"
   xmlns:sodipodi="http://sodipodi.sourceforge.net/DTD/sodipodi-0.dtd"
   xmlns="http://www.w3.org/2000/svg"
   xmlns:svg="http://www.w3.org/2000/svg"><defs
   id="defs1" /><sodipodi:namedview
   id="namedview1"
   pagecolor="#ffffff"
   bordercolor="#000000"
   borderopacity="0.25"
   inkscape:showpageshadow="2"
   inkscape:pageopacity="0.0"
   inkscape:pagecheckerboard="0"
   inkscape:deskcolor="#d1d1d1"
   inkscape:zoom="0.045614035"
   inkscape:cx="153.46154"
   inkscape:cy="186.34615"
   inkscape:window-width="1120"
   inkscape:window-height="638"
   inkscape:window-x="0"
   inkscape:window-y="25"
   inkscape:window-maximized="0"
   inkscape:current-layer="Layer_0_xA0_Image_00000098202652595721627870000004677512493039406736_" />
<g
   id="g1"
   style="fill:#2480a7;fill-opacity:1"
   transform="translate(-145.88206,-97.40947)">
	<path
   d="m 156.61,303.5 c -0.44,-4.47 1.01,-8.27 3.59,-11.9 4.24,-5.99 3.92,-11.56 -1.19,-16.89 -6.86,-7.16 -10.73,-15.72 -12.72,-25.26 -1.83,-8.75 2.66,-19.53 10.2,-24.25 2.86,-1.79 5.96,-3.21 8.99,-4.72 10.92,-5.43 22.38,-9.94 31.48,-18.47 10.39,-9.73 19.22,-20.71 26.65,-32.85 1.73,-2.83 3.72,-5.52 5.75,-8.15 8.65,-11.15 18.43,-21.2 29.38,-30.14 3.98,-3.25 7.47,-7.1 11.37,-10.46 2.95,-2.54 5.93,-5.26 9.36,-6.96 2.97,-1.48 6.48,-0.36 9.63,0.76 6.22,2.21 11.84,5.56 16.3,10.34 4.56,4.88 7.39,10.88 7.81,17.68 0.37,6.14 0.32,12.31 0.64,18.45 0.06,1.16 0.71,2.75 1.61,3.32 2.92,1.84 6.1,3.27 9.15,4.92 6.23,3.37 13.18,2.99 19.89,3.86 0.78,0.1 1.7,0.02 2.42,-0.29 15.92,-6.86 31.71,-14.13 44.87,-25.62 4.89,-4.27 8.18,-10.39 12.07,-15.75 1.8,-2.49 3.11,-5.34 5,-7.75 1.56,-2 3.47,-3.83 5.52,-5.33 3.63,-2.63 7.3,-5.32 11.28,-7.32 10.22,-5.12 20.09,-11.17 31.6,-13.21 1.23,-0.22 2.78,-0.09 3.84,0.5 8.48,4.73 16.89,9.59 25.29,14.46 0.72,0.42 1.2,1.25 1.79,1.89 -0.73,0.57 -1.39,1.26 -2.19,1.7 -4.5,2.49 -8.84,5.42 -13.6,7.28 -7.89,3.07 -15.92,5.97 -24.12,7.99 -14.87,3.67 -28.3,9.99 -40.39,19.37 -9.46,7.35 -19.24,14.29 -28.64,21.72 -12.35,9.77 -26.36,16.41 -40.7,22.53 -8.11,3.46 -16.41,6.8 -22.74,13.18 -3.79,3.82 -7.03,8.21 -10.3,12.51 -6.29,8.27 -12.45,16.65 -18.62,25.02 -3.5,4.75 -6.93,9.55 -10.36,14.36 -0.41,0.58 -0.71,1.31 -0.86,2.01 -1.26,5.58 -2.75,11.14 -3.63,16.78 -0.72,4.57 -0.84,9.24 -0.95,13.88 -0.06,2.73 0.11,5.55 0.77,8.18 0.6,2.42 1.53,5.04 3.11,6.88 5.11,5.93 15.44,8.27 22.76,5.58 3.46,-1.27 5.76,-4.49 5.28,-8.12 -0.96,-7.34 -1.77,-14.73 -3.45,-21.91 -0.63,-2.67 -0.03,-3.96 1.68,-5.13 4.8,-3.28 9.48,-6.88 14.67,-9.37 3.22,-1.55 7.28,-1.57 10.99,-1.83 6.78,-0.48 13.58,-0.68 20.37,-0.86 1.28,-0.03 2.63,0.43 3.86,0.9 2.35,0.88 3.98,2.39 3.67,5.2 -0.44,3.95 -0.69,7.94 -1.37,11.85 -1.84,10.56 -3.97,21.06 -5.77,31.62 -1.26,7.37 -2.36,14.77 -3.15,22.2 -0.36,3.35 0.25,6.79 0.37,10.2 0.2,5.39 0.95,10.85 0.38,16.16 -0.74,6.94 -2.72,13.75 -7.25,19.35 -2.7,3.33 -5.36,7.07 -8.89,9.25 -4.58,2.83 -9.99,4.32 -15.06,6.34 -0.84,0.33 -1.8,0.36 -2.67,0.63 -8.7,2.71 -16.83,0.78 -24.41,-3.51 -8.89,-5.04 -17.76,-10.2 -26.18,-15.97 -5.23,-3.59 -9.9,-8.15 -14.31,-12.76 -6.42,-6.73 -14.17,-11.17 -22.53,-14.87 -14.97,-6.63 -29.92,-13.33 -44.76,-20.23 -2.78,-1.29 -5.3,-3.44 -7.51,-5.62 -4.88,-4.81 -11.46,-8.18 -13.58,-15.42 -0.75,-2.58 -1.43,-5.19 -2.14,-7.78 0.22,-0.06 0.43,-0.11 0.65,-0.15 z"
   id="path1"
   style="fill:#2480a7;fill-opacity:1" />
</g>
</svg>
