<?xml version="1.0" encoding="utf-8"?>
<!-- Generator: Adobe Illustrator 27.2.0, SVG Export Plug-In . SVG Version: 6.00 Build 0)  -->
<svg version="1.1" id="Calque_1" xmlns="http://www.w3.org/2000/svg" xmlns:xlink="http://www.w3.org/1999/xlink" x="0px" y="0px"
	 viewBox="0 0 595.28 841.89" style="enable-background:new 0 0 595.28 841.89;" xml:space="preserve">
<path d="M232.14,234c11.68,1.51,24.72,0.71,32.63,11.86c5.41,7.63,9.94,16.21,13.19,24.99c6.07,16.44,8.47,33.8,11.13,51.12
	c1.52,9.89,5.5,19.41,8.37,29.09c4.97,16.81,5.58,33.93,2.72,51.07c-0.81,4.83-3.71,9.47-6.33,13.79c-2.74,4.51-6.61,8.32-9.41,12.8
	c-4.05,6.48-6.13,13.68-2.55,20.98c3.06,6.24,7.09,12.05,14.95,12.89c1.79,0.19,3.8-0.19,5.5-0.84c6.41-2.46,12.59-5.67,19.16-7.53
	c3.74-1.06,8.18-0.64,12.09,0.17c5.15,1.07,10.01,3.47,15.15,4.66c1.83,0.42,4.95-0.36,6.02-1.73c6.79-8.7,10.95-18.39,8.49-29.76
	c-1.22-5.66-9.61-10.8-15.39-9.77c-5.83,1.04-11.63,2.33-17.5,2.95c-4.95,0.52-7.95-2.17-9.49-7.02
	c-3.5-10.98,3.06-22.33,14.22-25.36c10.48-2.84,20.39,0.14,30.5,1.63c4.92,0.72,9.98,0.81,14.76,2.02
	c4.36,1.11,9.03,2.57,12.52,5.24c13.69,10.46,21.83,25,28.04,40.7c2.52,6.36,4.82,12.82,6.82,19.36
	c3.08,10.11,0.01,16.67-9.06,21.88c-13.31,7.64-26.42,15.61-39.62,23.44c-12.57,7.45-25.04,15.01-39.55,18.44
	c-12.26,2.89-24.07,0.44-35.63-2.76c-18.28-5.06-36.53-4.2-55-2.1c-15.47,1.76-30.99,3.82-46.5,3.93c-6.67,0.05-13.48-4.25-20-7.09
	c-2.91-1.27-2.83-4.27-0.74-6.51c7.92-8.48,7.97-18.47,4.64-28.43c-7.78-23.33-8.04-47.07-4.93-71.04
	c0.7-5.37,2.78-10.56,4.22-15.83c3.49-12.85,3.13-25.62-2.46-37.7c-4.55-9.83-3.78-19.14,0.85-28.28
	c5.42-10.69,7.14-21.43,3.39-33.06c-1.36-4.23-1.34-8.9-2.11-13.34c-1.79-10.31,4.93-17.38,10.07-24.63
	c7.13-10.07,18.33-14.83,29.52-19.08C226.98,234.32,229.51,234.38,232.14,234z"/>
</svg>
