<?xml version="1.0" encoding="UTF-8" standalone="no"?>
<!-- Generator: Adobe Illustrator 27.2.0, SVG Export Plug-In . SVG Version: 6.00 Build 0)  -->

<svg
   version="1.1"
   id="Calque_1"
   x="0px"
   y="0px"
   viewBox="0 0 249.40741 288.35501"
   xml:space="preserve"
   sodipodi:docname="l_uppercase.svg"
   width="249.40742"
   height="288.35501"
   inkscape:version="1.4 (e7c3feb1, 2024-10-09)"
   xmlns:inkscape="http://www.inkscape.org/namespaces/inkscape"
   xmlns:sodipodi="http://sodipodi.sourceforge.net/DTD/sodipodi-0.dtd"
   xmlns="http://www.w3.org/2000/svg"
   xmlns:svg="http://www.w3.org/2000/svg"><defs
   id="defs1" /><sodipodi:namedview
   id="namedview1"
   pagecolor="#ffffff"
   bordercolor="#000000"
   borderopacity="0.25"
   inkscape:showpageshadow="2"
   inkscape:pageopacity="0.0"
   inkscape:pagecheckerboard="0"
   inkscape:deskcolor="#d1d1d1"
   inkscape:zoom="0.030882894"
   inkscape:cx="97.141156"
   inkscape:cy="194.28231"
   inkscape:window-width="1120"
   inkscape:window-height="589"
   inkscape:window-x="0"
   inkscape:window-y="25"
   inkscape:window-maximized="0"
   inkscape:current-layer="Calque_1" />
<path
   d="m 52.658184,0 c 11.68,1.51 24.72,0.71 32.63,11.86 5.41,7.63 9.94,16.21 13.19,24.99 6.069996,16.44 8.469996,33.8 11.129996,51.12 1.52,9.89 5.5,19.41 8.37,29.09 4.97,16.81 5.58,33.93 2.72,51.07 -0.81,4.83 -3.71,9.47 -6.33,13.79 -2.74,4.51 -6.61,8.32 -9.41,12.8 -4.05,6.48 -6.129996,13.68 -2.55,20.98 3.06,6.24 7.09,12.05 14.95,12.89 1.79,0.19 3.8,-0.19 5.5,-0.84 6.41,-2.46 12.59,-5.67 19.16,-7.53 3.74,-1.06 8.18,-0.64 12.09,0.17 5.15,1.07 10.01,3.47 15.15,4.66 1.83,0.42 4.95,-0.36 6.02,-1.73 6.79,-8.7 10.95,-18.39 8.49,-29.76 -1.22,-5.66 -9.61,-10.8 -15.39,-9.77 -5.83,1.04 -11.63,2.33 -17.5,2.95 -4.95,0.52 -7.95,-2.17 -9.49,-7.02 -3.5,-10.98 3.06,-22.33 14.22,-25.36 10.48,-2.84 20.39,0.14 30.5,1.63 4.92,0.72 9.98,0.81 14.76,2.02 4.36,1.11 9.03,2.57 12.52,5.24 13.69,10.46 21.83,25 28.04,40.7 2.52,6.36 4.82,12.82 6.82,19.36 3.08,10.11 0.01,16.67 -9.06,21.88 -13.31,7.64 -26.42,15.61 -39.62,23.44 -12.57,7.45 -25.04,15.01 -39.55,18.44 -12.26,2.89 -24.07,0.44 -35.63,-2.76 -18.28,-5.06 -36.529996,-4.2 -54.999996,-2.1 -15.47,1.76 -30.99,3.82 -46.5,3.93 -6.67,0.05 -13.4800002,-4.25 -20.0000002,-7.09 -2.91000002,-1.27 -2.83000002,-4.27 -0.74,-6.51 7.9200002,-8.48 7.9700002,-18.47 4.64,-28.43 -7.78000002,-23.33 -8.04,-47.07 -4.93,-71.04 0.7,-5.37 2.78,-10.56 4.22,-15.83 3.49,-12.85 3.13,-25.62 -2.46,-37.7 -4.55000002,-9.83 -3.78000002,-19.14 0.85,-28.28 5.42,-10.69 7.1400002,-21.43 3.39,-33.06 -1.36,-4.23 -1.34,-8.9 -2.11,-13.34 -1.79,-10.31 4.9300002,-17.38 10.0700002,-24.63 7.13,-10.07 18.33,-14.83 29.52,-19.08 2.16,-0.83 4.69,-0.77 7.32,-1.15 z"
   id="path1"
   style="fill:#2480a7;fill-opacity:1" />
</svg>
