<?xml version="1.0" encoding="utf-8"?>
<!-- Generator: Adobe Illustrator 27.2.0, SVG Export Plug-In . SVG Version: 6.00 Build 0)  -->
<svg version="1.1" id="Layer_0_xA0_Image_00000117648679060610053660000016071281975656180150_"
	 xmlns="http://www.w3.org/2000/svg" xmlns:xlink="http://www.w3.org/1999/xlink" x="0px" y="0px" viewBox="0 0 1100 639"
	 style="enable-background:new 0 0 1100 639;" xml:space="preserve">
<g>
	<path d="M483.65,480.62c-0.27-1.33-0.49-2.19-0.62-3.07c-1.13-7.65-2.28-15.3-3.33-22.96c-0.24-1.72-0.13-3.49-0.14-5.23
		c-0.07-9.48,0-18.96-0.2-28.44c-0.46-21.9-0.12-43.78,1.55-65.62c0.46-6.05,1.62-12.04,2.33-18.07c0.21-1.79,0.08-3.63,0-5.44
		c-2.14-47-4.29-94-6.44-141c-0.66-14.39-1.35-28.78-1.9-43.18c-0.08-2.21-0.95-3.73-2.44-5.19c-5.64-5.51-11.22-11.09-16.86-16.61
		c-0.62-0.61-1.43-1.18-2.25-1.4c-5.69-1.55-11.43-2.92-17.11-4.52c-2.42-0.68-3.59,0.4-3.9,2.43c-0.53,3.44-1.06,6.94-1.02,10.4
		c0.12,9.97,0.53,19.94,0.81,29.91c0.34,12.14,0.9,24.29,0.94,36.43c0.07,18.72-0.28,37.44-0.33,56.16
		c-0.03,11.39,0.58,22.8,0.13,34.18c-0.77,19.24,1.5,38.24,3.52,57.26c1.66,15.64,3.84,31.22,5.55,46.86
		c0.52,4.78,0.34,9.64,0.36,14.47c0.07,18.39,0.02,36.79,0.16,55.18c0.11,13.98,0.38,27.96,0.7,41.94
		c0.26,11.85,2.33,23.5,4.1,35.18c0.54,3.61,0.83,7.27,1.15,10.91c0.07,0.8,0,1.79-0.42,2.42c-3.42,5.05-6.91,10.09-13.42,11.5
		c-3.98,0.87-7.98,1.68-12,2.35c-1.76,0.3-3.05-0.13-4.15-2.12c-4.78-8.7-6.86-18.11-8.27-27.8c-1.7-11.6-3.93-23.13-5.5-34.75
		c-1.34-9.88-2.28-19.82-3.01-29.77c-0.61-8.29-0.8-16.61-0.93-24.93c-0.12-8.31,0.08-16.62,0.11-24.93
		c0.01-4.08-0.06-8.15-0.06-12.23c-0.01-9.48,0-18.97,0-28.45c0.01-15.13,0.05-30.26-0.01-45.39c-0.01-2.15-0.32-4.34-0.84-6.42
		c-2.45-10-2.77-20.24-3.53-30.43c-0.41-5.47-1.22-10.91-1.59-16.38c-0.7-10.29-1.12-20.61-1.81-30.9
		c-0.92-13.94-2.13-27.87-2.95-41.82c-0.92-15.77-1.99-31.56-2.18-47.35c-0.2-16.8,0.56-33.61,0.9-50.41
		c0.15-7.49,2.19-14.59,4.52-21.62c0.16-0.47,0.89-1.01,1.4-1.05c7.79-0.61,15.62-1.87,23.38-1.53c12.45,0.54,24.86,2.06,37.27,3.32
		c42.99,4.37,85.97,8.76,128.94,13.33c2.55,0.27,5,2.02,7.38,3.3c3.06,1.66,5.98,3.59,9.01,5.32c1.57,0.89,2.4,2.03,2.64,3.9
		c2.41,19.54,2.36,39.2,2.82,58.84c0.24,10.15,0.63,20.3,0.86,30.46c0.44,19.05,0.77,38.1,1.25,57.15c0.1,3.9,0.8,7.78,0.92,11.68
		c0.22,6.79,0.19,13.59,0.29,20.38c0.02,1.44,0.06,2.81-2.03,2.47c0.45,9.82,1.1,19.54,1.28,29.27c0.26,14.23,0.14,28.47,0.27,42.7
		c0.13,14.23,0.51,28.47,0.49,42.7c-0.01,7.14-0.68,14.29-0.95,21.43c-0.07,1.81,0.17,3.64,0.4,5.45c0.24,1.98-0.35,3.22-2.32,4.03
		c-9.76,4.03-19.49,8.15-29.2,12.3c-1.67,0.71-3.22,1.71-4.83,2.57c-1.39,0.74-2.52,1.01-3.36-0.9c-1.72-3.94-3.77-7.75-5.41-11.72
		c-0.71-1.72-0.93-3.71-1.03-5.6c-0.35-6.63-0.38-13.29-0.84-19.91c-0.96-13.78-2.45-27.53-3.1-41.32
		c-0.88-18.7-1.76-37.43-1.58-56.13c0.21-21.62,1.35-43.24,2.5-64.84c1.06-20.11,2.57-40.2,4.07-60.28c0.6-8.09,0.1-16-1.2-24.02
		c-1.9-11.74-2.94-23.61-4.31-35.43c-0.38-3.22-0.66-6.45-0.99-9.7c-7.68-2.06-15.27-1.75-23.03-0.82
		c-6.9,0.82-11.47,4.26-14.67,10.03c-0.82,1.48-1.77,3.12-1.87,4.74c-0.88,13.52-1.94,27.03-0.6,40.62
		c1.8,18.3,3.18,36.64,4.74,54.97c1.49,17.5,3.32,34.98,4.39,52.51c1.11,18.14,3.8,36.07,5.84,54.08
		c1.15,10.15,1.43,20.41,1.94,30.62c0.67,13.21,1.47,26.42,1.67,39.65c0.15,9.63-0.61,19.27-0.86,28.91
		c-0.08,3.07,0.13,6.16,0.26,9.23c0.06,1.41-0.45,2.22-1.79,2.87c-13.7,6.63-27.34,13.37-41.04,19.99
		C489.59,478.62,486.72,479.46,483.65,480.62z"/>
</g>
</svg>
