<?xml version="1.0" encoding="UTF-8" standalone="no"?>
<!-- Generator: Adobe Illustrator 27.2.0, SVG Export Plug-In . SVG Version: 6.00 Build 0)  -->

<svg
   version="1.1"
   id="Calque_1"
   x="0px"
   y="0px"
   viewBox="0 0 314.2559 465.45098"
   xml:space="preserve"
   sodipodi:docname="p_uppercase.svg"
   width="314.25592"
   height="465.45099"
   inkscape:version="1.4 (e7c3feb1, 2024-10-09)"
   xmlns:inkscape="http://www.inkscape.org/namespaces/inkscape"
   xmlns:sodipodi="http://sodipodi.sourceforge.net/DTD/sodipodi-0.dtd"
   xmlns="http://www.w3.org/2000/svg"
   xmlns:svg="http://www.w3.org/2000/svg"><defs
   id="defs1" /><sodipodi:namedview
   id="namedview1"
   pagecolor="#ffffff"
   bordercolor="#000000"
   borderopacity="0.25"
   inkscape:showpageshadow="2"
   inkscape:pageopacity="0.0"
   inkscape:pagecheckerboard="0"
   inkscape:deskcolor="#d1d1d1"
   inkscape:zoom="0.030882894"
   inkscape:cx="129.52154"
   inkscape:cy="259.04308"
   inkscape:window-width="1120"
   inkscape:window-height="1011"
   inkscape:window-x="7"
   inkscape:window-y="33"
   inkscape:window-maximized="0"
   inkscape:current-layer="Calque_1" />
<path
   d="m 137.56655,291.17767 c 3.85,6.81 7.69,13.62 11.54,20.43 5.04,8.91 10.85,17.57 12.14,28 1.34,10.77 2.08,21.61 3.07,32.42 0.37,4.07 0.14,8.31 1.2,12.2 2.54,9.32 2.16,18.51 0.16,27.78 -1.76,8.16 -3.41,16.35 -5.35,24.47 -0.89,3.74 -2.95,6.81 -6.6,8.71 -4.4,2.28 -8.17,1.66 -11.29,-2.21 -3.61,-4.47 -4.91,-4.45 -7.92,0.3 -1.73,2.75 -3.42,5.54 -4.86,8.45 -4.08,8.23 -11.88,10.61 -19.8,12.67 -8.38,2.18 -16.709997,0.96 -23.809997,-3.51 -3.25,-2.05 -5.15,-6.8 -6.79,-10.7 -1.64,-3.86 -2.23,-8.17 -3.21,-12.31 -1.33,-5.63 -4.72,-9.91 -9,-13.5 -6.31,-5.3 -11.03,-4.79 -15.54,2.19 -4.39,6.8 -8.04,14.08 -12.25,21 -1.91,3.13 -4.22,6.06 -6.67,8.8 -1.57,1.75 -3.53,1.67 -5.69,0.16 -6.23,-4.34 -9.6,-9.06 -6.46,-18.27 1.12,-3.26 0.87,-7 2.03,-10.23 4.82,-13.37 9.69,-26.72 15.01,-39.9 5.7,-14.12 11.85,-28.06 14.82,-43.08 0.8,-4.03 1.02,-8.2 1.14,-12.32 0.37,-12.87 0.47,-25.75 0.84,-38.62 0.24,-8.37 0.86,-16.74 1.1,-25.11 0.16,-5.33 -0.42,-10.85 -4.06,-14.87 -2.67,-2.95 -6.51,-4.94 -10.07,-6.95 -10.04,-5.68 -18.37,-12.43 -19.06,-25.24 -0.58,-10.79 -5.59,-19.81 -12.2999999,-27.96 -1.64,-1.99 -1.7,-3.61 -0.26,-5.67 4.0899999,-5.83 3.8799999,-11.66 0.4799999,-17.91 -3.0299999,-5.58 -6.0899999,-11.36 -7.7099999,-17.44 -2.79000001,-10.46 -4.19,-21.23 1.78,-31.31 3.13,-5.28 7.9599999,-8.41 13.8099999,-10.03 16.13,-4.47 32.73,-4.99 49.28,-6.28 11.06,-0.86 21.99,-3.43 33.009997,-5.03 12.72,-1.839997 25.47,-3.509997 38.22,-5.149997 12.25,-1.58 24.53,-2.98 36.78,-4.59 2.58,-0.34 5.12,-1.13 7.61,-1.91 1.02,-0.32 2.45,-0.95 2.72,-1.76 1.39,-4.23 4.89,-5.33 8.56,-6.34 0.45,-0.12 0.83,-0.52 1.31,-0.83 -1.75,-6.15 -3.42,-12.25 -5.28,-18.29 -0.24,-0.77 -1.32,-1.42 -2.16,-1.85 -5.52,-2.82 -8.64,-7.19 -9.8,-13.34 -0.31,-1.61 -2.62,-2.91 -4.14,-4.21 -1.83,-1.58 -3.81,-2.99 -5.69,-4.52 -1.87,-1.53 -3.46,-3.74 -5.59,-4.55 -4.61,-1.76 -6.96,-5.05 -8.16,-9.5 -0.52,-1.92 -1.04,-3.86 -1.32,-5.83 -0.41,-2.84 -1.36,-4.89 -4.21,-6.43 -1.53,-0.82 -2.47,-3.6199996 -2.66,-5.6199996 -0.08,-0.9 2.2,-2.39 3.66,-2.99 9.33,-3.79 18.97,-2.76000001 28.48,-1.13 10.2,1.75 20.35,1.81 30.6,0.88 5.08,-0.46 10.23,-0.13 15.35,-0.28 12.49,-0.37 24.97,-1.06 37.45,-1.14000001 9.6,-0.06 19.2,0.69000001 28.81,0.87000001 2.97,0.05 5.94,-0.81000001 8.92,-0.85000001 2.04,-0.03 4.47,0.09 6.04,1.16000001 1.58,1.07 2.08,3.62 3.48,5.12 2.29,2.46 1.75,4.5399996 0.09,7.0199996 -1.79,2.67 -3.2,5.6 -4.87,8.36 -2.29,3.77 -2.82,7.52 -1.03,11.77 2.84,6.76 5.49,13.63 7.86,20.57 1.46,4.28 -1.65,8.6 -6.19,9.51 -2.9,0.58 -4.38,2.26 -5.6,5.21 -3.2,7.76 -3.1,15.27 -0.04,22.88 1.06,2.62 2.46,5.1 3.74,7.629997 0.55,1.08 1.35,2.05 1.76,3.17 0.85,2.33 1.78,4.07 4.74,4.57 3.81,0.65 5.53,5.19 3.96,8.86 -0.97,2.27 -1.62,4.68 -2.59,6.96 -3.18,7.5 -10.15,9.47 -17.03,10.37 -11.77,1.53 -23.64,2.55 -35.5,2.91 -5.39,0.16 -9.36,1.79 -12.84,5.52 -1.19,1.28 -2.57,2.42 -3.63,3.81 -3.08,4.01 -7,6.77 -11.86,8.06 -2.51,0.67 -3.84,1.85 -3.78,4.68 0.03,1.52 -0.55,3.24 -1.37,4.55 -1.85,2.99 -3.44,5.8 -1.27,9.36 0.33,0.55 -0.36,2.02 -0.95,2.77 -5.74,7.23 -6.43,17.33 -1.77,25.25 8.33,14.19 13.41,29.68 18.36,45.27 1.51,4.74 4.83,8.91 7.26,13.37 1.37,2.5 2.97,4.94 3.86,7.6 1.33,4.04 0.86,7.63 -3.79,9.63 -1.04,0.44 -1.56,2.09 -2.31,3.19 -1.46,2.14 -2.57,4.68 -4.46,6.33 -4.21,3.68 -8.96,6.73 -13.21,10.37 -6.73,5.77 -14.61,8.71 -23.22,9.52 -10.27,0.97 -20.54,0.68 -30.35,-3.02 -10.48,-3.95 -20.87,-8.13 -31.32,-12.17 -1.1,-0.43 -2.29,-0.64 -3.44,-0.95 -0.27,0.32 -0.58,0.67 -0.9,1.02 z m 4.53,-147.54 c -0.12,0.23 -0.24,0.45 -0.37,0.68 -1.21,-0.51 -2.45,-0.98 -3.64,-1.54 -5,-2.32 -10.41,-2.02 -13.52,2.28 -4.31,5.98 -10.09,9.76 -15.91,13.84 -3.25,2.27 -5.47,6.15 -4.65,10.47 1.57,8.29 3.14,16.62 5.52,24.69 1.71,5.81 4.39,11.41 7.24,16.79 4.81,9.06 10.58,16.87 22.95,14.4 3.36,-0.67 6.28,-1.79 7.57,-4.75 2.61,-5.99 6.87,-11.31 7.51,-18.12 0.61,-6.54 2.6,-13.17 -0.42,-19.53 -2.34,-4.93 -5.07,-9.68 -7.84,-14.38 -2.27,-3.85 -4.05,-7.56 -3.01,-12.32 0.73,-3.35 0.78,-6.93 0.59,-10.38 -0.19,-3.42 -2.29,-4.77 -5.51,-4.29 1.15,0.71 2.32,1.43 3.49,2.16 z"
   id="path1"
   style="fill:#2480a7;fill-opacity:1" />
</svg>
