<?xml version="1.0" encoding="utf-8"?>
<!-- Generator: Adobe Illustrator 27.2.0, SVG Export Plug-In . SVG Version: 6.00 Build 0)  -->
<svg version="1.1" id="Calque_1" xmlns="http://www.w3.org/2000/svg" xmlns:xlink="http://www.w3.org/1999/xlink" x="0px" y="0px"
	 viewBox="0 0 595.28 841.89" style="enable-background:new 0 0 595.28 841.89;" xml:space="preserve">
<path d="M301.09,456.96c3.85,6.81,7.69,13.62,11.54,20.43c5.04,8.91,10.85,17.57,12.14,28c1.34,10.77,2.08,21.61,3.07,32.42
	c0.37,4.07,0.14,8.31,1.2,12.2c2.54,9.32,2.16,18.51,0.16,27.78c-1.76,8.16-3.41,16.35-5.35,24.47c-0.89,3.74-2.95,6.81-6.6,8.71
	c-4.4,2.28-8.17,1.66-11.29-2.21c-3.61-4.47-4.91-4.45-7.92,0.3c-1.73,2.75-3.42,5.54-4.86,8.45c-4.08,8.23-11.88,10.61-19.8,12.67
	c-8.38,2.18-16.71,0.96-23.81-3.51c-3.25-2.05-5.15-6.8-6.79-10.7c-1.64-3.86-2.23-8.17-3.21-12.31c-1.33-5.63-4.72-9.91-9-13.5
	c-6.31-5.3-11.03-4.79-15.54,2.19c-4.39,6.8-8.04,14.08-12.25,21c-1.91,3.13-4.22,6.06-6.67,8.8c-1.57,1.75-3.53,1.67-5.69,0.16
	c-6.23-4.34-9.6-9.06-6.46-18.27c1.12-3.26,0.87-7,2.03-10.23c4.82-13.37,9.69-26.72,15.01-39.9c5.7-14.12,11.85-28.06,14.82-43.08
	c0.8-4.03,1.02-8.2,1.14-12.32c0.37-12.87,0.47-25.75,0.84-38.62c0.24-8.37,0.86-16.74,1.1-25.11c0.16-5.33-0.42-10.85-4.06-14.87
	c-2.67-2.95-6.51-4.94-10.07-6.95c-10.04-5.68-18.37-12.43-19.06-25.24c-0.58-10.79-5.59-19.81-12.3-27.96
	c-1.64-1.99-1.7-3.61-0.26-5.67c4.09-5.83,3.88-11.66,0.48-17.91c-3.03-5.58-6.09-11.36-7.71-17.44
	c-2.79-10.46-4.19-21.23,1.78-31.31c3.13-5.28,7.96-8.41,13.81-10.03c16.13-4.47,32.73-4.99,49.28-6.28
	c11.06-0.86,21.99-3.43,33.01-5.03c12.72-1.84,25.47-3.51,38.22-5.15c12.25-1.58,24.53-2.98,36.78-4.59
	c2.58-0.34,5.12-1.13,7.61-1.91c1.02-0.32,2.45-0.95,2.72-1.76c1.39-4.23,4.89-5.33,8.56-6.34c0.45-0.12,0.83-0.52,1.31-0.83
	c-1.75-6.15-3.42-12.25-5.28-18.29c-0.24-0.77-1.32-1.42-2.16-1.85c-5.52-2.82-8.64-7.19-9.8-13.34c-0.31-1.61-2.62-2.91-4.14-4.21
	c-1.83-1.58-3.81-2.99-5.69-4.52c-1.87-1.53-3.46-3.74-5.59-4.55c-4.61-1.76-6.96-5.05-8.16-9.5c-0.52-1.92-1.04-3.86-1.32-5.83
	c-0.41-2.84-1.36-4.89-4.21-6.43c-1.53-0.82-2.47-3.62-2.66-5.62c-0.08-0.9,2.2-2.39,3.66-2.99c9.33-3.79,18.97-2.76,28.48-1.13
	c10.2,1.75,20.35,1.81,30.6,0.88c5.08-0.46,10.23-0.13,15.35-0.28c12.49-0.37,24.97-1.06,37.45-1.14c9.6-0.06,19.2,0.69,28.81,0.87
	c2.97,0.05,5.94-0.81,8.92-0.85c2.04-0.03,4.47,0.09,6.04,1.16c1.58,1.07,2.08,3.62,3.48,5.12c2.29,2.46,1.75,4.54,0.09,7.02
	c-1.79,2.67-3.2,5.6-4.87,8.36c-2.29,3.77-2.82,7.52-1.03,11.77c2.84,6.76,5.49,13.63,7.86,20.57c1.46,4.28-1.65,8.6-6.19,9.51
	c-2.9,0.58-4.38,2.26-5.6,5.21c-3.2,7.76-3.1,15.27-0.04,22.88c1.06,2.62,2.46,5.1,3.74,7.63c0.55,1.08,1.35,2.05,1.76,3.17
	c0.85,2.33,1.78,4.07,4.74,4.57c3.81,0.65,5.53,5.19,3.96,8.86c-0.97,2.27-1.62,4.68-2.59,6.96c-3.18,7.5-10.15,9.47-17.03,10.37
	c-11.77,1.53-23.64,2.55-35.5,2.91c-5.39,0.16-9.36,1.79-12.84,5.52c-1.19,1.28-2.57,2.42-3.63,3.81c-3.08,4.01-7,6.77-11.86,8.06
	c-2.51,0.67-3.84,1.85-3.78,4.68c0.03,1.52-0.55,3.24-1.37,4.55c-1.85,2.99-3.44,5.8-1.27,9.36c0.33,0.55-0.36,2.02-0.95,2.77
	c-5.74,7.23-6.43,17.33-1.77,25.25c8.33,14.19,13.41,29.68,18.36,45.27c1.51,4.74,4.83,8.91,7.26,13.37c1.37,2.5,2.97,4.94,3.86,7.6
	c1.33,4.04,0.86,7.63-3.79,9.63c-1.04,0.44-1.56,2.09-2.31,3.19c-1.46,2.14-2.57,4.68-4.46,6.33c-4.21,3.68-8.96,6.73-13.21,10.37
	c-6.73,5.77-14.61,8.71-23.22,9.52c-10.27,0.97-20.54,0.68-30.35-3.02c-10.48-3.95-20.87-8.13-31.32-12.17
	c-1.1-0.43-2.29-0.64-3.44-0.95C301.72,456.26,301.41,456.61,301.09,456.96z M305.62,309.42c-0.12,0.23-0.24,0.45-0.37,0.68
	c-1.21-0.51-2.45-0.98-3.64-1.54c-5-2.32-10.41-2.02-13.52,2.28c-4.31,5.98-10.09,9.76-15.91,13.84c-3.25,2.27-5.47,6.15-4.65,10.47
	c1.57,8.29,3.14,16.62,5.52,24.69c1.71,5.81,4.39,11.41,7.24,16.79c4.81,9.06,10.58,16.87,22.95,14.4c3.36-0.67,6.28-1.79,7.57-4.75
	c2.61-5.99,6.87-11.31,7.51-18.12c0.61-6.54,2.6-13.17-0.42-19.53c-2.34-4.93-5.07-9.68-7.84-14.38c-2.27-3.85-4.05-7.56-3.01-12.32
	c0.73-3.35,0.78-6.93,0.59-10.38c-0.19-3.42-2.29-4.77-5.51-4.29C303.28,307.97,304.45,308.69,305.62,309.42z"/>
</svg>
