<?xml version="1.0" encoding="utf-8"?>
<!-- Generator: Adobe Illustrator 27.2.0, SVG Export Plug-In . SVG Version: 6.00 Build 0)  -->
<svg version="1.1" id="Layer_0_xA0_Image_00000133503184450415418290000001737983318555773313_"
	 xmlns="http://www.w3.org/2000/svg" xmlns:xlink="http://www.w3.org/1999/xlink" x="0px" y="0px" viewBox="0 0 1100 639"
	 style="enable-background:new 0 0 1100 639;" xml:space="preserve">
<g>
	<path d="M682.41,230.39c2.61,5.76,0.86,11.81-0.49,17.72c-1.47,6.4-1.37,12.86,1.47,18.5c5.79,11.51,2.53,22.02-1.3,32.64
		c-1.05,2.91-2.46,5.71-3.97,8.4c-9.55,16.91-15.11,35.43-20.34,54.23c-3.4,12.22-8.58,23.91-13.36,35.65
		c-2.3,5.66-3.02,11.31-3.06,17.44c-0.08,12.52,0.36,24.91,4.26,36.98c0.18,0.54,0.16,1.18,0.43,1.66
		c4.72,8.35,2.92,16.41-0.2,24.58c-1.45,3.8-1.88,8.04-3.32,11.84c-1.64,4.34-4.04,5.12-8.23,3.47
		c-7.66-3.01-13.07-9.18-18.51-15.09c-5.17-5.62-9.12-12.61-14.76-17.57c-7.78-6.84-16.63-12.35-25.04-18.4
		c-0.55-0.4-1.46-0.34-1.91-0.81c-6.75-7-13.69-3.19-20.55-0.83c-14.1,4.85-28.42,6.23-43.33,3.68c-9.13-1.56-18.32-3.15-27.72-0.42
		c-4.1,1.19-9.44,0.36-13.57-1.35c-8.24-3.41-8.48-11.91-8.88-19.37c-0.51-9.33,1.42-18.37,4.09-27.3
		c4.33-14.45,2.86-29.38,1.56-44.28c-0.57-6.54-1.11-13.24-0.38-19.68c0.56-4.9,2.32-10.11,5-14.12
		c5.09-7.64,10.94-14.79,16.98-21.65c14.32-16.26,28.72-32.43,42.77-48.95c13.42-15.78,27.72-30.86,44.71-42.7
		c5.99-4.17,11.75-9.2,18.4-11.73c14.38-5.48,29.2-7.11,44.74-2.63c13.95,4.02,25.59,11.25,35.6,21.9
		C678.21,217.22,681.25,223.11,682.41,230.39z M545.12,323.56c-3.12,1.64-9.15,3.37-13.25,7.28c-9.7,9.27-9.08,26.25,4.63,35.62
		c3.76,2.57,7.8,2.12,11.17-1.11c5.87-5.62,11.7-11.28,17.55-16.92c8.02-7.73,8.7-16.03,1.88-25.03c-0.82-1.08-2.48-2.25-3.64-2.16
		C558.15,321.67,552.88,322.53,545.12,323.56z"/>
</g>
</svg>
