<?xml version="1.0" encoding="utf-8"?>
<!-- Generator: Adobe Illustrator 27.2.0, SVG Export Plug-In . SVG Version: 6.00 Build 0)  -->
<svg version="1.1" id="Layer_0_xA0_Image_00000183962788122327553490000007916776831441726628_"
	 xmlns="http://www.w3.org/2000/svg" xmlns:xlink="http://www.w3.org/1999/xlink" x="0px" y="0px" viewBox="0 0 1100 610"
	 style="enable-background:new 0 0 1100 610;" xml:space="preserve">
<g>
	<path d="M634.42,428.91c-0.58,1.49-1.09,2.82-1.6,4.13c-1.12,2.88-3.1,5.17-6.02,5.92c-6,1.53-12.11,2.61-18.17,3.93
		c-2.02,0.44-3.99,1.09-6.01,1.55c-6.46,1.49-12.78,1.46-19.02-1.3c-1.97-0.87-4.3-1.09-6.5-1.29c-4.3-0.41-8.63-0.5-12.93-0.9
		c-8.57-0.8-17.04-0.17-25.6,0.8c-7.88,0.89-16.05,1.56-23.82,0.43c-7.47-1.08-15.03-3.4-21.03-8.98c-2.87-2.67-6.76-3.58-10.81-3.9
		c-11.41-0.89-22.92-0.73-34.12-3.87c-13.55-3.8-25.83-9.68-35.69-19.95c-1.31-1.36-2.45-2.93-3.49-4.51
		c-3.28-5-8.28-7.09-13.82-7.91c-2.72-0.4-5.31,0.87-6.8,3.38c-1.73,2.91-3.59,5.83-4.74,8.98c-2.04,5.59-6.35,9.19-10.78,12.43
		c-2.72,2-6.48,2.48-10.08,1.39c-1.75-0.53-3.54-0.94-5.33-1.26c-6.46-1.12-11.43-5.63-11.86-13.18
		c-2.48-43.19-5.19-86.37-7.77-129.55c-0.84-14.03-1.56-28.07-2.24-42.12c-0.32-6.57-0.43-13.11,0.96-19.65
		c1.45-6.83,7.3-13.24,14.1-13.94c9.42-0.97,18.88-2.15,28.32-2.11c17.61,0.06,35.22,0.79,52.82,1.53
		c11.36,0.47,22.69,1.51,34.04,2.18c7.12,0.42,14.31,0.19,21.37,1.09c3.24,0.41,6.55,2.39,9.28,4.4
		c6.14,4.53,11.93,9.52,17.87,14.31c8.47,6.82,17.09,13.49,23.69,22.3c4.5,6.01,7.97,12.32,7.88,20.22
		c-0.04,3.25,1.24,6.49,1.65,9.77c1.06,8.46,0.84,17.1,3.79,25.29c2.28,6.32,3.61,13.13,6.82,18.92c6.4,11.5,12.02,23.6,21.17,33.36
		c2.6,2.78,5.69,5.1,8.38,7.8c5.51,5.52,10.91,11.16,16.36,16.75c0.29,0.3,0.56,0.62,0.89,0.87c6.05,4.79,12.19,9.48,18.15,14.39
		c3.9,3.22,7.56,6.74,11.31,10.14c1.89,1.72,2.61,3.89,2.78,6.43C638.32,414.75,637.35,422.07,634.42,428.91z M464.56,264.36
		c-8.53-3.35-16.93,2.22-16.47,11.39c0.21,4.29,1.89,8.5,2.83,12.77c0.96,4.35,4.28,5.63,8.04,6.16c3.63,0.52,7.31,0.22,10.12-2.35
		C477.78,284.36,477.67,268.93,464.56,264.36z"/>
</g>
</svg>
