<?xml version="1.0" encoding="UTF-8" standalone="no"?>
<!-- Generator: Adobe Illustrator 27.2.0, SVG Export Plug-In . SVG Version: 6.00 Build 0)  -->

<svg
   version="1.1"
   id="Calque_1"
   x="0px"
   y="0px"
   viewBox="0 0 326.71022 312.85473"
   xml:space="preserve"
   sodipodi:docname="u_uppercase.svg"
   width="326.71024"
   height="312.85474"
   inkscape:version="1.4 (e7c3feb1, 2024-10-09)"
   xmlns:inkscape="http://www.inkscape.org/namespaces/inkscape"
   xmlns:sodipodi="http://sodipodi.sourceforge.net/DTD/sodipodi-0.dtd"
   xmlns="http://www.w3.org/2000/svg"
   xmlns:svg="http://www.w3.org/2000/svg"><defs
   id="defs1" /><sodipodi:namedview
   id="namedview1"
   pagecolor="#ffffff"
   bordercolor="#000000"
   borderopacity="0.25"
   inkscape:showpageshadow="2"
   inkscape:pageopacity="0.0"
   inkscape:pagecheckerboard="0"
   inkscape:deskcolor="#d1d1d1"
   inkscape:zoom="0.030882894"
   inkscape:cx="161.90193"
   inkscape:cy="194.28231"
   inkscape:window-width="1120"
   inkscape:window-height="1011"
   inkscape:window-x="7"
   inkscape:window-y="33"
   inkscape:window-maximized="0"
   inkscape:current-layer="Calque_1" />
<style
   type="text/css"
   id="style1">
	.st0{fill:#020203;}
</style>
<g
   id="g1"
   style="fill:#2480a7;fill-opacity:1"
   transform="translate(-124.75904,-232.67217)">
	<path
   class="st0"
   d="m 167.87,360.84 c 0,-2.3 -0.03,-3.52 0,-4.77 0.09,-5.41 4.92,-8.41 9.83,-6.22 1.63,0.73 3.35,1.34 5.09,1.75 2.33,0.55 4.22,0.35 5.26,-2.47 0.87,-2.39 2.04,-4.94 3.81,-6.63 1.37,-1.31 4.33,-2.47 5.82,-1.86 2.15,0.9 4.51,3.2 5.21,5.38 1.69,5.29 2.62,10.85 3.55,16.35 0.79,4.68 4.68,7.27 9.05,7.04 5.15,-0.26 8.09,-1.89 8.64,-7.59 0.55,-5.85 0.32,-11.37 -1.4,-17.16 -1.54,-5.18 -1.13,-10.76 4.22,-14.86 5.35,-4.07 5.38,-14.25 0.2,-18.5 -2.68,-2.21 -1.63,-2.91 0.64,-3.81 3.52,-1.43 6.49,-3.08 6.25,-7.74 -0.15,-3.05 2.3,-4.62 4.97,-2.88 4.1,2.68 7.04,1.75 9.72,-1.77 1.34,-1.75 2.41,-1.98 3.72,0.12 0.67,1.08 1.75,2.07 2.88,2.71 3.98,2.27 3.61,5.88 2.21,9.05 -1.86,4.22 -4.6,8.06 -7.24,12.59 4.07,8.23 8.17,17.48 7.1,27.89 -0.79,7.5 -2.62,14.75 -6.81,21.23 -0.96,1.48 -1.6,3.17 -2.18,4.86 -0.32,0.93 -0.17,2.04 -0.26,3.05 1.22,-0.06 2.44,-0.26 3.67,-0.17 2.41,0.17 4.97,0.12 7.21,0.9 2.56,0.9 2.21,3.17 1.02,5.18 -4.77,8.17 -11.49,13.93 -20.83,16.14 -5.5,1.31 -8.09,4.45 -8.9,10.15 -0.87,6.14 -3.35,12.07 -4.22,18.21 -0.35,2.39 1.51,5.29 3,7.59 0.35,0.55 3.14,-0.67 4.83,-0.76 2.79,-0.15 5.73,-0.52 8.32,0.2 1.13,0.32 3.23,1.48 1.77,5.12 -3.61,8.99 -10.76,14.49 -16.99,20.97 -3.43,3.58 -3.05,8.12 -0.03,11.87 7.48,9.34 16.52,6.02 25.42,3.72 5.03,-1.31 8,2.09 11.69,4.13 2.91,1.6 5.99,3 9.13,4.01 3.43,1.13 7.85,-4.42 6.69,-6.92 -2.27,-4.86 1.48,-7.85 3.67,-9.31 8.14,-5.38 5.47,-12.27 3.98,-19.23 -0.76,-3.55 -1.95,-7.07 -2.36,-10.65 -0.44,-3.72 -0.2,-7.5 -0.23,-11.29 -0.03,-6.54 4.3,-9.63 10.59,-7.56 5.93,1.95 14.22,-0.29 16.58,-5.32 1.02,-2.15 0.03,-5.41 -0.49,-8.06 -0.93,-4.65 0.9,-10.15 4.77,-12.65 3.69,-2.36 7.45,-3.4 11.66,-0.73 2.97,1.86 8.96,0.93 10.41,-1.22 0.44,-0.64 1.08,-1.45 0.99,-2.09 -1.11,-6.95 4.13,-10.01 8.26,-13.76 2.21,-2.01 4.57,-3.81 6.54,-6.02 0.93,-1.02 1.57,-2.79 1.45,-4.13 -0.29,-3.58 -0.7,-7.21 -1.72,-10.65 -1.34,-4.48 -0.47,-6.28 4.3,-6.49 4.01,-0.17 8.06,-0.2 12.07,-0.12 3.11,0.06 4.54,-1.43 5.64,-4.3 2.91,-7.56 6.84,-14.57 13.44,-19.6 4.13,-3.14 8.81,-5.73 12.45,-9.34 3.11,-3.11 5.67,-7.13 7.48,-11.17 1.86,-4.16 3,-8.78 3.61,-13.32 0.7,-5.21 -2.53,-8.99 -6.37,-11.98 -3.55,-2.76 -6.57,-5.76 -6.6,-10.59 0,-1.31 0.29,-2.82 0.99,-3.87 2.04,-2.97 1.4,-5.32 -1.95,-7.13 -3.05,-1.63 -6.02,-3.43 -8.9,-5.38 -0.7,-0.47 -1.25,-1.89 -1.11,-2.73 0.35,-1.98 8.26,-7.39 10.3,-7.24 1.95,0.15 3.87,0.44 5.79,0.73 6.72,1.08 12.54,-0.73 18.18,-4.62 2.88,-1.98 5.56,-5.58 10.04,-4.1 2.27,0.76 4.51,1.95 6.84,2.21 2.5,0.29 5.12,-0.41 7.71,-0.47 1.16,-0.03 2.73,0.09 3.35,0.79 0.47,0.52 -0.09,2.18 -0.47,3.26 -1.05,2.94 -2.3,5.79 -3.4,8.73 -1.57,4.22 -3.69,7.59 -8.58,9.02 -3.67,1.05 -6.46,3.35 -5.85,8.32 0.84,6.89 0.81,13.87 1.25,20.83 0.09,1.22 0.29,2.56 0.87,3.64 3.26,6.22 1.45,9.4 -4.65,12.59 -3.29,1.72 -5.99,5.79 -7.45,9.4 -2.09,5.26 -2.71,11.08 -4.19,16.64 -0.84,3.11 -1.6,6.43 -3.35,9.05 -2.07,3.08 -4.8,1.08 -7.71,-0.87 -1.6,6.52 -3.17,12.74 -4.65,19.02 -1.05,4.39 -1.83,8.87 -3,13.23 -1.13,4.25 -7.8,6.75 -11.66,4.68 -0.84,-0.44 -2.85,-0.49 -2.94,-0.2 -0.96,2.47 -2.79,5.56 -2.01,7.48 0.87,2.09 0.41,2.68 -0.41,4.33 -1.48,3.03 -2.21,6.4 -3.23,9.63 -2.12,6.75 -6.05,7.71 -11,2.91 -1.05,-1.02 -3.61,-1.89 -4.62,-1.34 -2.97,1.69 -5.61,4.04 -8.2,6.34 -1.16,1.05 -2.36,2.44 -2.73,3.9 -0.47,1.69 -0.67,3.98 0.12,5.38 1.72,3.11 1.51,5.5 -0.26,8.58 -6.84,11.9 -9.89,24.78 -6.66,38.28 1.11,4.57 4.51,8.99 7.91,12.45 1.6,1.63 5.67,1.16 8.61,1.13 9.31,-0.17 14.51,-6.34 19.4,-13.32 4.39,-6.25 9.16,-12.22 16.87,-15.07 4.65,-1.72 8.58,-0.67 10.5,4.01 1.08,2.62 2.53,2.76 5.21,2.15 6.34,-1.45 10.76,-6.08 16.26,-8.81 3.11,-1.54 6.92,-1.72 10.47,-2.27 0.55,-0.09 1.92,1.16 1.86,1.69 -0.2,1.69 -0.49,3.64 -1.48,4.92 -4.16,5.56 -8.61,10.88 -12.86,16.35 -0.64,0.81 -0.81,1.98 -0.81,2.04 2.21,2.21 4.86,3.64 5.47,5.7 1.08,3.67 1.11,7.74 -2.73,10.41 -0.44,0.29 -0.9,0.76 -1.37,0.76 -4.6,0.06 -6.52,2.44 -8.87,6.49 -2.53,4.3 -2.36,7.36 -0.73,11.29 0.9,2.21 1.77,4.51 2.12,6.84 0.55,3.58 0.73,7.18 0.87,10.82 0.09,2.82 0.67,6.08 -3.08,7.24 -3.78,1.16 -8.41,-0.47 -10.06,-3.61 -2.07,-3.96 -3.78,-8.12 -5.9,-12.07 -0.58,-1.11 -1.89,-2.12 -3.11,-2.56 -2.56,-0.93 -5.38,-1.19 -7.94,-2.18 -4.3,-1.66 -5.82,-1.22 -8.03,2.68 -1.13,2.01 -2.65,3.81 -3.98,5.73 7.01,6.2 11.26,13.85 11.32,23.56 0.03,3.96 -1.25,7.68 -4.77,9.28 -4.19,1.89 -9.02,2.36 -13.03,-0.79 -2.5,-1.95 -4.48,-4.6 -6.81,-6.81 -3.52,-3.37 -7.01,-6.46 -12.48,-6.78 -9.42,-0.55 -18.82,-1.63 -28.1,1.16 -2.33,0.7 -4.68,1.37 -7.77,2.27 0,-2.36 -0.15,-3.72 0.03,-5.06 1.28,-10.01 -7.39,-17.48 -16.46,-17.28 -7.07,0.15 -14.14,0.96 -21.18,1.8 -2.04,0.23 -4.33,1.19 -5.79,2.56 -1.08,0.99 -1.83,3.72 -1.22,4.83 1.92,3.43 4.39,6.63 7.01,9.63 2.3,2.62 -0.84,8.14 -4.94,9.45 -5.29,1.69 -9.31,-1.48 -12.48,-4.6 -2.94,-2.88 -4.28,-7.3 -6.78,-10.73 -2.01,-2.79 -4.3,-5.7 -7.16,-7.48 -3.2,-1.98 -5.56,1.72 -8.09,3.05 -4.04,2.12 -8,4.68 -11.4,7.74 -4.22,3.75 -7.65,0.93 -10.94,-0.76 -5.58,-2.85 -10.59,-2.91 -16.29,-0.15 -3.05,1.45 -7.04,1.31 -10.59,1.25 -2.24,-0.03 -3.58,-6.11 -1.92,-9.1 1.08,-1.98 2.44,-4.1 4.22,-5.35 5.41,-3.75 6.46,-9.28 5.85,-14.95 -0.84,-7.94 -2.59,-15.79 -4.13,-23.68 -0.17,-0.93 -1.43,-1.89 -2.39,-2.44 -4.94,-2.79 -6.49,-5.18 -5.73,-10.47 0.58,-4.07 -0.06,-6.4 -4.83,-7.21 -5.7,-0.96 -7.62,-7.53 -3.52,-11.66 3.2,-3.2 6.84,-5.99 10.44,-8.78 6.89,-5.32 8.23,-11.69 3.9,-19.26 -1.11,-1.89 -2.56,-3.78 -2.97,-5.85 -0.96,-4.71 -5.35,-4.71 -8.26,-5.44 -2.21,-0.58 -5.64,1.57 -7.82,3.35 -5.41,4.36 -11.17,2.85 -12.59,-3.81 -0.49,-2.3 -0.47,-4.71 -0.99,-7.01 -1.25,-5.41 -5.7,-8.09 -9.77,-11.08 -6.46,-4.74 -13.58,-8.9 -18.99,-14.66 -7.5,-7.94 -8.81,-18.38 -8.93,-29.2 -0.09,-9.77 6.14,-15.42 11.58,-21.79 1.66,-1.95 6.57,1.34 6.86,5.06 0.26,3.69 -0.17,7.48 -0.67,11.17 -0.26,1.95 -1.51,3.75 -1.92,5.73 -1.4,6.75 1.89,10.27 8.32,13 3.96,1.69 8.32,2.41 12.42,3.78 1.9,0.74 3.82,1.88 6.52,3.16 z"
   id="path1"
   style="fill:#2480a7;fill-opacity:1" />
</g>
</svg>
