<?xml version="1.0" encoding="utf-8"?>
<!-- Generator: Adobe Illustrator 27.2.0, SVG Export Plug-In . SVG Version: 6.00 Build 0)  -->
<svg version="1.1" id="Calque_1" xmlns="http://www.w3.org/2000/svg" xmlns:xlink="http://www.w3.org/1999/xlink" x="0px" y="0px"
	 viewBox="0 0 595.28 841.89" style="enable-background:new 0 0 595.28 841.89;" xml:space="preserve">
<g>
	<path d="M329.7,529.82c2.11,0.56,4.2,1.5,6.33,1.61c4.72,0.24,5.67,0.71,7.36,5.12c0.04,0.1,0.07,0.23,0.15,0.28
		c4.66,2.9,2.64,7.49,2.83,11.53c0.28,0.1,0.56,0.21,0.84,0.31c1.02-2.53,2.48-4.98,2.96-7.61c0.95-5.15,1.28-10.42,2.02-15.61
		c0.82-5.74,1.79-11.46,2.73-17.18c0.1-0.63,0.27-1.33,0.64-1.81c5.53-7.17,6.32-15.95,8.3-24.31c1.08-4.57,1.59-9.27,2.73-13.82
		c1.11-4.44,2.77-8.74,4.05-13.15c0.77-2.65,1.78-5.37,1.79-8.06c0.03-5.3,1.96-9.99,3.37-14.93c2.13-7.48,3.18-15.26,4.87-22.87
		c1.1-4.97,2.16-10.01,3.93-14.75c0.91-2.44,3.63-4.14,5.04-6.47c1.01-1.67,1.63-3.83,1.66-5.79c0.09-7.2-2.9-13.77-4.54-20.63
		c-0.81-3.36,0.32-6.72,1.08-9.98c0.43-0.06,0.85-0.12,1.28-0.18c2.43,4.54,4.85,9.08,7.36,13.77c-0.36,0.06-0.01,0.07,0.01-0.01
		c1.79-7.43,7.54-12.33,11.56-18.34c1.19-1.79,2.17-4.06,2.29-6.16c0.43-7.83,0.15-15.71,0.78-23.51c0.34-4.3,1.82-8.54,3.04-12.73
		c1.11-3.8,2.82-7.44,3.78-11.27c0.91-3.62,1.2-7.4,1.73-11.12c0.81-5.63,2.49-11.32,2.14-16.88c-0.43-6.84,2.94-12.32,4.54-18.4
		c0.77-2.92,2.58-4.99,6.42-4.06c3.58,0.87,3.83,3.51,3.9,6.16c0.19,6.56,0.34,13.14,0.1,19.69c-0.4,10.88,2.48,21.3,4,31.91
		c1.05,7.28,2.23,14.63-0.34,21.91c-0.42,1.19-0.63,2.53-0.62,3.8c0.06,12.86-5.43,23.78-11.88,34.37
		c-0.28,0.46-0.83,0.81-0.96,1.29c-1.87,7.11-8.15,10.7-12.4,15.92c-1.95,2.39-2.52,5.9-3.77,8.88c-1.06,2.53-1.92,5.21-3.37,7.51
		c-2.05,3.26-4.54,6.13-4.37,10.43c0.07,1.76-0.9,3.81-1.97,5.33c-5.24,7.44-6.37,16.09-7.24,24.71
		c-0.58,5.74-0.63,11.64,0.01,17.37c0.43,3.85,1.05,7.55,0.5,11.47c-1.14,8.28-4.81,15.35-9.23,22.29
		c-3.7,5.8-8.54,11.07-9.93,18.16c-0.12,0.63-0.48,1.35-0.3,1.88c1.62,4.82-1.01,8.26-3.67,11.7c-2.48,3.21-3.6,6.74-2.91,10.82
		c0.16,0.92,0.05,1.95-0.2,2.86c-1.22,4.29-2.13,8.73-3.92,12.79c-2.05,4.65-4.92,8.93-7.39,13.4c-2.21,4.02-4.21,8.16-6.57,12.08
		c-2.48,4.11-5.22,8.08-7.96,12.02c-2.01,2.89-4.43,5.51-6.26,8.51c-3.32,5.46-6.47,11.04-9.43,16.7c-1.68,3.2-2.72,6.73-4.3,9.99
		c-2.7,5.6-9.39,8.58-15.46,6.82c-4.15-1.2-7.64,0.98-11.28,1.98c-1.49,0.41-3.21,2.65-3.5,4.3c-1.3,7.27-6.64,11.49-11.32,16.32
		c-2.42,2.5-4.38,5.45-7.03,8.81c-1.09-0.49-4.17-1.13-4.27-2.07c-0.24-2.36,0.29-5.24,1.57-7.22c1.96-3.02,5.01-5.3,7.22-8.18
		c1.28-1.67,2.59-3.93,2.54-5.89c-0.12-4.15,1.93-6.41,5.17-8.11c6.36-3.32,8.84-9.28,8.71-15.68c-0.09-4.14-1.83-9.06-4.52-12.17
		c-6.89-7.96-9.4-17.94-14.11-26.87c-5.79-10.98-8.92-22.88-13.16-34.4c-0.36-0.98-0.89-2.33-1.68-2.63
		c-5.85-2.24-5.93-8.11-7.65-12.62c-2.42-6.32-3.27-13.23-5.56-19.61c-1.48-4.12-4.43-7.7-6.54-11.61
		c-0.64-1.18-0.98-2.67-0.98-4.02c0.03-4.68,1.05-9.45-1.97-13.73c-0.57-0.81-0.45-2.07-0.78-3.08c-1.7-5.22-3.29-10.49-5.21-15.63
		c-1.65-4.42-3.76-8.67-5.51-13.05c-0.81-2.03-0.16-3.61,2.58-3.99c-1.16-2.53-2.31-4.81-3.26-7.16c-1.07-2.67-1.9-5.44-2.96-8.11
		c-2.02-5.06-4.15-10.07-6.2-15.11c-0.32-0.78-0.33-1.69-0.69-2.44c-0.71-1.48-1.55-2.89-2.35-4.33c-0.67-1.21-1.35-2.4-2.01-3.61
		c-0.51-0.93-0.77-2.14-1.53-2.75c-4.38-3.57-5.18-8.64-6.25-13.71c-0.84-3.96-2.1-7.84-3.23-11.74
		c-1.72-5.95-3.54-11.87-5.23-17.82c-1.38-4.83-2.61-9.7-3.99-14.54c-0.19-0.66-0.83-1.22-1.33-1.77c-0.36-0.39-1.16-0.66-1.19-1.03
		c-0.3-3.43-1.83-6.3-3.65-9.13c-0.8-1.25-1.24-2.76-1.68-4.21c-1.08-3.59-2.09-7.21-3.07-10.83c-0.3-1.11,0.01-2.74-0.67-3.35
		c-3.51-3.19-2.46-7.43-3.12-11.31c-1.03-6.02-2.46-11.98-3.67-17.97c-0.38-1.88-0.36-3.88-0.97-5.67
		c-1.39-4.06-3.05-8.02-4.63-12.02c-1.34-3.37-3.11-6.63-3.95-10.12c-0.6-2.51-0.53-5.06-2.71-6.94c-0.69-0.6-1.08-1.6-1.47-2.47
		c-1.51-3.34-3.64-3.82-6.31-1.16c-2.25,2.24-4.26,4.47-7.99,3.23c-1.05-0.35-2.46,0.48-3.73,0.65c-0.91,0.12-1.84,0.02-2.76,0.02
		c-0.13-0.47-0.27-0.94-0.4-1.4c1.35-0.64,2.68-1.3,4.04-1.91c2.78-1.26,5.87-2.1,8.27-3.87c2.9-2.13,5.79-3.57,9.38-3.6
		c4.83-0.03,7.14,1.38,8.95,5.83c2.39,5.85,5.19,11.3,9.47,16.19c3.32,3.79,5.19,8.76,5.75,14.12c0.32,3.11,1.73,6.12,2.81,9.12
		c2.91,8.06,6.48,15.95,8.64,24.2c1.38,5.25,0.8,11.04,0.91,16.59c0.05,2.35,0.16,4.55,2.28,6.01c3.81,2.63,5.11,6.64,6.39,10.8
		c0.58,1.87,2.15,3.43,3.26,5.13c1.32,2.03,3.41,3.92,3.81,6.12c1.4,7.7,5.42,14.11,9.15,20.71c0.26,0.46,0.58,1,1.01,1.24
		c6.37,3.63,5.9,10.08,6.86,16.05c0.48,2.96,1.56,5.91,2.85,8.64c2.74,5.82,5.66,11.56,8.76,17.18c1.96,3.54,4.39,6.83,6.61,10.23
		c0.58,0.89,1.3,1.71,1.74,2.67c3.52,7.58,7,15.18,10.48,22.78c2.33,5.11,7.24,7.48,11.34,10.72c1.9,1.5,3.63,3.32,5.73,4.42
		c5.77,3.02,7.33,9.1,10.79,13.82c2.61,3.54,6.27,6.35,9.63,9.3c8.05,7.06,14.7,15.15,18.14,25.41c1.31,3.9,1.58,8.15,2.5,12.2
		c0.39,1.73,0.76,3.83,1.92,4.96c2.27,2.19,4.06,5.37,8.02,5.23c0.56-0.02,1.18,1.31,1.76,2.01c-2.68-1.09-5.36-2.17-8.18-3.31
		c1.09,3.03,3.75,3.59,6.3,4.17C328.42,530.89,329.1,530.16,329.7,529.82z M311.26,613.71c0.16-1.34,0.2-2.51,0.44-3.62
		c1.56-6.99,3.19-13.96,4.75-20.95c0.79-3.56,0.68-7.13-2.6-9.32c-5.1-3.4-8.06-8.04-9.68-13.81c-0.36-1.27-1.56-2.31-2.37-3.45
		c-0.49,0.19-0.97,0.37-1.46,0.56c0.78,8.62,0.69,17.45,2.6,25.81c1.6,6.98,2.69,13.84,2.76,20.93
		C305.74,614.29,306.57,614.87,311.26,613.71z"/>
	<path d="M428.95,215.85c-1.35,6.65-0.03,12.66,2.71,18.34c1.26,2.61,0.69,4.84-1.18,6.6c-1.93,1.81-4.04,0.35-5.53-0.84
		c-1.93-1.54-3.57-3.52-5.07-5.52c-2.29-3.04-4.2-6.37-6.56-9.34c-1.74-2.19-2.92-4.29-2.81-7.25c0.23-6.25-3.01-11.53-5.23-17.09
		c-0.44-1.09-1.28-2.09-1.46-3.21c-0.75-4.75-3.9-6.45-8.21-6.92c-5.37-0.59-9.49-3.33-13.36-7.03c-2.72-2.6-6.4-4.16-9.5-6.4
		c-1.87-1.35-3.7-2.92-5.09-4.74c-1.16-1.52-0.36-2.82,1.67-2.33c1.64,0.39,3.34,1,4.7,1.96c4.46,3.15,8.67,6.65,13.19,9.7
		c1.68,1.13,3.92,1.59,5.98,1.98c6.61,1.25,13.34,2.02,19.85,3.64c1.95,0.49,3.83,2.9,4.93,4.88c2.95,5.32,5.52,10.85,8.13,16.36
		C427.19,210.97,428,213.44,428.95,215.85z"/>
</g>
</svg>
