<?xml version="1.0" encoding="UTF-8" standalone="no"?>
<!-- Generator: Adobe Illustrator 27.2.0, SVG Export Plug-In . SVG Version: 6.00 Build 0)  -->

<svg
   version="1.1"
   id="Calque_1"
   x="0px"
   y="0px"
   viewBox="0 0 303.42506 484.97503"
   xml:space="preserve"
   sodipodi:docname="v_uppercase.svg"
   width="303.42508"
   height="484.97504"
   inkscape:version="1.4 (e7c3feb1, 2024-10-09)"
   xmlns:inkscape="http://www.inkscape.org/namespaces/inkscape"
   xmlns:sodipodi="http://sodipodi.sourceforge.net/DTD/sodipodi-0.dtd"
   xmlns="http://www.w3.org/2000/svg"
   xmlns:svg="http://www.w3.org/2000/svg"><defs
   id="defs2" /><sodipodi:namedview
   id="namedview2"
   pagecolor="#ffffff"
   bordercolor="#000000"
   borderopacity="0.25"
   inkscape:showpageshadow="2"
   inkscape:pageopacity="0.0"
   inkscape:pagecheckerboard="0"
   inkscape:deskcolor="#d1d1d1"
   inkscape:zoom="0.030882894"
   inkscape:cx="161.90193"
   inkscape:cy="259.04308"
   inkscape:window-width="1120"
   inkscape:window-height="1011"
   inkscape:window-x="7"
   inkscape:window-y="33"
   inkscape:window-maximized="0"
   inkscape:current-layer="Calque_1" />
<g
   id="g2"
   style="fill:#2480a7;fill-opacity:1"
   transform="translate(-138.55,-170.01496)">
	<path
   d="m 329.7,529.82 c 2.11,0.56 4.2,1.5 6.33,1.61 4.72,0.24 5.67,0.71 7.36,5.12 0.04,0.1 0.07,0.23 0.15,0.28 4.66,2.9 2.64,7.49 2.83,11.53 0.28,0.1 0.56,0.21 0.84,0.31 1.02,-2.53 2.48,-4.98 2.96,-7.61 0.95,-5.15 1.28,-10.42 2.02,-15.61 0.82,-5.74 1.79,-11.46 2.73,-17.18 0.1,-0.63 0.27,-1.33 0.64,-1.81 5.53,-7.17 6.32,-15.95 8.3,-24.31 1.08,-4.57 1.59,-9.27 2.73,-13.82 1.11,-4.44 2.77,-8.74 4.05,-13.15 0.77,-2.65 1.78,-5.37 1.79,-8.06 0.03,-5.3 1.96,-9.99 3.37,-14.93 2.13,-7.48 3.18,-15.26 4.87,-22.87 1.1,-4.97 2.16,-10.01 3.93,-14.75 0.91,-2.44 3.63,-4.14 5.04,-6.47 1.01,-1.67 1.63,-3.83 1.66,-5.79 0.09,-7.2 -2.9,-13.77 -4.54,-20.63 -0.81,-3.36 0.32,-6.72 1.08,-9.98 0.43,-0.06 0.85,-0.12 1.28,-0.18 2.43,4.54 4.85,9.08 7.36,13.77 -0.36,0.06 -0.01,0.07 0.01,-0.01 1.79,-7.43 7.54,-12.33 11.56,-18.34 1.19,-1.79 2.17,-4.06 2.29,-6.16 0.43,-7.83 0.15,-15.71 0.78,-23.51 0.34,-4.3 1.82,-8.54 3.04,-12.73 1.11,-3.8 2.82,-7.44 3.78,-11.27 0.91,-3.62 1.2,-7.4 1.73,-11.12 0.81,-5.63 2.49,-11.32 2.14,-16.88 -0.43,-6.84 2.94,-12.32 4.54,-18.4 0.77,-2.92 2.58,-4.99 6.42,-4.06 3.58,0.87 3.83,3.51 3.9,6.16 0.19,6.56 0.34,13.14 0.1,19.69 -0.4,10.88 2.48,21.3 4,31.91 1.05,7.28 2.23,14.63 -0.34,21.91 -0.42,1.19 -0.63,2.53 -0.62,3.8 0.06,12.86 -5.43,23.78 -11.88,34.37 -0.28,0.46 -0.83,0.81 -0.96,1.29 -1.87,7.11 -8.15,10.7 -12.4,15.92 -1.95,2.39 -2.52,5.9 -3.77,8.88 -1.06,2.53 -1.92,5.21 -3.37,7.51 -2.05,3.26 -4.54,6.13 -4.37,10.43 0.07,1.76 -0.9,3.81 -1.97,5.33 -5.24,7.44 -6.37,16.09 -7.24,24.71 -0.58,5.74 -0.63,11.64 0.01,17.37 0.43,3.85 1.05,7.55 0.5,11.47 -1.14,8.28 -4.81,15.35 -9.23,22.29 -3.7,5.8 -8.54,11.07 -9.93,18.16 -0.12,0.63 -0.48,1.35 -0.3,1.88 1.62,4.82 -1.01,8.26 -3.67,11.7 -2.48,3.21 -3.6,6.74 -2.91,10.82 0.16,0.92 0.05,1.95 -0.2,2.86 -1.22,4.29 -2.13,8.73 -3.92,12.79 -2.05,4.65 -4.92,8.93 -7.39,13.4 -2.21,4.02 -4.21,8.16 -6.57,12.08 -2.48,4.11 -5.22,8.08 -7.96,12.02 -2.01,2.89 -4.43,5.51 -6.26,8.51 -3.32,5.46 -6.47,11.04 -9.43,16.7 -1.68,3.2 -2.72,6.73 -4.3,9.99 -2.7,5.6 -9.39,8.58 -15.46,6.82 -4.15,-1.2 -7.64,0.98 -11.28,1.98 -1.49,0.41 -3.21,2.65 -3.5,4.3 -1.3,7.27 -6.64,11.49 -11.32,16.32 -2.42,2.5 -4.38,5.45 -7.03,8.81 -1.09,-0.49 -4.17,-1.13 -4.27,-2.07 -0.24,-2.36 0.29,-5.24 1.57,-7.22 1.96,-3.02 5.01,-5.3 7.22,-8.18 1.28,-1.67 2.59,-3.93 2.54,-5.89 -0.12,-4.15 1.93,-6.41 5.17,-8.11 6.36,-3.32 8.84,-9.28 8.71,-15.68 -0.09,-4.14 -1.83,-9.06 -4.52,-12.17 -6.89,-7.96 -9.4,-17.94 -14.11,-26.87 -5.79,-10.98 -8.92,-22.88 -13.16,-34.4 -0.36,-0.98 -0.89,-2.33 -1.68,-2.63 -5.85,-2.24 -5.93,-8.11 -7.65,-12.62 -2.42,-6.32 -3.27,-13.23 -5.56,-19.61 -1.48,-4.12 -4.43,-7.7 -6.54,-11.61 -0.64,-1.18 -0.98,-2.67 -0.98,-4.02 0.03,-4.68 1.05,-9.45 -1.97,-13.73 -0.57,-0.81 -0.45,-2.07 -0.78,-3.08 -1.7,-5.22 -3.29,-10.49 -5.21,-15.63 -1.65,-4.42 -3.76,-8.67 -5.51,-13.05 -0.81,-2.03 -0.16,-3.61 2.58,-3.99 -1.16,-2.53 -2.31,-4.81 -3.26,-7.16 -1.07,-2.67 -1.9,-5.44 -2.96,-8.11 -2.02,-5.06 -4.15,-10.07 -6.2,-15.11 -0.32,-0.78 -0.33,-1.69 -0.69,-2.44 -0.71,-1.48 -1.55,-2.89 -2.35,-4.33 -0.67,-1.21 -1.35,-2.4 -2.01,-3.61 -0.51,-0.93 -0.77,-2.14 -1.53,-2.75 -4.38,-3.57 -5.18,-8.64 -6.25,-13.71 -0.84,-3.96 -2.1,-7.84 -3.23,-11.74 -1.72,-5.95 -3.54,-11.87 -5.23,-17.82 -1.38,-4.83 -2.61,-9.7 -3.99,-14.54 -0.19,-0.66 -0.83,-1.22 -1.33,-1.77 -0.36,-0.39 -1.16,-0.66 -1.19,-1.03 -0.3,-3.43 -1.83,-6.3 -3.65,-9.13 -0.8,-1.25 -1.24,-2.76 -1.68,-4.21 -1.08,-3.59 -2.09,-7.21 -3.07,-10.83 -0.3,-1.11 0.01,-2.74 -0.67,-3.35 -3.51,-3.19 -2.46,-7.43 -3.12,-11.31 -1.03,-6.02 -2.46,-11.98 -3.67,-17.97 -0.38,-1.88 -0.36,-3.88 -0.97,-5.67 -1.39,-4.06 -3.05,-8.02 -4.63,-12.02 -1.34,-3.37 -3.11,-6.63 -3.95,-10.12 -0.6,-2.51 -0.53,-5.06 -2.71,-6.94 -0.69,-0.6 -1.08,-1.6 -1.47,-2.47 -1.51,-3.34 -3.64,-3.82 -6.31,-1.16 -2.25,2.24 -4.26,4.47 -7.99,3.23 -1.05,-0.35 -2.46,0.48 -3.73,0.65 -0.91,0.12 -1.84,0.02 -2.76,0.02 -0.13,-0.47 -0.27,-0.94 -0.4,-1.4 1.35,-0.64 2.68,-1.3 4.04,-1.91 2.78,-1.26 5.87,-2.1 8.27,-3.87 2.9,-2.13 5.79,-3.57 9.38,-3.6 4.83,-0.03 7.14,1.38 8.95,5.83 2.39,5.85 5.19,11.3 9.47,16.19 3.32,3.79 5.19,8.76 5.75,14.12 0.32,3.11 1.73,6.12 2.81,9.12 2.91,8.06 6.48,15.95 8.64,24.2 1.38,5.25 0.8,11.04 0.91,16.59 0.05,2.35 0.16,4.55 2.28,6.01 3.81,2.63 5.11,6.64 6.39,10.8 0.58,1.87 2.15,3.43 3.26,5.13 1.32,2.03 3.41,3.92 3.81,6.12 1.4,7.7 5.42,14.11 9.15,20.71 0.26,0.46 0.58,1 1.01,1.24 6.37,3.63 5.9,10.08 6.86,16.05 0.48,2.96 1.56,5.91 2.85,8.64 2.74,5.82 5.66,11.56 8.76,17.18 1.96,3.54 4.39,6.83 6.61,10.23 0.58,0.89 1.3,1.71 1.74,2.67 3.52,7.58 7,15.18 10.48,22.78 2.33,5.11 7.24,7.48 11.34,10.72 1.9,1.5 3.63,3.32 5.73,4.42 5.77,3.02 7.33,9.1 10.79,13.82 2.61,3.54 6.27,6.35 9.63,9.3 8.05,7.06 14.7,15.15 18.14,25.41 1.31,3.9 1.58,8.15 2.5,12.2 0.39,1.73 0.76,3.83 1.92,4.96 2.27,2.19 4.06,5.37 8.02,5.23 0.56,-0.02 1.18,1.31 1.76,2.01 -2.68,-1.09 -5.36,-2.17 -8.18,-3.31 1.09,3.03 3.75,3.59 6.3,4.17 0.5,0.1 1.18,-0.63 1.78,-0.97 z m -18.44,83.89 c 0.16,-1.34 0.2,-2.51 0.44,-3.62 1.56,-6.99 3.19,-13.96 4.75,-20.95 0.79,-3.56 0.68,-7.13 -2.6,-9.32 -5.1,-3.4 -8.06,-8.04 -9.68,-13.81 -0.36,-1.27 -1.56,-2.31 -2.37,-3.45 -0.49,0.19 -0.97,0.37 -1.46,0.56 0.78,8.62 0.69,17.45 2.6,25.81 1.6,6.98 2.69,13.84 2.76,20.93 0.04,4.43 0.87,5.01 5.56,3.85 z"
   id="path1"
   style="fill:#2480a7;fill-opacity:1" />
	<path
   d="m 428.95,215.85 c -1.35,6.65 -0.03,12.66 2.71,18.34 1.26,2.61 0.69,4.84 -1.18,6.6 -1.93,1.81 -4.04,0.35 -5.53,-0.84 -1.93,-1.54 -3.57,-3.52 -5.07,-5.52 -2.29,-3.04 -4.2,-6.37 -6.56,-9.34 -1.74,-2.19 -2.92,-4.29 -2.81,-7.25 0.23,-6.25 -3.01,-11.53 -5.23,-17.09 -0.44,-1.09 -1.28,-2.09 -1.46,-3.21 -0.75,-4.75 -3.9,-6.45 -8.21,-6.92 -5.37,-0.59 -9.49,-3.33 -13.36,-7.03 -2.72,-2.6 -6.4,-4.16 -9.5,-6.4 -1.87,-1.35 -3.7,-2.92 -5.09,-4.74 -1.16,-1.52 -0.36,-2.82 1.67,-2.33 1.64,0.39 3.34,1 4.7,1.96 4.46,3.15 8.67,6.65 13.19,9.7 1.68,1.13 3.92,1.59 5.98,1.98 6.61,1.25 13.34,2.02 19.85,3.64 1.95,0.49 3.83,2.9 4.93,4.88 2.95,5.32 5.52,10.85 8.13,16.36 1.08,2.33 1.89,4.8 2.84,7.21 z"
   id="path2"
   style="fill:#2480a7;fill-opacity:1" />
</g>
</svg>
