<?xml version="1.0" encoding="utf-8"?>
<!-- Generator: Adobe Illustrator 27.2.0, SVG Export Plug-In . SVG Version: 6.00 Build 0)  -->
<svg version="1.1" id="Layer_0_xA0_Image_00000072248032883162462140000011195076188035446935_"
	 xmlns="http://www.w3.org/2000/svg" xmlns:xlink="http://www.w3.org/1999/xlink" x="0px" y="0px" viewBox="0 0 883 455"
	 style="enable-background:new 0 0 883 455;" xml:space="preserve">
<g>
	<path d="M321.42,109.15c1.4-0.6,2.49-0.98,3.5-1.51c9.49-4.9,19.53-7.54,30.25-7.02c1.45,0.07,3.46,0.87,4.09,1.97
		c0.51,0.9-0.27,3.13-1.18,4.11c-3.57,3.82-7.43,7.36-11.16,11.03c-8.73,8.59-19.41,14.27-30.12,19.79
		c-11.86,6.11-24.34,10.74-37.48,13.36c-1.44,0.29-3.13,0.43-4.45-0.05c-1.81-0.66-2.97,0.02-4.32,0.88
		c-5.6,3.58-11.17,7.23-16.87,10.64c-7.28,4.36-13.09,10.45-19.5,15.84c-8.89,7.48-12.91,17.31-14.89,28.27
		c-0.8,4.42-0.22,8.74,1.85,12.84c0.83,1.63,1.69,1.81,3.07,0.74c2.89-2.25,5.89-4.36,8.71-6.69c8.86-7.31,17.94-14.31,27.8-20.24
		c0.85-0.51,1.74-1.03,2.44-1.72c5.45-5.39,12.32-8.26,19.2-11.3c11.71-5.18,23.27-10.69,34.8-16.26
		c9.35-4.52,18.44-9.58,27.86-13.96c11.7-5.44,23.85-9.75,36.32-13.12c3.61-0.97,7.08-2.41,10.68-3.44
		c7.26-2.09,14.51-4.22,21.84-6.02c8.31-2.05,16.2-4.89,23.24-9.93c1.43-1.02,3.53-1.51,5.33-1.55c4.48-0.1,8.99,0,13.45,0.41
		c3.88,0.36,6.7,2.52,9.28,5.62c3.55,4.25,8.27,7.2,13.28,9.8c7.47,3.88,14.96,4.54,22.87,2.06c3.51-1.1,5.48,0.42,6.98,3.61
		c2.98,6.32-1.71,9.71-4.64,13.81c-1.49,2.09-3.38,3.92-4.72,6.1c-1.83,2.96-1.08,4.31,1.8,6.31c3.37,2.33,6.9,1.5,10.38,1.03
		c3.62-0.49,7.15-1.55,10.76-2.16c7.04-1.18,12.5-5.55,18.6-8.71c8.12-4.2,16.65-7.42,25.92-8.41c5.42-0.58,10.51-2.58,15.04-5.71
		c5.38-3.72,11.2-5.79,17.76-6.63c8.84-1.13,17.12-4.18,25.29-8c9.91-4.64,20.37-8.13,30.69-11.84c6.5-2.34,12.62-5,17.23-10.47
		c2.26-2.68,5.23-4.51,8.81-5.34c10.69-2.45,21.34-4.8,32.37-5.66c10.06-0.79,20.22-2.32,29.36-7.23c1.01-0.54,2.12-2.1,2.1-3.16
		c-0.05-3.61-0.49-7.24-0.99-10.83c-0.22-1.58-0.13-2.41,1.66-2.86c5.76-1.44,6.47-1.49,7.3,4.38c0.88,6.2,0.69,12.58,0.68,18.87
		c0,1.19-1.23,2.48-2.1,3.56c-3.51,4.29-7.1,8.52-10.66,12.76c-0.27,0.32-0.73,0.57-0.82,0.93c-1.08,4.22-4.71,3.81-7.63,3.76
		c-4.14-0.08-6.99,1.33-9.47,4.64c-6.12,8.14-15.05,12.36-24.02,16.43c-3.48,1.57-6.97,3.11-10.48,4.61
		c-8.18,3.49-16.45,6.78-24.55,10.46c-7.26,3.3-14.59,6.6-21.43,10.65c-6.15,3.64-12.6,7.22-16.45,13.79
		c-2.84,4.83-5.37,9.73-5.95,15.42c-0.2,1.98-1.17,3.3-3.12,4.09c-10.34,4.23-21.22,6.37-32.18,7.78
		c-8.04,1.03-15.32-1.36-21.63-6.96c-5.25-4.67-10.73-9.26-17.82-11.12c-1.12-0.3-2.26-0.73-3.4-0.74
		c-8.06-0.02-16.19-0.49-24.03,1.76c-3.55,1.02-6.96,2.72-10.19,4.56c-3.16,1.8-3.44,4.85-1.5,7.84c4.86,7.48,7.96,15.4,4.97,24.46
		c-0.9,2.74-1.72,5.69-3.37,7.96c-2.23,3.05-7.27,3.4-10.43,1.69c-2.25-1.22-2.74-2.91-2.29-5.18c0.51-2.59,1.32-5.18,1.37-7.78
		c0.04-1.98-1.08-3.94-1.37-5.96c-0.43-3.03-0.44-6.12-0.88-9.16c-0.29-1.99-1-3.91-1.53-5.87c-0.36-0.06-0.73-0.13-1.09-0.19
		c-0.97,1.91-2.14,3.74-2.85,5.74c-1.74,4.85-3.28,9.77-4.87,14.67c-1.06,3.27-2.82,5.88-5.93,7.68c-4.6,2.66-5.65,7.18-2.34,11.34
		c2.97,3.74,6.57,6.98,9.84,10.49c0.52,0.56,0.99,1.34,1.1,2.07c0.37,2.53,0.55,5.1,0.83,7.64c0.31,2.76-0.63,5.1-2.51,7.04
		c-2.77,2.87-5.51,5.79-8.45,8.49c-4.97,4.57-11.09,7.26-17.22,9.83c-1.38,0.58-3.15,0.65-4.66,0.42
		c-3.77-0.58-7.72-0.94-11.16-2.41c-2.38-1.01-4.43-3.45-5.93-5.71c-2.27-3.42-4.7-5.91-9.15-5.81c-0.8,0.02-2-1.1-2.35-1.96
		c-0.48-1.17-0.33-2.6-0.43-3.93c-0.2-2.59-0.75-4.84-2.64-7c-3.16-3.59-5.91-7.58-8.51-11.61c-0.96-1.49-1.5-3.61-1.36-5.38
		c0.78-9.95,4.6-17.32,15.26-20.74c3.23-1.04,6.54-2.22,9.37-4.02c2.37-1.5,4.66-3.7,6.01-6.13c4.88-8.78,12.76-11.56,22.05-12
		c2.9-0.14,5.81-0.28,8.7-0.55c0.64-0.06,1.38-0.53,1.81-1.03c1.79-2.07,3.46-4.25,5.22-6.34c1.88-2.24,1.83-5.01,1.16-7.38
		c-1.58-5.58-3.66-11.03-5.68-16.47c-0.34-0.93-1.33-1.69-2.15-2.36c-3.05-2.45-6.22-4.74-9.21-7.25c-2.39-2-4.23-5.02-6.93-6.19
		c-4.51-1.97-9.48-2.79-14.22,0.08c-1.77,1.07-3.55,2.19-5.47,2.94c-4.61,1.79-8.21,4.94-11.9,8.07c-2.11,1.79-4.63,3.09-6.98,4.59
		c-1.81,1.16-3.63,2.31-5.46,3.45c-9.37,5.86-18.73,11.73-28.11,17.58c-13.09,8.16-26.58,15.53-41.45,19.94
		c-3.85,1.14-7.99,1.28-11.97,2.02c-4.14,0.77-8.45,1.18-12.33,2.67c-13.72,5.26-28.03,8.28-42.29,11.48
		c-6.1,1.37-10.93,4.64-14.96,9.19c-6,6.78-11.77,13.77-17.85,20.48c-2.09,2.31-4.65,4.28-7.24,6.04
		c-11.05,7.51-18.54,17.82-24.59,29.55c-3.68,7.14-8.03,13.99-12.6,20.61c-1.45,2.09-4.43,3.42-6.98,4.4
		c-4.76,1.82-5.33,2.49-4.04,7.53c2.96,11.56,5.64,23.21,8.96,34.67c2.55,8.81,6.38,17.1,12.84,23.95
		c2.91,3.09,5.07,6.64,6.29,10.86c2.62,9.04,4.87,18.09,4.93,27.6c0.02,3.02,0.64,6.18,1.66,9.04c2.72,7.57,5.67,15.07,8.88,22.45
		c0.79,1.82,2.87,3.1,4.41,4.58c1.31,1.25,2.69,2.43,4.04,3.64c-0.14,0.24-0.27,0.47-0.41,0.71c-0.6,0.08-1.21,0.23-1.81,0.23
		c-35.81-0.01-71.62,0.01-107.43-0.09c-5.48-0.01-10.96-0.63-16.45-0.74c-2.36-0.05-4.75,0.41-7.11,0.73
		c-1.58,0.21-2.69,0.23-3.5-1.68c-4.23-10.02-8.55-20.01-13.05-29.92c-3.32-7.31-0.37-13.28,3.71-18.99
		c2.57-3.6,6.07-6.05,10.37-7.44c1.6-0.52,3.14-1.58,4.41-2.73c3.01-2.74,5.67-5.88,8.8-8.47c3.07-2.54,3.7-5.68,2.95-9.14
		c-1.07-4.93-2.09-9.97-3.99-14.6c-1.41-3.44-4.22-6.29-6.34-9.45c-1.06-1.58-1.94-3.28-2.93-4.91c-1.88-3.11-3.9-6.13-5.64-9.31
		c-3.12-5.7-4.73-11.72-2.6-18.15c1.07-3.23,2.43-6.38,3.95-9.42c0.83-1.67,2.06-3.26,3.45-4.49c1.4-1.24,1.87-2.58,1.41-4.18
		c-1.32-4.62-2.51-9.3-4.25-13.77c-2.56-6.58-5.53-12.99-8.34-19.47c-4.64-10.66-9.56-21.21-13.85-32.02
		c-3.39-8.53-7.72-16.89-8.44-26.23c-0.64-8.35-1.13-16.81,1.59-24.98c2.01-6.06,6.14-10.78,11.65-13.42
		c3.26-1.56,7.68-1.16,11.53-0.89c5.09,0.35,9.86-0.32,14.69-1.86c7.83-2.5,15.71-4.96,23.72-6.75c6.13-1.37,12.54-1.48,18.76-2.54
		c10.6-1.81,21.22-3.09,32-2.87c0.42,0.01,0.86-0.09,1.24,0.03c6.22,1.98,10.72-1.66,15.18-4.89c4.79-3.48,9.54-6.97,15.15-8.96
		c1.45-0.51,3.7-0.88,4.7-0.14c4.69,3.48,9.69,2.42,14.35,0.92c7.74-2.5,15.27-5.68,22.81-8.74c1.55-0.63,3.04-1.81,4.16-3.08
		c6.53-7.41,13.72-13.78,23.57-16.43c2.32-0.63,4.51-1.77,6.85-2.32c2.97-0.69,4.01-2.64,4.26-5.35c0.5-5.53,4.11-8.71,9.64-8.44
		c1.66,0.08,3.34,0.1,4.94,0.48c0.8,0.19,1.72,0.96,2.1,1.72C319.22,103.86,320.19,106.33,321.42,109.15z"/>
</g>
</svg>
