<?xml version="1.0" encoding="utf-8"?>
<!-- Generator: Adobe Illustrator 27.2.0, SVG Export Plug-In . SVG Version: 6.00 Build 0)  -->
<svg version="1.1" id="Calque_1" xmlns="http://www.w3.org/2000/svg" xmlns:xlink="http://www.w3.org/1999/xlink" x="0px" y="0px"
	 viewBox="0 0 595.28 841.89" style="enable-background:new 0 0 595.28 841.89;" xml:space="preserve">
<path d="M244.32,497.47c-4.17,0.59-8.1,1.16-12.03,1.69c-2.86,0.39-5.28-0.55-7.29-2.56c-1.5-1.5-3.04-2.99-4.37-4.63
	c-2.78-3.43-6.25-4.59-10.58-4.01c-1.52,0.2-3.16-0.46-4.74-0.73c-0.07-0.34-0.14-0.69-0.21-1.03c0.95-1.01,1.9-2.03,2.86-3.04
	c1.62-1.71,3.52-3.24,4.76-5.19c0.73-1.15,0.83-3.05,0.53-4.46c-1.14-5.33,0.42-10.18,2.4-14.91c1.33-3.18,2.99-6.11,1.65-9.76
	c-0.39-1.07-0.3-2.54,0.11-3.63c1.47-3.89-0.45-6.46-3.22-8.6c-5.15-3.98-10.35-7.91-15.65-11.69c-3.16-2.26-6.66-4.05-9.82-6.33
	c-4.18-3.01-6.64-7.2-7.74-12.27c-1.78-8.2-3.75-16.36-5.59-24.54c-0.26-1.18-0.18-2.43-0.37-3.63c-0.52-3.24-1.47-4.45-5.93-7.59
	c-2.64,1.45-5.33,3.1-8.19,4.4c-0.98,0.44-2.62,0.41-3.51-0.14c-2.38-1.47-4.85-0.99-7.34-1.09c-0.84-0.03-1.68-0.73-2.45-1.23
	c-0.3-0.2-0.33-0.86-0.63-1.01c-3.32-1.71-1.67-4.07-0.79-6.25c0.64-1.58,1.44-3.11,2.31-4.58c0.77-1.3,0.92-2.32-0.32-3.46
	c-0.41-0.38-0.59-1.42-0.39-1.97c0.49-1.35,1.02-2.82,1.97-3.83c1.86-1.97,1.91-3.49,1.04-6.27c-1.71-5.5-2.89-11.35-0.75-17.21
	c1.4-3.83,2.59-7.75,3.73-11.67c0.33-1.13,0.32-2.42,0.17-3.6c-0.24-1.88-1.51-2.28-3.04-1.44c-2.08,1.13-4.17,2.28-6.08,3.67
	c-2.84,2.08-5.84,3.46-9.41,3.66c-1.52,0.08-2.99,0.8-4.52,1c-1.06,0.14-2.18-0.12-3.27-0.2c-0.08-0.32-0.16-0.64-0.24-0.97
	c1.22-0.85,2.37-1.83,3.66-2.53c5.66-3.07,11.39-6.02,17.04-9.12c1.19-0.65,2.06-1.84,3.2-2.62c3.24-2.21,8.52-2,11.49,0.53
	c0.68,0.58,1.23,1.62,1.35,2.51c0.68,4.94-0.26,9.55-2.21,14.21c-1.7,4.08-2.35,8.6-3.43,12.93c-1.32,5.29-1.6,10.52-0.29,15.94
	c0.47,1.95-0.67,4.26-0.98,6.42c-0.37,2.58-0.63,5.18-0.93,7.77c0.28,0.13,0.57,0.25,0.85,0.38c1.61-0.73,3.19-1.52,4.83-2.18
	c2.64-1.06,5.25-2.29,8-2.99c3.98-1.03,7.18,0.96,8.24,5.08c1.08,4.17,1.76,8.43,2.71,12.64c1.23,5.45,2.55,10.88,3.84,16.32
	c0.09,0.4,0.41,0.77,0.4,1.15c-0.18,6.23,4.88,8.66,8.81,11.66c3.37,2.58,6.45,5.15,7.98,9.24c1.09,2.91,4.16,2.12,6.25,3.17
	c2.05,1.03,4.33,1.8,6.08,3.21c3.26,2.63,6.66,5.31,9.17,8.6c2.31,3.04,3.92,6.78,5.11,10.45c1.27,3.94,0.44,7.78-3.06,10.62
	c-1.65,1.34-2.28,3.17-2.83,5.23c-1.33,4.97-1.91,9.99-0.93,15c1.14,5.82,4.73,10.64,12.02,10.39c2.2-0.07,4.4,0.02,6.6-0.01
	c4.32-0.06,7.47,2.12,9.99,5.33c2.27,2.89,5.57,3.64,8.79,4.38c2.36,0.54,6.97-2.94,7.99-5.61c0.38-0.99,0.79-1.98,1.03-3
	c0.83-3.51,2.95-6.02,6.11-7.55c1.59-0.77,2.38-1.95,2.67-3.51c0.77-4.12,3.33-6.9,6.76-8.88c2.06-1.19,3.61-2.61,4.79-4.7
	c0.97-1.72,2.41-3.17,3.58-4.67c-0.01,0.07-0.03,0.4-0.09,1.09c0.41-0.49,0.77-0.73,0.86-1.05c1.44-4.87,2.4-9.7,0.53-14.76
	c-0.92-2.49-1.31-5.2-1.75-7.85c-0.83-5.05,1.34-8.86,5.2-11.92c1.86-1.47,3.58-3.12,5.49-4.51c6.86-4.99,8.99-13.03,13.03-19.84
	c2.93-4.94,3.91-10.51,5.48-15.9c0.47-1.61,1.22-3.21,2.17-4.59c1.75-2.53,2.38-5.22,2.44-8.27c0.03-1.56,0.73-3.34,1.68-4.6
	c2.31-3.08,4.32-6.16,5.53-9.95c0.96-3.01,3.37-5.52,4.8-8.42c1.28-2.59,1.99-5.45,3.16-8.1c0.77-1.74,1.81-3.4,2.92-4.96
	c1.95-2.73,4.2-5.24,6.03-8.03c2.11-3.2,2.3-6.89,2.04-10.64c-0.18-2.58-0.05-5.18-0.07-7.77c-0.01-0.55-0.1-1.11-0.21-2.22
	c-3.05,2.55-4.75,0.19-6.86-1.24c-2.32-1.57-5.12-2.52-7.25-4.28c-6.11-5.05-9.7-11.9-11.68-19.35c-1.37-5.13-1.17-10.53,0.84-15.78
	c1.57-4.1,2.55-8.43,3.68-12.68c0.87-3.27,3.16-5,6.08-6.24c3.43-1.46,6.94-2.2,10.7-2.16c6.44,0.07,12.9-0.38,19.33-0.13
	c5.46,0.21,10.93,0.9,16.34,1.71c6.81,1.03,13.5,0.51,20.2-0.72c1.44-0.26,2.89-0.49,4.34-0.72c9.79-1.57,15.41-7.93,19.64-16.36
	c4.25-8.44,8.39-17.06,15.75-23.44c1.42-1.23,2.84-2.49,4.4-3.53c5.89-3.9,14.55-0.36,15.6,7.59c1.18,8.92-0.86,17.17-4.13,25.33
	c-1.24,3.1-2.04,6.37-2.97,9.58c-0.69,2.36,0.02,4.3,1.83,5.97c5.43,4.99,11.89,8.45,18.91,9.97c8.72,1.9,19.25-0.31,24.38-9.8
	c0.82-1.51,1.28-3.41,1.29-5.14c0.07-7.19,0.31-14.34,1.55-21.47c1.26-7.23,4.43-13.53,9.05-18.96c2.17-2.56,5.61-4.08,8.56-5.93
	c1.09-0.68,2.36-0.35,2.7,1c0.19,0.77,0.01,2.07-0.52,2.51c-4.19,3.48-5.9,8.3-7.96,13.11c-1.97,4.59-3.35,9.22-3.76,14.11
	c-0.34,4.04,0.11,8.15-0.26,12.18c-0.69,7.6-1.64,15.28-7.01,21.25c-2.35,2.61-5.24,5.2-8.41,6.49c-5.09,2.06-10.56,3.54-16,4.26
	c-3.26,0.43-6.79-0.97-10.17-1.7c-2.67-0.58-5.26-1.52-7.93-2.06c-4.11-0.82-7.66-2.61-10.94-5.22c-1.69-1.35-3.72-2.54-5.79-3.08
	c-6.9-1.81-7.94-6.15-6.18-12.03c1.39-4.65,3.64-9.04,5.52-13.54c1.03-2.47,2.07-4.94,3.11-7.41c-0.21-0.11-0.41-0.21-0.62-0.32
	c-0.97,1.66-1.97,3.3-2.91,4.98c-3.04,5.45-7.65,9.26-12.84,12.51c-4.92,3.08-9.74,6.33-14.71,9.32
	c-6.12,3.68-12.96,5.53-19.93,6.43c-6.04,0.78-12.19,0.96-18.29,0.98c-5.54,0.02-11.1-0.45-16.64-0.88
	c-5.45-0.43-10.36,1.42-14.99,3.75c-1.23,0.62-1.45,3.53-1.85,5.45c-0.33,1.57-0.1,3.26-0.37,4.85c-0.31,1.77,0.34,2.84,1.88,3.52
	c5.75,2.54,10.72,6.6,17.35,7.5c5.84,0.79,9.95,10.11,7.84,16.56c-1.18,3.62-3.05,7.04-3.97,10.71c-1.08,4.32-2.44,8.41-4.65,12.3
	c-1.22,2.16-1.53,4.82-2.5,7.15c-1.97,4.73-4.1,9.4-6.2,14.08c-1.77,3.96-1.54,4.64,2.41,6.19c1.2,0.47,2.41,0.92,3.66,1.19
	c1.26,0.28,2.58,0.32,3.77,0.46c0.78,4.69-3.17,4.26-5.53,5.1c-2.17,0.77-4.65,0.8-7.01,0.92c-3.19,0.16-4.58,1.29-5.39,4.28
	c-1.54,5.67-3.39,11.11-7.08,15.97c-2.81,3.71-4.56,8.22-7,12.8c3.68,2.27,7.24,4.45,10.34,6.36c-0.6,0.69-0.99,1.51-1.62,1.77
	c-1.02,0.42-2.2,0.63-3.31,0.66c-3.72,0.11-3.82,0.13-4.66,3.58c-0.82,3.37-3.17,5.47-6.02,7.05c-3.35,1.86-6.8,3.53-10.18,5.34
	c-0.63,0.34-1.26,0.84-1.65,1.43c-2.98,4.57-6.28,9-8.7,13.85c-1.48,2.96-1.62,6.59-2.32,9.93c-0.46,2.16-0.97,4.33-1.22,6.52
	c-0.21,1.81-0.04,3.66-0.13,5.49c-0.05,1.05-0.05,2.2-0.47,3.12c-0.82,1.81,0.19,2.65,1.57,2.77c3.95,0.35,7.93,0.48,11.9,0.59
	c1.09,0.03,2.5-0.7,2.78,0.94c0.16,0.9-0.38,1.97-0.72,2.91c-1.76,4.87-6.43,2.62-9.68,3.86c-1.17,0.45-2.58,0.27-3.87,0.44
	c-3.24,0.43-5.53,1.89-7.38,4.88c-4.01,6.46-8.48,12.64-12.91,18.84c-4.35,6.09-10.54,9.5-17.58,11.59
	c-4.12,1.22-4.62,3.24-1.78,6.55c2.08,2.43,3.02,5.29,3.35,8.49c0.37,3.62,1.12,7.21,1.76,10.8c0.49,2.73,2.63,3.62,4.91,3.41
	c2.28-0.21,3.33,0.74,4.2,2.9c-0.99,0.75-2.06,1.54-3.1,2.36c-3.47,2.74-3.34,6.7-2.67,10.28c0.62,3.28,2.29,6.41,3.79,9.46
	c3.35,6.81,6.02,13.8,4.83,21.51c-0.49,3.15-2,6.14-3.13,9.18c-1.14,3.06-2.34,6.1-3.62,9.1c-1.18,2.78,0.69,4.54,2.23,6.12
	c1.22,1.26,1.68,2.24,0.78,4.07c-1.91,0.22-4.04,0.25-6.06,0.73c-3.69,0.86-7.41,1.74-10.95,3.06c-5.04,1.89-9.95,4.11-14.84,6.36
	c-1.04,0.48-2.06,1.58-2.5,2.65c-0.94,2.24-1.48,4.64-2.21,6.97c-0.29,0.92-0.6,2.58-0.98,2.6c-1.43,0.09-3.07-0.02-4.29-0.69
	c-1.11-0.61-1.76-2.04-2.82-3.36c-2.67,3.01-6.35,5.35-6.32,10.12c0.02,2.68-1.1,4.5-3.32,6.11c-5.04,3.67-6.52,9.11-6.57,15.05
	c-0.02,1.95,0.04,3.94,0.38,5.85c0.36,2.02,0.57,4.15,2.78,5.42c1,0.58,2.83,1.12,1.7,3.31c-1.03,2-2.37,2.99-4.55,2.68
	c-6.94-0.98-12.53-4.27-16.83-9.82c-1.2-1.54-2.65-2.88-3.96-4.35c-4.99-5.61-4.82-12.05-2.83-18.68c1.13-3.76,1.59-7.07-2.19-9.82
	c-1.57-1.14-0.45-2.68,0.98-3.17c2.06-0.7,4.24-1.07,6.39-1.46c2.31-0.42,4.67-0.61,6.97-1.09c2.72-0.57,4.72-2.24,5.8-4.78
	c1.62-3.8,3.69-7.45,3.43-11.86c-0.17-2.77,2.59-4.84,5.7-4.46c1.19,0.14,2.35,0.61,3.51,0.95c1.7,0.49,3.13,0.58,4.04-1.47
	c0.94-2.09,3.08-2.11,4.87-1.77c2.91,0.54,5.09-0.56,7.52-1.95c3.69-2.12,7.74-3.58,11.53-5.52c3.61-1.84,7.26-3.7,10.52-6.06
	c1.11-0.8,1.54-3.14,1.55-4.79c0.04-4.53-2.39-8.21-4.78-11.83c-0.81-1.23-1.96-2.26-2.63-3.55c-0.6-1.16-1.32-2.72-0.99-3.8
	c1.06-3.49-0.65-6.43-1.44-9.51c-0.56-2.19-1.92-4.16-2.53-6.35c-0.46-1.64-0.77-3.58-0.33-5.17c1.11-4,0.79-7.69-1.02-11.37
	c-4.95-10.05-5.1-20.97-5.65-31.81C244.52,498.97,244.46,498.66,244.32,497.47z"/>
</svg>
