<?xml version="1.0" encoding="UTF-8" standalone="no"?>
<!-- Generator: Adobe Illustrator 27.2.0, SVG Export Plug-In . SVG Version: 6.00 Build 0)  -->

<svg
   version="1.1"
   id="Layer_0_xA0_Image_00000129196214033730905980000005615450163822838912_"
   x="0px"
   y="0px"
   viewBox="0 0 243.94 203.66396"
   xml:space="preserve"
   sodipodi:docname="z_uppercase.svg"
   width="243.94"
   height="203.66396"
   inkscape:version="1.4 (e7c3feb1, 2024-10-09)"
   xmlns:inkscape="http://www.inkscape.org/namespaces/inkscape"
   xmlns:sodipodi="http://sodipodi.sourceforge.net/DTD/sodipodi-0.dtd"
   xmlns="http://www.w3.org/2000/svg"
   xmlns:svg="http://www.w3.org/2000/svg"><defs
   id="defs1" /><sodipodi:namedview
   id="namedview1"
   pagecolor="#ffffff"
   bordercolor="#000000"
   borderopacity="0.25"
   inkscape:showpageshadow="2"
   inkscape:pageopacity="0.0"
   inkscape:pagecheckerboard="0"
   inkscape:deskcolor="#d1d1d1"
   inkscape:zoom="0.045614035"
   inkscape:cx="175.38462"
   inkscape:cy="109.61538"
   inkscape:window-width="1904"
   inkscape:window-height="1011"
   inkscape:window-x="8"
   inkscape:window-y="33"
   inkscape:window-maximized="0"
   inkscape:current-layer="Layer_0_xA0_Image_00000129196214033730905980000005615450163822838912_" />
<g
   id="g1"
   style="fill:#2480a7;fill-opacity:1"
   transform="translate(-135.64,-176.26047)">
	<path
   d="m 142.6,362.29 c -3.98,-5.53 -6.94,-11.21 -6.96,-17.74 4.19,-0.31 8.12,-0.25 11.9,-0.95 13.07,-2.42 26.12,-4.97 39.11,-7.79 3.26,-0.71 6.24,-2.68 9.39,-3.99 10.9,-4.53 21.82,-9.02 32.72,-13.57 0.64,-0.27 1.2,-0.81 1.69,-1.32 7.27,-7.64 14.44,-15.39 21.81,-22.93 4.93,-5.05 10.03,-9.96 15.29,-14.67 4.01,-3.59 8.38,-6.79 12.63,-10.12 1.82,-1.43 4.08,-2.47 5.5,-4.2 1.05,-1.28 1.23,-3.39 1.51,-5.17 1.17,-7.53 2.15,-15.1 3.4,-22.62 0.33,-2 0.28,-3.13 -1.9,-3.96 -6.75,-2.57 -13.44,-5.3 -20.07,-8.15 -2.49,-1.07 -4.89,-1.34 -7.52,-0.9 -9.93,1.68 -19.86,3.3 -29.8,4.9 -0.61,0.1 -1.4,0.04 -1.89,-0.28 -5.01,-3.23 -9.96,-6.55 -14.95,-9.8 -1.67,-1.09 -3.32,-2.27 -5.15,-3.01 -1.83,-0.74 -2.43,-1.81 -2.59,-3.73 -0.54,-6.27 -1.34,-12.53 -1.93,-18.8 -0.06,-0.63 0.6,-1.78 1.14,-1.93 9.29,-2.58 18.53,-5.39 27.95,-7.38 3.85,-0.81 8.09,0.26 12.16,0.38 10.63,0.3 21.26,0.54 31.9,0.82 5.51,0.14 10.76,-0.43 16,-2.74 5.9,-2.61 12.24,-4.22 18.41,-6.2 1.54,-0.5 2.7,0.05 3.47,1.58 0.74,1.46 2.47,2.87 2.35,4.18 -0.12,1.28 -1.95,2.47 -3.14,3.58 -4.31,4.01 -8.69,7.96 -13,11.98 -0.57,0.53 -1.01,1.26 -1.35,1.98 -1.26,2.72 -2.56,5.42 -3.58,8.23 -0.27,0.75 0.14,2 0.65,2.72 0.85,1.21 2.29,2.03 3.02,3.28 1.6,2.74 3.81,2.98 6.6,2.44 4.89,-0.94 9.85,-1.51 14.71,-2.53 2.46,-0.52 5.07,-1.26 7.13,-2.63 10.39,-6.89 20.62,-14.02 30.92,-21.05 4.59,-3.14 9.23,-6.2 13.82,-9.35 1.71,-1.17 3.37,-1.71 5.63,-0.08 -1.18,4.13 -2.38,8.42 -3.66,12.7 -0.15,0.51 -0.64,0.97 -1.07,1.33 -10.66,9.13 -21.41,18.16 -31.96,27.42 -4.17,3.67 -7.8,7.94 -11.83,11.79 -8.09,7.72 -15.2,16.27 -21.69,25.35 -3.05,4.26 -5.86,8.78 -9.45,12.53 -4.81,5.02 -10.3,9.38 -15.46,14.07 -4.43,4.02 -8.78,8.13 -13.2,12.16 -6.81,6.21 -13.69,12.35 -20.44,18.63 -0.84,0.78 -1.64,2.24 -1.54,3.3 0.55,6.2 1.43,12.36 2.06,18.55 0.23,2.27 1.65,2.05 3.18,2.01 10.13,-0.27 20.26,-0.71 30.39,-0.73 11.87,-0.02 23.75,0.38 35.62,0.51 10.03,0.11 19.22,3.44 28.23,7.33 2.12,0.92 3.84,2.8 5.66,4.35 6.11,5.22 12.2,10.46 18.22,15.79 0.47,0.42 0.7,1.94 0.36,2.32 -2.78,3.08 -5.69,6.05 -8.63,8.98 -1.14,1.14 -2.38,0.94 -3.52,-0.17 -4.63,-4.53 -9.26,-9.07 -13.91,-13.58 -2.27,-2.2 -4.57,-4.36 -6.9,-6.49 -0.33,-0.3 -0.87,-0.48 -1.32,-0.51 -8.44,-0.49 -16.87,-1.08 -25.32,-1.37 -10.54,-0.37 -21.09,-0.45 -31.64,-0.72 -8.23,-0.21 -16.45,-0.75 -24.67,-0.74 -14.7,0.02 -29.39,0.4 -44.09,0.54 -15.2,0.15 -30.4,0.03 -45.6,0.42 -4.15,0.11 -8.29,1.55 -12.4,2.53 -4.14,0.93 -8.22,2.11 -12.4,3.22 z"
   id="path1"
   style="fill:#2480a7;fill-opacity:1" />
</g>
<g
   id="g2"
   style="fill:#2480a7;fill-opacity:1"
   transform="translate(-135.64,-176.26047)">
	<path
   d="m 142.6,362.29 c -3.98,-5.53 -6.94,-11.21 -6.96,-17.74 4.19,-0.31 8.12,-0.25 11.9,-0.95 13.07,-2.42 26.12,-4.97 39.11,-7.79 3.26,-0.71 6.24,-2.68 9.39,-3.99 10.9,-4.53 21.82,-9.02 32.72,-13.57 0.64,-0.27 1.2,-0.81 1.69,-1.32 7.27,-7.64 14.44,-15.39 21.81,-22.93 4.93,-5.05 10.03,-9.96 15.29,-14.67 4.01,-3.59 8.38,-6.79 12.63,-10.12 1.82,-1.43 4.08,-2.47 5.5,-4.2 1.05,-1.28 1.23,-3.39 1.51,-5.17 1.17,-7.53 2.15,-15.1 3.4,-22.62 0.33,-2 0.28,-3.13 -1.9,-3.96 -6.75,-2.57 -13.44,-5.3 -20.07,-8.15 -2.49,-1.07 -4.89,-1.34 -7.52,-0.9 -9.93,1.68 -19.86,3.3 -29.8,4.9 -0.61,0.1 -1.4,0.04 -1.89,-0.28 -5.01,-3.23 -9.96,-6.55 -14.95,-9.8 -1.67,-1.09 -3.32,-2.27 -5.15,-3.01 -1.83,-0.74 -2.43,-1.81 -2.59,-3.73 -0.54,-6.27 -1.34,-12.53 -1.93,-18.8 -0.06,-0.63 0.6,-1.78 1.14,-1.93 9.29,-2.58 18.53,-5.39 27.95,-7.38 3.85,-0.81 8.09,0.26 12.16,0.38 10.63,0.3 21.26,0.54 31.9,0.82 5.51,0.14 10.76,-0.43 16,-2.74 5.9,-2.61 12.24,-4.22 18.41,-6.2 1.54,-0.5 2.7,0.05 3.47,1.58 0.74,1.46 2.47,2.87 2.35,4.18 -0.12,1.28 -1.95,2.47 -3.14,3.58 -4.31,4.01 -8.69,7.96 -13,11.98 -0.57,0.53 -1.01,1.26 -1.35,1.98 -1.26,2.72 -2.56,5.42 -3.58,8.23 -0.27,0.75 0.14,2 0.65,2.72 0.85,1.21 2.29,2.03 3.02,3.28 1.6,2.74 3.81,2.98 6.6,2.44 4.89,-0.94 9.85,-1.51 14.71,-2.53 2.46,-0.52 5.07,-1.26 7.13,-2.63 10.39,-6.89 20.62,-14.02 30.92,-21.05 4.59,-3.14 9.23,-6.2 13.82,-9.35 1.71,-1.17 3.37,-1.71 5.63,-0.08 -1.18,4.13 -2.38,8.42 -3.66,12.7 -0.15,0.51 -0.64,0.97 -1.07,1.33 -10.66,9.13 -21.41,18.16 -31.96,27.42 -4.17,3.67 -7.8,7.94 -11.83,11.79 -8.09,7.72 -15.2,16.27 -21.69,25.35 -3.05,4.26 -5.86,8.78 -9.45,12.53 -4.81,5.02 -10.3,9.38 -15.46,14.07 -4.43,4.02 -8.78,8.13 -13.2,12.16 -6.81,6.21 -13.69,12.35 -20.44,18.63 -0.84,0.78 -1.64,2.24 -1.54,3.3 0.55,6.2 1.43,12.36 2.06,18.55 0.23,2.27 1.65,2.05 3.18,2.01 10.13,-0.27 20.26,-0.71 30.39,-0.73 11.87,-0.02 23.75,0.38 35.62,0.51 10.03,0.11 19.22,3.44 28.23,7.33 2.12,0.92 3.84,2.8 5.66,4.35 6.11,5.22 12.2,10.46 18.22,15.79 0.47,0.42 0.7,1.94 0.36,2.32 -2.78,3.08 -5.69,6.05 -8.63,8.98 -1.14,1.14 -2.38,0.94 -3.52,-0.17 -4.63,-4.53 -9.26,-9.07 -13.91,-13.58 -2.27,-2.2 -4.57,-4.36 -6.9,-6.49 -0.33,-0.3 -0.87,-0.48 -1.32,-0.51 -8.44,-0.49 -16.87,-1.08 -25.32,-1.37 -10.54,-0.37 -21.09,-0.45 -31.64,-0.72 -8.23,-0.21 -16.45,-0.75 -24.67,-0.74 -14.7,0.02 -29.39,0.4 -44.09,0.54 -15.2,0.15 -30.4,0.03 -45.6,0.42 -4.15,0.11 -8.29,1.55 -12.4,2.53 -4.14,0.93 -8.22,2.11 -12.4,3.22 z"
   id="path2"
   style="fill:#2480a7;fill-opacity:1" />
</g></svg>
