<?xml version="1.0" encoding="UTF-8" standalone="no"?>
<!-- Created with Inkscape (http://www.inkscape.org/) -->

<svg
   width="21.454597mm"
   height="26.55389mm"
   viewBox="0 0 21.454597 26.55389"
   version="1.1"
   id="svg1"
   xmlns="http://www.w3.org/2000/svg"
   xmlns:svg="http://www.w3.org/2000/svg">
  <defs
     id="defs1" />
  <g
     id="layer1"
     transform="translate(-0.28072859,-0.24407627)">
    <g
       id="g11"
       transform="matrix(0.26458333,0,0,0.26458333,-19.346154,-70.177116)">
      <g
         id="g10">
        <g
           id="g5">
	<path
   d="m 106.16,366.52 c -4.55,-0.48 -8.79,-0.72 -12.96,-1.43 -3.09,-0.52 -6.21,-1.46 -8.59,-3.71 -1.76,-1.66 -3.37,-3.51 -4.85,-5.44 -1.22,-1.59 -2.14,-3.42 -3.22,-5.12 -2.08,-3.26 -2.61,-6.82 -2.26,-10.62 0.31,-3.42 1.29,-6.56 3.15,-9.47 1.28,-2.01 2.15,-4.29 3.53,-6.22 1.16,-1.63 2.76,-2.94 4.19,-4.37 1.87,-1.86 3.74,-3.73 5.67,-5.53 0.83,-0.77 1.85,-1.33 2.71,-2.07 1.98,-1.71 3.52,-3.79 4.7,-6.11 1.09,-2.15 0.14,-4.17 -2.21,-4.82 -2.23,-0.61 -4.54,-1.01 -6.7,-1.81 -4.54,-1.67 -7.42,-4.64 -6.16,-9.93 0.81,-3.4 2.94,-6.27 5.32,-8.83 2.38,-2.56 4.55,-5.22 6.05,-8.46 2.44,-5.26 7.18,-7.42 12.66,-5.99 2.91,0.76 5.44,3.73 5.24,6.97 -0.05,0.86 0.1,1.75 -0.05,2.58 -0.33,1.84 0.55,3.3 1.22,4.86 0.29,0.68 0.41,1.46 0.52,2.2 0.36,2.49 1.83,4.32 3.6,5.93 2.97,2.69 6.54,4.29 10.29,5.54 2.06,0.69 4.15,1.3 6.22,1.97 3.55,1.15 6.66,2.95 9.19,5.76 2.19,2.43 4.66,4.61 6.79,7.09 1.15,1.34 2.04,3 2.67,4.66 2.53,6.63 2.92,13.51 1.78,20.45 -0.4,2.41 -1.28,4.72 -2.52,6.96 -2.38,4.3 -6.04,7.23 -9.77,10.12 -2.48,1.92 -5.12,3.65 -7.73,5.4 -2.31,1.55 -4.65,3.06 -7.03,4.5 -1.02,0.62 -2.13,1.17 -3.27,1.51 -2.03,0.6 -4.1,1.09 -6.18,1.49 -2.5,0.48 -5.04,0.8 -7.56,1.2 -1.58,0.3 -3.16,0.54 -4.44,0.74 z m 1.11,-87.21 c -1.77,-0.55 -2.81,0.35 -3.75,1.15 -1.21,1.04 -2.2,2.34 -3.36,3.46 -1.16,1.12 -1.77,2.74 -1.19,4 1.26,2.74 2.42,5.55 3.94,8.14 1.57,2.68 3.74,4.91 6.37,6.66 2.25,1.5 4.63,2.89 6.65,4.66 2.24,1.96 3.14,4.75 3.4,7.7 0.29,3.3 0.56,6.61 0.89,9.91 0.05,0.53 0.29,1.29 0.68,1.51 1.62,0.93 3.04,2.65 5.14,2.16 2.34,-0.55 4.7,-1.21 6.88,-2.19 1.88,-0.84 3.33,-2.55 3.89,-4.47 0.9,-3.07 1.68,-6.27 1.2,-9.52 -0.22,-1.47 -0.74,-3 -1.53,-4.25 -1.96,-3.08 -5.14,-4.79 -8.26,-6.41 -2.83,-1.47 -5.84,-2.57 -8.7,-4 -2.04,-1.02 -4.19,-2.03 -5.86,-3.53 -1.73,-1.56 -3.44,-3.5 -4.27,-5.63 -1.15,-2.96 -1.46,-6.24 -2.12,-9.35 z"
   id="path5" />

</g>
      </g>
    </g>
  </g>
</svg>
