<?xml version="1.0" encoding="utf-8"?>
<!-- Generator: Adobe Illustrator 27.2.0, SVG Export Plug-In . SVG Version: 6.00 Build 0)  -->
<svg version="1.1" id="Calque_1" xmlns="http://www.w3.org/2000/svg" xmlns:xlink="http://www.w3.org/1999/xlink" x="0px" y="0px"
	 viewBox="0 0 566.93 566.93" style="enable-background:new 0 0 566.93 566.93;" xml:space="preserve">
<style type="text/css">
	.st0{fill:#2480A7;}
</style>
<g>
	<path class="st0" d="M533.35,235.92c0,10.02,1.43,20.29-0.33,29.98c-2.61,14.5-2.9,29.57-8.88,43.44c-0.8,1.87-0.92,4.11-1.07,6.2
		c-0.62,7.99-4.58,14.6-8.85,21.07c-8.4,12.84-20.84,21.61-32.37,31.22c-7.19,6.02-14.79,11.67-22.45,17.06
		c-3,2.13-6.68,3.37-10.2,4.62c-12.96,4.54-25.65,9.61-39.81,9.94c-10.09,0.22-18.63-3.37-27.37-7.19
		c-2.75-1.21-5.21-3.23-8.03-4.23c-13.47-4.77-20.51-15.74-25.98-27.67c-4.95-10.79-11.52-20.4-18.13-30.13
		c-4.91-7.19-11.52-11.93-19.37-15.12c-1.07-0.45-2.83-0.78-3.56-0.22c-5.07,3.86-10.79,7.27-14.71,12.1
		c-5.47,6.75-9.39,14.79-14.38,21.98c-1.65,2.34-4.37,4.15-6.9,5.69c-18.86,11.38-39.52,10.49-60.36,8.95
		c-13.64-0.99-27.37-1.09-41.1-1.79c-2.9-0.15-5.77-1.29-8.66-1.5c-8.03-0.66-15.22,1.62-22.24,5.69
		c-5.54,3.19-11.63,5.94-17.83,7.45c-14.5,3.56-28.36,10.02-43.95,9.02c-11.3-0.74-20.7-5.14-27.89-13.25
		c-7.89-8.88-14.83-18.63-21.79-28.26c-1.69-2.32-2.65-5.69-2.67-8.59c-0.15-12.07-1.36-24.44,0.84-36.11
		c1.69-8.99,7.66-17.25,12.18-25.61c2.38-4.44,5.4-8.62,8.69-12.44c6.02-7.01,12.22-13.91,18.83-20.37
		c6.64-6.49,13.5-12.96,20.95-18.42c5.4-3.96,11.67-7.12,18.05-9.22c7.85-2.57,16.33-3.12,24.25-5.5
		c12.73-3.86,25.65-2.94,38.57-2.9c13.58,0,25.47,4.87,34.75,14.93c6.64,7.23,12.8,14.89,18.83,22.67
		c7.85,10.09,24.51,13.14,35.74,6.45c5.07-3,10.97-4.73,15.63-8.22c7.78-5.83,14.5-13.1,22.35-18.9
		c6.28-4.62,13.21-8.62,20.37-11.71c6.75-2.9,14.5-3.45,21.24-6.39c9.18-4,15.41-12,21.21-19.82c5.43-7.34,11.77-13.72,19.12-18.75
		c4.15-2.83,9.94-4.25,15.04-4.44c22.31-0.78,44.65-1.5,66.93-0.99c13.5,0.33,27.15,1.99,40.36,4.85
		c13.17,2.86,24.32,10.97,30.46,22.94c5.28,10.27,6.64,22.24,6.02,34.09c-0.29,5.79-0.04,11.6-0.04,17.39
		C534.26,235.92,533.79,235.92,533.35,235.92z M295.91,279.91c10.06-1.62,19.86-2.83,29.47-4.77c8.44-1.72,11.44-6.94,8.48-13.5
		c-0.99-2.16-2.2-4.23-3.3-6.31c-3.96-7.52-10.93-10.79-17.58-6.72c-8.11,4.99-15.78,10.97-22.9,17.32
		c-2.46,2.2-3.96,7.01-3.45,10.27C286.85,277.88,292.54,278.7,295.91,279.91z"/>
</g>
</svg>
