<?xml version="1.0" encoding="utf-8"?>
<!-- Generator: Adobe Illustrator 27.2.0, SVG Export Plug-In . SVG Version: 6.00 Build 0)  -->
<svg version="1.1" id="Calque_1" xmlns="http://www.w3.org/2000/svg" xmlns:xlink="http://www.w3.org/1999/xlink" x="0px" y="0px"
	 viewBox="0 0 595.28 841.89" style="enable-background:new 0 0 595.28 841.89;" xml:space="preserve">
<path d="M550.65,385.51c-0.5,19.38-3.33,34.99-9.46,49.88c-4.74,11.51-9.63,22.98-15.06,34.17c-4.62,9.53-11.2,17.79-19.6,24.38
	c-6.2,4.86-13.6,6.66-21.29,6.98c-5.5,0.23-11.14,0.46-16.5-0.49c-5.94-1.06-11.75-3.15-17.41-5.34
	c-16.23-6.29-32.73-11.33-50.16-13c-7.53-0.72-14.98-2.31-22.5-3.18c-15.69-1.81-31.16-0.42-46.71,2.37
	c-10.35,1.86-19.72,5.96-29.44,9.39c-2.51,0.88-5.61,1.27-8.16,0.67c-21.4-5.02-42.79-10.11-64.06-15.64
	c-9.48-2.46-18.64-6.17-28.05-8.94c-5.96-1.75-12.06-3.33-18.21-4.11c-19.2-2.43-38.07,1.1-57,3.67
	c-13.15,1.79-26.38,3.02-39.56,4.62c-13.12,1.59-26.21,0.76-39.32,0.04c-10.19-0.56-16.75-9.1-12.79-18.8
	c2.56-6.29,6.04-12.62,10.57-17.6c14.96-16.41,30.39-32.41,46.03-48.17c7.43-7.49,15.76-14.1,23.68-21.1
	c9.87-8.72,19.37-17.92,29.73-26.02c10.63-8.32,21.8-16.05,33.33-23.06c4.38-2.66,10.42-3.63,15.68-3.56
	c9.29,0.11,19.36,1.07,25.89,8.15c5.37,5.81,9.89,6.43,16.88,4.41c11.19-3.23,22.61-5.88,34.08-7.85c16.35-2.8,32.82-5.01,49.3-7
	c9.35-1.13,18.84-2.09,28.21-1.73c7.15,0.28,14.21,2.81,21.33,4.27c10.13,2.08,20.22,4.42,30.42,6.04
	c12.2,1.95,24.41,0.79,36.57-1.11c13.99-2.18,28.12-3.43,42.16-1.19c5.74,0.92,11.53,3.28,16.6,6.2
	c10.94,6.3,21.82,12.85,31.97,20.32c8.46,6.23,17.47,12.78,20.13,23.9C549.61,374.13,550.08,381.47,550.65,385.51z M233.16,361.03
	c-0.5,0.86-1.6,1.87-1.48,2.71c0.76,5.34,1.84,10.64,2.73,15.97c3.5,20.93,7.01,41.85,10.43,62.79c1.22,7.48,1.11,7.5,8.48,6.87
	c0.13-0.01,0.27-0.01,0.4-0.01c20.76-0.3,41.52-0.68,62.27-0.87c5.97-0.05,12,1.04,17.92,0.59c12.41-0.96,24.84-2.18,37.14-4.08
	c12.58-1.94,25.18-4.32,36.74-10.07c9.64-4.79,19.25-9.65,28.7-14.79c6.16-3.34,12.31-6.67,16.97-12.33
	c7.2-8.73,7.22-12.66-1.14-20.12c-1.47-1.31-3.09-2.61-4.87-3.43c-14.23-6.5-28.42-13.14-43.87-16.3
	c-10.25-2.1-20.49-4.86-30.86-5.6c-12.94-0.92-26.01,0.01-39.02,0.03c-8.49,0.01-16.99-0.06-25.48-0.29
	c-8.23-0.23-16.44-0.94-24.66-1.02C267.09,360.92,250.6,361.03,233.16,361.03z"/>
</svg>
