<?xml version="1.0" encoding="utf-8"?>
<!-- Generator: Adobe Illustrator 27.2.0, SVG Export Plug-In . SVG Version: 6.00 Build 0)  -->
<svg version="1.1" id="Layer_0_xA0_Image_00000015320268525810200200000016155797141776909225_"
	 xmlns="http://www.w3.org/2000/svg" xmlns:xlink="http://www.w3.org/1999/xlink" x="0px" y="0px" viewBox="0 0 604 547"
	 style="enable-background:new 0 0 604 547;" xml:space="preserve">
<g>
	<path d="M252.99,316.8c0-8.06-0.11-16.13,0.03-24.19c0.13-7.15-7.11-15.77-13.22-16.56c-3.1-0.4-6.31-0.34-9.45-0.14
		c-6.72,0.45-13.43,1.57-20.14,1.58c-6.93,0.01-12.21,2.86-17.03,7.34c-1.82,1.7-3.9,3.12-5.71,4.83
		c-4.31,4.06-5.43,9.62-6.63,15.05c-1.74,7.87-3.25,15.79-4.98,23.66c-0.37,1.68-1.17,3.28-1.92,4.85
		c-1.77,3.73-3.68,7.39-5.42,11.13c-2.06,4.41-4.56,5.98-10.19,5.42c-3.7-0.37-7.41-1.11-10.99-2.11
		c-3.75-1.05-7.39-2.52-11.03-3.95c-4.53-1.79-6.35-6.02-8.23-9.96c-3.07-6.44-6.37-12.89-8.41-19.68
		c-1.54-5.15-1.74-10.84-1.68-16.28c0.11-10.05,0.88-20.1,1.31-30.15c0.15-3.5,1.24-6.38,3.98-8.77
		c7.46-6.48,14.87-13.04,22.16-19.72c8.23-7.55,14.43-16.66,20.12-26.22c2.71-4.56,5.55-9.65,11.09-11.29
		c6.41-1.9,13.03-3.09,19.6-4.43c0.91-0.19,2.1,0.41,3.02,0.91c2.39,1.32,4.86,2.58,7,4.26c2.99,2.35,5.98,2.05,9.38,1.23
		c9.56-2.3,18.16-6.93,27.03-10.88c9.84-4.39,20-7.19,30.91-6.74c2.29,0.09,4.04,0.71,5.2,2.73c0.25,0.43,0.52,0.89,0.89,1.19
		c3.7,3.01,3.5,5.67,0.54,10.05c-3.67,5.43-9.4,8.2-15.27,10.33c-7.65,2.78-15.52,4.92-23.26,7.47
		c-13.01,4.28-26.13,8.32-38.51,14.26c-1.9,0.91-2.96,3.45-4.66,4.95c-3.04,2.69-2.71,5.74-1.85,9.25c0.96,3.9,3.25,5.82,7.02,6.76
		c12.76,3.17,25.69,4.64,38.81,3.81c9.78-0.62,19.53-1.66,29.3-2.51c3.88-0.34,6.7-1.83,7.33-6.18c0.26-1.78,1.15-3.46,1.71-5.2
		c0.81-2.5,1.97-4.49,4.46-5.96c3.05-1.8,5.67-4.34,8.43-6.61c7.01-5.74,14.38-11.03,20.33-18c1.12-1.31,3.47-2.04,5.31-2.16
		c7.47-0.47,14.95-0.58,22.43-0.87c0.78-0.03,1.73-0.17,2.3-0.63c5.51-4.4,11.16-8.67,16.32-13.46c1.93-1.79,2.8-4.8,3.94-7.35
		c1.78-3.99,2.32-7.8,1.15-12.44c-1.05-4.18,0.1-9.06,0.88-13.52c0.64-3.64,2.22-7.12,3.28-10.7c1.62-5.49,2.96-11.07,4.8-16.48
		c0.94-2.78,2.31-5.61,4.17-7.85c4.72-5.68,7.01-12.6,10.38-18.97c1.39-2.63,3.17-5.07,4.54-7.71c1.79-3.47,3.35-7.06,5.03-10.58
		c4.31-9.03,10.66-16.39,18.31-22.74c2.49-2.07,4.68-4.49,7.1-6.65c2.78-2.48,5.62-4.89,8.52-7.22c0.73-0.59,1.78-0.9,2.73-1.08
		c11.38-2.14,21.57,1.43,31.22,6.9c8.39,4.76,14.99,11.69,20.61,19.37c7.85,10.74,15.19,21.85,22.79,32.78
		c1.85,2.66,1.92,5.45,0.77,8.29c-1.65,4.08-3.29,8.19-5.25,12.13c-4.04,8.11-7.95,16.32-12.58,24.09
		c-2.86,4.79-6.84,8.94-10.52,13.21c-1.43,1.65-2.46,2.77-1.55,5.32c1.09,3.08,1.33,6.49,1.69,9.79c0.7,6.36,1.17,12.75,1.83,19.12
		c0.37,3.55,0.89,7.09,1.42,10.62c1.53,10.05,0.2,19.36-5.54,28.13c-3.63,5.54-7.66,10.37-13.13,14.1c-2.67,1.82-4.95,4.19-7.57,6.1
		c-5.3,3.86-10.5,7.91-16.11,11.28c-14.9,8.94-31.18,14.87-47.44,20.76c-7.93,2.87-15.49,6.34-22.4,11.26
		c-6.43,4.57-13,8.97-19.76,13.04c-2.54,1.53-5.7,2.21-8.67,2.79c-13.39,2.61-26.79,5.14-40.22,7.51
		c-10.72,1.89-21.46,3.84-32.26,5.1c-4.85,0.56-9.94-0.18-14.82-0.94c-3.9-0.61-3.93-1.01-4.09-5.13
		c-0.14-3.57-0.03-7.15-0.03-10.72C253.45,316.8,253.22,316.8,252.99,316.8z"/>
</g>
</svg>
