<?xml version="1.0" encoding="UTF-8" standalone="no"?>
<!-- Generator: Adobe Illustrator 27.2.0, SVG Export Plug-In . SVG Version: 6.00 Build 0)  -->

<svg
   version="1.1"
   id="Calque_1"
   x="0px"
   y="0px"
   viewBox="0 0 123.50321 367.87533"
   xml:space="preserve"
   sodipodi:docname="j_uppercase.svg"
   width="123.50321"
   height="367.87534"
   inkscape:version="1.4 (e7c3feb1, 2024-10-09)"
   xmlns:inkscape="http://www.inkscape.org/namespaces/inkscape"
   xmlns:sodipodi="http://sodipodi.sourceforge.net/DTD/sodipodi-0.dtd"
   xmlns="http://www.w3.org/2000/svg"
   xmlns:svg="http://www.w3.org/2000/svg"><defs
   id="defs2" /><sodipodi:namedview
   id="namedview2"
   pagecolor="#ffffff"
   bordercolor="#000000"
   borderopacity="0.25"
   inkscape:showpageshadow="2"
   inkscape:pageopacity="0.0"
   inkscape:pagecheckerboard="0"
   inkscape:deskcolor="#d1d1d1"
   inkscape:zoom="0.030882894"
   inkscape:cx="64.76077"
   inkscape:cy="194.28231"
   inkscape:window-width="1120"
   inkscape:window-height="687"
   inkscape:window-x="0"
   inkscape:window-y="25"
   inkscape:window-maximized="0"
   inkscape:current-layer="Calque_1" />
<g
   id="g2"
   style="fill:#2480a7;fill-opacity:1"
   transform="translate(-227.87766,-216.35682)">
	<path
   d="m 285.56,514.07 c -2.83,-19.46 -5.3,-38.1 -8.33,-56.66 -2.45,-14.99 -5.27,-29.93 -8.51,-44.76 -2.24,-10.27 -5.72,-20.27 -8.21,-30.49 -2.1,-8.62 -3.11,-17.52 -5.49,-26.05 -1.76,-6.33 -2.54,-11.98 1.86,-17.45 0.57,-0.71 0.77,-2.1 0.53,-3.02 -1.24,-4.76 2.03,-4.38 4.7,-3.97 16.94,2.62 33.93,5.01 50.76,8.24 14.39,2.76 25.31,12.67 28.84,27.85 1.64,7.04 0.16,14.76 0.75,22.11 1.36,16.99 3.23,33.93 4.65,50.91 0.78,9.31 1.12,18.65 1.52,27.99 0.48,11.07 1.07,22.14 1.16,33.22 0.1,12.29 -2.23,24.3 -6.13,35.89 -3.1,9.19 -6.95,18.13 -10.68,27.09 -1.61,3.85 -4.36,7.3 -5.53,11.25 -2.07,7.04 -8.04,7.55 -13.25,7.88 -7.61,0.48 -15.31,-0.47 -22.97,-0.9 -12.67,-0.71 -24.38,-5.29 -36.3,-9.08 -6.4,-2.03 -9.18,-7.68 -12.97,-12.15 -4.76,-5.61 -8.56,-12.03 -12.82,-18.07 -1.86,-2.64 -1.66,-4.99 0.57,-7.32 3.37,-3.52 6.27,-7.62 10.06,-10.58 7.31,-5.71 16.49,-5.84 25.2,-7.33 6.74,-1.14 13.37,-2.96 20.59,-4.6 z"
   id="path1"
   style="fill:#2480a7;fill-opacity:1" />
	<path
   d="m 314.9,294.01 c 5.62,6.1 11.03,11.71 16.12,17.59 2.86,3.29 5.42,6.9 7.67,10.63 1.01,1.68 1.94,5.09 1.15,5.82 -1.43,1.33 -4.3,1.95 -6.35,1.62 -7.26,-1.19 -14.37,-3.44 -21.66,-4.33 -15.27,-1.87 -30.61,-3.28 -45.95,-4.59 -5.46,-0.47 -7.92,-2.23 -8.51,-7.75 -1.99,-18.56 -4.06,-37.12 -5.9,-55.7 -1.51,-15.31 4.18,-27.84 16.09,-37.23 2.95,-2.33 7.48,-3.68 11.29,-3.7 17.33,-0.1 34.66,0.39 51.98,0.76 7.36,0.16 18.89,8.71 20.44,15.54 0.47,2.07 -0.66,4.62 -1.41,6.82 -3.29,9.69 -6.59,19.37 -10.13,28.97 -2.23,6.05 -3.98,12.58 -7.66,17.67 -2.37,3.28 -7.79,4.39 -11.92,6.32 -1.55,0.72 -3.33,1 -5.25,1.56 z"
   id="path2"
   style="fill:#2480a7;fill-opacity:1" />
</g>
</svg>
