<?xml version="1.0" encoding="utf-8"?>
<!-- Generator: Adobe Illustrator 27.2.0, SVG Export Plug-In . SVG Version: 6.00 Build 0)  -->
<svg version="1.1" id="Calque_1" xmlns="http://www.w3.org/2000/svg" xmlns:xlink="http://www.w3.org/1999/xlink" x="0px" y="0px"
	 viewBox="0 0 595.28 841.89" style="enable-background:new 0 0 595.28 841.89;" xml:space="preserve">
<g>
	<path d="M285.56,514.07c-2.83-19.46-5.3-38.1-8.33-56.66c-2.45-14.99-5.27-29.93-8.51-44.76c-2.24-10.27-5.72-20.27-8.21-30.49
		c-2.1-8.62-3.11-17.52-5.49-26.05c-1.76-6.33-2.54-11.98,1.86-17.45c0.57-0.71,0.77-2.1,0.53-3.02c-1.24-4.76,2.03-4.38,4.7-3.97
		c16.94,2.62,33.93,5.01,50.76,8.24c14.39,2.76,25.31,12.67,28.84,27.85c1.64,7.04,0.16,14.76,0.75,22.11
		c1.36,16.99,3.23,33.93,4.65,50.91c0.78,9.31,1.12,18.65,1.52,27.99c0.48,11.07,1.07,22.14,1.16,33.22
		c0.1,12.29-2.23,24.3-6.13,35.89c-3.1,9.19-6.95,18.13-10.68,27.09c-1.61,3.85-4.36,7.3-5.53,11.25
		c-2.07,7.04-8.04,7.55-13.25,7.88c-7.61,0.48-15.31-0.47-22.97-0.9c-12.67-0.71-24.38-5.29-36.3-9.08
		c-6.4-2.03-9.18-7.68-12.97-12.15c-4.76-5.61-8.56-12.03-12.82-18.07c-1.86-2.64-1.66-4.99,0.57-7.32
		c3.37-3.52,6.27-7.62,10.06-10.58c7.31-5.71,16.49-5.84,25.2-7.33C271.71,517.53,278.34,515.71,285.56,514.07z"/>
	<path d="M314.9,294.01c5.62,6.1,11.03,11.71,16.12,17.59c2.86,3.29,5.42,6.9,7.67,10.63c1.01,1.68,1.94,5.09,1.15,5.82
		c-1.43,1.33-4.3,1.95-6.35,1.62c-7.26-1.19-14.37-3.44-21.66-4.33c-15.27-1.87-30.61-3.28-45.95-4.59
		c-5.46-0.47-7.92-2.23-8.51-7.75c-1.99-18.56-4.06-37.12-5.9-55.7c-1.51-15.31,4.18-27.84,16.09-37.23
		c2.95-2.33,7.48-3.68,11.29-3.7c17.33-0.1,34.66,0.39,51.98,0.76c7.36,0.16,18.89,8.71,20.44,15.54c0.47,2.07-0.66,4.62-1.41,6.82
		c-3.29,9.69-6.59,19.37-10.13,28.97c-2.23,6.05-3.98,12.58-7.66,17.67c-2.37,3.28-7.79,4.39-11.92,6.32
		C318.6,293.17,316.82,293.45,314.9,294.01z"/>
</g>
</svg>
