<?xml version="1.0" encoding="UTF-8" standalone="no"?>
<!-- Generator: Adobe Illustrator 27.2.0, SVG Export Plug-In . SVG Version: 6.00 Build 0)  -->

<svg
   version="1.1"
   id="Layer_0_xA0_Image_00000068645569234205240530000000992230773887582338_"
   x="0px"
   y="0px"
   viewBox="0 0 436.78238 328.98694"
   xml:space="preserve"
   sodipodi:docname="k_uppercase.svg"
   width="436.78238"
   height="328.98694"
   inkscape:version="1.4 (e7c3feb1, 2024-10-09)"
   xmlns:inkscape="http://www.inkscape.org/namespaces/inkscape"
   xmlns:sodipodi="http://sodipodi.sourceforge.net/DTD/sodipodi-0.dtd"
   xmlns="http://www.w3.org/2000/svg"
   xmlns:svg="http://www.w3.org/2000/svg"><defs
   id="defs1" /><sodipodi:namedview
   id="namedview1"
   pagecolor="#ffffff"
   bordercolor="#000000"
   borderopacity="0.25"
   inkscape:showpageshadow="2"
   inkscape:pageopacity="0.0"
   inkscape:pagecheckerboard="0"
   inkscape:deskcolor="#d1d1d1"
   inkscape:zoom="0.23683389"
   inkscape:cx="304.01054"
   inkscape:cy="-19.000659"
   inkscape:window-width="1120"
   inkscape:window-height="590"
   inkscape:window-x="0"
   inkscape:window-y="25"
   inkscape:window-maximized="0"
   inkscape:current-layer="Layer_0_xA0_Image_00000068645569234205240530000000992230773887582338_" />
<g
   id="g1"
   style="fill:#2480a7;fill-opacity:1"
   transform="translate(-215.22,-112.70482)">
	<path
   d="m 215.64,112.86 c 6.27,-0.92 11.43,2.46 16.85,4.63 6.47,2.58 12.87,5.35 19.14,8.37 3.48,1.67 6.61,4.06 9.94,6.05 1.41,0.84 2.92,1.53 4.42,2.23 2.7,1.27 5.42,2.5 8.14,3.74 2.19,1 4.34,2.11 6.59,2.94 4.78,1.75 7.59,5.59 10.15,9.59 2.76,4.3 6.98,6.55 11.35,8.6 2.63,1.23 5.42,2.09 8.15,3.1 2.89,1.07 4.34,3.08 5.25,6.1 1.63,5.42 3.06,11.07 7.64,15.07 0.92,0.81 1.71,1.85 2.33,2.92 1.36,2.33 3.14,3.89 5.83,4.7 2.99,0.9 3.54,2.21 3.05,5.34 -0.9,5.77 0.69,9.04 5.65,12.13 3.57,2.23 5.97,5.47 7.49,9.39 4.22,10.89 12.97,16.11 23.74,18.64 1.65,0.39 3.48,0.08 5.21,-0.03 6.29,-0.4 12.58,-0.85 18.87,-1.27 2.97,-0.2 4.96,1.17 5.97,3.91 0.63,1.7 1.69,2.62 3.49,3.15 4,1.18 7.03,4.19 4.6,9.36 -0.67,1.43 -0.7,3.23 -0.78,4.87 -0.28,5.61 -0.49,11.23 -0.62,16.85 -0.01,0.56 0.57,1.28 1.06,1.7 4.27,3.67 4.43,4.68 1.71,9.77 -2.7,5.06 -5.44,10.1 -7.9,15.27 -0.98,2.06 -1.36,4.43 -1.84,6.7 -0.12,0.58 0.32,1.39 0.72,1.93 1.33,1.81 2.96,3.42 4.11,5.33 2.28,3.78 5.8,5.77 9.64,7.53 3.31,1.51 6.55,3.22 9.68,5.09 1.67,1 2.93,1.32 4.76,0.24 6.87,-4.06 13.86,-7.92 20.78,-11.89 2.49,-1.43 5.05,-1.2 7.44,-0.06 2.03,0.97 2.97,0.29 3.5,-1.55 1.05,-3.59 2.48,-7.15 2.95,-10.82 0.67,-5.16 3.8,-8.38 7.54,-11.25 2.12,-1.63 4.4,-2.88 4.03,-6.2 -0.09,-0.82 0.9,-1.92 1.63,-2.65 2.35,-2.35 4.78,-4.64 7.25,-6.86 2.64,-2.37 3.24,-5.26 2.61,-8.61 -0.5,-2.61 -0.88,-5.25 -1.32,-7.87 -0.35,-2.09 0.57,-3.66 2.29,-4.6 3.43,-1.89 4.51,-4.9 4.48,-8.55 0,-0.17 0.03,-0.33 0.04,-0.5 0.41,-9.08 3.03,-12.77 13.3,-16.7 1.08,-0.41 2.11,-0.99 3.2,-1.35 0.55,-0.18 1.62,-0.27 1.71,-0.05 0.27,0.58 0.37,1.44 0.13,2.01 -0.27,0.63 -0.93,1.17 -1.54,1.55 -0.91,0.57 -1.93,0.97 -2.9,1.44 -5.49,2.64 -9.57,6.2 -9.38,13.03 0.06,2.2 -0.29,4.54 -1.06,6.59 -0.7,1.85 -1.99,3.67 -3.48,4.96 -1.47,1.26 -1.94,2.32 -1.61,4.21 0.56,3.25 0.94,6.56 1.11,9.85 0.16,3.12 -1.55,5.53 -3.7,7.63 -1.49,1.45 -3,2.89 -4.49,4.33 -1.85,1.78 -3.63,3.45 -3.74,6.43 -0.05,1.29 -1.46,2.68 -2.54,3.74 -1.3,1.27 -2.98,2.13 -4.35,3.34 -2.07,1.84 -3.68,3.91 -4.13,6.88 -0.43,2.86 -1.32,5.68 -2.22,8.44 -0.9,2.75 -2.06,5.41 -3.22,8.4 1.98,1.98 4.89,2.61 7.85,2.9 1.64,0.16 3.33,0.01 4.98,-0.21 7.7,-1.02 12.7,1.62 16.09,8.67 1.05,2.17 1.82,4.48 2.94,6.61 1.55,2.94 2.71,3.21 5.36,1.4 1.82,-1.24 3.58,-1.24 5.32,0.04 4.47,3.31 8.83,6.79 13.4,9.96 6.28,4.36 12.76,8.38 19.95,11.22 5.02,1.98 8.59,5.99 11.64,10.3 4.98,7.03 7.29,15.29 9.92,23.34 0.44,1.34 -0.3,3.22 -0.89,4.7 -0.49,1.24 -0.46,1.89 0.64,2.7 2.61,1.91 5.35,3.13 8.69,3.32 3.81,0.22 7.61,0.84 11.37,1.5 5.6,0.98 9.79,4.8 14.51,7.54 1.78,1.03 3.56,2.23 5.51,2.77 10.6,2.91 20.37,7.52 29.67,13.37 3.16,1.99 6.99,2.95 10.55,4.3 2.88,1.09 5.83,1.99 8.67,3.16 0.69,0.28 1.61,1.43 1.48,1.93 -0.2,0.75 -1.16,1.41 -1.95,1.84 -0.52,0.28 -1.35,0.26 -1.95,0.07 -4.27,-1.33 -8.71,-2.32 -12.72,-4.21 -7.05,-3.31 -13.73,-7.42 -20.78,-10.74 -3.95,-1.86 -8.25,-3.16 -12.53,-4.09 -5.2,-1.13 -9.17,-4.32 -13.28,-7.2 -4.7,-3.29 -9.86,-4.8 -15.42,-5.1 -5.51,-0.3 -10.7,-1.29 -15.12,-4.94 -3.27,-2.7 -3.64,-4.07 -1.9,-7.95 0.35,-0.78 0.71,-1.87 0.43,-2.57 -2.52,-6.33 -4.87,-12.75 -7.89,-18.84 -3.04,-6.12 -8.62,-9.46 -14.68,-12.49 -6.79,-3.39 -13.09,-7.81 -19.48,-11.96 -3.13,-2.03 -5.93,-4.55 -9,-6.67 -0.65,-0.45 -2.06,-0.43 -2.79,-0.03 -3.56,1.98 -5.47,2.11 -8.21,-0.93 -2,-2.22 -3.48,-5.01 -4.77,-7.75 -1.51,-3.21 -2.72,-6.56 -6.45,-7.78 -1.51,-0.49 -3.21,-0.85 -4.76,-0.66 -7.18,0.84 -13.6,-0.19 -18.39,-6.29 -1.53,-1.94 -6.09,-2.54 -8.21,-1.35 -6.73,3.81 -13.46,7.6 -20.21,11.36 -1.46,0.81 -2.16,1.92 -2.7,3.57 -1.48,4.49 -3.7,8.75 -5.04,13.28 -1.95,6.6 -3.71,13.3 -4.93,20.07 -0.68,3.76 -0.48,7.79 2.9,10.85 0.79,0.72 1.19,2.58 0.89,3.67 -1,3.66 -2.13,7.33 -3.69,10.78 -2.57,5.68 -5.39,11.26 -8.36,16.74 -2.73,5.04 -5.56,10.01 -10.19,13.73 -3.96,3.18 -7.68,6.64 -9.09,11.9 -0.23,0.88 -1.72,1.42 -2.63,2.12 -0.42,-0.99 -1.13,-1.96 -1.22,-2.98 -0.32,-3.68 1.66,-6.53 3.86,-9.18 1.21,-1.47 2.59,-2.84 4.06,-4.05 5.3,-4.33 8.63,-10.03 11.55,-16.07 2.25,-4.64 4.78,-9.14 7.11,-13.75 1.16,-2.3 2.21,-4.66 3.22,-7.03 0.66,-1.55 0.68,-2.9 -0.87,-4.21 -0.92,-0.78 -1.37,-2.23 -1.79,-3.46 -1.99,-5.82 -0.4,-11.49 0.8,-17.2 1.8,-8.63 4.89,-16.74 9.28,-24.38 1.7,-2.95 1.68,-3.24 -1.38,-4.94 -3.61,-2.01 -7.37,-3.77 -11.05,-5.67 -4.01,-2.07 -7.85,-4.25 -10.3,-8.35 -1.22,-2.04 -3.17,-3.62 -4.52,-5.59 -0.78,-1.14 -1.52,-2.69 -1.42,-3.99 0.5,-6.37 3.56,-11.87 6.44,-17.4 1.46,-2.8 3.1,-5.5 4.45,-8.35 0.29,-0.62 -0.08,-1.88 -0.58,-2.48 -0.66,-0.79 -1.76,-1.21 -2.66,-1.8 -2.02,-1.32 -2.26,-2.51 -1.11,-4.61 0.46,-0.84 0.9,-1.82 0.92,-2.75 0.08,-3.81 -0.17,-7.63 0.02,-11.43 0.15,-3.04 0.61,-6.08 1.2,-9.07 0.31,-1.54 -0.1,-2.26 -1.49,-2.51 -3.23,-0.57 -5.41,-2.3 -6.62,-5.4 -0.24,-0.63 -1.37,-1.33 -2.05,-1.3 -5.55,0.24 -11.13,0.35 -16.62,1.09 -5.74,0.77 -11.25,0.38 -16.22,-2.46 -4.67,-2.67 -9.28,-5.66 -13.25,-9.24 -2.46,-2.22 -4.02,-5.68 -5.34,-8.84 -1.6,-3.85 -3.78,-6.86 -7.41,-9.03 -5.26,-3.13 -7.11,-8.19 -6.81,-14.06 0.08,-1.61 -0.24,-2.18 -1.73,-2.89 -1.79,-0.86 -3.38,-2.33 -4.78,-3.79 -1.61,-1.67 -2.68,-3.9 -4.4,-5.39 -4.31,-3.74 -5.62,-9.05 -7.1,-14.02 -1.06,-3.55 -3.11,-5.21 -6.1,-6.02 -4.5,-1.21 -8.44,-3.34 -12.33,-5.83 -3.67,-2.36 -5.79,-5.92 -8.18,-9.3 -1.75,-2.48 -3.89,-4.25 -6.81,-5.15 -1.34,-0.41 -2.57,-1.16 -3.85,-1.76 -3.45,-1.62 -6.96,-3.14 -10.33,-4.92 -2.32,-1.23 -4.44,-2.84 -6.67,-4.24 -1.68,-1.06 -3.33,-2.2 -5.1,-3.09 -3.12,-1.57 -6.29,-3.03 -9.48,-4.46 -6.58,-2.96 -13.21,-5.8 -19.76,-8.82 -2.57,-1.19 -4.97,-2.73 -7.45,-4.12 0.1,-0.34 0.26,-0.63 0.42,-0.92 z"
   id="path1"
   style="fill:#2480a7;fill-opacity:1" />
</g>
</svg>
