<?xml version="1.0" encoding="UTF-8" standalone="no"?>
<!-- Generator: Adobe Illustrator 27.2.0, SVG Export Plug-In . SVG Version: 6.00 Build 0)  -->

<svg
   version="1.1"
   id="Layer_0_xA0_Image_00000038389615069206660790000018400452041656489123_"
   x="0px"
   y="0px"
   viewBox="0 0 473.2142 314.92593"
   xml:space="preserve"
   sodipodi:docname="n_uppercase.svg"
   width="473.2142"
   height="314.92593"
   inkscape:version="1.4 (e7c3feb1, 2024-10-09)"
   xmlns:inkscape="http://www.inkscape.org/namespaces/inkscape"
   xmlns:sodipodi="http://sodipodi.sourceforge.net/DTD/sodipodi-0.dtd"
   xmlns="http://www.w3.org/2000/svg"
   xmlns:svg="http://www.w3.org/2000/svg"><defs
   id="defs1" /><sodipodi:namedview
   id="namedview1"
   pagecolor="#ffffff"
   bordercolor="#000000"
   borderopacity="0.25"
   inkscape:showpageshadow="2"
   inkscape:pageopacity="0.0"
   inkscape:pagecheckerboard="0"
   inkscape:deskcolor="#d1d1d1"
   inkscape:zoom="0.039334342"
   inkscape:cx="279.65385"
   inkscape:cy="63.557692"
   inkscape:window-width="1120"
   inkscape:window-height="402"
   inkscape:window-x="0"
   inkscape:window-y="25"
   inkscape:window-maximized="0"
   inkscape:current-layer="Layer_0_xA0_Image_00000038389615069206660790000018400452041656489123_" />
<g
   id="g1"
   style="fill:#2480a7;fill-opacity:1"
   transform="translate(-80.919013,-257.67016)">
	<path
   d="m 358.76,364.84 c 3.89,-2 7.89,-3.86 11.67,-6.1 1.58,-0.94 2.95,-2.5 3.96,-4.08 2.09,-3.29 3.92,-6.76 5.76,-10.21 0.35,-0.65 0.55,-1.73 0.25,-2.32 -1.23,-2.43 -2.41,-4.97 -4.12,-7.05 -2.16,-2.62 -2.05,-5.21 -0.71,-7.86 1.82,-3.56 4.81,-6.19 8.63,-7.12 8.99,-2.18 12.98,-9.19 15.73,-16.72 1.72,-4.7 1.72,-10.12 1.91,-15.24 0.12,-3.28 -1.25,-6.32 -4.3,-8.29 -0.77,-0.5 -1.74,-1.43 -1.78,-2.2 -0.27,-5.52 -0.99,-11.12 1.39,-16.42 1.05,-2.34 2.33,-2.9 4.67,-1.62 2.74,1.5 5.3,3.34 8.03,5.09 2.78,-3.23 6.8,-5.03 10.94,-6.47 1.65,-0.58 3.68,-0.72 5.39,-0.37 5.28,1.08 10.47,2.53 15.72,3.75 2.82,0.66 5.7,1.09 8.52,1.75 5.49,1.27 10.97,2.56 16.43,3.97 4.89,1.27 9.85,2.41 14.55,4.2 2.09,0.8 3.84,2.87 5.4,4.65 6.16,7.06 9.34,15.7 12.24,24.38 1.53,4.58 4.07,7.69 8.3,10 5.03,2.74 9.57,6.36 14.6,9.1 5.01,2.72 10.33,4.87 15.57,7.14 1.66,0.72 3.52,0.99 5.24,1.6 1.46,0.51 2.66,1.19 2.34,3.24 -0.11,0.72 0.67,1.78 1.32,2.4 5.71,5.43 7.43,12.48 7.72,19.91 0.09,2.27 -1.74,4.55 -2.07,6.91 -1.22,8.85 -5.17,16.81 -7.85,25.19 -3.95,12.35 -7.61,24.8 -11.66,37.12 -3.9,11.85 -7.99,23.63 -13.69,34.8 -3.96,7.76 -7.44,15.77 -11.09,23.7 -1.91,4.15 -4.11,8.23 -5.46,12.56 -1.95,6.24 -3.07,12.73 -4.89,19.02 -0.98,3.39 -2.62,6.6 -4.06,9.85 -2.32,5.24 -4.75,10.44 -7.09,15.68 -4.71,10.54 -11.95,18.25 -23.36,21.6 -3.5,1.03 -6.81,2.65 -10.26,3.87 -4.38,1.55 -8.74,3.22 -13.24,4.33 -2.57,0.64 -5.46,0.68 -8.09,0.27 -4.73,-0.72 -9.6,-1.42 -14.03,-3.13 -7.17,-2.77 -13.24,-7.45 -17.46,-13.97 -3.97,-6.13 -7.49,-12.56 -11.11,-18.91 -5.44,-9.52 -11.86,-18.14 -20.06,-25.6 -8.11,-7.38 -15.65,-15.44 -20.7,-25.42 -0.49,-0.96 -1.3,-1.81 -1.58,-2.82 -2.72,-9.73 -10.68,-13.15 -19.09,-16.13 -2.27,-0.8 -4.41,-1.96 -6.61,-2.94 -1.21,-0.54 -2,-0.23 -3,0.78 -1.61,1.62 -3.65,2.81 -5.45,4.25 -1.6,1.28 -3.44,2.44 -4.62,4.05 -2.65,3.61 -4.8,7.58 -7.43,11.19 -3.52,4.83 -7.2,9.56 -11.03,14.15 -2.75,3.3 -4.28,7.03 -4.21,11.2 0.05,3.1 0.66,6.25 1.49,9.24 0.75,2.69 0.18,4.65 -2.09,6 -2.05,1.21 -2.18,2.64 -1.58,4.79 1.54,5.46 2.7,11.02 1.6,16.72 -0.39,2.02 -0.97,4.07 -1.89,5.9 -3.06,6.09 -5.98,12.34 -11.57,16.64 -1.19,0.92 -2.79,1.66 -4.27,1.79 -11.41,1.02 -22.69,3.02 -34.28,2.68 -8.15,-0.24 -16.34,1.5 -24.53,2.28 -3.14,0.3 -6.29,0.37 -9.44,0.53 -0.66,0.03 -1.38,-0.14 -1.99,0.05 -4.81,1.47 -6.64,-0.97 -7.23,-5.68 -0.7,-5.61 -0.2,-11.4 0.03,-17.1 0.14,-3.47 1.04,-6.92 1.08,-10.38 0.05,-4.71 -1.96,-8.93 -4.46,-12.8 -2.14,-3.31 -2.18,-6.59 -1.08,-10.23 1.44,-4.75 1.82,-9.71 -1.37,-13.83 -3.78,-4.88 -2.93,-10.07 -2.32,-15.48 0.4,-3.61 0.29,-7.28 0.19,-10.92 -0.02,-0.82 -0.74,-2.05 -1.45,-2.34 -3.66,-1.49 -5.17,-4.63 -6.26,-7.96 -0.68,-2.09 -1.7,-2.8 -3.76,-2.24 -1.67,0.45 -3.48,0.6 -5.01,1.33 -2.03,0.96 -3.69,0.77 -5.25,-0.68 -3.46,-3.21 -6.83,-6.52 -10.35,-9.66 -1.97,-1.76 -4.24,-3.2 -6.24,-4.93 -1.2,-1.04 -2.58,-2.2 -3.13,-3.6 -3.92,-9.92 -6.96,-20.1 -8.32,-30.73 -0.09,-0.73 -0.57,-1.63 -1.15,-2.03 -2.04,-1.42 -4.1,-2.94 -6.37,-3.9 -2.73,-1.15 -4.44,-2.79 -4.77,-5.77 -0.19,-1.65 -0.65,-3.28 -0.64,-4.92 0.01,-0.72 0.75,-1.82 1.42,-2.08 1.29,-0.5 2.77,-0.74 4.16,-0.7 2.79,0.1 5.46,0.11 7.88,-1.63 0.51,-0.37 1.62,-0.46 2.15,-0.15 3.81,2.2 7.62,0.61 11.14,-0.38 7.75,-2.19 15,-5.81 20.9,-11.3 4.55,-4.23 7.13,-10.07 8.74,-16.04 1.14,-4.21 1.43,-8.69 1.73,-13.07 0.09,-1.35 -0.69,-3.12 -1.66,-4.12 -2.43,-2.49 -5.3,-4.56 -7.8,-6.99 -1.19,-1.16 -2.09,-2.71 -2.84,-4.23 -0.77,-1.55 -1.09,-3.31 -1.8,-4.9 -2.07,-4.66 -6.42,-5.74 -10.81,-6.45 -8.85,-1.43 -17.75,-2.58 -26.61,-4.02 -5.38,-0.88 -10.73,-1.96 -16.05,-3.17 -6.06,-1.38 -12.07,-3 -18.11,-4.5 -6.67,-1.65 -9.98,-6.43 -10.05,-13.32 -0.04,-4.26 1.13,-7.86 4.63,-10.5 0.2,-0.15 0.47,-0.33 0.51,-0.54 0.61,-3.76 3.58,-3.13 6.12,-3.35 1.24,-0.11 2.5,-0.26 3.7,-0.57 11.94,-3.13 22.37,1.76 32.76,6.37 5.61,2.49 10.82,5.9 16.47,8.27 3.94,1.65 8.28,2.46 12.52,3.24 8,1.46 16,1.14 24.08,0.11 16.57,-2.12 33.13,-4.38 49.9,-4.51 4.88,-0.04 9.75,-1.07 14.64,-1.36 6.32,-0.37 11.91,1.72 16.16,6.39 5.36,5.89 10.41,12.05 15.54,18.14 10.57,12.53 23.28,21.19 40.09,22.78 6.61,0.63 11.56,-2.57 15.44,-7.14 3.28,-3.87 7.02,-4.87 11.65,-4.52 1.05,0.08 2.2,-0.06 3.17,-0.44 2.27,-0.88 3.77,-0.03 5.13,1.74 1.47,1.91 3.24,3.6 4.56,5.59 0.64,0.97 1.03,2.56 0.71,3.62 -1.25,4.13 -2.71,8.21 -4.32,12.22 -0.7,1.73 -0.66,2.86 0.83,4.12 1.29,1.07 2.31,2.52 3.55,3.91 z"
   id="path1"
   style="fill:#2480a7;fill-opacity:1" />
</g>
</svg>
