<?xml version="1.0" encoding="UTF-8" standalone="no"?>
<!-- Generator: Adobe Illustrator 27.2.0, SVG Export Plug-In . SVG Version: 6.00 Build 0)  -->

<svg
   version="1.1"
   id="Calque_1"
   x="0px"
   y="0px"
   viewBox="0 0 275.74376 341.27532"
   xml:space="preserve"
   sodipodi:docname="o_uppercase.svg"
   width="275.74377"
   height="341.27533"
   inkscape:version="1.4 (e7c3feb1, 2024-10-09)"
   xmlns:inkscape="http://www.inkscape.org/namespaces/inkscape"
   xmlns:sodipodi="http://sodipodi.sourceforge.net/DTD/sodipodi-0.dtd"
   xmlns="http://www.w3.org/2000/svg"
   xmlns:svg="http://www.w3.org/2000/svg"><defs
   id="defs1" /><sodipodi:namedview
   id="namedview1"
   pagecolor="#ffffff"
   bordercolor="#000000"
   borderopacity="0.25"
   inkscape:showpageshadow="2"
   inkscape:pageopacity="0.0"
   inkscape:pagecheckerboard="0"
   inkscape:deskcolor="#d1d1d1"
   inkscape:zoom="0.030882894"
   inkscape:cx="129.52154"
   inkscape:cy="194.28231"
   inkscape:window-width="1120"
   inkscape:window-height="1011"
   inkscape:window-x="7"
   inkscape:window-y="33"
   inkscape:window-maximized="0"
   inkscape:current-layer="Calque_1" />
<style
   type="text/css"
   id="style1">
	.st0{fill:#020203;}
</style>
<g
   id="g1"
   style="fill:#2480a7;fill-opacity:1"
   transform="translate(-165.90728,-242.22467)">
	<path
   class="st0"
   d="m 274.65,583.5 c -15.47,-1.63 -29.89,-2.45 -44.07,-4.86 -10.51,-1.77 -21.12,-4.96 -29.21,-12.62 -5.98,-5.64 -11.46,-11.94 -16.49,-18.5 -4.15,-5.41 -7.28,-11.63 -10.95,-17.41 -7.07,-11.09 -8.88,-23.19 -7.68,-36.11 1.05,-11.63 4.39,-22.31 10.71,-32.2 4.35,-6.83 7.31,-14.59 12,-21.15 3.94,-5.54 9.39,-10 14.25,-14.86 6.36,-6.32 12.72,-12.68 19.28,-18.8 2.82,-2.62 6.29,-4.52 9.22,-7.04 6.73,-5.81 11.97,-12.89 15.98,-20.78 3.71,-7.31 0.48,-14.18 -7.51,-16.39 -7.58,-2.07 -15.44,-3.43 -22.78,-6.15 -15.44,-5.68 -25.23,-15.78 -20.95,-33.77 2.75,-11.56 10,-21.32 18.09,-30.03 8.09,-8.71 15.47,-17.75 20.57,-28.77 8.3,-17.89 24.41,-25.23 43.05,-20.37 9.9,2.58 18.5,12.68 17.82,23.7 -0.17,2.92 0.34,5.95 -0.17,8.77 -1.12,6.26 1.87,11.22 4.15,16.53 0.99,2.31 1.39,4.96 1.77,7.48 1.22,8.47 6.22,14.69 12.24,20.16 10.1,9.15 22.24,14.59 34.99,18.84 7,2.35 14.11,4.42 21.15,6.7 12.07,3.91 22.65,10.03 31.25,19.59 7.45,8.26 15.85,15.68 23.09,24.11 3.91,4.56 6.94,10.2 9.08,15.85 8.6,22.54 9.93,45.94 6.05,69.54 -1.36,8.2 -4.35,16.05 -8.57,23.67 -8.09,14.62 -20.54,24.58 -33.22,34.41 -8.43,6.53 -17.41,12.41 -26.29,18.36 -7.85,5.27 -15.81,10.41 -23.9,15.3 -3.47,2.11 -7.24,3.98 -11.12,5.13 -6.9,2.04 -13.94,3.71 -21.01,5.07 -8.5,1.63 -17.14,2.72 -25.71,4.08 -5.38,1.03 -10.76,1.84 -15.11,2.52 z m 3.77,-296.55 c -6.02,-1.87 -9.56,1.19 -12.75,3.91 -4.11,3.54 -7.48,7.96 -11.43,11.77 -3.95,3.81 -6.02,9.32 -4.05,13.6 4.28,9.32 8.23,18.87 13.4,27.68 5.34,9.11 12.72,16.7 21.66,22.65 7.65,5.1 15.74,9.83 22.61,15.85 7.62,6.66 10.68,16.15 11.56,26.18 0.99,11.22 1.9,22.48 3.03,33.7 0.17,1.8 0.99,4.39 2.31,5.13 5.51,3.16 10.34,9.01 17.48,7.34 7.96,-1.87 15.98,-4.11 23.39,-7.45 6.39,-2.86 11.32,-8.67 13.23,-15.2 3.06,-10.44 5.71,-21.32 4.08,-32.37 -0.75,-5 -2.52,-10.2 -5.2,-14.45 -6.66,-10.47 -17.48,-16.29 -28.09,-21.8 -9.62,-5 -19.86,-8.74 -29.58,-13.6 -6.94,-3.47 -14.25,-6.9 -19.93,-12 -5.88,-5.3 -11.7,-11.9 -14.52,-19.14 -3.9,-10.07 -4.95,-21.22 -7.2,-31.8 z"
   id="path1"
   style="fill:#2480a7;fill-opacity:1" />
</g>
</svg>
