<?xml version="1.0" encoding="utf-8"?>
<!-- Generator: Adobe Illustrator 27.2.0, SVG Export Plug-In . SVG Version: 6.00 Build 0)  -->
<svg version="1.1" id="Layer_0_xA0_Image_00000044154727429692644660000002192660937999122611_"
	 xmlns="http://www.w3.org/2000/svg" xmlns:xlink="http://www.w3.org/1999/xlink" x="0px" y="0px" viewBox="0 0 206 176"
	 style="enable-background:new 0 0 206 176;" xml:space="preserve">
<g>
	<path d="M89.38,81.88c1.53-0.16,3.06-0.49,4.58-0.42c2.08,0.1,4.14,0.69,6.21,0.71c1.25,0.01,2.92-0.29,3.68-1.12
		c2.7-2.93,6.12-3.13,9.63-3.07c1.87,0.03,2.13,1.37,1.91,3.03c-0.81,6.1-3.15,11.65-6,17.02c-1.47,2.77-2.59,5.43-2.67,8.83
		c-0.08,3.18-2.27,6.25-3.11,9.48c-1.08,4.16-3.66,8.05-2.63,12.66c0.95,4.21,1.03,8.39-1.9,11.84c-1.24,1.46-3.33,3.09-5.03,3.09
		c-6.85,0.01-13.73-0.34-20.56-1.02c-7.01-0.69-13.95-2.12-20.95-2.84c-5.11-0.53-5.18-0.25-5.1-5.52c0.06-3.53,0.43-7.05,3-9.76
		c1.23-1.3,2.72-2.41,4.25-3.34c2.12-1.28,4.39-2.3,6.73-3.5c-1.21-2.8-3.07-3.4-5.55-3.15c-4.67,0.48-4.01,0.33-4.65-4.18
		c-0.56-3.96,0.79-6.53,3.02-9.21c0.52-0.63,0.89-1.4,1.26-2.15c0.95-1.89,2.46-2.59,4.51-2.25c0.74,0.12,1.49,0.17,2.23,0.22
		c6.18,0.42,11.58,2.27,14.8,8.09c0.81,1.47,1.78,1.76,3.45,1.28c2.46-0.69,5.05-1.21,7.59-1.28c1.99-0.06,2.46-1,2.52-2.54
		c0.09-2.49,0.24-4.99,0.01-7.46c-0.18-1.9-1.91-2.45-3.55-2.39c-1.81,0.07-3.63,0.41-5.42,0.76c-3.68,0.72-5.52,0.22-7.36-3.02
		c-1.71-3.01-2.79-6.36-4.34-9.47c-1.1-2.21-2.63-4.19-3.75-6.39c-0.59-1.15-1.15-2.63-0.93-3.81c0.57-3,1.75-5.87,2.39-8.86
		c1.29-6,2.39-12.04,3.58-18.06c1.32-6.71,6.49-10.29,13.37-9.23c3.85,0.59,7.72,1.11,11.54,1.9c3.95,0.81,7.56,0.04,11.08-1.71
		c3.21-1.6,4.34-1.73,6.59,0.96c2.82,3.38,6.09,4.64,10.41,4.98c4.3,0.34,8.73,1.39,12.68,3.11c2.52,1.09,4.38,3.87,6.29,6.11
		c0.35,0.41-0.28,2.49-0.87,2.72c-1.8,0.69-3.79,1.07-5.73,1.17c-4.29,0.23-3.86,0.29-5.25,4.13c-1.71,4.7-4.12,9.17-6.5,13.59
		c-0.44,0.81-2.24,1.3-3.36,1.21c-1.45-0.11-3.16-0.39-3.49-2.53c-0.2-1.28-0.82-2.51-1.33-3.72c-0.18-0.41-0.54-0.88-0.94-1.05
		c-3.1-1.33-6.87-0.37-8.33,2.68c-1.51,3.17-4.01,4.27-7.03,5.28c-2.8,0.94-5.49,2.34-8.01,3.9c-1.36,0.85-2.26,2.45-3.37,3.71
		C89.11,81.5,89.25,81.69,89.38,81.88z"/>
</g>
</svg>
