<?xml version="1.0" encoding="utf-8"?>
<!-- Generator: Adobe Illustrator 27.2.0, SVG Export Plug-In . SVG Version: 6.00 Build 0)  -->
<svg version="1.1" id="Calque_1" xmlns="http://www.w3.org/2000/svg" xmlns:xlink="http://www.w3.org/1999/xlink" x="0px" y="0px"
	 viewBox="0 0 595.28 841.89" style="enable-background:new 0 0 595.28 841.89;" xml:space="preserve">
<path d="M44.05,326.95c1.34,0.18,2.75,0.17,4.02,0.59c1.43,0.47,2.77,1.27,4.09,2.03c4.04,2.35,5.47,7.05,3.49,11.27
	c-0.28,0.6-0.87,1.34-0.71,1.81c1.55,4.53-1.45,8.72-0.86,13.11c0.16,1.2,0.9,2.66,1.84,3.35c2.21,1.63,5.22,2.41,6.96,4.38
	c2.32,2.63,3.93,5.96,5.48,9.16c1.62,3.33,2.26,4.03,5.91,3.09c6.62-1.7,13.2-3.57,19.75-5.52c9.37-2.79,16.93-8.54,23.16-15.78
	c5.58-6.48,12.4-10.18,20.61-11.57c2.23-0.38,3.14-1.4,3.33-3.45c0.05-0.57,0.22-1.12,0.28-1.69c0.68-5.69,3.64-7.09,8.56-4.08
	c0.69,0.42,1.42,0.77,2.69,1.47c-0.08-1.88-0.04-3.18-0.22-4.45c-0.55-3.93-0.54-7.49,2.55-10.76c4.74-5.01,8.39-11.06,14.73-14.5
	c2.12-1.15,3.84-1.78,6.01-0.09c0.77,0.6,2.45,0.69,3.39,0.28c7.39-3.27,14.67-6.76,22.03-10.1c6.96-3.15,14.06-6.02,20.93-9.36
	c2.81-1.37,5.3-0.99,7.59,0.3c3.77,2.12,7.12,1.86,10.62-0.45c2.25-1.49,4.56-2.99,7.04-3.98c1.45-0.58,3.32-0.05,4.97-0.25
	c1.66-0.2,3.71-0.18,4.84-1.14c5.94-5.03,11.54-10.45,17.45-15.5c3.88-3.31,8.06-6.28,12.19-9.29c0.74-0.54,1.98-0.95,2.8-0.72
	c7.03,1.96,14.03,4.06,21.01,6.19c0.66,0.2,1.42,0.81,1.7,1.43c2.1,4.62,6.17,6.69,10.51,8.58c9.54,4.15,9.57,4.28,17.84-2.03
	c8.53-6.52,18.3-10.8,27.78-15.59c3.29-1.66,6.55-3.43,9.98-4.76c5.37-2.07,10.46-0.74,14.81,2.63c5.86,4.55,11.86,9.07,17,14.38
	c5.25,5.42,8.4,12.35,10.32,19.72c3.65,14.03,7.37,28.05,10.93,42.11c0.96,3.78,4.27,4.92,6.88,6.86c2.04,1.52,4.17,2.92,6.31,4.29
	c0.41,0.27,1.09,0.36,1.58,0.25c7.25-1.64,14.5-3.26,21.72-5.03c2.76-0.68,5.55-1.48,8.13-2.65c2.71-1.23,4.9-0.45,6.86,1.16
	c7.16,5.89,13.51,12.58,18.97,20.1c4.43,6.1,7.11,13.03,9.31,20.13c2.91,9.36,8.04,17.2,15.23,23.78c0.93,0.85,1.67,2.01,2.19,3.16
	c0.97,2.16,0.14,3.26-2.22,3.82c-2.62,0.62-5.13,1.72-8.33,2.85c1.21,1.09,2.2,2.44,3.54,3.1c2.61,1.28,5.41,2.18,8.14,3.2
	c0.42,0.16,0.93,0.14,1.39,0.12c5.13-0.22,10.33-0.01,15.36-0.81c4.79-0.76,9.41-2.59,14.22-3.98c-0.3,0.43-0.66,1.54-1.33,1.78
	c-4.48,1.58-8.94,3.46-13.57,4.29c-4.89,0.88-9.97,0.77-14.96,0.97c-0.98,0.04-2-0.47-2.98-0.81c-2.97-1.05-5.92-2.14-8.89-3.21
	c-0.11,0.22-0.23,0.45-0.34,0.67c1.62,1.55,3.48,2.92,4.76,4.71c0.99,1.38,2.19,3.77,1.64,4.88c-1.28,2.56-6.37,3.19-8.31,1.69
	c-5.19-4.01-8.08-9.67-11.28-15.18c-3.8-6.56-5.41-14.18-10.42-20.21c-1.47-1.77-0.83-5.25-1.33-7.91
	c-0.15-0.82-0.75-2.12-1.31-2.21c-2.99-0.5-4.22-2.07-5.32-4.99c-1.55-4.1-4.11-7.91-6.72-11.49c-4.1-5.64-8.96-10.64-15.01-14.28
	c-4.3-2.59-9.48-1.08-11.63,3.54c-2.19,4.69-5.84,8.21-9.88,10.8c-5.25,3.36-11.52,4.34-17.83,4.1c-1.81-0.07-3.61-0.3-5.4-0.51
	c-12.1-1.48-20.28-8.55-25.88-18.82c-1.16-2.13-0.96-5.13-0.97-7.73c0-3.42,0.33-6.84,0.66-10.25c1-10.13,1.97-20.27,3.18-30.37
	c0.71-5.95-3.02-9-7.02-12.07c-1.77-1.36-3.44-2.85-5.25-4.37c-8.01,5.64-16.39,11.39-24.57,17.4c-1.91,1.41-3.48,3.52-4.69,5.61
	c-4.09,7.08-7.64,14.49-11.96,21.43c-6.11,9.81-8.76,20.43-8.66,31.82c0.07,8.27-0.76,16.35-3.88,24.1
	c-1.89,4.69-2.42,9.4,0.28,14.04c0.43,0.73,0.58,1.63,0.98,2.38c2.53,4.7,2.28,9.25,0.4,14.27c-3.86,10.34-7.22,20.87-10.64,31.37
	c-1.57,4.82-1.36,9.87-0.23,14.68c0.41,1.73,2.69,3.33,4.47,4.38c4.27,2.51,8.77,4.62,13.13,6.98c3.21,1.74,5.69,4.06,6.33,7.97
	c0.25,1.54,1.2,2.97,1.93,4.68c0.3-0.62,0.48-0.99,0.75-1.54c1.49,2.8,2.9,5.47,4.44,8.36c-0.82-0.48-1.45-0.85-2.75-1.62
	c0.51,1.62,0.63,2.65,1.12,3.48c2.28,3.87,4.91,7.55,6.87,11.57c0.8,1.63,0.64,4.02,0.18,5.9c-0.62,2.55-1.9,4.95-2.95,7.39
	c-0.91,2.14-0.18,3.83,1.17,5.52c2.01,2.51,3.9,5.13,5.85,7.69c0.22,0.29,0.47,0.64,0.78,0.74c4.11,1.37,8.28,2.57,12.34,4.08
	c3.41,1.27,6.71,0.81,10.12,0.2c3.4-0.62,6.61-0.05,9.35,2.28c2.21,1.88,2.73,4.46,1.98,7.23c-0.5,1.87-1.08,4.17-0.43,5.81
	c1.32,3.32,0.18,5.75-1.67,8.14c-4.01,5.2-3.91,5.76,2.09,8.69c2.89,1.41,4,3.39,3.73,6.68c-0.33,3.99,1.16,5.44,5.14,4.94
	c1.32-0.17,2.61-0.56,3.93-0.74c4.01-0.54,7.46,2.07,7.6,5.87c0.03,0.92-0.6,1.87-0.93,2.81c-0.31-0.03-0.61-0.06-0.92-0.09
	c-0.18-0.75-0.43-1.49-0.54-2.25c-0.63-4.13-2.4-5.35-6.55-4.46c-0.37,0.08-0.73,0.23-1.1,0.31c-6.4,1.31-8.44-0.05-8.96-6.54
	c-0.26-3.19-1.74-4.9-4.56-6.12c-1.58-0.68-3.07-1.96-4.12-3.34c-0.46-0.6-0.12-2.52,0.53-3.14c3.32-3.2,5.32-6.6,3.7-11.42
	c-0.39-1.17-0.38-2.84,0.17-3.91c2.76-5.33-1.78-9.79-7.72-8.72c-4.19,0.75-8.31,1.03-12.37-0.49c-2.31-0.87-4.54-1.95-6.88-2.7
	c-1.34-0.43-2.83-0.38-3.91-0.51c-1.92,0.3-3.65,0.32-5.18,0.89c-2.01,0.74-4.3,1.49-5.72,2.96c-5.22,5.38-10.34,10.89-15.11,16.67
	c-3.47,4.2-7.72,7.26-12.11,10.3c-2.07,1.43-4.11,3.2-5.51,5.26c-5.3,7.8-10.35,15.76-15.44,23.7c-2.68,4.19-6.61,6.93-10.48,9.88
	c-7.37,5.6-15.63,4.24-23.89,3.99c-5.16-0.15-10.34,0.4-16.37,0.68c2.02,2.9,3.55,5.09,5.08,7.28c-0.14,0.11-0.27,0.22-0.41,0.33
	c-0.91-1.1-1.77-2.25-2.75-3.28c-1.62-1.72-3.38-3.31-4.95-5.08c-1.22-1.37-2.25-2.92-3.36-4.4c0.25-0.19,0.49-0.38,0.74-0.57
	c0.3,0.4,0.6,0.8,1.11,1.48c0.52-3.45,2.6-3.88,5.42-3.5c2.34,0.32,4.75,0.15,7.12,0.21c6.46,0.17,12.92,0.27,19.38,0.54
	c6.57,0.28,11.85-2.44,15.49-7.54c4.81-6.74,8.98-13.94,13.41-20.95c0.2-0.31,0.4-0.7,0.38-1.04c-0.39-6.07,3.72-10.62,5.52-15.94
	c1.51-4.47,4.12-8.57,6.04-12.92c0.28-0.64-0.27-2.18-0.91-2.61c-3.92-2.65-4.21-4.36-0.76-7.56c3.08-2.84,6.32-5.51,9.48-8.26
	c2.48-2.15,3.95-4.8,4.35-8.11c0.21-1.79,0.61-3.59,1.2-5.29c1.11-3.2,0.05-5.78-2-8.11c-4.77-5.43-9.19-11.25-14.52-16.07
	c-3.87-3.49-8.94-5.67-13.52-8.35c-1.81-1.06-3.68-2.07-5.64-2.77c-1.84-0.66-3.83-1.17-5.77-1.23c-6.48-0.2-12.69-1.35-17.87-5.44
	c-2.18-1.73-3.93-4.1-5.54-6.42c-1.16-1.66-3.41-2.95-4.78-1.58c-7.73,7.72-16.93,5.39-26.05,4.25c-1.83-0.23-3.76,0.3-5.64,0.57
	c-3.58,0.51-7.14,1.28-10.74,1.56c-2.97,0.24-6,0.12-8.97-0.18c-3.18-0.32-11.69,3.36-12.6,6.15c-0.96,2.95-3.25,4.73-5.29,6.52
	c-2.53,2.22-3.82,4.24-3.11,7.74c0.53,2.59,0.1,5.38,0.09,8.23c3.73,1.65,3.8,1.71,0.81,5.47c-2.58,3.25-5.4,6.3-8.03,9.52
	c-1.07,1.31-1.88,2.84-2.84,4.24c-0.49,0.72-1.07,1.38-1.61,2.07c-0.3-0.11-0.61-0.22-0.91-0.34c0.16-0.83,0.12-1.79,0.53-2.48
	c0.87-1.47,2.01-2.78,2.97-4.2c0.41-0.6,1.05-1.39,0.93-1.95c-0.22-1.02-0.53-1.68,0.94-1.49c0.14-1.54,0.41-3.08,0.36-4.61
	c-0.02-0.55-0.83-1.06-1.51-1.86c1.71-1.33-2.46-5.66,2.26-6.28c0.88,0.47,1.86,1.38,2.35,1.16c0.66-0.29,1.27-1.41,1.33-2.22
	c0.24-3.57,0.27-7.15,0.38-10.53c-4.91-0.24-9.61-0.47-14.31-0.71c-0.02-0.3-0.04-0.6-0.06-0.9c1.45-0.15,2.9-0.3,4.39-0.46
	c0.04-0.5,0.08-1.07,0.09-1.15c3.36,0.31,6.5,0.68,9.65,0.83c0.86,0.04,1.99-0.33,2.58-0.93c2.32-2.37,4.65-4.78,6.66-7.42
	c3.48-4.56,10.44-6.69,16.05-5.82c3.73,0.58,7.72-0.32,11.56-0.82c2.54-0.33,5-1.26,7.53-1.66c1.44-0.23,2.99-0.1,4.44,0.17
	c6.96,1.31,13.9,2.28,20.68-0.78c0.6-0.27,1.26-0.6,1.65-1.1c1.79-2.26,3.97-2.79,6.75-2.16c0.75,0.17,2.2-0.61,2.57-1.34
	c2-3.88,3.72-7.89,5.6-11.83c4.34-9.09,6.41-18.83,8.23-28.63c1.19-6.45,2.2-12.94,3.29-19.41c0.06-0.38,0.26-0.76,0.21-1.12
	c-0.88-6.54,3.13-11.05,6.39-15.98c2.62-3.96,4.82-8.22,7.01-12.45c0.38-0.74,0.05-2.17-0.45-2.97c-1.61-2.57-3.49-4.97-5.2-7.48
	c-2.69-3.95-2.41-6.75,1.12-10.02c4.6-4.25,7.48-8.91,5.79-15.64c-0.5-1.97,0.42-4.51,1.26-6.55c1.41-3.43,3.38-6.62,4.88-10.02
	c0.39-0.89,0.33-2.65-0.26-3.19c-3.64-3.34-7.52-6.42-11.27-9.64c-1.33-1.15-2.57-1.18-4.19-0.53c-1.84,0.74-3.84,1.38-5.79,1.43
	c-1.43,0.04-3.07-0.68-4.3-1.53c-2.32-1.58-4.41-3.49-7.01-5.6c0.12,4.25-0.07,7.83,0.4,11.32c0.41,3-1.41,5.09-2.89,6.7
	c-3.74,4.09-8.18,7.55-12.3,11.31c-7.45,6.79-14.87,13.61-22.3,20.41c-1.61,1.47-3.13,3.07-4.88,4.36c-1.08,0.8-2.48,1.47-3.79,1.59
	c-5.86,0.54-11.75,0.81-17.63,1.3c-2.86,0.24-4.88-0.94-6.75-2.98c-4.21-4.61-3.99-4.04-9.59-1.16c-5.33,2.75-7.71,5.93-5.6,11.84
	c0.34,0.96-0.09,2.25-0.32,3.36c-0.46,2.22-1.81,2.96-4.01,2.27c-1.81-0.57-3.7-0.9-5.47-1.55c-3.37-1.23-6.43-0.59-9.16,1.5
	c-4.04,3.1-7.95,6.39-11.97,9.52c-3.67,2.86-7.53,5.48-11.11,8.45c-2.87,2.38-5.27,5.34-8.25,7.55c-0.98,0.73-3.27,0.36-4.63-0.25
	c-1.78-0.8-3.27-2.29-4.81-3.56c-4.39-3.62-8.61-4.85-14.61-2.66c-4.49,1.64-7.95,4.12-11.75,6.6c-3.43,2.23-7.56,3.4-11.41,4.96
	c-0.49,0.2-1.2-0.12-1.8-0.2c0.15-0.7,0.11-1.53,0.48-2.08c2.18-3.21,4.51-6.31,6.67-9.54c1.26-1.89,2.3-3.92,3.59-6.17
	c-0.84-0.36-1.47-0.68-2.13-0.9c-7.62-2.53-14.9-0.69-22.2,1.61c-6.3,1.98-11.32,0.47-14.12-4.14c-0.98-1.61-1.78-3.43-2.16-5.26
	c-0.65-3.11-2.73-4.6-5.36-5.75c-1.64-0.72-3.32-1.43-4.82-2.39c-3.97-2.52-4.59-4.48-3.54-9.18c0.98-4.35,1.86-8.73,2.61-13.13
	c0.72-4.24-0.31-5.95-3.95-8.03c-1.41-0.8-2.57-2.05-3.84-3.1C43.8,327.66,43.93,327.3,44.05,326.95z"/>
</svg>
