<?xml version="1.0" encoding="UTF-8" standalone="no"?>
<!-- Generator: Adobe Illustrator 27.2.0, SVG Export Plug-In . SVG Version: 6.00 Build 0)  -->

<svg
   version="1.1"
   id="Layer_0_xA0_Image_00000072248032883162462140000011195076188035446935_"
   x="0px"
   y="0px"
   viewBox="0 0 679.07465 387.73892"
   xml:space="preserve"
   sodipodi:docname="w_uppercase.svg"
   width="679.07465"
   height="387.73892"
   inkscape:version="1.4 (e7c3feb1, 2024-10-09)"
   xmlns:inkscape="http://www.inkscape.org/namespaces/inkscape"
   xmlns:sodipodi="http://sodipodi.sourceforge.net/DTD/sodipodi-0.dtd"
   xmlns="http://www.w3.org/2000/svg"
   xmlns:svg="http://www.w3.org/2000/svg"><defs
   id="defs1" /><sodipodi:namedview
   id="namedview1"
   pagecolor="#ffffff"
   bordercolor="#000000"
   borderopacity="0.25"
   inkscape:showpageshadow="2"
   inkscape:pageopacity="0.0"
   inkscape:pagecheckerboard="0"
   inkscape:deskcolor="#d1d1d1"
   inkscape:zoom="0.057142857"
   inkscape:cx="367.5"
   inkscape:cy="157.5"
   inkscape:window-width="1120"
   inkscape:window-height="1011"
   inkscape:window-x="7"
   inkscape:window-y="33"
   inkscape:window-maximized="0"
   inkscape:current-layer="Layer_0_xA0_Image_00000072248032883162462140000011195076188035446935_" />
<g
   id="g1"
   style="fill:#2480a7;fill-opacity:1"
   transform="translate(-74.63934,-66.741085)">
	<path
   d="m 321.42,109.15 c 1.4,-0.6 2.49,-0.98 3.5,-1.51 9.49,-4.9 19.53,-7.54 30.25,-7.02 1.45,0.07 3.46,0.87 4.09,1.97 0.51,0.9 -0.27,3.13 -1.18,4.11 -3.57,3.82 -7.43,7.36 -11.16,11.03 -8.73,8.59 -19.41,14.27 -30.12,19.79 -11.86,6.11 -24.34,10.74 -37.48,13.36 -1.44,0.29 -3.13,0.43 -4.45,-0.05 -1.81,-0.66 -2.97,0.02 -4.32,0.88 -5.6,3.58 -11.17,7.23 -16.87,10.64 -7.28,4.36 -13.09,10.45 -19.5,15.84 -8.89,7.48 -12.91,17.31 -14.89,28.27 -0.8,4.42 -0.22,8.74 1.85,12.84 0.83,1.63 1.69,1.81 3.07,0.74 2.89,-2.25 5.89,-4.36 8.71,-6.69 8.86,-7.31 17.94,-14.31 27.8,-20.24 0.85,-0.51 1.74,-1.03 2.44,-1.72 5.45,-5.39 12.32,-8.26 19.2,-11.3 11.71,-5.18 23.27,-10.69 34.8,-16.26 9.35,-4.52 18.44,-9.58 27.86,-13.96 11.7,-5.44 23.85,-9.75 36.32,-13.12 3.61,-0.97 7.08,-2.41 10.68,-3.44 7.26,-2.09 14.51,-4.22 21.84,-6.02 8.31,-2.05 16.2,-4.89 23.24,-9.93 1.43,-1.02 3.53,-1.51 5.33,-1.55 4.48,-0.1 8.99,0 13.45,0.41 3.88,0.36 6.7,2.52 9.28,5.62 3.55,4.25 8.27,7.2 13.28,9.8 7.47,3.88 14.96,4.54 22.87,2.06 3.51,-1.1 5.48,0.42 6.98,3.61 2.98,6.32 -1.71,9.71 -4.64,13.81 -1.49,2.09 -3.38,3.92 -4.72,6.1 -1.83,2.96 -1.08,4.31 1.8,6.31 3.37,2.33 6.9,1.5 10.38,1.03 3.62,-0.49 7.15,-1.55 10.76,-2.16 7.04,-1.18 12.5,-5.55 18.6,-8.71 8.12,-4.2 16.65,-7.42 25.92,-8.41 5.42,-0.58 10.51,-2.58 15.04,-5.71 5.38,-3.72 11.2,-5.79 17.76,-6.63 8.84,-1.13 17.12,-4.18 25.29,-8 9.91,-4.64 20.37,-8.13 30.69,-11.84 6.5,-2.34 12.62,-5 17.23,-10.47 2.26,-2.68 5.23,-4.51 8.81,-5.34 10.69,-2.45 21.34,-4.8 32.37,-5.66 10.06,-0.79 20.22,-2.32 29.36,-7.23 1.01,-0.54 2.12,-2.1 2.1,-3.16 -0.05,-3.61 -0.49,-7.24 -0.99,-10.83 -0.22,-1.58 -0.13,-2.41 1.66,-2.86 5.76,-1.44 6.47,-1.49 7.3,4.38 0.88,6.2 0.69,12.58 0.68,18.87 0,1.19 -1.23,2.48 -2.1,3.56 -3.51,4.29 -7.1,8.52 -10.66,12.76 -0.27,0.32 -0.73,0.57 -0.82,0.93 -1.08,4.22 -4.71,3.81 -7.63,3.76 -4.14,-0.08 -6.99,1.33 -9.47,4.64 -6.12,8.14 -15.05,12.36 -24.02,16.43 -3.48,1.57 -6.97,3.11 -10.48,4.61 -8.18,3.49 -16.45,6.78 -24.55,10.46 -7.26,3.3 -14.59,6.6 -21.43,10.65 -6.15,3.64 -12.6,7.22 -16.45,13.79 -2.84,4.83 -5.37,9.73 -5.95,15.42 -0.2,1.98 -1.17,3.3 -3.12,4.09 -10.34,4.23 -21.22,6.37 -32.18,7.78 -8.04,1.03 -15.32,-1.36 -21.63,-6.96 -5.25,-4.67 -10.73,-9.26 -17.82,-11.12 -1.12,-0.3 -2.26,-0.73 -3.4,-0.74 -8.06,-0.02 -16.19,-0.49 -24.03,1.76 -3.55,1.02 -6.96,2.72 -10.19,4.56 -3.16,1.8 -3.44,4.85 -1.5,7.84 4.86,7.48 7.96,15.4 4.97,24.46 -0.9,2.74 -1.72,5.69 -3.37,7.96 -2.23,3.05 -7.27,3.4 -10.43,1.69 -2.25,-1.22 -2.74,-2.91 -2.29,-5.18 0.51,-2.59 1.32,-5.18 1.37,-7.78 0.04,-1.98 -1.08,-3.94 -1.37,-5.96 -0.43,-3.03 -0.44,-6.12 -0.88,-9.16 -0.29,-1.99 -1,-3.91 -1.53,-5.87 -0.36,-0.06 -0.73,-0.13 -1.09,-0.19 -0.97,1.91 -2.14,3.74 -2.85,5.74 -1.74,4.85 -3.28,9.77 -4.87,14.67 -1.06,3.27 -2.82,5.88 -5.93,7.68 -4.6,2.66 -5.65,7.18 -2.34,11.34 2.97,3.74 6.57,6.98 9.84,10.49 0.52,0.56 0.99,1.34 1.1,2.07 0.37,2.53 0.55,5.1 0.83,7.64 0.31,2.76 -0.63,5.1 -2.51,7.04 -2.77,2.87 -5.51,5.79 -8.45,8.49 -4.97,4.57 -11.09,7.26 -17.22,9.83 -1.38,0.58 -3.15,0.65 -4.66,0.42 -3.77,-0.58 -7.72,-0.94 -11.16,-2.41 -2.38,-1.01 -4.43,-3.45 -5.93,-5.71 -2.27,-3.42 -4.7,-5.91 -9.15,-5.81 -0.8,0.02 -2,-1.1 -2.35,-1.96 -0.48,-1.17 -0.33,-2.6 -0.43,-3.93 -0.2,-2.59 -0.75,-4.84 -2.64,-7 -3.16,-3.59 -5.91,-7.58 -8.51,-11.61 -0.96,-1.49 -1.5,-3.61 -1.36,-5.38 0.78,-9.95 4.6,-17.32 15.26,-20.74 3.23,-1.04 6.54,-2.22 9.37,-4.02 2.37,-1.5 4.66,-3.7 6.01,-6.13 4.88,-8.78 12.76,-11.56 22.05,-12 2.9,-0.14 5.81,-0.28 8.7,-0.55 0.64,-0.06 1.38,-0.53 1.81,-1.03 1.79,-2.07 3.46,-4.25 5.22,-6.34 1.88,-2.24 1.83,-5.01 1.16,-7.38 -1.58,-5.58 -3.66,-11.03 -5.68,-16.47 -0.34,-0.93 -1.33,-1.69 -2.15,-2.36 -3.05,-2.45 -6.22,-4.74 -9.21,-7.25 -2.39,-2 -4.23,-5.02 -6.93,-6.19 -4.51,-1.97 -9.48,-2.79 -14.22,0.08 -1.77,1.07 -3.55,2.19 -5.47,2.94 -4.61,1.79 -8.21,4.94 -11.9,8.07 -2.11,1.79 -4.63,3.09 -6.98,4.59 -1.81,1.16 -3.63,2.31 -5.46,3.45 -9.37,5.86 -18.73,11.73 -28.11,17.58 -13.09,8.16 -26.58,15.53 -41.45,19.94 -3.85,1.14 -7.99,1.28 -11.97,2.02 -4.14,0.77 -8.45,1.18 -12.33,2.67 -13.72,5.26 -28.03,8.28 -42.29,11.48 -6.1,1.37 -10.93,4.64 -14.96,9.19 -6,6.78 -11.77,13.77 -17.85,20.48 -2.09,2.31 -4.65,4.28 -7.24,6.04 -11.05,7.51 -18.54,17.82 -24.59,29.55 -3.68,7.14 -8.03,13.99 -12.6,20.61 -1.45,2.09 -4.43,3.42 -6.98,4.4 -4.76,1.82 -5.33,2.49 -4.04,7.53 2.96,11.56 5.64,23.21 8.96,34.67 2.55,8.81 6.38,17.1 12.84,23.95 2.91,3.09 5.07,6.64 6.29,10.86 2.62,9.04 4.87,18.09 4.93,27.6 0.02,3.02 0.64,6.18 1.66,9.04 2.72,7.57 5.67,15.07 8.88,22.45 0.79,1.82 2.87,3.1 4.41,4.58 1.31,1.25 2.69,2.43 4.04,3.64 -0.14,0.24 -0.27,0.47 -0.41,0.71 -0.6,0.08 -1.21,0.23 -1.81,0.23 -35.81,-0.01 -71.62,0.01 -107.43,-0.09 -5.48,-0.01 -10.96,-0.63 -16.45,-0.74 -2.36,-0.05 -4.75,0.41 -7.11,0.73 -1.58,0.21 -2.69,0.23 -3.5,-1.68 -4.23,-10.02 -8.55,-20.01 -13.05,-29.92 -3.32,-7.31 -0.37,-13.28 3.71,-18.99 2.57,-3.6 6.07,-6.05 10.37,-7.44 1.6,-0.52 3.14,-1.58 4.41,-2.73 3.01,-2.74 5.67,-5.88 8.8,-8.47 3.07,-2.54 3.7,-5.68 2.95,-9.14 -1.07,-4.93 -2.09,-9.97 -3.99,-14.6 -1.41,-3.44 -4.22,-6.29 -6.34,-9.45 -1.06,-1.58 -1.94,-3.28 -2.93,-4.91 -1.88,-3.11 -3.9,-6.13 -5.64,-9.31 -3.12,-5.7 -4.73,-11.72 -2.6,-18.15 1.07,-3.23 2.43,-6.38 3.95,-9.42 0.83,-1.67 2.06,-3.26 3.45,-4.49 1.4,-1.24 1.87,-2.58 1.41,-4.18 -1.32,-4.62 -2.51,-9.3 -4.25,-13.77 -2.56,-6.58 -5.53,-12.99 -8.34,-19.47 -4.64,-10.66 -9.56,-21.21 -13.85,-32.02 -3.39,-8.53 -7.72,-16.89 -8.44,-26.23 -0.64,-8.35 -1.13,-16.81 1.59,-24.98 2.01,-6.06 6.14,-10.78 11.65,-13.42 3.26,-1.56 7.68,-1.16 11.53,-0.89 5.09,0.35 9.86,-0.32 14.69,-1.86 7.83,-2.5 15.71,-4.96 23.72,-6.75 6.13,-1.37 12.54,-1.48 18.76,-2.54 10.6,-1.81 21.22,-3.09 32,-2.87 0.42,0.01 0.86,-0.09 1.24,0.03 6.22,1.98 10.72,-1.66 15.18,-4.89 4.79,-3.48 9.54,-6.97 15.15,-8.96 1.45,-0.51 3.7,-0.88 4.7,-0.14 4.69,3.48 9.69,2.42 14.35,0.92 7.74,-2.5 15.27,-5.68 22.81,-8.74 1.55,-0.63 3.04,-1.81 4.16,-3.08 6.53,-7.41 13.72,-13.78 23.57,-16.43 2.32,-0.63 4.51,-1.77 6.85,-2.32 2.97,-0.69 4.01,-2.64 4.26,-5.35 0.5,-5.53 4.11,-8.71 9.64,-8.44 1.66,0.08 3.34,0.1 4.94,0.48 0.8,0.19 1.72,0.96 2.1,1.72 1.19,2.36 2.16,4.83 3.39,7.65 z"
   id="path1"
   style="fill:#2480a7;fill-opacity:1" />
</g>
</svg>
