<?xml version="1.0" encoding="utf-8"?>
<!-- Generator: Adobe Illustrator 27.2.0, SVG Export Plug-In . SVG Version: 6.00 Build 0)  -->
<svg version="1.1" id="Layer_0_xA0_Image_00000170279226455330155820000018145786954893719459_"
	 xmlns="http://www.w3.org/2000/svg" xmlns:xlink="http://www.w3.org/1999/xlink" x="0px" y="0px" viewBox="0 0 833 639"
	 style="enable-background:new 0 0 833 639;" xml:space="preserve">
<g>
	<path d="M406.73,305.07c-1.11,3.04-1.53,6.39,0.01,9.95c1.09,2.49,1.6,5.23,2.43,7.84c0.19,0.59,0.56,1.2,1.01,1.63
		c3.52,3.29,6.94,6.7,10.66,9.74c6.33,5.18,9.95,12.15,13.4,19.27c1.89,3.88,3.44,7.95,5.58,11.68c1.33,2.32,3.24,4.48,5.34,6.15
		c3.99,3.17,6.18,7.33,7.74,11.97c0.32,0.94,0.53,1.93,0.78,2.89c3.18,12.25,10.69,21.19,21.42,27.52c3.18,1.88,5.24,4.18,5.66,7.94
		c0.2,1.8,0.97,3.53,1.34,5.32c0.7,3.36,2.79,5.37,5.69,7.12c8.17,4.93,15.86,10.61,20.57,19.15c5.46,9.9,12.75,18.4,19.53,27.31
		c3.77,4.95,7.63,9.84,11.1,14.99c2.55,3.78,4.59,7.9,6.76,11.93c0.89,1.65,0.17,2.73-1.66,2.89c-3.42,0.29-6.76,0.27-10.07-0.99
		c-3.8-1.45-7.73-1.71-11.76-0.7c-2.5,0.62-4.78-0.68-5.72-3.26c-1.23-3.35-2.39-6.74-3.28-10.2c-0.87-3.4-3.28-5.02-6.3-5.68
		c-8.39-1.83-12.87-7.76-16.14-14.99c-1.63-3.6-3.71-6.59-6.83-9.26c-3.19-2.74-5.54-6.57-7.84-10.2c-1.81-2.86-3.09-6.09-4.41-9.23
		c-1.34-3.21-3.63-5.32-6.78-6.6c-1.47-0.59-2.92-1.37-4.45-1.61c-4.74-0.77-7.3-3.86-9.81-7.66c-5.3-8.04-10.97-15.85-16.79-23.52
		c-4.14-5.45-5.58-11.76-7.22-18.15c-0.85-3.3-2.42-6.51-4.19-9.45c-1.91-3.18-4.37-6.04-6.69-8.97c-2.88-3.64-5.81-7.25-8.84-10.76
		c-1.18-1.37-2.58-2.64-4.09-3.64c-2.57-1.71-3.64-3.99-3.39-6.99c0.02-0.25,0-0.5,0-0.75c0.07-4.9,0.08-4.92-4.63-5.91
		c-1.87-0.39-2.72-1.31-2.83-3.41c-0.27-5.12-3.03-9.05-7.07-11.93c-2.45-1.75-8.43-0.41-10.3,2.11c-1.53,2.06-2.66,4.4-4.09,6.54
		c-1.54,2.31-2.92,4.84-4.89,6.74c-8.98,8.65-18.29,16.96-27.2,25.69c-7.24,7.09-13.28,15.22-17.11,24.65
		c-1.92,4.71-2.99,9.86-3.82,14.91c-1.55,9.51-2.38,19.15-4.06,28.63c-0.8,4.54-3.03,8.8-4.28,13.28
		c-2.02,7.22-2.85,14.61-3.2,22.11c-0.22,4.77-1.2,9.54-2.16,14.24c-0.49,2.41-2.06,2.71-3.63,0.78c-3.51-4.3-6.81-8.76-10.26-13.11
		c-1.13-1.42-2.26-3-3.75-3.95c-1.77-1.14-2.09-2.51-1.61-4.23c1.9-6.72,3.94-13.4,5.78-20.14c0.83-3.02,1.54-6.11,1.89-9.22
		c1.65-14.54,2.89-29.11,8.41-42.94c2.49-6.24,3.84-12.97,7.7-18.62c5.35-7.83,10.9-15.52,16.37-23.27c0.14-0.2,0.37-0.37,0.46-0.59
		c3.11-6.97,9.62-10.55,15.09-15.16c3.54-2.99,7.41-5.69,8.89-10.48c0.62-1.99,2.09-2.92,4.31-3.16c5.45-0.58,10.87-1.41,16.3-2.18
		c2.95-0.42,3.47-0.94,2.32-3.73c-1.35-3.26-3.05-6.45-5.04-9.37c-3.51-5.15-7-10.39-11.16-15c-4.68-5.18-6.82-11.49-9.63-17.57
		c-0.47-1.01-1.83-1.97-2.94-2.24c-3.28-0.78-5.92-2.43-7.52-5.32c-1.64-2.96-3.03-6.08-4.26-9.24c-0.74-1.89-1.59-2.92-3.79-2.69
		c-3.48,0.36-5.42-2.28-7.42-4.41c-4.21-4.48-8.1-9.25-12.31-13.72c-4.33-4.6-8.78-9.09-13.36-13.45c-2.74-2.62-5.86-4.84-8.72-7.35
		c-0.92-0.81-1.74-1.85-2.29-2.94c-3.67-7.29-9.05-13.32-14.16-19.56c-1.47-1.8-2.75-3.76-4.07-5.67
		c-4.47-6.49-8.88-13.02-13.39-19.48c-1.28-1.83-2.9-3.42-4.26-5.19c-1.26-1.63-2.58-3.27-3.55-5.07c-1.29-2.42-0.91-4.13,1.5-5.53
		c4.17-2.41,8.45-4.65,12.82-6.67c2.54-1.18,5.83,0.42,7.88,3.23c1.91,2.62,3.83,5.23,5.8,7.8c2.1,2.75,2.09,3.1-0.54,5.21
		c-0.38,0.3-0.7,0.66-1.26,1.19c1.78,2.85,3.52,5.67,5.3,8.46c4.37,6.87,8.72,13.76,13.16,20.59c1.35,2.08,2.76,4.19,4.48,5.95
		c6.06,6.16,12.31,12.15,18.42,18.26c3.76,3.75,7.3,7.74,11.16,11.38c2.4,2.26,5.07,4.36,7.93,5.96c1.29,0.72,3.43,0.3,5.08-0.05
		c3.88-0.83,5.45-0.24,7.36,3.23c2.53,4.57,5.42,8.89,6.7,14.14c0.46,1.87,2.9,3.53,4.78,4.72c2.13,1.35,3.59,2.91,4.09,5.35
		c0.42,2.07,1.71,3.13,3.73,3.49c3.44,0.62,6.13,1.95,6.5,6.05c0.07,0.76,1.49,1.9,2.37,1.99c4.61,0.47,7.22,2.69,8.07,7.37
		c0.34,1.85,1.35,4.03,2.77,5.16c4.86,3.87,9.98,7.43,15.16,10.87c1,0.66,2.75,0.32,4.14,0.26c5.41-0.21,6.89-4.85,9.79-8.22
		c5.68-6.59,11.99-12.65,18.26-18.69c2.79-2.69,5.86-5.04,7.85-8.52c-0.35-0.13-0.53-0.28-0.63-0.24c-4.36,1.81-6.02,0.96-9.59-2.32
		c-5.67-5.23-5.18-11.09-2.79-17.36c2.83-7.41,6.74-14.18,11.18-20.81c7.43-11.08,15.26-22.07,18.55-35.37
		c0.2-0.8,0.49-1.61,0.54-2.42c0.55-9.57,7.19-14.26,16.73-11.51c-0.53-4.04-0.95-7.99-1.59-11.9c-1.12-6.86,1.07-13.17,3.07-19.51
		c0.77-2.44,1.72-4.84,2.84-7.14c1.34-2.75,3.55-4.44,6.7-5.02c4-0.74,7.94-1.85,11.92-2.71c3.38-0.73,6.08-2.54,8.59-4.83
		c0.7-0.64,2.07-1.3,2.72-1.01c0.69,0.3,1.11,1.69,1.24,2.67c0.15,1.13-0.28,2.32-0.2,3.47c0.21,3.03-0.05,6.29,0.98,9.04
		c2.65,7.07,2.84,14.3,2.47,21.64c-0.17,3.38-0.16,6.84-0.95,10.09c-0.95,3.91-2.71,7.62-3.99,11.47c-0.47,1.42-0.96,3.03-0.76,4.46
		c0.62,4.38-0.99,8.25-2.49,12.09c-1.81,4.64-3.96,9.15-6.08,13.66c-1.51,3.2-4.03,5.44-7.23,6.95c-1.95,0.93-3.9,1.89-5.73,3.03
		c-1.17,0.73-2.44,1.63-3.14,2.77c-5.76,9.44-11.4,18.95-17.06,28.44c-1.44,2.41-2.92,4.81-4.19,7.31c-0.48,0.96-0.82,2.34-0.5,3.28
		c2.79,8.24-0.14,14.89-4.84,21.62c-4.42,6.32-9.36,11.95-15.74,16.13c-5.07,3.33-10.64,5.81-16.79,6.67
		c-2.05,0.28-4.03,1.03-6.07,1.36C412.18,304.55,409.56,304.75,406.73,305.07z M469.87,178.16c-2,0.96-4.12,1.27-4.76,2.41
		c-1.78,3.16-3.06,6.62-4.32,10.04c-3.75,10.21-7.13,20.56-11.16,30.66c-2.98,7.47-6.74,14.63-10.15,21.93
		c-2.02,4.31-1.38,6.09,2.8,7.72c4.86,1.89,6.82,1.19,9.25-3.34c1.5-2.79,2.85-5.66,4.52-8.34c3.43-5.49,6.98-10.9,10.56-16.28
		c2.14-3.21,4.44-6.32,6.72-9.56c-2.76-0.66-5.3-1.53-6.26-4.42c-1.44-4.34-1.86-8.73-0.82-13.27
		C467.51,190.22,468.54,184.68,469.87,178.16z"/>
</g>
</svg>
