<?xml version="1.0" encoding="utf-8"?>
<!-- Generator: Adobe Illustrator 27.2.0, SVG Export Plug-In . SVG Version: 6.00 Build 0)  -->
<svg version="1.1" id="Layer_0_xA0_Image_00000129196214033730905980000005615450163822838912_"
	 xmlns="http://www.w3.org/2000/svg" xmlns:xlink="http://www.w3.org/1999/xlink" x="0px" y="0px" viewBox="0 0 601 570"
	 style="enable-background:new 0 0 601 570;" xml:space="preserve">
<g>
	<path d="M142.6,362.29c-3.98-5.53-6.94-11.21-6.96-17.74c4.19-0.31,8.12-0.25,11.9-0.95c13.07-2.42,26.12-4.97,39.11-7.79
		c3.26-0.71,6.24-2.68,9.39-3.99c10.9-4.53,21.82-9.02,32.72-13.57c0.64-0.27,1.2-0.81,1.69-1.32c7.27-7.64,14.44-15.39,21.81-22.93
		c4.93-5.05,10.03-9.96,15.29-14.67c4.01-3.59,8.38-6.79,12.63-10.12c1.82-1.43,4.08-2.47,5.5-4.2c1.05-1.28,1.23-3.39,1.51-5.17
		c1.17-7.53,2.15-15.1,3.4-22.62c0.33-2,0.28-3.13-1.9-3.96c-6.75-2.57-13.44-5.3-20.07-8.15c-2.49-1.07-4.89-1.34-7.52-0.9
		c-9.93,1.68-19.86,3.3-29.8,4.9c-0.61,0.1-1.4,0.04-1.89-0.28c-5.01-3.23-9.96-6.55-14.95-9.8c-1.67-1.09-3.32-2.27-5.15-3.01
		c-1.83-0.74-2.43-1.81-2.59-3.73c-0.54-6.27-1.34-12.53-1.93-18.8c-0.06-0.63,0.6-1.78,1.14-1.93c9.29-2.58,18.53-5.39,27.95-7.38
		c3.85-0.81,8.09,0.26,12.16,0.38c10.63,0.3,21.26,0.54,31.9,0.82c5.51,0.14,10.76-0.43,16-2.74c5.9-2.61,12.24-4.22,18.41-6.2
		c1.54-0.5,2.7,0.05,3.47,1.58c0.74,1.46,2.47,2.87,2.35,4.18c-0.12,1.28-1.95,2.47-3.14,3.58c-4.31,4.01-8.69,7.96-13,11.98
		c-0.57,0.53-1.01,1.26-1.35,1.98c-1.26,2.72-2.56,5.42-3.58,8.23c-0.27,0.75,0.14,2,0.65,2.72c0.85,1.21,2.29,2.03,3.02,3.28
		c1.6,2.74,3.81,2.98,6.6,2.44c4.89-0.94,9.85-1.51,14.71-2.53c2.46-0.52,5.07-1.26,7.13-2.63c10.39-6.89,20.62-14.02,30.92-21.05
		c4.59-3.14,9.23-6.2,13.82-9.35c1.71-1.17,3.37-1.71,5.63-0.08c-1.18,4.13-2.38,8.42-3.66,12.7c-0.15,0.51-0.64,0.97-1.07,1.33
		c-10.66,9.13-21.41,18.16-31.96,27.42c-4.17,3.67-7.8,7.94-11.83,11.79c-8.09,7.72-15.2,16.27-21.69,25.35
		c-3.05,4.26-5.86,8.78-9.45,12.53c-4.81,5.02-10.3,9.38-15.46,14.07c-4.43,4.02-8.78,8.13-13.2,12.16
		c-6.81,6.21-13.69,12.35-20.44,18.63c-0.84,0.78-1.64,2.24-1.54,3.3c0.55,6.2,1.43,12.36,2.06,18.55c0.23,2.27,1.65,2.05,3.18,2.01
		c10.13-0.27,20.26-0.71,30.39-0.73c11.87-0.02,23.75,0.38,35.62,0.51c10.03,0.11,19.22,3.44,28.23,7.33
		c2.12,0.92,3.84,2.8,5.66,4.35c6.11,5.22,12.2,10.46,18.22,15.79c0.47,0.42,0.7,1.94,0.36,2.32c-2.78,3.08-5.69,6.05-8.63,8.98
		c-1.14,1.14-2.38,0.94-3.52-0.17c-4.63-4.53-9.26-9.07-13.91-13.58c-2.27-2.2-4.57-4.36-6.9-6.49c-0.33-0.3-0.87-0.48-1.32-0.51
		c-8.44-0.49-16.87-1.08-25.32-1.37c-10.54-0.37-21.09-0.45-31.64-0.72c-8.23-0.21-16.45-0.75-24.67-0.74
		c-14.7,0.02-29.39,0.4-44.09,0.54c-15.2,0.15-30.4,0.03-45.6,0.42c-4.15,0.11-8.29,1.55-12.4,2.53
		C150.86,360,146.78,361.18,142.6,362.29z"/>
</g>
</svg>
