<?xml version="1.0" encoding="UTF-8" standalone="no"?>
<!-- Generator: Adobe Illustrator 27.2.0, SVG Export Plug-In . SVG Version: 6.00 Build 0)  -->

<svg
   version="1.1"
   id="Calque_1"
   x="0px"
   y="0px"
   viewBox="0 0 299.10558 401.06365"
   xml:space="preserve"
   sodipodi:docname="e_lowercase.svg"
   width="299.10559"
   height="401.06366"
   inkscape:version="1.4 (e7c3feb1, 2024-10-09)"
   xmlns:inkscape="http://www.inkscape.org/namespaces/inkscape"
   xmlns:sodipodi="http://sodipodi.sourceforge.net/DTD/sodipodi-0.dtd"
   xmlns="http://www.w3.org/2000/svg"
   xmlns:svg="http://www.w3.org/2000/svg"><defs
   id="defs1" /><sodipodi:namedview
   id="namedview1"
   pagecolor="#ffffff"
   bordercolor="#000000"
   borderopacity="0.25"
   inkscape:showpageshadow="2"
   inkscape:pageopacity="0.0"
   inkscape:pagecheckerboard="0"
   inkscape:deskcolor="#d1d1d1"
   inkscape:zoom="0.030882894"
   inkscape:cx="129.52154"
   inkscape:cy="194.28231"
   inkscape:window-width="1120"
   inkscape:window-height="1011"
   inkscape:window-x="7"
   inkscape:window-y="33"
   inkscape:window-maximized="0"
   inkscape:current-layer="Calque_1" />
<path
   d="m 50.336718,204.42815 c -5.47,-10.92 -10.75,-21.5 -16.07,-32.06 -6.11,-12.12 -11.9,-24.42 -18.52,-36.26 -3.8,-6.78 -7.9700003,-13.16 -8.7800003,-21.16 -1.62,-16.029997 -3.5,-32.029997 -5.14,-48.059997 -0.75,-7.4 -1.13999997,-14.83 -1.73999997,-22.24 -0.83,-10.21 4.49999997,-18.8 7.36999997,-28.02 0.93,-3 2.47,-5.81 3.7700003,-8.6900003 3.62,-7.97999997 13.59,-10.41 20.66,-5.14 5.93,4.42 11.94,8.7400003 17.95,13.0600003 4.33,3.11 8.35,3.48 13.55,0.8 10.91,-5.63 21.56,-12.4900003 34.3,-13.1700003 4.100002,-0.22 8.750002,0.29 12.360002,2.07 23.55,11.5900003 46.83,23.7200003 70.29,35.4700003 20.31,10.18 40.81,19.98 61.1,30.2 5.06,2.55 9.57,6.15 14.45,9.08 11.24,6.74 22.63,13.21 33.79,20.069997 6.25,3.85 10.86,9.22 9.02,17.17 -0.88,3.79 -3.32,7.24 -5.24,10.74 -4.39,7.99 -9.87,15.15 -17.52,20.24 -4.74,3.16 -4.75,6.71 -3.32,11.72 2.19,7.67 4.41,15.62 4.55,23.48 0.07,4.08 -4.16,8.32 -6.78,12.26 -0.42,0.63 -2.62,0.13 -3.99,0.07 -4.63,-0.22 -9.26,-0.63 -13.9,-0.69 -6.64,-0.09 -13.3,0.34 -19.93,0.04 -12.74,-0.58 -24.84,2.55 -36.82,6.14 -8.59,2.57 -12.28,11.81 -10.5,20.37 1.24,5.98 0.55,12.51 -0.16,18.69 -0.6,5.23 0.86,10.22 5.68,12.03 6.6,2.49 13.37,4.54 20.14,6.52 6.65,1.95 13.57,3.11 20.05,5.49 6.06,2.23 7.05,4.65 4.92,10.74 -4,11.45 -7.61,23.16 -12.95,33.99 -5.3,10.76 -8.54,22.02 -12.27,33.27 -4.66,14.06 -10.53,27.72 -15.81,41.58 -0.73,1.91 -1.22,3.94 -1.54,5.95 -1.55,9.9 -9.19,13.53 -18.27,8.88 -4.61,-2.36 -9.4,-4.46 -14.29,-6.15 -9.67,-3.34 -15.65,-10.56 -20.2,-19.06 -7.23,-13.5 -13.65,-27.44 -21.24,-40.72 -2.53,-4.42 -7.43,-7.6 -11.55,-10.98 -7.09,-5.81 -14.460002,-11.28 -21.640002,-16.98 -1.72,-1.36 -3.09,-3.16 -4.71,-4.65 -8.62,-7.9 -17.3,-15.74 -25.89,-23.67 -5.55,-5.13 -10.89,-10.5 -16.5,-15.55 -4.69,-4.22 -10.04,-7.75 -14.39,-12.27 -7.45,-7.75 -9.85,-13.99 -0.57,-23.2 6.98,-6.92 15.15,-12.64 22.81,-18.88 1.01,-0.8 2.06,-1.49 3.47,-2.52 z m 153.980002,-51.9 c 3.53,4.76 7,6.8 11.65,6.41 2.64,-0.22 5.36,-0.27 7.97,0.12 3.73,0.56 13.82,-4.31 14.98,-7.76 0.29,-0.86 -0.11,-2.11 -0.53,-3.04 -3.6,-7.95 -4.22,-8.3 -12.97,-7.94 -1.42,0.06 -2.84,0.09 -4.26,0.02 -2.86,-0.13 -4.43,0.98 -5.68,3.79 -1.12,2.5 -3.37,4.68 -5.58,6.44 -1.45,1.18 -3.69,1.35 -5.58,1.96 z"
   id="path1"
   style="fill:#2480a7;fill-opacity:1" />
</svg>
