<?xml version="1.0" encoding="utf-8"?>
<!-- Generator: Adobe Illustrator 27.2.0, SVG Export Plug-In . SVG Version: 6.00 Build 0)  -->
<svg version="1.1" id="Layer_0_xA0_Image_00000083071526461954638140000002010114550807127473_"
	 xmlns="http://www.w3.org/2000/svg" xmlns:xlink="http://www.w3.org/1999/xlink" x="0px" y="0px" viewBox="0 0 833 639"
	 style="enable-background:new 0 0 833 639;" xml:space="preserve">
<g>
	<path d="M399.41,449.83c-7.29,0-14.58,0.16-21.86-0.06c-4.71-0.14-5.76-1.51-4.64-6.13c2.06-8.5,4.43-16.92,6.69-25.37
		c3.22-12.09,6.35-24.21,9.8-36.23c0.48-1.68,2.6-2.92,4.02-4.3c2.14-2.09,4.71-3.86,6.41-6.26c1.93-2.72,1.31-5.82-1.57-7.65
		c-2.78-1.77-5.59-3.37-8.99-0.12c-4.68,4.48-7.75,9.59-9.82,15.73c-2.08,6.18-4.92,12.14-7.86,17.97
		c-4.87,9.63-9.94,19.16-15.21,28.57c-3.42,6.09-7.4,11.86-11.04,17.83c-2.8,4.58-7.11,6.57-12.16,6.48
		c-7.71-0.13-15.5-0.24-23.11-1.32c-10.21-1.46-20.28-3.82-30.4-5.86c-3.59-0.72-4.97-2.75-6.08-6.62
		c-2.09-7.33,0.55-13.58,2.61-19.93c9.03-27.84,18.2-55.64,27.66-83.34c8.09-23.7,16.1-47.46,25.16-70.8
		c7-18.05,15.7-35.44,23.41-53.22c5.86-13.5,11.45-27.11,16.95-40.76c1.51-3.74,2.28-7.78,3.33-11.69
		c2.15-7.98,9.16-13.27,17.35-14.31c9.3-1.18,18.29-0.05,27.34,1.77c13.25,2.66,21.21,11,23.36,23.8c1.35,8.04,0.14,16.5,0.09,24.78
		c-0.08,15.82-4.34,30.78-9.13,45.69c-1.86,5.79-2.72,11.9-4.05,17.86c-1.06,4.75,1.32,7.55,5.43,9.12
		c9.9,3.77,19.65,8.11,29.82,10.9c10.23,2.8,17.61,8.73,23.72,16.85c4.37,5.8,8.7,11.64,12.94,17.53c0.72,1.01,1.28,2.42,1.26,3.64
		c-0.14,10.6,0.33,21.3-0.91,31.78c-1.1,9.32-4.16,18.41-6.34,27.61c-0.8,3.4-1.6,6.8-2.34,10.22c-4.1,18.89-12.14,35.89-27.5,47.92
		c-13.91,10.89-29.63,18.73-48.13,18.53c-5.4-0.06-10.8-0.01-16.2-0.01C399.41,450.23,399.41,450.03,399.41,449.83z"/>
</g>
</svg>
