<?xml version="1.0" encoding="UTF-8" standalone="no"?>
<!-- Generator: Adobe Illustrator 27.2.0, SVG Export Plug-In . SVG Version: 6.00 Build 0)  -->

<svg
   version="1.1"
   id="Layer_0_xA0_Image_00000038382678156003785170000004377155547779352463_"
   x="0px"
   y="0px"
   viewBox="0 0 115.47601 388.0307"
   xml:space="preserve"
   sodipodi:docname="j_lowercase.svg"
   width="115.47601"
   height="388.0307"
   inkscape:version="1.4 (e7c3feb1, 2024-10-09)"
   xmlns:inkscape="http://www.inkscape.org/namespaces/inkscape"
   xmlns:sodipodi="http://sodipodi.sourceforge.net/DTD/sodipodi-0.dtd"
   xmlns="http://www.w3.org/2000/svg"
   xmlns:svg="http://www.w3.org/2000/svg"><defs
   id="defs2" /><sodipodi:namedview
   id="namedview2"
   pagecolor="#ffffff"
   bordercolor="#000000"
   borderopacity="0.25"
   inkscape:showpageshadow="2"
   inkscape:pageopacity="0.0"
   inkscape:pagecheckerboard="0"
   inkscape:deskcolor="#d1d1d1"
   inkscape:zoom="0.039039039"
   inkscape:cx="76.846154"
   inkscape:cy="204.92308"
   inkscape:window-width="1120"
   inkscape:window-height="1011"
   inkscape:window-x="7"
   inkscape:window-y="33"
   inkscape:window-maximized="0"
   inkscape:current-layer="Layer_0_xA0_Image_00000038382678156003785170000004377155547779352463_" />
<g
   id="g2"
   style="fill:#2480a7;fill-opacity:1"
   transform="translate(-367.50376,-136.49192)">
	<path
   d="m 480.77,513.29 c -0.91,2.88 -1.56,5.12 -2.32,7.32 -0.76,2.19 -2.39,3.32 -4.68,3.55 -5.83,0.57 -11.69,0.62 -17.34,-0.98 -5.98,-1.69 -11.97,-3.49 -17.68,-5.91 -4.16,-1.76 -7.9,-4.56 -11.77,-6.99 -3.31,-2.08 -6.6,-4.18 -9.78,-6.45 -5.28,-3.77 -9.74,-8.45 -12.84,-14.1 -4.41,-8.03 -10.47,-14.76 -16.1,-21.85 -6.4,-8.07 -13.43,-15.8 -16.66,-25.84 -1.72,-5.35 -2.87,-10.91 -3.89,-16.44 -0.74,-4.02 0.55,-7.7 3.25,-10.87 2.23,-2.62 3.52,-6.01 7.01,-7.58 3.45,-1.56 7.36,-0.76 8.89,2.71 2.88,6.52 5.4,13.19 8.06,19.81 0.25,0.61 0.41,1.26 0.6,1.9 1.54,5.11 4.24,8.17 10.24,8.71 5.89,0.53 11.82,2.3 16.02,7.22 0.43,0.51 0.87,1.01 1.27,1.54 2.38,3.16 4.43,6.55 8.32,8.32 1.84,0.84 3.28,2.52 4.94,3.77 1.24,0.94 2.39,1.31 2.97,-0.73 1.5,-5.29 2.93,-10.42 0.86,-16.07 -2.29,-6.22 -3.56,-12.81 -5.72,-19.08 -3.13,-9.1 -3.8,-18.55 -4.42,-27.99 -0.51,-7.78 -1.91,-15.32 -4.2,-22.73 -2.01,-6.51 -3.87,-13.08 -5.95,-19.57 -1.04,-3.24 -2.49,-6.35 -3.6,-9.57 -2.48,-7.21 -4.87,-14.45 -7.29,-21.69 -1.05,-3.15 -2.19,-6.29 -3.09,-9.49 -2.63,-9.33 -2.23,-18.59 0.91,-27.73 1.27,-3.69 3.82,-5.49 7.75,-6.46 4.77,-1.17 6.73,1.98 9.32,4.51 0.53,0.52 0.86,1.31 1.46,1.68 4.35,2.68 6.42,7.02 8.58,11.37 3.24,6.55 7.01,12.86 9.9,19.56 2.56,5.93 4.79,12.12 6.19,18.41 3.78,16.94 6.95,34.03 10.56,51.01 1.59,7.47 3.72,14.83 5.47,22.27 1.33,5.66 2.43,11.37 3.67,17.05 1.17,5.35 2.44,10.69 3.6,16.04 2.58,11.92 5,23.88 7.7,35.78 1.86,8.19 2.33,16.45 1.79,24.76 -0.27,3.85 -1.4,7.66 -2,10.83 z"
   id="path1"
   style="fill:#2480a7;fill-opacity:1" />
	<path
   d="m 421.12,240.3 c -0.1,0.49 -0.21,0.98 -0.29,1.47 -0.62,3.82 -1.61,4.13 -5.18,2.9 -3.91,-1.35 -7.98,-2.43 -12.07,-3.05 -8.1,-1.23 -13.25,-6.38 -14.57,-14.4 -0.78,-4.73 -2.24,-9.36 -3.54,-13.99 -2.94,-10.49 -5.18,-21.12 -6.6,-31.92 -0.53,-4.03 -0.86,-8.08 -1.37,-12.11 -0.71,-5.67 -1.75,-11.32 -2.15,-17.02 -0.19,-2.65 1.01,-5.37 1.16,-8.08 0.37,-6.98 2.34,-8.26 11.04,-7.35 5.94,0.62 10.95,3.39 14.25,8.93 2.59,4.33 5.96,8.18 8.78,12.39 1.13,1.68 2.17,3.67 2.42,5.63 0.57,4.42 2.31,8.29 4.42,12.1 0.68,1.22 1.29,2.58 1.48,3.94 1.62,11.6 3.76,23.17 4.46,34.83 0.51,8.54 -0.92,17.19 -1.49,25.8 -0.25,-0.04 -0.5,-0.05 -0.75,-0.07 z"
   id="path2"
   style="fill:#2480a7;fill-opacity:1" />
</g>
</svg>
