<?xml version="1.0" encoding="UTF-8" standalone="no"?>
<!-- Generator: Adobe Illustrator 27.2.0, SVG Export Plug-In . SVG Version: 6.00 Build 0)  -->

<svg
   version="1.1"
   id="Layer_0_xA0_Image_00000037667906334645778480000018280501507003383446_"
   x="0px"
   y="0px"
   viewBox="0 0 290.64905 445.68372"
   xml:space="preserve"
   sodipodi:docname="l_lowercase.svg"
   width="290.64905"
   height="445.68372"
   inkscape:version="1.4 (e7c3feb1, 2024-10-09)"
   xmlns:inkscape="http://www.inkscape.org/namespaces/inkscape"
   xmlns:sodipodi="http://sodipodi.sourceforge.net/DTD/sodipodi-0.dtd"
   xmlns="http://www.w3.org/2000/svg"
   xmlns:svg="http://www.w3.org/2000/svg"><defs
   id="defs1" /><sodipodi:namedview
   id="namedview1"
   pagecolor="#ffffff"
   bordercolor="#000000"
   borderopacity="0.25"
   inkscape:showpageshadow="2"
   inkscape:pageopacity="0.0"
   inkscape:pagecheckerboard="0"
   inkscape:deskcolor="#d1d1d1"
   inkscape:zoom="0.041666667"
   inkscape:cx="192"
   inkscape:cy="216"
   inkscape:window-width="1120"
   inkscape:window-height="1011"
   inkscape:window-x="7"
   inkscape:window-y="33"
   inkscape:window-maximized="0"
   inkscape:current-layer="Layer_0_xA0_Image_00000037667906334645778480000018280501507003383446_" />
<g
   id="g1"
   style="fill:#2480a7;fill-opacity:1"
   transform="translate(-249.57,-105.02843)">
	<path
   d="m 249.57,250.94 c 0.64,-2.07 1.31,-3.5 1.49,-4.99 0.9,-7.51 1.38,-15.08 2.57,-22.53 0.89,-5.56 3.03,-10.91 3.91,-16.47 1.41,-8.91 5.74,-16.59 9.41,-24.57 2.15,-4.68 3.73,-9.68 6.34,-14.08 5.26,-8.83 10.02,-18.02 16.98,-25.75 1.82,-2.02 3.27,-4.4 4.75,-6.7 5.67,-8.76 12.86,-16.12 22.35,-20.37 6.51,-2.91 13.67,-4.75 20.73,-5.99 11.57,-2.03 23.33,-1.98 35.05,-0.89 3.78,0.35 7.19,-1.07 10.51,-2.57 4.36,-1.98 5.89,-1.15 6.12,3.62 0.11,2.24 -0.03,4.49 0.05,6.74 0.08,2.11 -0.13,3.32 -2.58,4.64 -7.61,4.11 -15.87,5.26 -24.14,6.57 -5.5,0.87 -11.03,1.46 -16.54,2.29 -4.84,0.73 -9.66,1.68 -14.5,2.42 -10.68,1.64 -18.78,7.67 -23.46,16.82 -5,9.77 -8.85,20.27 -11.95,30.82 -2.2,7.48 -2.74,15.55 -3.24,23.41 -0.36,5.76 0.6,11.61 0.87,17.42 0.46,9.71 0.83,19.42 1.24,29.13 0.08,1.99 0.24,3.99 0.16,5.98 -0.24,5.89 3.54,10.62 4.57,16.13 0.39,2.07 0.44,4.2 0.6,6.31 0.08,0.99 0.06,1.99 0.11,2.98 0.13,2.65 0.13,5.32 0.45,7.94 0.29,2.33 0.83,4.65 1.5,6.9 0.37,1.25 1.33,2.31 1.84,3.53 1.07,2.54 1.62,5.2 -0.14,7.62 -3.3,4.52 -2.12,9.23 -0.59,13.82 1.89,5.68 4.21,11.21 6.27,16.82 1.19,3.23 1,6.36 -0.03,9.74 -1.13,3.7 -1.36,7.67 -1.96,11.53 -0.13,0.82 -0.07,1.68 -0.26,2.48 -3.78,15.98 -5.38,32.26 -6.91,48.57 -0.88,9.4 0.88,18.05 5.13,26.26 4.02,7.76 8.3,15.39 12.61,23 1.21,2.14 2.68,4.24 4.42,5.96 4.02,3.98 9.1,5.31 14.52,4.13 9.21,-2.02 18.68,-3.04 27.24,-7.69 5.94,-3.23 11.95,-1 17.82,1.15 5.36,1.97 7.65,6.76 10.32,11.08 5.22,8.43 12.41,14.43 21.42,18.3 4.95,2.13 11.58,-0.01 15.01,-4.26 4.78,-5.92 10.93,-9.05 18.69,-8.43 0.98,0.08 1.92,0.62 2.89,0.69 2.86,0.23 5.84,0.91 8.58,0.38 7.87,-1.52 15.23,-4.62 22.29,-8.4 2.89,-1.55 4.77,-3.93 5.64,-7.22 2.4,-9.15 5.75,-17.92 11.52,-25.51 1.43,-1.89 3.63,-3.36 5.76,-4.51 1.97,-1.07 4.3,-0.93 6.03,0.81 1.68,1.69 3.51,3.38 4.68,5.41 2.57,4.48 5.08,8.93 8.74,12.68 2.12,2.17 4.34,3.76 7.41,3.29 5.97,-0.92 10.28,7.14 7.49,11.95 -5.47,9.42 -13.11,16.66 -21.94,22.37 -4.61,2.98 -10.78,3.56 -16.27,5.15 -6.23,1.8 -12.5,3.46 -18.72,5.29 -0.95,0.28 -2.03,1.01 -2.5,1.84 -4.08,7.29 -11.04,10.95 -18.13,14.29 -9.87,4.65 -20.43,6.9 -31.21,8.28 -8.15,1.05 -15.12,-1.28 -20.89,-7.1 -4.27,-4.3 -8.44,-8.69 -12.73,-12.97 -3.36,-3.35 -8.04,-3.74 -12.26,-4.24 -5,-0.59 -9.79,6.15 -8.39,11.02 1.19,4.13 1.72,8.11 1.09,12.5 -0.49,3.42 0.45,7.11 1.13,10.61 0.59,3.05 0.59,5.38 -2.66,7.1 -2.23,1.17 -4.05,3.15 -5.97,4.86 -3.63,3.21 -6.33,3.3 -9.42,-0.49 -4.51,-5.54 -8.58,-11.42 -12.99,-17.04 -3.93,-5.01 -8.03,-9.89 -12.17,-14.74 -0.56,-0.66 -1.83,-1.23 -2.64,-1.08 -7.83,1.44 -14.52,-1.79 -21.2,-5.03 -4.26,-2.06 -8.62,-3.94 -12.68,-6.33 -6.08,-3.57 -9.18,-9.1 -9.65,-16.18 -0.49,-7.3 -1.07,-14.6 -1.79,-21.89 -0.56,-5.67 -2.4,-10.75 -6.74,-14.87 -3.17,-3.01 -5.91,-6.51 -8.67,-9.93 -2.37,-2.94 -3.3,-6.5 -3.52,-10.23 -0.33,-5.48 -0.2,-10.89 0.52,-16.4 0.84,-6.39 0.22,-12.96 0.7,-19.42 1.02,-13.76 -0.46,-27.24 -3.98,-40.51 -1.21,-4.56 -3.12,-8.94 -4.43,-13.48 -2.09,-7.26 -4.37,-14.51 -3.82,-22.24 0.26,-3.61 0.09,-7.28 0.68,-10.82 0.25,-1.53 1.65,-3.34 3.04,-4.12 4.04,-2.24 7.56,-5.03 11.04,-8.05 3.25,-2.83 4.99,-6.11 5.13,-10.28 0.19,-5.96 0.79,-11.98 0.17,-17.87 -0.41,-3.98 -2.23,-7.98 -4.2,-11.55 -0.82,-1.49 -3.59,-2.35 -5.6,-2.65 -4.41,-0.66 -8.91,-0.73 -13.36,-1.17 -1.63,-0.16 -3.27,-0.7 -4.75,-1.02 z"
   id="path1"
   style="fill:#2480a7;fill-opacity:1" />
</g>
<g
   id="g2"
   style="fill:#2480a7;fill-opacity:1"
   transform="translate(-249.57,-105.02843)">
	<path
   d="m 249.57,250.94 c 0.64,-2.07 1.31,-3.5 1.49,-4.99 0.9,-7.51 1.38,-15.08 2.57,-22.53 0.89,-5.56 3.03,-10.91 3.91,-16.47 1.41,-8.91 5.74,-16.59 9.41,-24.57 2.15,-4.68 3.73,-9.68 6.34,-14.08 5.26,-8.83 10.02,-18.02 16.98,-25.75 1.82,-2.02 3.27,-4.4 4.75,-6.7 5.67,-8.76 12.86,-16.12 22.35,-20.37 6.51,-2.91 13.67,-4.75 20.73,-5.99 11.57,-2.03 23.33,-1.98 35.05,-0.89 3.78,0.35 7.19,-1.07 10.51,-2.57 4.36,-1.98 5.89,-1.15 6.12,3.62 0.11,2.24 -0.03,4.49 0.05,6.74 0.08,2.11 -0.13,3.32 -2.58,4.64 -7.61,4.11 -15.87,5.26 -24.14,6.57 -5.5,0.87 -11.03,1.46 -16.54,2.29 -4.84,0.73 -9.66,1.68 -14.5,2.42 -10.68,1.64 -18.78,7.67 -23.46,16.82 -5,9.77 -8.85,20.27 -11.95,30.82 -2.2,7.48 -2.74,15.55 -3.24,23.41 -0.36,5.76 0.6,11.61 0.87,17.42 0.46,9.71 0.83,19.42 1.24,29.13 0.08,1.99 0.24,3.99 0.16,5.98 -0.24,5.89 3.54,10.62 4.57,16.13 0.39,2.07 0.44,4.2 0.6,6.31 0.08,0.99 0.06,1.99 0.11,2.98 0.13,2.65 0.13,5.32 0.45,7.94 0.29,2.33 0.83,4.65 1.5,6.9 0.37,1.25 1.33,2.31 1.84,3.53 1.07,2.54 1.62,5.2 -0.14,7.62 -3.3,4.52 -2.12,9.23 -0.59,13.82 1.89,5.68 4.21,11.21 6.27,16.82 1.19,3.23 1,6.36 -0.03,9.74 -1.13,3.7 -1.36,7.67 -1.96,11.53 -0.13,0.82 -0.07,1.68 -0.26,2.48 -3.78,15.98 -5.38,32.26 -6.91,48.57 -0.88,9.4 0.88,18.05 5.13,26.26 4.02,7.76 8.3,15.39 12.61,23 1.21,2.14 2.68,4.24 4.42,5.96 4.02,3.98 9.1,5.31 14.52,4.13 9.21,-2.02 18.68,-3.04 27.24,-7.69 5.94,-3.23 11.95,-1 17.82,1.15 5.36,1.97 7.65,6.76 10.32,11.08 5.22,8.43 12.41,14.43 21.42,18.3 4.95,2.13 11.58,-0.01 15.01,-4.26 4.78,-5.92 10.93,-9.05 18.69,-8.43 0.98,0.08 1.92,0.62 2.89,0.69 2.86,0.23 5.84,0.91 8.58,0.38 7.87,-1.52 15.23,-4.62 22.29,-8.4 2.89,-1.55 4.77,-3.93 5.64,-7.22 2.4,-9.15 5.75,-17.92 11.52,-25.51 1.43,-1.89 3.63,-3.36 5.76,-4.51 1.97,-1.07 4.3,-0.93 6.03,0.81 1.68,1.69 3.51,3.38 4.68,5.41 2.57,4.48 5.08,8.93 8.74,12.68 2.12,2.17 4.34,3.76 7.41,3.29 5.97,-0.92 10.28,7.14 7.49,11.95 -5.47,9.42 -13.11,16.66 -21.94,22.37 -4.61,2.98 -10.78,3.56 -16.27,5.15 -6.23,1.8 -12.5,3.46 -18.72,5.29 -0.95,0.28 -2.03,1.01 -2.5,1.84 -4.08,7.29 -11.04,10.95 -18.13,14.29 -9.87,4.65 -20.43,6.9 -31.21,8.28 -8.15,1.05 -15.12,-1.28 -20.89,-7.1 -4.27,-4.3 -8.44,-8.69 -12.73,-12.97 -3.36,-3.35 -8.04,-3.74 -12.26,-4.24 -5,-0.59 -9.79,6.15 -8.39,11.02 1.19,4.13 1.72,8.11 1.09,12.5 -0.49,3.42 0.45,7.11 1.13,10.61 0.59,3.05 0.59,5.38 -2.66,7.1 -2.23,1.17 -4.05,3.15 -5.97,4.86 -3.63,3.21 -6.33,3.3 -9.42,-0.49 -4.51,-5.54 -8.58,-11.42 -12.99,-17.04 -3.93,-5.01 -8.03,-9.89 -12.17,-14.74 -0.56,-0.66 -1.83,-1.23 -2.64,-1.08 -7.83,1.44 -14.52,-1.79 -21.2,-5.03 -4.26,-2.06 -8.62,-3.94 -12.68,-6.33 -6.08,-3.57 -9.18,-9.1 -9.65,-16.18 -0.49,-7.3 -1.07,-14.6 -1.79,-21.89 -0.56,-5.67 -2.4,-10.75 -6.74,-14.87 -3.17,-3.01 -5.91,-6.51 -8.67,-9.93 -2.37,-2.94 -3.3,-6.5 -3.52,-10.23 -0.33,-5.48 -0.2,-10.89 0.52,-16.4 0.84,-6.39 0.22,-12.96 0.7,-19.42 1.02,-13.76 -0.46,-27.24 -3.98,-40.51 -1.21,-4.56 -3.12,-8.94 -4.43,-13.48 -2.09,-7.26 -4.37,-14.51 -3.82,-22.24 0.26,-3.61 0.09,-7.28 0.68,-10.82 0.25,-1.53 1.65,-3.34 3.04,-4.12 4.04,-2.24 7.56,-5.03 11.04,-8.05 3.25,-2.83 4.99,-6.11 5.13,-10.28 0.19,-5.96 0.79,-11.98 0.17,-17.87 -0.41,-3.98 -2.23,-7.98 -4.2,-11.55 -0.82,-1.49 -3.59,-2.35 -5.6,-2.65 -4.41,-0.66 -8.91,-0.73 -13.36,-1.17 -1.63,-0.16 -3.27,-0.7 -4.75,-1.02 z"
   id="path2"
   style="fill:#2480a7;fill-opacity:1" />
</g></svg>
