<?xml version="1.0" encoding="utf-8"?>
<!-- Generator: Adobe Illustrator 27.2.0, SVG Export Plug-In . SVG Version: 6.00 Build 0)  -->
<svg version="1.1" id="Layer_0_xA0_Image_00000023979268857939306410000012979266848313760394_"
	 xmlns="http://www.w3.org/2000/svg" xmlns:xlink="http://www.w3.org/1999/xlink" x="0px" y="0px" viewBox="0 0 697 661"
	 style="enable-background:new 0 0 697 661;" xml:space="preserve">
<g>
	<path d="M342.2,378.76c0.11-8.45,3.29-15.56,8.63-21.7c2.31-2.66,3.22-5.55,3.3-8.85c0.08-3.45,0.14-6.64-2.38-9.8
		c-2.41-3.04-5.07-3.58-8.23-2.98c-1.18,0.22-2.53,1.62-3.07,2.81c-6.18,13.67-8.97,28.35-12.16,42.87
		c-1.42,6.45-1.75,13.16-2.29,19.77c-0.3,3.7,1.47,6.69,3.7,9.73c2.51,3.42,4.21,7.5,5.86,11.47c1.91,4.59,3.41,9.34,5,14.06
		c0.85,2.51,2.06,5.08,2.09,7.64c0.02,2.13-1.23,4.4-2.31,6.39c-0.93,1.72-2.26,3.32-3.72,4.64c-0.81,0.74-2.25,1.18-3.37,1.13
		c-7.97-0.39-15.94-0.78-23.88-1.49c-5.37-0.48-10.71-1.33-16.02-2.3c-2.42-0.44-4.75-1.51-7.07-2.42
		c-2.41-0.94-4.15-2.57-5.21-5.04c-1.63-3.8-3.45-7.53-5.26-11.25c-2.62-5.42-6.89-9.17-12.47-11.17c-2.75-0.98-5.84-1-8.75-1.55
		c-3.34-0.62-6.7-1.17-9.96-2.08c-2.36-0.66-3.99-2.2-4.96-4.76c-5.84-15.38-11.86-30.69-17.86-46.01c-0.6-1.55-1.34-3.05-2.13-4.51
		c-2.28-4.26-3.23-8.31-0.99-13.19c1.5-3.26,1.42-7.27,1.9-10.97c0.23-1.8,0.77-2.99,2.67-3.72c2.06-0.79,3.85-2.29,5.87-3.23
		c2.25-1.04,4.63-1.78,6.95-2.65c5.21-1.95,10.37-4.03,15.63-5.81c6.29-2.13,12.68-3.98,19.01-6c1.65-0.53,3.41-1,4.84-1.93
		c2.9-1.9,5.85-1.68,9.01-1.03c2.92,0.6,5.89,1.1,8.86,1.26c2.55,0.14,3.92,1.51,4.92,3.53c1.88,3.78,3.76,7.55,5.53,11.38
		c1.1,2.39,1.96,4.88,2.96,7.31c0.17,0.41,0.49,0.97,0.83,1.06c2.01,0.5,4.03,0.99,6.07,1.23c0.67,0.08,1.58-0.43,2.13-0.94
		c2.84-2.67,5.55-5.47,8.4-8.12c1.75-1.63,1.73-3.48,1.03-5.47c-2.2-6.23-3.67-12.57-3.71-19.24c-0.02-2.97-0.65-5.93-0.85-8.91
		c-0.06-0.85,0.12-2.09,0.69-2.55c5.84-4.78,11.65-9.62,17.75-14.08c4.68-3.42,9.7-6.4,14.67-9.41c1.97-1.2,4.2-1.97,6.32-2.92
		c2.19-0.98,4.35-2.05,6.59-2.89c5.77-2.16,11.68-3.96,17.9-3.19c1.49,0.19,3.22,1.81,4.09,3.23c5.22,8.59,10.41,17.21,15.19,26.05
		c2.03,3.74,3.35,7.95,4.43,12.09c1.15,4.42,2.97,8.05,6.63,11.02c3.11,2.52,5.96,5.6,8.15,8.95c1.26,1.93,1.08,4.86,1.35,7.37
		c0.74,6.85,1.4,13.72,2.03,20.58c0.31,3.31,0.54,6.62,0.72,9.93c0.46,8.46,0.86,16.93,1.3,25.4c0.11,2.07,0.16,4.16,0.44,6.21
		c0.69,4.94-1.87,8.55-4.62,12.19c-2.19,2.9-4.16,5.96-6.17,9c-0.82,1.25-1.3,2.75-2.25,3.88c-3.46,4.13-4.27,8.8-4.22,14.11
		c0.06,5.95-1.03,11.9-1.54,17.86c-0.23,2.73-0.42,5.48-0.34,8.21c0.14,4.63-1.21,5.79-5.4,7.56c-4.45,1.88-8.97,1.54-13.27-0.71
		c-6.99-3.67-13.86-7.58-20.95-11.05c-6-2.93-8.58-7.99-10.08-14.03c-1.5-6.05-3.16-12.06-4.71-18.09c-0.94-3.69-3.22-6.23-6.35-8.3
		c-1.15-0.77-2.33-2.27-2.53-3.58c-0.83-5.58-1.29-11.21-1.91-16.82c-0.19-1.73-0.42-3.46-0.7-5.17
		C343.39,385.43,342.78,382.09,342.2,378.76z"/>
</g>
</svg>
