<?xml version="1.0" encoding="utf-8"?>
<!-- Generator: Adobe Illustrator 27.2.0, SVG Export Plug-In . SVG Version: 6.00 Build 0)  -->
<svg version="1.1" id="Layer_0_xA0_Image_00000083785263426272662950000017755557175653674377_"
	 xmlns="http://www.w3.org/2000/svg" xmlns:xlink="http://www.w3.org/1999/xlink" x="0px" y="0px" viewBox="0 0 419 550"
	 style="enable-background:new 0 0 419 550;" xml:space="preserve">
<g>
	<path d="M132.86,380.81c-21.67,0.49-37.87-9.34-49.83-26.75c-3.29-4.79-5.67-10.16-5.43-16.31c0.08-2.04,0.76-3.45,2.48-4.54
		c5.7-3.58,11.8-6.7,16.91-10.99c7.64-6.4,17.11-10.37,23.61-18.24c2.55-3.09,3.05-6.44,2.08-10.03c-1.48-5.52-4.77-10.04-8.67-14.1
		c-2.61-2.72-4.27-5.36-3.85-9.61c0.74-7.59,0.57-15.28,0.75-22.92c0.08-3.38,1.12-6.32,3.52-8.78
		c9.83-10.04,19.62-20.11,29.44-30.17c2.77-2.84,5.13-6.39,8.43-8.33c7.06-4.15,14.52-7.68,22.03-10.97
		c2.25-0.98,5.26-0.06,7.85-0.44c8.15-1.2,15.29,1.57,22.27,5.25c10.29,5.42,20.59,10.82,30.93,16.13c3.03,1.55,6.28,2.67,9.31,4.22
		c1.24,0.64,2.54,1.69,3.18,2.89c2.14,4.03,3.94,8.23,5.96,12.32c2.61,5.28,4.98,10.72,8.07,15.71c3.3,5.33,4.89,11.07,5.64,17.11
		c0.48,3.85,0.57,7.76,0.65,11.65c0.02,1.36-0.27,2.85-0.87,4.07c-21.7,44.2-54.23,77.16-100.17,96.02
		C156.21,378.48,144.71,380.74,132.86,380.81z M211.97,298.4c0.3-9.17-1.18-19.31-4.76-29.11c-0.25-0.69-0.87-1.43-1.51-1.77
		c-2.2-1.16-4.53-2.07-6.74-3.22c-3.27-1.7-6.5-2.59-10.21-1.17c-2.38,0.91-4.98,1.29-7.52,1.69c-6.34,1.02-10.9,5.28-13.83,10.08
		c-3.52,5.77-5.72,12.55-7.41,19.18c-2.1,8.26-1.59,16.81-0.85,25.32c0.44,5.06,1.94,9.41,5.38,13.03c1.4,1.46,3.09,3.38,4.85,3.62
		c5.04,0.68,10.14,0.31,14.85-2.06c2.82-1.42,5.85-2.56,8.39-4.38C202.95,322.17,212.24,313.97,211.97,298.4z"/>
</g>
</svg>
