<?xml version="1.0" encoding="UTF-8" standalone="no"?>
<!-- Generator: Adobe Illustrator 27.2.0, SVG Export Plug-In . SVG Version: 6.00 Build 0)  -->

<svg
   version="1.1"
   id="Layer_0_xA0_Image_00000083785263426272662950000017755557175653674377_"
   x="0px"
   y="0px"
   viewBox="0 0 190.60762 192.48114"
   xml:space="preserve"
   sodipodi:docname="o_lowercase.svg"
   width="190.60762"
   height="192.48114"
   inkscape:version="1.4 (e7c3feb1, 2024-10-09)"
   xmlns:inkscape="http://www.inkscape.org/namespaces/inkscape"
   xmlns:sodipodi="http://sodipodi.sourceforge.net/DTD/sodipodi-0.dtd"
   xmlns="http://www.w3.org/2000/svg"
   xmlns:svg="http://www.w3.org/2000/svg"><defs
   id="defs1" /><sodipodi:namedview
   id="namedview1"
   pagecolor="#ffffff"
   bordercolor="#000000"
   borderopacity="0.25"
   inkscape:showpageshadow="2"
   inkscape:pageopacity="0.0"
   inkscape:pagecheckerboard="0"
   inkscape:deskcolor="#d1d1d1"
   inkscape:zoom="0.047272727"
   inkscape:cx="126.92308"
   inkscape:cy="84.615385"
   inkscape:window-width="1120"
   inkscape:window-height="1011"
   inkscape:window-x="7"
   inkscape:window-y="33"
   inkscape:window-maximized="0"
   inkscape:current-layer="Layer_0_xA0_Image_00000083785263426272662950000017755557175653674377_" />
<g
   id="g1"
   style="fill:#2480a7;fill-opacity:1"
   transform="translate(-77.583343,-188.34635)">
	<path
   d="m 132.86,380.81 c -21.67,0.49 -37.87,-9.34 -49.83,-26.75 -3.29,-4.79 -5.67,-10.16 -5.43,-16.31 0.08,-2.04 0.76,-3.45 2.48,-4.54 5.7,-3.58 11.8,-6.7 16.91,-10.99 7.64,-6.4 17.11,-10.37 23.61,-18.24 2.55,-3.09 3.05,-6.44 2.08,-10.03 -1.48,-5.52 -4.77,-10.04 -8.67,-14.1 -2.61,-2.72 -4.27,-5.36 -3.85,-9.61 0.74,-7.59 0.57,-15.28 0.75,-22.92 0.08,-3.38 1.12,-6.32 3.52,-8.78 9.83,-10.04 19.62,-20.11 29.44,-30.17 2.77,-2.84 5.13,-6.39 8.43,-8.33 7.06,-4.15 14.52,-7.68 22.03,-10.97 2.25,-0.98 5.26,-0.06 7.85,-0.44 8.15,-1.2 15.29,1.57 22.27,5.25 10.29,5.42 20.59,10.82 30.93,16.13 3.03,1.55 6.28,2.67 9.31,4.22 1.24,0.64 2.54,1.69 3.18,2.89 2.14,4.03 3.94,8.23 5.96,12.32 2.61,5.28 4.98,10.72 8.07,15.71 3.3,5.33 4.89,11.07 5.64,17.11 0.48,3.85 0.57,7.76 0.65,11.65 0.02,1.36 -0.27,2.85 -0.87,4.07 -21.7,44.2 -54.23,77.16 -100.17,96.02 -10.94,4.48 -22.44,6.74 -34.29,6.81 z m 79.11,-82.41 c 0.3,-9.17 -1.18,-19.31 -4.76,-29.11 -0.25,-0.69 -0.87,-1.43 -1.51,-1.77 -2.2,-1.16 -4.53,-2.07 -6.74,-3.22 -3.27,-1.7 -6.5,-2.59 -10.21,-1.17 -2.38,0.91 -4.98,1.29 -7.52,1.69 -6.34,1.02 -10.9,5.28 -13.83,10.08 -3.52,5.77 -5.72,12.55 -7.41,19.18 -2.1,8.26 -1.59,16.81 -0.85,25.32 0.44,5.06 1.94,9.41 5.38,13.03 1.4,1.46 3.09,3.38 4.85,3.62 5.04,0.68 10.14,0.31 14.85,-2.06 2.82,-1.42 5.85,-2.56 8.39,-4.38 10.34,-7.44 19.63,-15.64 19.36,-31.21 z"
   id="path1"
   style="fill:#2480a7;fill-opacity:1" />
</g>
</svg>
