<?xml version="1.0" encoding="utf-8"?>
<!-- Generator: Adobe Illustrator 27.2.0, SVG Export Plug-In . SVG Version: 6.00 Build 0)  -->
<svg version="1.1" id="Layer_0_xA0_Image_00000029736508516450545820000001789990935251763623_"
	 xmlns="http://www.w3.org/2000/svg" xmlns:xlink="http://www.w3.org/1999/xlink" x="0px" y="0px" viewBox="0 0 833 639"
	 style="enable-background:new 0 0 833 639;" xml:space="preserve">
<g>
	<path d="M344.53,211.99c4.97,1.81,9.93,3.61,14.9,5.42c12.49,4.54,21.75,14.18,32.88,20.85c5.37,3.22,11.34,2.76,17.11,1.93
		c10.55-1.52,20.99-3.79,31.55-5.22c12.92-1.76,26.12-1.99,38.83-4.66c19.98-4.2,40.27-4.04,60.38-6.22
		c13.65-1.48,25.92,1.62,36.07,11.31c1.29,1.23,2.51,2.62,3.43,4.14c2.21,3.63,1.27,4.8-2.45,6.79
		c-11.46,6.13-23.63,7.86-36.47,8.06c-7.09,0.11-14.2,2.42-21.19,4.18c-23.27,5.83-45.52,14.36-66.76,25.55
		c-5.31,2.8-11.03,4.82-16.29,7.7c-2.17,1.18-4.11,3.4-5.31,5.6c-2.88,5.26-4.72,11.15-8,16.11c-2.57,3.87-6.45,7.01-10.19,9.91
		c-2.12,1.65-2.8,2.89-2.23,5.54c1.36,6.28,5.28,9.48,11.33,10.68c4.55,0.91,9.07,1.96,13.59,3.02c9.76,2.29,13.92,12.5,14.46,21.19
		c0.69,11.12-2.14,21.78-5.5,32.25c-6.29,19.59-12.25,39.35-22.84,57.22c-8.75,14.76-17.2,20.28-35.71,18.03
		c-0.6-0.07-1.21-0.18-1.8-0.13c-17.17,1.55-33.64-3.56-50.47-5.2c-6.95-0.67-14.06,0.42-21.08,0.2
		c-5.67-0.17-11.38-0.77-16.94-1.85c-1.99-0.39-4.55-2.42-5.2-4.28c-2.11-6.02-3.96-12.22-4.93-18.5
		c-0.81-5.29-0.04-10.81-0.33-16.21c-0.42-7.75-5.38-13.56-9.6-19.38c-5.22-7.2-6.17-13.6-1.25-21.05
		c6.94-10.52,14.21-20.83,20.91-31.5c3.17-5.05,5.75-10.57,7.94-16.13c5.77-14.67,11.19-29.39,10.89-45.63
		c-0.08-4.31,2.73-8.62,3.83-13.02c0.73-2.92,1.64-6.23,0.96-8.99c-1.78-7.27-4.64-14.27-6.6-21.5c-1.48-5.46-2.68-11.07-3.2-16.69
		c-0.52-5.67,2.58-9.75,7.84-11.89c8.65-3.5,17.35-6.91,26.97-6.34C344.22,212.86,344.37,212.42,344.53,211.99z"/>
</g>
</svg>
