<?xml version="1.0" encoding="utf-8"?>
<!-- Generator: Adobe Illustrator 27.2.0, SVG Export Plug-In . SVG Version: 6.00 Build 0)  -->
<svg version="1.1" id="Layer_0_xA0_Image_00000149354548633941653730000006504185212642189469_"
	 xmlns="http://www.w3.org/2000/svg" xmlns:xlink="http://www.w3.org/1999/xlink" x="0px" y="0px" viewBox="0 0 697 661"
	 style="enable-background:new 0 0 697 661;" xml:space="preserve">
<g>
	<path d="M312.21,292.51c4.71-2.33,8.15-0.79,11.64,2.45c3.61,3.35,3.9,2.99,8.72,3.58c2.39,0.29,4.77,0.74,7.13,1.23
		c2.2,0.46,3.96-0.14,5.81-1.43c3.19-2.23,6.58-4.18,9.94-6.16c0.58-0.34,1.46-0.39,2.15-0.27c10.72,1.9,21.46,3.73,32.15,5.83
		c5.53,1.09,10.91,3.4,16.47,3.83c5.64,0.43,8.73,4.44,12.9,6.93c0.65,0.39,1.08,1.74,1.02,2.61c-0.58,8.69-0.49,17.54-5.68,25.22
		c-1.01,1.5-1.72,3.24-2.34,4.96c-0.83,2.3-2.41,3.23-4.75,3.25c-10.4,0.09-20.8,0.19-31.2,0.31c-11.39,0.13-22.77,0.34-34.16,0.43
		c-4.43,0.03-9.1,1.31-13.13-1.51c-2.56-1.79-5.01-3.83-7.16-6.09c-3.67-3.87-3.56-3.98-8.86-2.25c0.26,3.65,0.43,7.37,0.81,11.06
		c0.59,5.7,1.52,11.34,0.7,17.13c-0.88,6.28,0.48,12.23,3.76,17.71c1.51,2.52,2.26,5.15,1.08,8.05c-0.25,0.6-0.28,1.3-0.35,1.96
		c-0.33,3.06-0.4,5.81,1.66,8.69c3.7,5.18,6.73,10.84,9.93,16.12c3.28-0.14,6.27-0.17,9.25-0.41c4.09-0.34,7.43,1.78,10.74,3.52
		c3.59,1.88,7.05,2.78,10.96,1.64c0.4-0.12,0.82-0.16,1.23-0.21c3.2-0.39,6.07-0.47,9.17,1.54c4.99,3.24,10.55,5.59,15.95,8.35
		c1.38-1.3,2.83-2.64,4.26-4.02c1.11-1.07,1.97-1.33,3.36-0.08c4.98,4.52,9.83,9.28,15.32,13.11c3.34,2.33,5,4.68,5,8.62
		c0,2.89,0.61,5.78,0.68,8.67c0.26,10.72,0.66,21.44,0.45,32.15c-0.06,2.92-2.05,5.82-3.22,8.7c-1.02,2.53-2.84,3.54-5.62,3.13
		c-1.27-0.19-2.72-0.04-3.94,0.38c-8.8,3.09-16.9,0.65-24.73-3.19c-9.14-4.48-18.46-8.42-28.38-10.85
		c-5.97-1.47-11.99-2.85-17.82-4.77c-4.44-1.46-7.28-5.33-10.48-8.54c-2.16-2.17-4.3-4.37-6.48-6.53c-2.12-2.11-4.53-3.99-6.37-6.32
		c-4.5-5.68-10.27-9.35-16.97-11.79c-1.31-0.48-2.8-0.91-3.77-1.83c-3.98-3.75-7.97-7.5-11.6-11.58c-3.27-3.68-7.28-4.73-11.91-4.99
		c-7.37-0.42-13.39-3.56-18.01-9.47c-2.29-2.93-5.01-5.52-7.54-8.25c-4.85-5.23-9.94-10.28-14.49-15.76
		c-2.68-3.22-4.52-7.14-6.74-10.74c-0.26-0.43-0.46-0.92-0.81-1.25c-5.31-5.15-7.59-11.96-10.39-18.53
		c-1.42-3.32-3.54-6.33-5.28-9.52c-0.32-0.6-0.53-1.39-0.44-2.05c0.41-3.12,0.99-6.23,1.42-9.35c1.4-10.12,3.13-20.22,3.96-30.39
		c0.33-4.06-1.18-8.34-2.19-12.43c-1.55-6.3-3.85-12.44-4.96-18.8c-0.73-4.15-0.12-8.59,0.25-12.87c0.44-5.03,1.23-10.04,1.97-15.05
		c0.4-2.7,0.97-5.37,1.6-8.03c0.24-1,0.73-1.5,2.21-1.6c3.79-0.26,7.52-1.35,11.31-1.8c6.27-0.74,12.57-1.58,18.87-1.68
		c2.7-0.04,5.59,1.36,8.08,2.69c2.15,1.15,3.9,3.08,5.73,4.76c1.27,1.16,2.37,1.25,3.72,0.13c5.09-4.23,10.63-7.73,17.07-9.53
		c1.05-0.29,2.42-0.49,3.33-0.06c8.99,4.24,18.7,5.06,28.35,6.19c1.86,0.22,4.71-0.16,5.37,0.87c1.84,2.85,3.05,6.2,3.95,9.51
		c0.6,2.18,0.3,4.63,0.29,6.95c-0.04,8.47-0.13,16.94-0.18,25.41C311.97,290.81,312.1,291.45,312.21,292.51z"/>
</g>
</svg>
