<?xml version="1.0" encoding="UTF-8" standalone="no"?>
<!-- Generator: Adobe Illustrator 27.2.0, SVG Export Plug-In . SVG Version: 6.00 Build 0)  -->

<svg
   version="1.1"
   id="Calque_1"
   x="0px"
   y="0px"
   viewBox="0 0 248.36736 247.07174"
   xml:space="preserve"
   sodipodi:docname="u_lowercase.svg"
   width="248.36737"
   height="247.07175"
   inkscape:version="1.4 (e7c3feb1, 2024-10-09)"
   xmlns:inkscape="http://www.inkscape.org/namespaces/inkscape"
   xmlns:sodipodi="http://sodipodi.sourceforge.net/DTD/sodipodi-0.dtd"
   xmlns="http://www.w3.org/2000/svg"
   xmlns:svg="http://www.w3.org/2000/svg"><defs
   id="defs1" /><sodipodi:namedview
   id="namedview1"
   pagecolor="#ffffff"
   bordercolor="#000000"
   borderopacity="0.25"
   inkscape:showpageshadow="2"
   inkscape:pageopacity="0.0"
   inkscape:pagecheckerboard="0"
   inkscape:deskcolor="#d1d1d1"
   inkscape:zoom="0.030882894"
   inkscape:cx="97.141156"
   inkscape:cy="161.90193"
   inkscape:window-width="1120"
   inkscape:window-height="1011"
   inkscape:window-x="7"
   inkscape:window-y="33"
   inkscape:window-maximized="0"
   inkscape:current-layer="Calque_1" />
<style
   type="text/css"
   id="style1">
	.st0{fill:#020203;}
</style>
<path
   class="st0"
   d="m 91.857364,173.91252 c 12.819996,-4.96 24.049996,-8.06 31.769996,-20.33 14.47,-23.02 31.29,-44.52 46.79,-66.910001 8.68,-12.54 16.88,-25.36 24.81,-38.38 4.41,-7.24 8.61,-13.51 18.61,-12.06 4.89,0.69 9.92,0.55 14.82,0.07 9.65,-0.96 17.43,0.83 19.71,8.96 -6.34,13.92 -11.85,26.32 -17.64,38.66 -5.79,12.34 -11.72,24.530001 -17.78,36.730001 -5.72,11.58 -10.89,23.5 -17.71,34.39 -7.37,11.65 -15.78,22.88 -25.02,33.01 -10.2,11.16 -21.43,21.5 -33.01,31.22 -25.64,21.57 -54.649996,33.9 -88.479996,24.74 -16.61,-4.48 -32.94,-10.47 -42.7299999,-27.63 -8.06,-14.06 -7.24,-28.25 -2,-41.28 6.6199999,-16.33 16.0599999,-31.77 25.9799999,-46.45 15.23,-22.53 31.98,-43.970001 47.96,-65.950001 4.82,-6.62 8.48,-14.26 14.13,-20.05 12.959996,-13.44 26.529996,-26.32 40.379996,-38.8700003 6.82,-6.2 28.6,-4.62 32.18,3.58 3.03,6.7500003 3.17,17.7100003 -0.34,24.0500003 -15.3,27.56 -32.25,54.3 -49.13,81.040001 -3.24,5.17 -9.03,8.61 -13.16,13.3 -8.059996,9.17 -10.679996,20.26 -10.269996,32.25 0.27,4.75 0.13,9.71 0.13,15.91 z"
   id="path1"
   style="fill:#2480a7;fill-opacity:1" />
</svg>
