<?xml version="1.0" encoding="utf-8"?>
<!-- Generator: Adobe Illustrator 27.2.0, SVG Export Plug-In . SVG Version: 6.00 Build 0)  -->
<svg version="1.1" id="Calque_1" xmlns="http://www.w3.org/2000/svg" xmlns:xlink="http://www.w3.org/1999/xlink" x="0px" y="0px"
	 viewBox="0 0 595.28 841.89" style="enable-background:new 0 0 595.28 841.89;" xml:space="preserve">
<style type="text/css">
	.st0{fill:#020203;}
</style>
<path class="st0" d="M281.11,446.75c12.82-4.96,24.05-8.06,31.77-20.33c14.47-23.02,31.29-44.52,46.79-66.91
	c8.68-12.54,16.88-25.36,24.81-38.38c4.41-7.24,8.61-13.51,18.61-12.06c4.89,0.69,9.92,0.55,14.82,0.07
	c9.65-0.96,17.43,0.83,19.71,8.96c-6.34,13.92-11.85,26.32-17.64,38.66c-5.79,12.34-11.72,24.53-17.78,36.73
	c-5.72,11.58-10.89,23.5-17.71,34.39c-7.37,11.65-15.78,22.88-25.02,33.01c-10.2,11.16-21.43,21.5-33.01,31.22
	c-25.64,21.57-54.65,33.9-88.48,24.74c-16.61-4.48-32.94-10.47-42.73-27.63c-8.06-14.06-7.24-28.25-2-41.28
	c6.62-16.33,16.06-31.77,25.98-46.45c15.23-22.53,31.98-43.97,47.96-65.95c4.82-6.62,8.48-14.26,14.13-20.05
	c12.96-13.44,26.53-26.32,40.38-38.87c6.82-6.2,28.6-4.62,32.18,3.58c3.03,6.75,3.17,17.71-0.34,24.05
	c-15.3,27.56-32.25,54.3-49.13,81.04c-3.24,5.17-9.03,8.61-13.16,13.3c-8.06,9.17-10.68,20.26-10.27,32.25
	C281.25,435.59,281.11,440.55,281.11,446.75z"/>
</svg>
