<?xml version="1.0" encoding="UTF-8" standalone="no"?>
<!-- Generator: Adobe Illustrator 27.2.0, SVG Export Plug-In . SVG Version: 6.00 Build 0)  -->

<svg
   version="1.1"
   id="Layer_0_xA0_Image_00000146474811272110304820000003981061189010868123_"
   x="0px"
   y="0px"
   viewBox="0 0 186.35561 234.03026"
   xml:space="preserve"
   sodipodi:docname="w_lowercase.svg"
   width="186.35561"
   height="234.03026"
   inkscape:version="1.4 (e7c3feb1, 2024-10-09)"
   xmlns:inkscape="http://www.inkscape.org/namespaces/inkscape"
   xmlns:sodipodi="http://sodipodi.sourceforge.net/DTD/sodipodi-0.dtd"
   xmlns="http://www.w3.org/2000/svg"
   xmlns:svg="http://www.w3.org/2000/svg"><defs
   id="defs1" /><sodipodi:namedview
   id="namedview1"
   pagecolor="#ffffff"
   bordercolor="#000000"
   borderopacity="0.25"
   inkscape:showpageshadow="2"
   inkscape:pageopacity="0.0"
   inkscape:pagecheckerboard="0"
   inkscape:deskcolor="#d1d1d1"
   inkscape:zoom="0.15367338"
   inkscape:cx="45.551156"
   inkscape:cy="-117.13154"
   inkscape:window-width="1120"
   inkscape:window-height="1011"
   inkscape:window-x="7"
   inkscape:window-y="33"
   inkscape:window-maximized="0"
   inkscape:current-layer="Layer_0_xA0_Image_00000146474811272110304820000003981061189010868123_" />
<g
   id="g1"
   style="fill:#2480a7;fill-opacity:1"
   transform="translate(-302.52941,-151.60842)">
	<path
   d="m 352.33,379.24 c 0.25,-1.16 0.36,-1.98 0.6,-2.75 0.5,-1.58 1.53,-2.21 3.24,-1.94 4.67,0.73 9.37,1.9 14.05,1.88 6.75,-0.03 13.68,0.62 20.13,-2.31 0.58,-0.27 1.15,-0.56 1.76,-0.86 -1.98,-3.34 -3.88,-6.54 -5.79,-9.74 -1.62,-2.71 -3.37,-5.34 -4.82,-8.13 -0.57,-1.1 -0.91,-2.64 -0.65,-3.82 1.25,-5.67 2.6,-11.32 4.23,-16.89 0.41,-1.42 1.97,-2.5 3.26,-4.04 0,0.33 0.05,0.14 -0.01,0.01 -5.82,-12.12 -4.12,-24.65 -1.88,-37.15 1.96,-10.88 4.28,-21.7 6.25,-32.58 2.26,-12.44 4.36,-24.91 6.43,-37.38 1.89,-11.4 3.59,-22.83 5.51,-34.22 0.89,-5.25 2.1,-10.44 3.18,-15.65 1.6,-7.7 6.72,-13.25 11.58,-18.95 0.86,-1.01 1.72,-2.05 2.72,-2.91 0.37,-0.32 1.17,-0.15 1.77,-0.2 -0.02,0.53 0.15,1.19 -0.09,1.58 -2.22,3.59 -4.25,7.34 -6.85,10.64 -2.67,3.39 -4.44,7.06 -5.16,11.2 -2.49,14.42 -4.85,28.85 -7.27,43.28 -2.35,14.03 -4.59,28.07 -7.13,42.07 -2.37,13.09 -5.36,26.08 -7.49,39.2 -1.06,6.53 -1.43,13.32 -0.91,19.89 0.3,3.72 2.8,7.38 4.77,10.8 1.48,2.57 1.35,4.07 -1.58,4.65 -2.28,0.45 -3.43,1.55 -3.91,3.81 -0.87,4.05 -2.1,8.03 -2.89,12.09 -0.23,1.2 0.28,2.73 0.88,3.89 2.84,5.45 5.93,10.78 8.72,16.25 1.34,2.63 3.47,3.52 6.09,4.15 6.38,1.53 12.67,3.49 19.09,4.79 4.53,0.92 9.21,1.37 13.83,1.45 5.14,0.09 10.34,-0.16 15.43,-0.88 3.29,-0.46 6.78,-2.49 7.57,-5.68 1.92,-7.68 7.47,-12.18 12.97,-16.88 3.41,-2.92 6.79,-5.9 10.39,-8.56 2.51,-1.85 3.39,-4.3 3.36,-7.1 -0.03,-2.72 -0.51,-5.45 -0.89,-8.15 -1.22,-8.72 -2.54,-17.43 -3.72,-26.15 -0.52,-3.83 0.59,-7.44 2.09,-10.91 3.13,-7.23 4.45,-14.58 2.16,-22.37 -1.63,-5.56 -3.68,-11.12 -4.33,-16.81 -0.84,-7.36 -2.45,-14.87 -0.35,-22.3 0.67,-2.37 1.92,-4.58 3,-6.81 0.24,-0.5 0.89,-0.8 1.35,-1.2 0.24,0.08 0.48,0.16 0.71,0.24 -0.06,1.23 0.17,2.58 -0.24,3.68 -2.04,5.49 -1.71,11.05 -1.28,16.75 0.5,6.79 2.32,13.16 4.2,19.65 2.97,10.2 3.98,20.62 -1.05,30.69 -3.35,6.71 -1.94,13.69 -0.91,20.59 0.83,5.59 2.15,11.13 2.76,16.74 0.41,3.75 0.09,7.61 -0.17,11.4 -0.07,0.98 -0.98,2.09 -1.8,2.79 -5.83,4.96 -11.69,9.88 -17.62,14.71 -3.36,2.74 -5.73,6.02 -6.42,10.34 -0.56,3.53 -3.35,4.92 -5.76,7 -4.1,3.55 -8.8,2.29 -13.27,2.84 -6.88,0.85 -13.84,1.09 -20.62,-0.49 -5.57,-1.3 -11,-3.25 -16.48,-4.93 -2.61,-0.8 -5.2,-1.69 -7.82,-2.49 -0.43,-0.13 -1.05,-0.19 -1.39,0.03 -5.83,3.68 -12.34,3.87 -18.96,4.22 -6.81,0.36 -13.41,-0.34 -20.18,-2.09 -0.43,1.4 -0.77,2.66 -1.21,3.88 -0.89,2.44 -2.18,2.93 -4.4,1.5 -4.41,-2.83 -8.68,-5.88 -13.16,-8.6 -3.62,-2.2 -7.43,-4.07 -11.19,-6.03 -6.62,-3.47 -13.2,-7.01 -19.9,-10.31 -4.56,-2.25 -4.57,-2.09 -4.17,-7.29 0.57,-7.37 0.84,-14.78 1.62,-22.13 0.3,-2.81 1.54,-5.54 2.51,-8.25 1.4,-3.88 3.15,-7.63 4.4,-11.56 1.66,-5.2 3.13,-10.48 4.38,-15.79 1.23,-5.25 2.15,-10.58 3.08,-15.9 0.6,-3.44 0.9,-6.93 1.51,-10.36 0.14,-0.79 0.99,-1.45 1.52,-2.18 0.42,0.72 1.21,1.46 1.19,2.16 -0.16,5.04 -0.01,10.17 -0.87,15.11 -1.8,10.36 -3.97,20.67 -6.39,30.9 -0.81,3.41 -2.94,6.48 -4.26,9.79 -0.91,2.27 -1.88,4.64 -2.13,7.03 -0.76,7.27 -1.09,14.58 -1.8,21.85 -0.19,1.98 0.55,2.44 2.18,3.1 4.38,1.75 8.66,3.76 12.92,5.79 2.62,1.25 5.05,2.93 7.72,4.07 7.33,3.15 13.87,7.54 20.26,12.24 0.47,0.38 1.02,0.59 1.8,1 z"
   id="path1"
   style="fill:#2480a7;fill-opacity:1" />
</g>
</svg>
