<?xml version="1.0" encoding="utf-8"?>
<!-- Generator: Adobe Illustrator 27.2.0, SVG Export Plug-In . SVG Version: 6.00 Build 0)  -->
<svg version="1.1" id="Layer_0_xA0_Image_00000076570903782224313850000002927409617510132112_"
	 xmlns="http://www.w3.org/2000/svg" xmlns:xlink="http://www.w3.org/1999/xlink" x="0px" y="0px" viewBox="0 0 419 274"
	 style="enable-background:new 0 0 419 274;" xml:space="preserve">
<g>
	<path d="M200.23,0c0.27,2.14,0.69,4.27,0.79,6.42c0.63,13.47,0.31,26.91-0.37,40.38c-0.26,5.09,1.36,10.29,2.32,15.41
		c2.55,13.65,7.53,26.54,12.98,39.22c2.85,6.62,6.5,12.9,9.82,19.32c0.3,0.57,0.76,1.06,1.27,1.77c1.29-0.91,2.49-1.74,3.86-2.7
		c-4.1-5.33-2.16-11.34-1.98-16.95c0.21-6.77,1.87-13.48,2.51-20.25c0.67-7.11,0.71-14.27,1.35-21.38
		c0.54-6.04,1.53-12.03,2.34-18.04c0.05-0.4,0.15-0.92,0.42-1.14c2.72-2.11,5.49-4.17,8.25-6.24c0.38-0.28,0.95-0.42,1.18-0.78
		c2.3-3.63,4.52-7.3,6.82-10.92c0.31-0.49,1.15-1.18,1.42-1.06c0.55,0.25,1.13,0.93,1.28,1.53c3.33,13.98,3.91,28.06,1.84,42.31
		c-0.63,4.34-0.55,8.79-0.59,13.19c-0.08,8.89-0.06,17.79-0.01,26.68c0.1,20.86,0.24,41.72-2.4,62.48
		c-1.2,9.46-3.12,18.69-7.62,27.21c-0.28,0.54-0.62,1.39-0.4,1.81c2.77,5.32,2.89,11.21,3.76,16.94c1.28,8.45,2.65,16.89,3.9,25.34
		c0.12,0.79-0.15,2.02-0.69,2.4c-0.53,0.37-2,0.23-2.43-0.25c-1.22-1.37-2.54-2.9-3.05-4.6c-0.66-2.18-0.72-4.58-0.79-6.9
		c-0.17-5.82-0.21-11.64-0.27-17.46c-0.05-4.92-1.63-9.26-5.05-13.37c-3.5,3.58-8.03,2.98-12.4,2.87
		c-6.31-0.16-11.44,2.87-16.26,6.21c-15.64,10.85-33.15,13.44-51.26,10.44c-9.9-1.64-20.16-3.62-28.85-9.7
		c-2.39-1.67-5.02-2.49-8.3-1.15c-5.59,2.29-11.47,3.89-17.22,5.78c-0.39,0.13-0.82,0.42-1.18,0.36c-1.28-0.21-2.54-0.55-3.81-0.84
		c0.59-1.09,1.06-2.28,1.8-3.26c1.22-1.62,2.55-3.18,3.97-4.63c1.59-1.63,3.16-3.39,5.05-4.6c8.06-5.11,15.4-11.61,24.77-14.26
		c9.99-2.83,20.15-5.08,30.25-7.52c3.72-0.9,7.48-1.62,11.21-2.43c0.73-0.16,1.45-0.35,2.18-0.52c1.52-0.35,3.36-0.55,3.89,1.09
		c0.28,0.88-0.72,2.59-1.63,3.36c-6.26,5.34-12.61,10.59-19.01,15.76c-2.57,2.08-2.61,5.26-3.81,7.93
		c-0.13,0.28,0.69,1.35,1.21,1.49c1.59,0.43,3.24,0.76,4.88,0.81c16.87,0.55,32.63-3.79,47.56-11.32c4.69-2.37,9.2-3.52,14.58-2.64
		c2.94,0.48,6.25-1.07,9.34-1.9c0.63-0.17,1.29-1.1,1.49-1.8c0.6-2.07,1.37-4.2,1.37-6.31c0-9.8-0.11-19.6-0.46-29.39
		c-0.11-3.02-1.11-6.01-1.75-9.29c-2.91,0.4-5.73,0.6-8.45,1.2c-4.38,0.96-8.39,0.34-11.62-2.74c-1.39-1.32-2.57-3.33-2.92-5.2
		c-2.02-10.63-3.68-21.42-8.34-31.24c-4.02-8.45-6.99-17.21-9.91-26.02c-1.54-4.62-2.36-9.48-3.82-14.13
		c-1.31-4.15-3.06-8.17-4.62-12.24c-0.35,0.02-0.69,0.04-1.04,0.06c-0.94,7.73-2.07,15.44-2.76,23.19
		c-0.86,9.62-1.86,19.2-4.51,28.53c-0.34,1.19-0.81,2.36-1.34,3.48c-1.12,2.36-3.08,3.41-5.66,3.3c-2.24-0.1-4.48-0.36-6.72-0.39
		c-3.43-0.05-6.49-1.07-9.42-2.84c-3.98-2.41-7.53-1.3-9.29,3.02c-2.94,7.23-7.72,12.05-15.73,13.3c-1.93,0.3-3.74,1.35-5.63,1.98
		c-1.25,0.42-2.68,1.57-3.69-0.32c-0.92-1.73,0.03-4.64,1.79-5.39c1.75-0.75,3.56-1.54,5.42-1.84c6.18-1,10.04-4.74,12.78-10.06
		c0.75-1.46,1.69-2.91,2.85-4.05c4-3.91,8.31-4.23,15.03-1.43c2.05,0.86,4.15,1.6,6.21,2.45c4.36,1.78,6.95-0.85,8.14-4.54
		c1.08-3.37,1.85-6.99,1.89-10.51c0.15-15.01,3.42-29.55,6.73-44.02c1.23-5.39,1.55-10.53,1.39-15.92
		c-0.15-4.97,0.47-9.96,0.5-14.94c0.04-5.87-0.2-11.74-0.31-17.62C190.24,0,195.23,0,200.23,0z"/>
</g>
</svg>
