<?xml version="1.0" encoding="utf-8"?>
<!-- Generator: Adobe Illustrator 27.2.0, SVG Export Plug-In . SVG Version: 6.00 Build 0)  -->
<svg version="1.1" id="Layer_0_xA0_Image_00000005258780487207639550000008473301633422354319_"
	 xmlns="http://www.w3.org/2000/svg" xmlns:xlink="http://www.w3.org/1999/xlink" x="0px" y="0px" viewBox="0 0 1285 630"
	 style="enable-background:new 0 0 1285 630;" xml:space="preserve">
<g>
	<path d="M601.18,340.87c3.45,0.24,6.6,0.36,9.72,0.7c5.96,0.65,11.99,1.17,16.83,5.35c8.52,7.36,14.63,16.5,19.5,26.53
		c1.27,2.62,2.46,5.27,3.81,7.85c3.83,7.28,7.56,14.62,11.64,21.76c3.03,5.31,12.25,9.98,19.33,6.03
		c5.36-2.99,10.48-6.2,14.37-10.98c2.4-2.95,4.83-6.01,6.46-9.4c2.08-4.34,5.62-7.12,8.92-10.23c1.21-1.14,2.64-2.04,3.78-3.24
		c6.44-6.76,15.26-9.31,23.34-13.08c12.84-5.98,26.46-9.26,40.52-10.96c6.97-0.85,13.91-2.06,20.81-3.43
		c3.95-0.78,6.57,1.18,9.09,3.49c0.96,0.88,0.8,2.2-0.75,2.7c-2.21,0.71-4.45,1.35-6.68,2.02c-6.13,1.83-12.17,4.14-18.43,5.37
		c-12.52,2.46-23.92,8.04-35.8,12.25c-2.81,1-5.35,3.02-7.72,4.93c-5.36,4.32-10.89,8.54-15.67,13.46
		c-2.98,3.06-4.72,7.33-7.03,11.04c-0.52,0.84-1.05,1.7-1.68,2.45c-3.09,3.65-6.12,7.37-9.37,10.88c-4.1,4.44-7.9,9.42-12.77,12.81
		c-3.27,2.27-8.14,2.51-12.38,3.06c-5.94,0.77-11.48-1.57-17-3.31c-1.78-0.56-3.45-2.09-4.71-3.56
		c-6.22-7.29-12.03-14.87-15.98-23.7c-2.95-6.6-6.24-13.07-8.88-19.79c-1.99-5.08-3.09-10.5-4.78-15.71
		c-1.16-3.58-2.68-6.94-6.7-8.45c-2.32-0.87-4.39-2.38-6.66-3.38c-0.99-0.44-2.23-0.47-3.35-0.43c-1.66,0.05-3.33,0.61-4.95,0.46
		c-4.43-0.4-8.36,0.81-12.46,2.39c-3.04,1.17-6.7,0.74-10.09,1c-0.83,0.06-1.68,0.11-2.5,0c-4.81-0.64-7.5,2.04-10.28,5.57
		c-3.42,4.35-7.4,8.34-11.6,11.95c-2.26,1.94-5.33,2.55-8.61,0.98c-3.87-1.86-8.05-3.07-12.06-4.66c-0.93-0.37-1.68-1.17-2.51-1.77
		c0.63-0.71,1.19-1.51,1.91-2.12c7.07-6,14.16-11.97,21.27-17.93c4.02-3.37,8.25-6.49,12.07-10.07
		c6.97-6.52,13.73-13.26,20.52-19.97c5.98-5.9,12.05-11.71,17.76-17.86c6.62-7.12,13.15-14.36,19.25-21.93
		c6.41-7.96,12.21-16.41,18.39-24.55c4.12-5.42,8.66-10.53,12.63-16.05c3.53-4.92,6.53-10.22,9.76-15.36
		c0.25-0.4,0.43-0.86,0.7-1.42c-6.98-1.06-13.76-2.11-20.55-3.11c-4.93-0.72-9.9-1.22-14.8-2.09c-7.31-1.3-14.01,0.96-20.72,3.22
		c-10.09,3.39-20.02,7.28-30.21,10.31c-15.49,4.6-31.39,5.42-47.47,4.21c-8.7-0.65-17.44-0.8-26.16-1.16
		c-4.24-0.17-8.48-0.31-12.73-0.46c-0.58-0.02-1.29-0.23-1.73,0.02c-3.11,1.74-3.15-0.78-3.7-2.58c-0.86-2.86-1.75-5.71-2.49-8.6
		c-0.27-1.03-0.14-2.16-0.19-3.15c8.76,0.82,17.07,1.69,25.4,2.37c10.85,0.88,21.7,2.06,32.56,2.27
		c10.69,0.21,21.21-1.59,30.97-6.16c-4.51-5-9.4-9.8-13.55-15.18c-4.09-5.3-9.44-7.58-15.61-9.3
		c-29.41-8.22-58.76-16.67-88.12-25.09c-8.72-2.5-17.38-5.18-26.09-7.68c-1.88-0.54-2.65-1.53-2.39-3.4
		c0.28-1.98,1.84-1.62,3.1-1.57c1.15,0.05,2.32,0.26,3.43,0.57c9.76,2.72,19.47,5.62,29.26,8.19c8.6,2.26,17.31,4.1,25.94,6.28
		c5.24,1.32,10.39,2.96,15.6,4.39c10.34,2.85,20.7,5.6,31.02,8.49c6.24,1.75,12.52,3.46,18.59,5.7c2.25,0.83,4.17,2.94,5.86,4.81
		c5.14,5.67,10.1,11.5,15.13,17.26c0.25,0.29,0.56,0.54,1.14,0.6c-0.71-1.27-1.36-2.57-2.14-3.79c-2.53-3.96-4.08-8.2-3.65-12.96
		c0.77-8.53,1.55-17.06,2.42-25.58c0.34-3.31,0.96-6.58,1.43-9.87c0.82-5.65-0.83-10.88-2.81-16.04c-1.6-4.19-3.25-8.36-4.86-12.54
		c-0.18-0.46-0.27-0.96-0.39-1.44c-0.52-2.01-0.18-4.02,1.94-4.42c1.01-0.19,2.85,1.17,3.45,2.3c1.48,2.77,2.62,5.75,3.61,8.74
		c1.2,3.62,2.2,7.32,3.1,11.03c1.86,7.65,1.23,15.35,0.37,23.07c-0.88,7.93-1.7,15.88-2.26,23.84c-0.33,4.76,1.5,9.16,3.45,13.41
		c1.11,2.42,2.55,4.67,3.79,7.03c0.54,1.02,1.08,1.54,2.33,0.95c6.61-3.14,13.29-6.14,19.86-9.37c1.6-0.79,3-2.13,4.22-3.47
		c1.27-1.4,2.62-1.65,4.42-1.58c5.32,0.21,10.66,0.43,15.98,0.2c5.7-0.25,11.05,1.06,16.42,2.63c7.51,2.19,15.08,4.17,22.55,6.49
		c6.27,1.94,12.48,0.66,18.55-0.39c17.45-3.02,34.82-6.51,52.23-9.81c1.14-0.22,2.3-0.47,3.46-0.47c8.45-0.02,16.3-2.98,24.4-4.79
		c8.03-1.79,16.13-3.3,24.18-5c2.35-0.5,4.65-1.24,6.97-1.87c1.59-0.43,2.51,0.16,2.97,1.75c1.17,4.06,2.49,8.08,3.52,12.17
		c0.17,0.66-0.81,2.33-1.29,2.34c-9.64,0.3-17.96,5.38-27.1,7.35c-16.41,3.53-32.88,6.83-49.38,9.92
		c-8.49,1.59-17.08,3.14-25.68,3.51c-6.33,0.27-9.47,3.96-12.89,8.05c-7.26,8.66-14.44,17.39-21.89,25.88
		c-6.85,7.8-14.12,15.24-21.02,22.99c-6.68,7.51-13.08,15.27-19.69,22.84c-6.5,7.44-13.02,14.86-19.7,22.14
		c-3.93,4.29-8.18,8.28-12.28,12.42C601.9,339.7,601.69,340.14,601.18,340.87z"/>
</g>
</svg>
